<?xml version="1.0" encoding="utf-8" standalone="no"?>
<!DOCTYPE svg PUBLIC "-//W3C//DTD SVG 1.1//EN"
  "http://www.w3.org/Graphics/SVG/1.1/DTD/svg11.dtd">
<!-- Created with matplotlib (https://matplotlib.org/) -->
<svg height="345.6pt" version="1.1" viewBox="0 0 460.8 345.6" width="460.8pt" xmlns="http://www.w3.org/2000/svg" xmlns:xlink="http://www.w3.org/1999/xlink">
 <metadata>
  <rdf:RDF xmlns:cc="http://creativecommons.org/ns#" xmlns:dc="http://purl.org/dc/elements/1.1/" xmlns:rdf="http://www.w3.org/1999/02/22-rdf-syntax-ns#">
   <cc:Work>
    <dc:type rdf:resource="http://purl.org/dc/dcmitype/StillImage"/>
    <dc:date>2021-03-15T17:13:30.147468</dc:date>
    <dc:format>image/svg+xml</dc:format>
    <dc:creator>
     <cc:Agent>
      <dc:title>Matplotlib v3.3.4, https://matplotlib.org/</dc:title>
     </cc:Agent>
    </dc:creator>
   </cc:Work>
  </rdf:RDF>
 </metadata>
 <defs>
  <style type="text/css">*{stroke-linecap:butt;stroke-linejoin:round;}</style>
 </defs>
 <g id="figure_1">
  <g id="patch_1">
   <path d="M 0 345.6 
L 460.8 345.6 
L 460.8 0 
L 0 0 
z
" style="fill:#ffffff;"/>
  </g>
  <g id="axes_1">
   <g id="patch_2">
    <path d="M 57.6 307.584 
L 414.72 307.584 
L 414.72 41.472 
L 57.6 41.472 
z
" style="fill:#ffffff;"/>
   </g>
   <g id="matplotlib.axis_1">
    <g id="xtick_1">
     <g id="line2d_1">
      <defs>
       <path d="M 0 0 
L 0 3.5 
" id="m09a858d010" style="stroke:#000000;stroke-width:0.8;"/>
      </defs>
      <g>
       <use style="stroke:#000000;stroke-width:0.8;" x="73.507748" xlink:href="#m09a858d010" y="307.584"/>
      </g>
     </g>
     <g id="text_1">
      <!-- 0 -->
      <g transform="translate(70.326498 322.182437)scale(0.1 -0.1)">
       <defs>
        <path d="M 31.78125 66.40625 
Q 24.171875 66.40625 20.328125 58.90625 
Q 16.5 51.421875 16.5 36.375 
Q 16.5 21.390625 20.328125 13.890625 
Q 24.171875 6.390625 31.78125 6.390625 
Q 39.453125 6.390625 43.28125 13.890625 
Q 47.125 21.390625 47.125 36.375 
Q 47.125 51.421875 43.28125 58.90625 
Q 39.453125 66.40625 31.78125 66.40625 
z
M 31.78125 74.21875 
Q 44.046875 74.21875 50.515625 64.515625 
Q 56.984375 54.828125 56.984375 36.375 
Q 56.984375 17.96875 50.515625 8.265625 
Q 44.046875 -1.421875 31.78125 -1.421875 
Q 19.53125 -1.421875 13.0625 8.265625 
Q 6.59375 17.96875 6.59375 36.375 
Q 6.59375 54.828125 13.0625 64.515625 
Q 19.53125 74.21875 31.78125 74.21875 
z
" id="DejaVuSans-48"/>
       </defs>
       <use xlink:href="#DejaVuSans-48"/>
      </g>
     </g>
    </g>
    <g id="xtick_2">
     <g id="line2d_2">
      <g>
       <use style="stroke:#000000;stroke-width:0.8;" x="138.503653" xlink:href="#m09a858d010" y="307.584"/>
      </g>
     </g>
     <g id="text_2">
      <!-- 200 -->
      <g transform="translate(128.959903 322.182437)scale(0.1 -0.1)">
       <defs>
        <path d="M 19.1875 8.296875 
L 53.609375 8.296875 
L 53.609375 0 
L 7.328125 0 
L 7.328125 8.296875 
Q 12.9375 14.109375 22.625 23.890625 
Q 32.328125 33.6875 34.8125 36.53125 
Q 39.546875 41.84375 41.421875 45.53125 
Q 43.3125 49.21875 43.3125 52.78125 
Q 43.3125 58.59375 39.234375 62.25 
Q 35.15625 65.921875 28.609375 65.921875 
Q 23.96875 65.921875 18.8125 64.3125 
Q 13.671875 62.703125 7.8125 59.421875 
L 7.8125 69.390625 
Q 13.765625 71.78125 18.9375 73 
Q 24.125 74.21875 28.421875 74.21875 
Q 39.75 74.21875 46.484375 68.546875 
Q 53.21875 62.890625 53.21875 53.421875 
Q 53.21875 48.921875 51.53125 44.890625 
Q 49.859375 40.875 45.40625 35.40625 
Q 44.1875 33.984375 37.640625 27.21875 
Q 31.109375 20.453125 19.1875 8.296875 
z
" id="DejaVuSans-50"/>
       </defs>
       <use xlink:href="#DejaVuSans-50"/>
       <use x="63.623047" xlink:href="#DejaVuSans-48"/>
       <use x="127.246094" xlink:href="#DejaVuSans-48"/>
      </g>
     </g>
    </g>
    <g id="xtick_3">
     <g id="line2d_3">
      <g>
       <use style="stroke:#000000;stroke-width:0.8;" x="203.499558" xlink:href="#m09a858d010" y="307.584"/>
      </g>
     </g>
     <g id="text_3">
      <!-- 400 -->
      <g transform="translate(193.955808 322.182437)scale(0.1 -0.1)">
       <defs>
        <path d="M 37.796875 64.3125 
L 12.890625 25.390625 
L 37.796875 25.390625 
z
M 35.203125 72.90625 
L 47.609375 72.90625 
L 47.609375 25.390625 
L 58.015625 25.390625 
L 58.015625 17.1875 
L 47.609375 17.1875 
L 47.609375 0 
L 37.796875 0 
L 37.796875 17.1875 
L 4.890625 17.1875 
L 4.890625 26.703125 
z
" id="DejaVuSans-52"/>
       </defs>
       <use xlink:href="#DejaVuSans-52"/>
       <use x="63.623047" xlink:href="#DejaVuSans-48"/>
       <use x="127.246094" xlink:href="#DejaVuSans-48"/>
      </g>
     </g>
    </g>
    <g id="xtick_4">
     <g id="line2d_4">
      <g>
       <use style="stroke:#000000;stroke-width:0.8;" x="268.495463" xlink:href="#m09a858d010" y="307.584"/>
      </g>
     </g>
     <g id="text_4">
      <!-- 600 -->
      <g transform="translate(258.951713 322.182437)scale(0.1 -0.1)">
       <defs>
        <path d="M 33.015625 40.375 
Q 26.375 40.375 22.484375 35.828125 
Q 18.609375 31.296875 18.609375 23.390625 
Q 18.609375 15.53125 22.484375 10.953125 
Q 26.375 6.390625 33.015625 6.390625 
Q 39.65625 6.390625 43.53125 10.953125 
Q 47.40625 15.53125 47.40625 23.390625 
Q 47.40625 31.296875 43.53125 35.828125 
Q 39.65625 40.375 33.015625 40.375 
z
M 52.59375 71.296875 
L 52.59375 62.3125 
Q 48.875 64.0625 45.09375 64.984375 
Q 41.3125 65.921875 37.59375 65.921875 
Q 27.828125 65.921875 22.671875 59.328125 
Q 17.53125 52.734375 16.796875 39.40625 
Q 19.671875 43.65625 24.015625 45.921875 
Q 28.375 48.1875 33.59375 48.1875 
Q 44.578125 48.1875 50.953125 41.515625 
Q 57.328125 34.859375 57.328125 23.390625 
Q 57.328125 12.15625 50.6875 5.359375 
Q 44.046875 -1.421875 33.015625 -1.421875 
Q 20.359375 -1.421875 13.671875 8.265625 
Q 6.984375 17.96875 6.984375 36.375 
Q 6.984375 53.65625 15.1875 63.9375 
Q 23.390625 74.21875 37.203125 74.21875 
Q 40.921875 74.21875 44.703125 73.484375 
Q 48.484375 72.75 52.59375 71.296875 
z
" id="DejaVuSans-54"/>
       </defs>
       <use xlink:href="#DejaVuSans-54"/>
       <use x="63.623047" xlink:href="#DejaVuSans-48"/>
       <use x="127.246094" xlink:href="#DejaVuSans-48"/>
      </g>
     </g>
    </g>
    <g id="xtick_5">
     <g id="line2d_5">
      <g>
       <use style="stroke:#000000;stroke-width:0.8;" x="333.491368" xlink:href="#m09a858d010" y="307.584"/>
      </g>
     </g>
     <g id="text_5">
      <!-- 800 -->
      <g transform="translate(323.947618 322.182437)scale(0.1 -0.1)">
       <defs>
        <path d="M 31.78125 34.625 
Q 24.75 34.625 20.71875 30.859375 
Q 16.703125 27.09375 16.703125 20.515625 
Q 16.703125 13.921875 20.71875 10.15625 
Q 24.75 6.390625 31.78125 6.390625 
Q 38.8125 6.390625 42.859375 10.171875 
Q 46.921875 13.96875 46.921875 20.515625 
Q 46.921875 27.09375 42.890625 30.859375 
Q 38.875 34.625 31.78125 34.625 
z
M 21.921875 38.8125 
Q 15.578125 40.375 12.03125 44.71875 
Q 8.5 49.078125 8.5 55.328125 
Q 8.5 64.0625 14.71875 69.140625 
Q 20.953125 74.21875 31.78125 74.21875 
Q 42.671875 74.21875 48.875 69.140625 
Q 55.078125 64.0625 55.078125 55.328125 
Q 55.078125 49.078125 51.53125 44.71875 
Q 48 40.375 41.703125 38.8125 
Q 48.828125 37.15625 52.796875 32.3125 
Q 56.78125 27.484375 56.78125 20.515625 
Q 56.78125 9.90625 50.3125 4.234375 
Q 43.84375 -1.421875 31.78125 -1.421875 
Q 19.734375 -1.421875 13.25 4.234375 
Q 6.78125 9.90625 6.78125 20.515625 
Q 6.78125 27.484375 10.78125 32.3125 
Q 14.796875 37.15625 21.921875 38.8125 
z
M 18.3125 54.390625 
Q 18.3125 48.734375 21.84375 45.5625 
Q 25.390625 42.390625 31.78125 42.390625 
Q 38.140625 42.390625 41.71875 45.5625 
Q 45.3125 48.734375 45.3125 54.390625 
Q 45.3125 60.0625 41.71875 63.234375 
Q 38.140625 66.40625 31.78125 66.40625 
Q 25.390625 66.40625 21.84375 63.234375 
Q 18.3125 60.0625 18.3125 54.390625 
z
" id="DejaVuSans-56"/>
       </defs>
       <use xlink:href="#DejaVuSans-56"/>
       <use x="63.623047" xlink:href="#DejaVuSans-48"/>
       <use x="127.246094" xlink:href="#DejaVuSans-48"/>
      </g>
     </g>
    </g>
    <g id="xtick_6">
     <g id="line2d_6">
      <g>
       <use style="stroke:#000000;stroke-width:0.8;" x="398.487273" xlink:href="#m09a858d010" y="307.584"/>
      </g>
     </g>
     <g id="text_6">
      <!-- 1000 -->
      <g transform="translate(385.762273 322.182437)scale(0.1 -0.1)">
       <defs>
        <path d="M 12.40625 8.296875 
L 28.515625 8.296875 
L 28.515625 63.921875 
L 10.984375 60.40625 
L 10.984375 69.390625 
L 28.421875 72.90625 
L 38.28125 72.90625 
L 38.28125 8.296875 
L 54.390625 8.296875 
L 54.390625 0 
L 12.40625 0 
z
" id="DejaVuSans-49"/>
       </defs>
       <use xlink:href="#DejaVuSans-49"/>
       <use x="63.623047" xlink:href="#DejaVuSans-48"/>
       <use x="127.246094" xlink:href="#DejaVuSans-48"/>
       <use x="190.869141" xlink:href="#DejaVuSans-48"/>
      </g>
     </g>
    </g>
   </g>
   <g id="matplotlib.axis_2">
    <g id="ytick_1">
     <g id="line2d_7">
      <defs>
       <path d="M 0 0 
L -3.5 0 
" id="m6eadcaa2f1" style="stroke:#000000;stroke-width:0.8;"/>
      </defs>
      <g>
       <use style="stroke:#000000;stroke-width:0.8;" x="57.6" xlink:href="#m6eadcaa2f1" y="295.488"/>
      </g>
     </g>
     <g id="text_7">
      <!-- 0.0 -->
      <g transform="translate(34.696875 299.287219)scale(0.1 -0.1)">
       <defs>
        <path d="M 10.6875 12.40625 
L 21 12.40625 
L 21 0 
L 10.6875 0 
z
" id="DejaVuSans-46"/>
       </defs>
       <use xlink:href="#DejaVuSans-48"/>
       <use x="63.623047" xlink:href="#DejaVuSans-46"/>
       <use x="95.410156" xlink:href="#DejaVuSans-48"/>
      </g>
     </g>
    </g>
    <g id="ytick_2">
     <g id="line2d_8">
      <g>
       <use style="stroke:#000000;stroke-width:0.8;" x="57.6" xlink:href="#m6eadcaa2f1" y="247.104"/>
      </g>
     </g>
     <g id="text_8">
      <!-- 0.2 -->
      <g transform="translate(34.696875 250.903219)scale(0.1 -0.1)">
       <use xlink:href="#DejaVuSans-48"/>
       <use x="63.623047" xlink:href="#DejaVuSans-46"/>
       <use x="95.410156" xlink:href="#DejaVuSans-50"/>
      </g>
     </g>
    </g>
    <g id="ytick_3">
     <g id="line2d_9">
      <g>
       <use style="stroke:#000000;stroke-width:0.8;" x="57.6" xlink:href="#m6eadcaa2f1" y="198.72"/>
      </g>
     </g>
     <g id="text_9">
      <!-- 0.4 -->
      <g transform="translate(34.696875 202.519219)scale(0.1 -0.1)">
       <use xlink:href="#DejaVuSans-48"/>
       <use x="63.623047" xlink:href="#DejaVuSans-46"/>
       <use x="95.410156" xlink:href="#DejaVuSans-52"/>
      </g>
     </g>
    </g>
    <g id="ytick_4">
     <g id="line2d_10">
      <g>
       <use style="stroke:#000000;stroke-width:0.8;" x="57.6" xlink:href="#m6eadcaa2f1" y="150.336"/>
      </g>
     </g>
     <g id="text_10">
      <!-- 0.6 -->
      <g transform="translate(34.696875 154.135219)scale(0.1 -0.1)">
       <use xlink:href="#DejaVuSans-48"/>
       <use x="63.623047" xlink:href="#DejaVuSans-46"/>
       <use x="95.410156" xlink:href="#DejaVuSans-54"/>
      </g>
     </g>
    </g>
    <g id="ytick_5">
     <g id="line2d_11">
      <g>
       <use style="stroke:#000000;stroke-width:0.8;" x="57.6" xlink:href="#m6eadcaa2f1" y="101.952"/>
      </g>
     </g>
     <g id="text_11">
      <!-- 0.8 -->
      <g transform="translate(34.696875 105.751219)scale(0.1 -0.1)">
       <use xlink:href="#DejaVuSans-48"/>
       <use x="63.623047" xlink:href="#DejaVuSans-46"/>
       <use x="95.410156" xlink:href="#DejaVuSans-56"/>
      </g>
     </g>
    </g>
    <g id="ytick_6">
     <g id="line2d_12">
      <g>
       <use style="stroke:#000000;stroke-width:0.8;" x="57.6" xlink:href="#m6eadcaa2f1" y="53.568"/>
      </g>
     </g>
     <g id="text_12">
      <!-- 1.0 -->
      <g transform="translate(34.696875 57.367219)scale(0.1 -0.1)">
       <use xlink:href="#DejaVuSans-49"/>
       <use x="63.623047" xlink:href="#DejaVuSans-46"/>
       <use x="95.410156" xlink:href="#DejaVuSans-48"/>
      </g>
     </g>
    </g>
   </g>
   <g id="line2d_13">
    <path clip-path="url(#pf77b26a960)" d="M 73.832727 59.164316 
L 75.132645 79.331351 
L 76.432563 96.366936 
L 77.732482 110.757308 
L 79.0324 122.913205 
L 80.332318 133.181586 
L 81.632236 141.855538 
L 82.932154 149.182635 
L 84.232072 155.372012 
L 85.53199 160.60033 
L 86.831908 165.016816 
L 88.131826 168.74753 
L 89.431744 171.898954 
L 90.731663 174.561039 
L 92.031581 176.809767 
L 93.656478 179.136202 
L 95.281376 181.020218 
L 96.906274 182.54595 
L 98.531171 183.781534 
L 100.481048 184.958165 
L 102.430925 185.871674 
L 104.705782 186.682616 
L 107.305618 187.358784 
L 110.230434 187.89092 
L 113.805209 188.318723 
L 118.679902 188.658426 
L 122.254676 188.80128 
L 122.579656 189.0432 
L 284.744439 189.0432 
L 286.694316 199.590316 
L 288.644193 209.092368 
L 290.59407 217.652906 
L 292.543948 225.36522 
L 294.818804 233.402516 
L 297.093661 240.518597 
L 299.368518 246.819052 
L 301.643374 252.397363 
L 303.918231 257.336303 
L 306.193088 261.709154 
L 308.467944 265.5808 
L 310.742801 269.008688 
L 313.017658 272.04368 
L 315.292514 274.730809 
L 317.567371 277.109945 
L 320.167207 279.496921 
L 322.767043 281.573872 
L 325.36688 283.381065 
L 328.291695 285.135155 
L 331.216511 286.635107 
L 334.466306 288.048256 
L 338.041081 289.34362 
L 341.940835 290.500931 
L 346.165569 291.510044 
L 350.715283 292.369671 
L 355.914955 293.127096 
L 362.089566 293.791411 
L 369.239115 294.330778 
L 378.013563 294.764409 
L 389.387846 295.094316 
L 398.487273 295.24608 
L 398.487273 295.24608 
" style="fill:none;stroke:#1f77b4;stroke-linecap:square;stroke-width:1.5;"/>
   </g>
   <g id="line2d_14">
    <path clip-path="url(#pf77b26a960)" d="M 73.832727 186.624 
L 74.157707 162.432 
L 74.482686 189.0432 
L 74.807666 155.1744 
L 75.132645 191.4624 
L 75.457625 157.5936 
L 75.782604 167.2704 
L 76.107584 189.0432 
L 76.432563 172.1088 
L 77.082523 218.0736 
L 77.407502 172.1088 
L 77.732482 176.9472 
L 78.057461 176.9472 
L 78.382441 198.72 
L 79.0324 179.3664 
L 79.357379 208.3968 
L 80.332318 160.0128 
L 80.657297 198.72 
L 80.982277 189.0432 
L 81.307256 189.0432 
L 81.632236 196.3008 
L 81.957215 184.2048 
L 82.282195 189.0432 
L 82.607174 203.5584 
L 82.932154 193.8816 
L 83.257133 193.8816 
L 83.582113 167.2704 
L 83.907093 201.1392 
L 84.232072 205.9776 
L 84.557052 215.6544 
L 84.882031 191.4624 
L 85.207011 189.0432 
L 85.53199 201.1392 
L 85.85697 196.3008 
L 86.181949 181.7856 
L 86.506929 196.3008 
L 86.831908 184.2048 
L 87.156888 181.7856 
L 87.481867 174.528 
L 87.806847 181.7856 
L 88.131826 179.3664 
L 88.781785 203.5584 
L 89.106765 198.72 
L 89.431744 213.2352 
L 89.756724 205.9776 
L 90.081704 203.5584 
L 90.406683 198.72 
L 90.731663 215.6544 
L 91.056642 181.7856 
L 91.381622 222.912 
L 91.706601 208.3968 
L 92.031581 213.2352 
L 92.35656 201.1392 
L 93.006519 184.2048 
L 93.331499 210.816 
L 93.656478 193.8816 
L 93.981458 218.0736 
L 94.306437 215.6544 
L 94.631417 203.5584 
L 94.956396 210.816 
L 95.281376 198.72 
L 95.606355 220.4928 
L 95.931335 232.5888 
L 96.256314 222.912 
L 96.581294 220.4928 
L 96.906274 193.8816 
L 97.231253 230.1696 
L 97.556233 244.6848 
L 97.881212 184.2048 
L 98.206192 201.1392 
L 98.531171 227.7504 
L 98.856151 232.5888 
L 99.18113 203.5584 
L 99.50611 220.4928 
L 99.831089 225.3312 
L 100.156069 203.5584 
L 100.481048 201.1392 
L 100.806028 225.3312 
L 101.131007 218.0736 
L 101.455987 205.9776 
L 101.780966 225.3312 
L 102.105946 208.3968 
L 102.430925 222.912 
L 102.755905 205.9776 
L 103.080885 235.008 
L 103.405864 215.6544 
L 103.730844 225.3312 
L 104.055823 218.0736 
L 104.380803 222.912 
L 104.705782 213.2352 
L 105.030762 210.816 
L 105.355741 232.5888 
L 105.680721 227.7504 
L 106.33068 232.5888 
L 106.655659 215.6544 
L 106.980639 232.5888 
L 107.305618 220.4928 
L 107.630598 222.912 
L 107.955577 227.7504 
L 108.280557 215.6544 
L 108.605536 218.0736 
L 109.255495 239.8464 
L 109.580475 239.8464 
L 109.905455 210.816 
L 110.230434 227.7504 
L 110.555414 232.5888 
L 110.880393 251.9424 
L 111.205373 218.0736 
L 111.530352 222.912 
L 111.855332 208.3968 
L 112.180311 237.4272 
L 112.505291 220.4928 
L 112.83027 237.4272 
L 113.15525 244.6848 
L 113.480229 220.4928 
L 113.805209 220.4928 
L 114.130188 232.5888 
L 114.780147 237.4272 
L 115.105127 235.008 
L 115.430106 222.912 
L 115.755086 222.912 
L 116.080066 239.8464 
L 116.405045 239.8464 
L 117.055004 227.7504 
L 117.379984 196.3008 
L 117.704963 218.0736 
L 118.029943 249.5232 
L 118.354922 254.3616 
L 119.004881 235.008 
L 119.329861 232.5888 
L 119.65484 239.8464 
L 119.97982 215.6544 
L 120.629779 266.4576 
L 120.954758 256.7808 
L 121.279738 232.5888 
L 121.604717 242.2656 
L 121.929697 239.8464 
L 122.254676 242.2656 
L 122.579656 237.4272 
L 122.904636 242.2656 
L 123.229615 242.2656 
L 123.554595 235.008 
L 123.879574 239.8464 
L 124.204554 254.3616 
L 124.529533 251.9424 
L 124.854513 244.6848 
L 125.179492 249.5232 
L 125.504472 249.5232 
L 126.154431 239.8464 
L 126.47941 232.5888 
L 126.80439 249.5232 
L 127.129369 242.2656 
L 127.454349 227.7504 
L 127.779328 254.3616 
L 128.104308 227.7504 
L 128.429287 242.2656 
L 128.754267 264.0384 
L 129.079247 235.008 
L 129.404226 251.9424 
L 129.729206 235.008 
L 130.054185 247.104 
L 130.379165 251.9424 
L 130.704144 251.9424 
L 131.029124 256.7808 
L 131.354103 247.104 
L 131.679083 249.5232 
L 132.004062 268.8768 
L 132.329042 242.2656 
L 132.654021 247.104 
L 132.979001 256.7808 
L 133.30398 237.4272 
L 133.953939 261.6192 
L 134.603898 242.2656 
L 134.928878 249.5232 
L 135.253857 242.2656 
L 135.578837 242.2656 
L 135.903817 259.2 
L 136.228796 259.2 
L 136.553776 235.008 
L 136.878755 249.5232 
L 137.203735 251.9424 
L 137.528714 239.8464 
L 137.853694 264.0384 
L 138.178673 242.2656 
L 138.503653 247.104 
L 139.153612 268.8768 
L 139.478591 249.5232 
L 139.803571 249.5232 
L 140.12855 247.104 
L 140.45353 261.6192 
L 140.778509 244.6848 
L 141.103489 256.7808 
L 141.428468 259.2 
L 141.753448 242.2656 
L 142.078428 254.3616 
L 142.403407 256.7808 
L 142.728387 235.008 
L 143.053366 256.7808 
L 143.378346 264.0384 
L 143.703325 239.8464 
L 144.353284 268.8768 
L 144.678264 242.2656 
L 145.003243 264.0384 
L 145.328223 264.0384 
L 145.653202 247.104 
L 145.978182 249.5232 
L 146.303161 247.104 
L 146.628141 256.7808 
L 146.95312 239.8464 
L 147.2781 266.4576 
L 147.603079 251.9424 
L 147.928059 264.0384 
L 148.253038 256.7808 
L 148.578018 273.7152 
L 148.902998 254.3616 
L 149.227977 256.7808 
L 149.552957 249.5232 
L 149.877936 264.0384 
L 150.527895 247.104 
L 150.852875 259.2 
L 151.177854 259.2 
L 151.502834 254.3616 
L 151.827813 251.9424 
L 152.152793 261.6192 
L 152.477772 256.7808 
L 152.802752 249.5232 
L 153.452711 266.4576 
L 153.77769 259.2 
L 154.10267 259.2 
L 154.427649 254.3616 
L 154.752629 276.1344 
L 155.077609 244.6848 
L 155.402588 261.6192 
L 155.727568 266.4576 
L 156.052547 273.7152 
L 156.377527 271.296 
L 156.702506 264.0384 
L 157.027486 249.5232 
L 158.327404 276.1344 
L 158.977363 266.4576 
L 159.302342 266.4576 
L 159.627322 280.9728 
L 159.952301 266.4576 
L 160.277281 276.1344 
L 160.60226 273.7152 
L 160.92724 264.0384 
L 161.252219 261.6192 
L 161.577199 268.8768 
L 161.902179 268.8768 
L 162.227158 259.2 
L 162.552138 268.8768 
L 162.877117 251.9424 
L 163.202097 268.8768 
L 163.527076 268.8768 
L 164.177035 259.2 
L 164.502015 271.296 
L 164.826994 276.1344 
L 165.476953 261.6192 
L 165.801933 273.7152 
L 166.126912 273.7152 
L 166.451892 247.104 
L 166.776871 278.5536 
L 167.101851 268.8768 
L 167.42683 251.9424 
L 168.07679 273.7152 
L 168.401769 266.4576 
L 168.726749 271.296 
L 169.051728 254.3616 
L 169.376708 276.1344 
L 170.026667 259.2 
L 170.351646 271.296 
L 170.676626 251.9424 
L 171.326585 273.7152 
L 171.651564 271.296 
L 172.301523 280.9728 
L 172.626503 276.1344 
L 172.951482 280.9728 
L 173.276462 278.5536 
L 173.601441 264.0384 
L 173.926421 259.2 
L 174.2514 264.0384 
L 174.90136 259.2 
L 175.226339 261.6192 
L 175.876298 276.1344 
L 176.201278 278.5536 
L 177.176216 271.296 
L 177.501196 271.296 
L 177.826175 276.1344 
L 178.151155 259.2 
L 178.476134 271.296 
L 178.801114 268.8768 
L 179.126093 256.7808 
L 179.451073 266.4576 
L 179.776052 266.4576 
L 180.101032 273.7152 
L 180.426011 268.8768 
L 180.750991 271.296 
L 181.075971 283.392 
L 181.40095 273.7152 
L 181.72593 276.1344 
L 182.050909 280.9728 
L 182.375889 276.1344 
L 182.700868 276.1344 
L 183.025848 268.8768 
L 183.350827 271.296 
L 183.675807 268.8768 
L 184.000786 273.7152 
L 184.325766 280.9728 
L 184.650745 271.296 
L 184.975725 280.9728 
L 185.300704 254.3616 
L 185.625684 276.1344 
L 185.950663 271.296 
L 186.275643 276.1344 
L 186.600622 276.1344 
L 186.925602 266.4576 
L 187.250581 276.1344 
L 187.575561 280.9728 
L 187.900541 271.296 
L 188.22552 285.8112 
L 188.5505 280.9728 
L 188.875479 259.2 
L 189.200459 280.9728 
L 189.525438 268.8768 
L 189.850418 264.0384 
L 190.175397 280.9728 
L 190.500377 280.9728 
L 190.825356 276.1344 
L 191.150336 268.8768 
L 191.475315 283.392 
L 191.800295 268.8768 
L 192.125274 285.8112 
L 192.450254 280.9728 
L 192.775233 283.392 
L 193.100213 273.7152 
L 193.425192 285.8112 
L 193.750172 280.9728 
L 194.075152 278.5536 
L 194.400131 273.7152 
L 194.725111 273.7152 
L 195.05009 264.0384 
L 195.37507 278.5536 
L 195.700049 283.392 
L 196.025029 276.1344 
L 196.350008 259.2 
L 196.674988 285.8112 
L 196.999967 283.392 
L 197.324947 273.7152 
L 197.649926 285.8112 
L 197.974906 283.392 
L 198.299885 288.2304 
L 198.949844 273.7152 
L 199.274824 278.5536 
L 199.599803 280.9728 
L 199.924783 280.9728 
L 200.249762 273.7152 
L 200.574742 280.9728 
L 200.899722 280.9728 
L 201.224701 271.296 
L 201.549681 285.8112 
L 202.19964 280.9728 
L 202.524619 266.4576 
L 203.174578 283.392 
L 203.499558 278.5536 
L 203.824537 278.5536 
L 204.149517 283.392 
L 204.474496 283.392 
L 204.799476 273.7152 
L 205.124455 271.296 
L 205.449435 283.392 
L 205.774414 278.5536 
L 206.099394 290.6496 
L 206.424373 283.392 
L 206.749353 290.6496 
L 207.074333 285.8112 
L 207.399312 278.5536 
L 207.724292 288.2304 
L 208.049271 280.9728 
L 208.374251 280.9728 
L 208.69923 290.6496 
L 209.02421 280.9728 
L 209.349189 288.2304 
L 209.999148 268.8768 
L 210.324128 278.5536 
L 210.649107 276.1344 
L 210.974087 280.9728 
L 211.299066 278.5536 
L 211.624046 283.392 
L 211.949025 283.392 
L 212.598984 293.0688 
L 212.923964 283.392 
L 213.248943 278.5536 
L 213.573923 280.9728 
L 213.898903 278.5536 
L 214.223882 285.8112 
L 214.548862 283.392 
L 214.873841 283.392 
L 215.198821 290.6496 
L 215.5238 280.9728 
L 215.84878 288.2304 
L 216.173759 278.5536 
L 216.498739 288.2304 
L 216.823718 278.5536 
L 217.473677 283.392 
L 217.798657 273.7152 
L 218.123636 280.9728 
L 218.448616 283.392 
L 218.773595 288.2304 
L 219.098575 285.8112 
L 219.423554 290.6496 
L 220.073514 273.7152 
L 220.398493 290.6496 
L 220.723473 276.1344 
L 221.048452 268.8768 
L 221.373432 280.9728 
L 221.698411 280.9728 
L 222.023391 285.8112 
L 222.34837 288.2304 
L 222.67335 280.9728 
L 223.323309 290.6496 
L 223.648288 280.9728 
L 223.973268 280.9728 
L 224.298247 288.2304 
L 224.623227 290.6496 
L 224.948206 283.392 
L 225.598165 283.392 
L 225.923145 280.9728 
L 226.573104 285.8112 
L 226.898084 285.8112 
L 227.223063 288.2304 
L 227.548043 283.392 
L 227.873022 285.8112 
L 228.198002 295.488 
L 228.522981 288.2304 
L 228.847961 285.8112 
L 229.17294 280.9728 
L 229.49792 273.7152 
L 229.822899 290.6496 
L 230.147879 285.8112 
L 230.472858 283.392 
L 230.797838 283.392 
L 231.122817 285.8112 
L 231.447797 285.8112 
L 231.772776 290.6496 
L 232.097756 283.392 
L 232.422735 288.2304 
L 232.747715 283.392 
L 233.072695 290.6496 
L 233.397674 285.8112 
L 233.722654 285.8112 
L 234.047633 290.6496 
L 234.697592 285.8112 
L 235.022572 290.6496 
L 235.347551 290.6496 
L 235.672531 285.8112 
L 235.99751 288.2304 
L 236.32249 288.2304 
L 236.647469 285.8112 
L 236.972449 280.9728 
L 237.297428 290.6496 
L 237.622408 280.9728 
L 237.947387 290.6496 
L 238.272367 285.8112 
L 238.597346 285.8112 
L 239.247305 290.6496 
L 239.572285 288.2304 
L 239.897265 288.2304 
L 240.222244 290.6496 
L 240.547224 290.6496 
L 240.872203 285.8112 
L 241.197183 283.392 
L 241.522162 276.1344 
L 241.847142 290.6496 
L 242.172121 285.8112 
L 242.497101 295.488 
L 242.82208 288.2304 
L 243.14706 290.6496 
L 243.472039 290.6496 
L 243.797019 285.8112 
L 244.121998 295.488 
L 244.446978 285.8112 
L 244.771957 290.6496 
L 245.096937 290.6496 
L 245.421916 288.2304 
L 245.746896 293.0688 
L 246.071876 288.2304 
L 246.396855 293.0688 
L 246.721835 285.8112 
L 247.046814 285.8112 
L 247.371794 283.392 
L 247.696773 278.5536 
L 248.021753 283.392 
L 248.346732 283.392 
L 248.671712 293.0688 
L 248.996691 283.392 
L 249.321671 295.488 
L 249.64665 293.0688 
L 250.296609 293.0688 
L 250.621589 288.2304 
L 250.946568 285.8112 
L 251.271548 290.6496 
L 251.596527 288.2304 
L 251.921507 295.488 
L 252.246486 290.6496 
L 252.571466 283.392 
L 252.896446 290.6496 
L 253.221425 293.0688 
L 253.871384 283.392 
L 254.196364 290.6496 
L 254.521343 288.2304 
L 254.846323 293.0688 
L 255.171302 290.6496 
L 255.496282 295.488 
L 255.821261 285.8112 
L 256.146241 293.0688 
L 256.47122 285.8112 
L 257.121179 290.6496 
L 257.446159 288.2304 
L 257.771138 280.9728 
L 258.096118 288.2304 
L 258.746077 293.0688 
L 259.071057 290.6496 
L 259.396036 295.488 
L 260.370975 288.2304 
L 260.695954 280.9728 
L 261.670893 295.488 
L 261.995872 290.6496 
L 262.320852 293.0688 
L 262.645831 288.2304 
L 262.970811 288.2304 
L 263.62077 293.0688 
L 263.945749 290.6496 
L 264.270729 283.392 
L 264.595708 288.2304 
L 264.920688 290.6496 
L 265.570647 290.6496 
L 265.895627 293.0688 
L 266.220606 290.6496 
L 266.545586 285.8112 
L 266.870565 295.488 
L 267.195545 288.2304 
L 267.520524 288.2304 
L 267.845504 293.0688 
L 268.170483 288.2304 
L 268.495463 288.2304 
L 268.820442 290.6496 
L 269.145422 285.8112 
L 269.470401 285.8112 
L 269.795381 283.392 
L 270.12036 293.0688 
L 270.44534 293.0688 
L 270.770319 278.5536 
L 271.095299 295.488 
L 271.420278 280.9728 
L 271.745258 290.6496 
L 272.070238 295.488 
L 272.395217 283.392 
L 272.720197 285.8112 
L 273.045176 278.5536 
L 273.370156 293.0688 
L 273.695135 285.8112 
L 274.020115 285.8112 
L 274.345094 290.6496 
L 274.670074 288.2304 
L 274.995053 283.392 
L 275.320033 290.6496 
L 275.969992 285.8112 
L 276.294971 293.0688 
L 276.619951 295.488 
L 276.94493 290.6496 
L 277.26991 290.6496 
L 277.594889 285.8112 
L 277.919869 290.6496 
L 278.244848 290.6496 
L 278.569828 295.488 
L 278.894808 288.2304 
L 279.219787 295.488 
L 279.544767 285.8112 
L 280.194726 295.488 
L 280.519705 288.2304 
L 280.844685 290.6496 
L 281.169664 283.392 
L 281.494644 285.8112 
L 281.819623 295.488 
L 282.144603 295.488 
L 282.469582 290.6496 
L 282.794562 288.2304 
L 283.119541 293.0688 
L 283.444521 293.0688 
L 283.7695 290.6496 
L 284.09448 295.488 
L 284.419459 288.2304 
L 284.744439 290.6496 
L 285.069419 295.488 
L 285.719378 290.6496 
L 286.044357 295.488 
L 286.369337 293.0688 
L 286.694316 295.488 
L 287.669255 288.2304 
L 287.994234 293.0688 
L 288.319214 290.6496 
L 288.644193 293.0688 
L 288.969173 290.6496 
L 289.944111 290.6496 
L 290.269091 293.0688 
L 290.91905 293.0688 
L 291.244029 290.6496 
L 291.569009 295.488 
L 291.893989 295.488 
L 292.218968 290.6496 
L 292.868927 290.6496 
L 293.193907 293.0688 
L 293.518886 283.392 
L 293.843866 295.488 
L 294.168845 295.488 
L 294.493825 293.0688 
L 294.818804 295.488 
L 295.468763 290.6496 
L 295.793743 290.6496 
L 296.118722 293.0688 
L 297.093661 293.0688 
L 297.41864 295.488 
L 297.74362 293.0688 
L 298.393579 293.0688 
L 298.718559 295.488 
L 299.043538 295.488 
L 299.693497 290.6496 
L 300.018477 290.6496 
L 300.343456 295.488 
L 300.668436 290.6496 
L 300.993415 295.488 
L 301.318395 293.0688 
L 301.643374 293.0688 
L 301.968354 295.488 
L 302.293333 285.8112 
L 302.943292 295.488 
L 303.268272 288.2304 
L 303.593251 293.0688 
L 303.918231 293.0688 
L 304.24321 295.488 
L 304.56819 295.488 
L 304.89317 293.0688 
L 305.218149 295.488 
L 305.543129 283.392 
L 305.868108 290.6496 
L 306.193088 290.6496 
L 306.518067 293.0688 
L 307.168026 288.2304 
L 307.493006 288.2304 
L 307.817985 295.488 
L 308.142965 293.0688 
L 308.467944 288.2304 
L 309.117903 293.0688 
L 309.767862 293.0688 
L 310.092842 290.6496 
L 310.742801 295.488 
L 311.39276 295.488 
L 311.71774 293.0688 
L 312.042719 293.0688 
L 312.367699 288.2304 
L 313.342637 295.488 
L 313.667617 293.0688 
L 313.992596 295.488 
L 314.642555 295.488 
L 314.967535 293.0688 
L 315.292514 295.488 
L 315.617494 295.488 
L 315.942473 290.6496 
L 316.267453 293.0688 
L 316.592432 293.0688 
L 316.917412 290.6496 
L 317.242391 295.488 
L 317.567371 295.488 
L 317.892351 290.6496 
L 318.21733 288.2304 
L 318.54231 295.488 
L 319.192269 290.6496 
L 319.517248 295.488 
L 319.842228 290.6496 
L 320.167207 288.2304 
L 320.492187 293.0688 
L 320.817166 290.6496 
L 321.142146 293.0688 
L 321.467125 288.2304 
L 321.792105 293.0688 
L 322.117084 293.0688 
L 322.442064 295.488 
L 322.767043 295.488 
L 323.092023 293.0688 
L 323.417002 293.0688 
L 323.741982 295.488 
L 324.066962 288.2304 
L 324.391941 295.488 
L 324.716921 290.6496 
L 325.0419 295.488 
L 325.36688 293.0688 
L 325.691859 295.488 
L 326.016839 288.2304 
L 326.666798 293.0688 
L 326.991777 293.0688 
L 327.316757 295.488 
L 327.966716 295.488 
L 328.291695 293.0688 
L 328.616675 295.488 
L 328.941654 293.0688 
L 329.266634 293.0688 
L 329.591613 295.488 
L 329.916593 293.0688 
L 330.241572 295.488 
L 330.566552 293.0688 
L 331.216511 293.0688 
L 331.541491 295.488 
L 331.86647 293.0688 
L 332.19145 295.488 
L 332.841409 295.488 
L 333.166388 288.2304 
L 333.491368 295.488 
L 333.816347 295.488 
L 334.141327 290.6496 
L 334.466306 295.488 
L 335.441245 295.488 
L 335.766224 290.6496 
L 336.091204 290.6496 
L 336.416183 295.488 
L 336.741163 293.0688 
L 337.066143 295.488 
L 337.716102 295.488 
L 338.041081 293.0688 
L 338.366061 295.488 
L 338.69104 293.0688 
L 339.01602 295.488 
L 339.340999 295.488 
L 339.665979 293.0688 
L 339.990958 295.488 
L 340.640917 290.6496 
L 341.290876 290.6496 
L 341.940835 295.488 
L 342.265815 293.0688 
L 342.590794 288.2304 
L 342.915774 295.488 
L 343.240753 290.6496 
L 343.890713 295.488 
L 344.215692 295.488 
L 344.540672 293.0688 
L 344.865651 295.488 
L 345.51561 295.488 
L 345.84059 293.0688 
L 346.165569 295.488 
L 346.490549 293.0688 
L 346.815528 295.488 
L 347.140508 290.6496 
L 347.465487 295.488 
L 347.790467 295.488 
L 348.115446 293.0688 
L 348.440426 293.0688 
L 348.765405 295.488 
L 349.090385 290.6496 
L 349.415364 295.488 
L 350.065324 295.488 
L 350.390303 293.0688 
L 350.715283 293.0688 
L 351.040262 295.488 
L 352.66516 295.488 
L 352.990139 293.0688 
L 353.315119 295.488 
L 353.640098 293.0688 
L 353.965078 295.488 
L 354.615037 295.488 
L 354.940016 290.6496 
L 355.264996 295.488 
L 355.589975 295.488 
L 355.914955 293.0688 
L 356.239934 293.0688 
L 356.564914 295.488 
L 357.214873 295.488 
L 357.539853 293.0688 
L 357.864832 293.0688 
L 358.189812 295.488 
L 358.514791 293.0688 
L 358.839771 295.488 
L 359.16475 295.488 
L 359.48973 293.0688 
L 359.814709 295.488 
L 360.139689 295.488 
L 360.789648 290.6496 
L 361.114627 295.488 
L 361.439607 295.488 
L 361.764586 290.6496 
L 362.089566 295.488 
L 362.414545 293.0688 
L 362.739525 295.488 
L 363.064505 295.488 
L 363.389484 288.2304 
L 363.714464 293.0688 
L 364.039443 295.488 
L 364.364423 290.6496 
L 364.689402 295.488 
L 366.3143 295.488 
L 366.639279 293.0688 
L 367.614218 293.0688 
L 367.939197 295.488 
L 368.264177 295.488 
L 368.589156 290.6496 
L 368.914136 295.488 
L 369.239115 293.0688 
L 369.564095 295.488 
L 369.889075 293.0688 
L 370.214054 295.488 
L 371.513972 295.488 
L 371.838952 293.0688 
L 372.163931 295.488 
L 372.488911 295.488 
L 372.81389 290.6496 
L 373.463849 295.488 
L 374.438788 295.488 
L 374.763767 293.0688 
L 375.088747 293.0688 
L 375.413726 295.488 
L 377.363604 295.488 
L 377.688583 293.0688 
L 378.013563 295.488 
L 378.338542 295.488 
L 378.663522 290.6496 
L 378.988501 295.488 
L 379.63846 295.488 
L 379.96344 293.0688 
L 380.938378 293.0688 
L 381.263358 295.488 
L 381.913317 295.488 
L 382.238296 293.0688 
L 382.563276 295.488 
L 384.838133 295.488 
L 385.163112 293.0688 
L 385.488092 293.0688 
L 385.813071 295.488 
L 386.138051 295.488 
L 386.46303 293.0688 
L 386.78801 295.488 
L 388.737887 295.488 
L 389.062867 293.0688 
L 389.387846 295.488 
L 390.687764 295.488 
L 391.012744 290.6496 
L 391.662703 295.488 
L 394.262539 295.488 
L 394.587518 293.0688 
L 394.912498 295.488 
L 395.237477 295.488 
L 395.562457 293.0688 
L 395.887437 295.488 
L 396.212416 293.0688 
L 396.537396 295.488 
L 397.837314 295.488 
L 398.162293 293.0688 
L 398.487273 295.488 
L 398.487273 295.488 
" style="fill:none;stroke:#ff7f0e;stroke-linecap:square;stroke-width:1.5;"/>
   </g>
   <g id="line2d_15">
    <path clip-path="url(#pf77b26a960)" d="M 73.832727 53.568 
L 76.757543 53.568 
L 77.082523 106.7904 
L 77.407502 101.952 
L 77.732482 101.952 
L 78.057461 114.048 
L 78.382441 118.8864 
L 78.70742 116.4672 
L 79.0324 109.2096 
L 79.357379 106.7904 
L 80.007338 133.4016 
L 80.332318 114.048 
L 80.657297 109.2096 
L 80.982277 111.6288 
L 81.307256 123.7248 
L 81.632236 121.3056 
L 81.957215 106.7904 
L 82.282195 128.5632 
L 82.607174 130.9824 
L 82.932154 135.8208 
L 83.257133 130.9824 
L 83.582113 155.1744 
L 84.232072 130.9824 
L 84.557052 150.336 
L 84.882031 162.432 
L 85.207011 147.9168 
L 85.53199 147.9168 
L 86.181949 143.0784 
L 86.506929 135.8208 
L 86.831908 145.4976 
L 87.156888 167.2704 
L 87.481867 179.3664 
L 87.806847 147.9168 
L 88.131826 135.8208 
L 88.456806 145.4976 
L 88.781785 143.0784 
L 89.106765 128.5632 
L 89.431744 179.3664 
L 89.756724 162.432 
L 90.081704 164.8512 
L 90.406683 164.8512 
L 90.731663 169.6896 
L 91.056642 167.2704 
L 91.381622 179.3664 
L 91.706601 172.1088 
L 92.031581 179.3664 
L 92.35656 191.4624 
L 92.68154 162.432 
L 93.006519 169.6896 
L 93.331499 167.2704 
L 93.656478 179.3664 
L 93.981458 181.7856 
L 94.306437 162.432 
L 94.631417 184.2048 
L 94.956396 176.9472 
L 95.281376 196.3008 
L 95.606355 176.9472 
L 95.931335 174.528 
L 96.256314 174.528 
L 96.581294 176.9472 
L 96.906274 162.432 
L 97.231253 184.2048 
L 97.556233 179.3664 
L 97.881212 184.2048 
L 98.206192 174.528 
L 98.531171 147.9168 
L 98.856151 198.72 
L 99.18113 191.4624 
L 99.50611 189.0432 
L 99.831089 167.2704 
L 100.481048 203.5584 
L 100.806028 196.3008 
L 101.131007 193.8816 
L 101.455987 184.2048 
L 101.780966 189.0432 
L 102.105946 186.624 
L 102.430925 186.624 
L 102.755905 191.4624 
L 103.080885 193.8816 
L 103.405864 164.8512 
L 103.730844 174.528 
L 104.055823 203.5584 
L 104.380803 184.2048 
L 104.705782 186.624 
L 105.030762 174.528 
L 105.680721 184.2048 
L 106.0057 174.528 
L 106.33068 174.528 
L 106.655659 196.3008 
L 107.305618 174.528 
L 107.630598 198.72 
L 107.955577 191.4624 
L 108.280557 193.8816 
L 108.605536 191.4624 
L 108.930516 205.9776 
L 109.255495 196.3008 
L 109.580475 205.9776 
L 109.905455 186.624 
L 110.230434 189.0432 
L 110.555414 189.0432 
L 110.880393 210.816 
L 111.205373 186.624 
L 111.530352 201.1392 
L 111.855332 203.5584 
L 112.505291 179.3664 
L 112.83027 184.2048 
L 113.15525 198.72 
L 113.480229 184.2048 
L 113.805209 184.2048 
L 114.130188 174.528 
L 114.780147 215.6544 
L 115.105127 186.624 
L 115.430106 198.72 
L 116.080066 184.2048 
L 116.405045 208.3968 
L 116.730025 191.4624 
L 117.055004 189.0432 
L 117.379984 181.7856 
L 117.704963 181.7856 
L 118.029943 193.8816 
L 118.354922 189.0432 
L 118.679902 193.8816 
L 119.004881 193.8816 
L 119.329861 189.0432 
L 119.65484 181.7856 
L 119.97982 191.4624 
L 120.304799 176.9472 
L 120.629779 210.816 
L 120.954758 203.5584 
L 121.279738 191.4624 
L 121.604717 196.3008 
L 121.929697 196.3008 
L 122.254676 191.4624 
L 122.579656 208.3968 
L 122.904636 193.8816 
L 123.229615 205.9776 
L 123.554595 184.2048 
L 123.879574 201.1392 
L 124.529533 191.4624 
L 124.854513 189.0432 
L 125.179492 176.9472 
L 125.504472 191.4624 
L 125.829451 189.0432 
L 126.154431 201.1392 
L 126.47941 179.3664 
L 126.80439 201.1392 
L 127.454349 196.3008 
L 127.779328 189.0432 
L 128.104308 189.0432 
L 128.429287 174.528 
L 128.754267 213.2352 
L 129.079247 203.5584 
L 129.404226 179.3664 
L 130.054185 193.8816 
L 130.379165 186.624 
L 131.029124 208.3968 
L 131.354103 201.1392 
L 131.679083 189.0432 
L 132.004062 203.5584 
L 132.329042 184.2048 
L 132.654021 176.9472 
L 133.30398 218.0736 
L 133.62896 186.624 
L 133.953939 210.816 
L 134.278919 205.9776 
L 134.603898 179.3664 
L 134.928878 186.624 
L 135.253857 181.7856 
L 135.578837 174.528 
L 135.903817 208.3968 
L 136.228796 189.0432 
L 136.553776 196.3008 
L 136.878755 186.624 
L 137.203735 203.5584 
L 137.528714 193.8816 
L 137.853694 193.8816 
L 138.178673 176.9472 
L 138.503653 184.2048 
L 138.828632 198.72 
L 139.478591 189.0432 
L 139.803571 205.9776 
L 140.12855 191.4624 
L 140.45353 186.624 
L 140.778509 213.2352 
L 141.103489 191.4624 
L 141.753448 172.1088 
L 142.078428 172.1088 
L 142.403407 174.528 
L 142.728387 189.0432 
L 143.053366 181.7856 
L 143.378346 186.624 
L 143.703325 181.7856 
L 144.028305 172.1088 
L 144.353284 181.7856 
L 144.678264 205.9776 
L 145.328223 169.6896 
L 145.653202 205.9776 
L 145.978182 176.9472 
L 146.303161 210.816 
L 146.628141 193.8816 
L 146.95312 213.2352 
L 147.2781 198.72 
L 147.603079 172.1088 
L 147.928059 191.4624 
L 148.253038 196.3008 
L 148.578018 176.9472 
L 148.902998 191.4624 
L 149.552957 191.4624 
L 149.877936 179.3664 
L 150.527895 203.5584 
L 150.852875 186.624 
L 151.177854 191.4624 
L 151.502834 191.4624 
L 151.827813 160.0128 
L 152.152793 191.4624 
L 152.477772 184.2048 
L 152.802752 184.2048 
L 153.127731 179.3664 
L 153.452711 179.3664 
L 153.77769 181.7856 
L 154.10267 186.624 
L 154.427649 179.3664 
L 155.077609 198.72 
L 155.727568 174.528 
L 156.052547 186.624 
L 156.377527 191.4624 
L 156.702506 172.1088 
L 157.352465 193.8816 
L 157.677445 179.3664 
L 158.002424 189.0432 
L 158.327404 205.9776 
L 158.652383 203.5584 
L 158.977363 203.5584 
L 159.302342 210.816 
L 159.627322 179.3664 
L 159.952301 174.528 
L 160.277281 201.1392 
L 160.60226 201.1392 
L 160.92724 191.4624 
L 161.252219 191.4624 
L 161.577199 189.0432 
L 161.902179 191.4624 
L 162.877117 213.2352 
L 163.202097 184.2048 
L 163.527076 184.2048 
L 163.852056 179.3664 
L 164.502015 196.3008 
L 164.826994 176.9472 
L 165.151974 184.2048 
L 165.476953 176.9472 
L 165.801933 191.4624 
L 166.126912 179.3664 
L 166.776871 189.0432 
L 167.101851 191.4624 
L 167.42683 189.0432 
L 167.75181 210.816 
L 168.07679 179.3664 
L 168.401769 172.1088 
L 168.726749 191.4624 
L 169.051728 186.624 
L 169.376708 191.4624 
L 169.701687 201.1392 
L 170.026667 198.72 
L 170.351646 198.72 
L 170.676626 174.528 
L 171.001605 179.3664 
L 171.326585 186.624 
L 171.651564 218.0736 
L 171.976544 172.1088 
L 172.301523 184.2048 
L 172.626503 208.3968 
L 172.951482 222.912 
L 173.276462 179.3664 
L 173.601441 184.2048 
L 173.926421 210.816 
L 174.2514 172.1088 
L 174.57638 184.2048 
L 174.90136 174.528 
L 175.226339 201.1392 
L 175.551319 179.3664 
L 175.876298 184.2048 
L 176.201278 184.2048 
L 176.526257 193.8816 
L 176.851237 181.7856 
L 177.176216 186.624 
L 177.501196 198.72 
L 177.826175 184.2048 
L 178.151155 196.3008 
L 178.476134 174.528 
L 179.126093 186.624 
L 179.451073 176.9472 
L 179.776052 201.1392 
L 180.101032 179.3664 
L 180.426011 176.9472 
L 180.750991 196.3008 
L 181.075971 164.8512 
L 181.40095 213.2352 
L 181.72593 179.3664 
L 182.050909 189.0432 
L 182.375889 191.4624 
L 182.700868 184.2048 
L 183.025848 186.624 
L 183.350827 186.624 
L 183.675807 184.2048 
L 184.000786 193.8816 
L 184.325766 189.0432 
L 184.650745 191.4624 
L 184.975725 191.4624 
L 185.300704 172.1088 
L 185.625684 184.2048 
L 185.950663 181.7856 
L 186.275643 208.3968 
L 186.600622 162.432 
L 186.925602 172.1088 
L 187.250581 201.1392 
L 187.900541 176.9472 
L 188.22552 184.2048 
L 188.5505 184.2048 
L 188.875479 196.3008 
L 189.200459 193.8816 
L 189.525438 176.9472 
L 189.850418 191.4624 
L 190.175397 174.528 
L 190.500377 169.6896 
L 190.825356 198.72 
L 191.150336 186.624 
L 191.475315 193.8816 
L 191.800295 184.2048 
L 192.125274 210.816 
L 192.450254 193.8816 
L 192.775233 193.8816 
L 193.100213 191.4624 
L 193.425192 198.72 
L 193.750172 193.8816 
L 194.400131 193.8816 
L 194.725111 191.4624 
L 195.05009 208.3968 
L 195.37507 174.528 
L 195.700049 193.8816 
L 196.025029 205.9776 
L 196.350008 193.8816 
L 196.674988 174.528 
L 196.999967 193.8816 
L 197.324947 176.9472 
L 197.649926 186.624 
L 197.974906 184.2048 
L 198.299885 193.8816 
L 198.624865 191.4624 
L 198.949844 164.8512 
L 199.274824 191.4624 
L 199.599803 196.3008 
L 199.924783 215.6544 
L 200.249762 198.72 
L 200.574742 169.6896 
L 201.87466 205.9776 
L 202.19964 193.8816 
L 202.524619 189.0432 
L 202.849599 191.4624 
L 203.174578 213.2352 
L 203.499558 196.3008 
L 203.824537 162.432 
L 204.149517 181.7856 
L 204.474496 184.2048 
L 204.799476 189.0432 
L 205.124455 179.3664 
L 205.449435 184.2048 
L 205.774414 218.0736 
L 206.099394 193.8816 
L 206.424373 191.4624 
L 206.749353 164.8512 
L 207.074333 169.6896 
L 207.399312 162.432 
L 207.724292 167.2704 
L 208.049271 184.2048 
L 208.374251 193.8816 
L 208.69923 196.3008 
L 209.02421 167.2704 
L 209.349189 172.1088 
L 209.999148 189.0432 
L 210.324128 191.4624 
L 210.649107 172.1088 
L 210.974087 210.816 
L 211.299066 193.8816 
L 211.624046 196.3008 
L 211.949025 184.2048 
L 212.274005 203.5584 
L 212.598984 196.3008 
L 212.923964 205.9776 
L 213.248943 203.5584 
L 213.573923 193.8816 
L 213.898903 196.3008 
L 214.223882 205.9776 
L 214.548862 205.9776 
L 214.873841 198.72 
L 215.198821 172.1088 
L 215.5238 169.6896 
L 216.173759 203.5584 
L 216.823718 189.0432 
L 217.148698 201.1392 
L 217.473677 205.9776 
L 217.798657 181.7856 
L 218.123636 169.6896 
L 218.448616 186.624 
L 218.773595 184.2048 
L 219.098575 196.3008 
L 219.423554 181.7856 
L 219.748534 181.7856 
L 220.073514 196.3008 
L 220.398493 193.8816 
L 220.723473 189.0432 
L 221.048452 191.4624 
L 221.698411 186.624 
L 222.023391 167.2704 
L 222.34837 169.6896 
L 222.67335 186.624 
L 222.998329 189.0432 
L 223.323309 205.9776 
L 223.648288 184.2048 
L 223.973268 174.528 
L 224.298247 189.0432 
L 224.623227 193.8816 
L 224.948206 174.528 
L 225.273186 186.624 
L 225.598165 169.6896 
L 226.573104 218.0736 
L 226.898084 184.2048 
L 227.223063 179.3664 
L 227.548043 191.4624 
L 227.873022 179.3664 
L 228.198002 189.0432 
L 228.522981 193.8816 
L 228.847961 191.4624 
L 229.17294 205.9776 
L 229.49792 189.0432 
L 229.822899 198.72 
L 230.147879 181.7856 
L 230.472858 174.528 
L 230.797838 201.1392 
L 231.122817 169.6896 
L 231.447797 201.1392 
L 231.772776 201.1392 
L 232.097756 176.9472 
L 232.422735 179.3664 
L 232.747715 184.2048 
L 233.072695 167.2704 
L 233.722654 205.9776 
L 234.047633 191.4624 
L 234.372613 193.8816 
L 234.697592 167.2704 
L 235.022572 210.816 
L 235.347551 184.2048 
L 235.672531 174.528 
L 235.99751 201.1392 
L 236.32249 179.3664 
L 236.647469 179.3664 
L 236.972449 181.7856 
L 237.297428 196.3008 
L 237.622408 179.3664 
L 237.947387 174.528 
L 238.272367 164.8512 
L 238.922326 198.72 
L 239.247305 184.2048 
L 239.572285 193.8816 
L 239.897265 169.6896 
L 240.222244 181.7856 
L 240.547224 176.9472 
L 240.872203 184.2048 
L 241.197183 184.2048 
L 241.522162 186.624 
L 241.847142 176.9472 
L 242.172121 176.9472 
L 242.497101 174.528 
L 242.82208 181.7856 
L 243.14706 210.816 
L 243.472039 186.624 
L 243.797019 203.5584 
L 244.121998 196.3008 
L 244.446978 210.816 
L 244.771957 193.8816 
L 245.096937 203.5584 
L 245.421916 196.3008 
L 245.746896 167.2704 
L 246.071876 208.3968 
L 246.396855 193.8816 
L 246.721835 162.432 
L 247.046814 167.2704 
L 247.371794 189.0432 
L 247.696773 196.3008 
L 248.021753 191.4624 
L 248.671712 186.624 
L 248.996691 201.1392 
L 249.321671 176.9472 
L 249.97163 196.3008 
L 250.296609 164.8512 
L 250.621589 191.4624 
L 250.946568 196.3008 
L 251.271548 189.0432 
L 251.596527 191.4624 
L 251.921507 203.5584 
L 252.246486 210.816 
L 252.571466 189.0432 
L 252.896446 201.1392 
L 253.221425 172.1088 
L 253.546405 198.72 
L 253.871384 196.3008 
L 254.196364 203.5584 
L 254.521343 176.9472 
L 254.846323 201.1392 
L 255.171302 205.9776 
L 255.496282 186.624 
L 255.821261 191.4624 
L 256.146241 181.7856 
L 256.47122 189.0432 
L 256.7962 181.7856 
L 257.121179 181.7856 
L 257.446159 205.9776 
L 257.771138 198.72 
L 258.096118 201.1392 
L 258.421097 181.7856 
L 258.746077 186.624 
L 259.071057 189.0432 
L 259.396036 169.6896 
L 259.721016 181.7856 
L 260.045995 186.624 
L 260.370975 186.624 
L 260.695954 172.1088 
L 261.020934 184.2048 
L 261.345913 205.9776 
L 261.670893 169.6896 
L 261.995872 184.2048 
L 262.645831 164.8512 
L 263.29579 208.3968 
L 263.62077 176.9472 
L 263.945749 196.3008 
L 264.270729 198.72 
L 264.595708 203.5584 
L 264.920688 191.4624 
L 265.570647 201.1392 
L 265.895627 184.2048 
L 266.220606 186.624 
L 266.545586 203.5584 
L 266.870565 169.6896 
L 267.195545 205.9776 
L 267.520524 196.3008 
L 267.845504 196.3008 
L 268.170483 176.9472 
L 268.495463 191.4624 
L 268.820442 193.8816 
L 269.145422 201.1392 
L 269.470401 179.3664 
L 269.795381 205.9776 
L 270.12036 193.8816 
L 270.44534 186.624 
L 270.770319 191.4624 
L 271.095299 179.3664 
L 271.420278 203.5584 
L 271.745258 198.72 
L 272.070238 205.9776 
L 272.395217 186.624 
L 272.720197 191.4624 
L 273.370156 176.9472 
L 273.695135 203.5584 
L 274.345094 162.432 
L 274.995053 186.624 
L 275.320033 176.9472 
L 275.645012 191.4624 
L 275.969992 179.3664 
L 276.294971 198.72 
L 276.619951 198.72 
L 276.94493 172.1088 
L 277.26991 169.6896 
L 277.594889 176.9472 
L 277.919869 174.528 
L 278.244848 186.624 
L 278.569828 203.5584 
L 278.894808 193.8816 
L 279.219787 193.8816 
L 279.544767 205.9776 
L 279.869746 186.624 
L 280.194726 191.4624 
L 280.519705 191.4624 
L 280.844685 184.2048 
L 281.169664 196.3008 
L 281.494644 176.9472 
L 281.819623 181.7856 
L 282.144603 189.0432 
L 282.469582 179.3664 
L 282.794562 189.0432 
L 283.119541 181.7856 
L 283.444521 191.4624 
L 283.7695 181.7856 
L 284.09448 205.9776 
L 284.419459 184.2048 
L 284.744439 172.1088 
L 285.069419 203.5584 
L 285.394398 193.8816 
L 285.719378 208.3968 
L 286.044357 174.528 
L 286.369337 176.9472 
L 286.694316 203.5584 
L 287.019296 198.72 
L 287.344275 169.6896 
L 287.669255 162.432 
L 287.994234 189.0432 
L 288.319214 191.4624 
L 288.644193 186.624 
L 288.969173 210.816 
L 289.619132 189.0432 
L 289.944111 189.0432 
L 290.269091 201.1392 
L 290.59407 201.1392 
L 290.91905 208.3968 
L 291.244029 198.72 
L 291.569009 227.7504 
L 292.543948 205.9776 
L 292.868927 210.816 
L 293.193907 210.816 
L 293.518886 208.3968 
L 294.818804 227.7504 
L 295.143784 230.1696 
L 295.468763 215.6544 
L 295.793743 227.7504 
L 296.118722 227.7504 
L 296.768681 213.2352 
L 297.093661 218.0736 
L 297.41864 213.2352 
L 297.74362 218.0736 
L 298.0686 242.2656 
L 298.393579 225.3312 
L 298.718559 225.3312 
L 299.043538 247.104 
L 299.368518 235.008 
L 300.018477 244.6848 
L 300.343456 237.4272 
L 300.668436 261.6192 
L 300.993415 237.4272 
L 301.318395 254.3616 
L 301.643374 232.5888 
L 301.968354 237.4272 
L 302.293333 232.5888 
L 302.618313 230.1696 
L 302.943292 242.2656 
L 303.268272 247.104 
L 303.918231 237.4272 
L 304.24321 237.4272 
L 304.56819 244.6848 
L 304.89317 256.7808 
L 305.543129 247.104 
L 305.868108 249.5232 
L 306.193088 242.2656 
L 306.518067 268.8768 
L 306.843047 232.5888 
L 307.168026 249.5232 
L 307.493006 244.6848 
L 307.817985 254.3616 
L 308.142965 239.8464 
L 308.467944 244.6848 
L 308.792924 247.104 
L 309.117903 242.2656 
L 309.442883 244.6848 
L 309.767862 256.7808 
L 310.092842 247.104 
L 310.417821 244.6848 
L 310.742801 244.6848 
L 311.39276 249.5232 
L 311.71774 266.4576 
L 312.042719 237.4272 
L 312.367699 259.2 
L 312.692678 249.5232 
L 313.017658 244.6848 
L 313.342637 256.7808 
L 313.667617 251.9424 
L 313.992596 264.0384 
L 314.317576 242.2656 
L 314.642555 254.3616 
L 314.967535 254.3616 
L 315.292514 251.9424 
L 315.617494 259.2 
L 315.942473 235.008 
L 316.267453 254.3616 
L 316.592432 261.6192 
L 316.917412 264.0384 
L 317.242391 271.296 
L 317.567371 251.9424 
L 318.21733 264.0384 
L 318.54231 259.2 
L 318.867289 256.7808 
L 319.192269 268.8768 
L 319.517248 251.9424 
L 319.842228 249.5232 
L 320.167207 259.2 
L 320.492187 264.0384 
L 320.817166 278.5536 
L 321.142146 254.3616 
L 321.792105 271.296 
L 322.117084 249.5232 
L 322.442064 264.0384 
L 322.767043 239.8464 
L 323.092023 264.0384 
L 323.417002 268.8768 
L 323.741982 247.104 
L 324.066962 271.296 
L 324.391941 251.9424 
L 324.716921 268.8768 
L 325.0419 256.7808 
L 325.36688 266.4576 
L 325.691859 259.2 
L 326.016839 278.5536 
L 326.341818 261.6192 
L 326.666798 256.7808 
L 326.991777 261.6192 
L 327.966716 247.104 
L 328.291695 254.3616 
L 328.616675 249.5232 
L 328.941654 264.0384 
L 329.266634 259.2 
L 329.591613 271.296 
L 330.241572 256.7808 
L 330.566552 256.7808 
L 330.891532 276.1344 
L 331.216511 273.7152 
L 331.541491 254.3616 
L 331.86647 276.1344 
L 332.19145 264.0384 
L 332.516429 264.0384 
L 332.841409 261.6192 
L 333.166388 278.5536 
L 333.491368 271.296 
L 333.816347 273.7152 
L 334.141327 266.4576 
L 334.466306 271.296 
L 334.791286 259.2 
L 335.116265 271.296 
L 335.441245 266.4576 
L 335.766224 259.2 
L 336.416183 254.3616 
L 336.741163 266.4576 
L 337.066143 273.7152 
L 337.391122 276.1344 
L 337.716102 264.0384 
L 338.041081 261.6192 
L 338.366061 278.5536 
L 338.69104 256.7808 
L 339.01602 280.9728 
L 339.665979 266.4576 
L 339.990958 264.0384 
L 340.315938 276.1344 
L 340.640917 254.3616 
L 340.965897 278.5536 
L 341.290876 273.7152 
L 341.615856 271.296 
L 341.940835 273.7152 
L 342.265815 273.7152 
L 342.915774 268.8768 
L 343.240753 264.0384 
L 343.565733 271.296 
L 343.890713 266.4576 
L 344.215692 264.0384 
L 344.540672 268.8768 
L 344.865651 276.1344 
L 345.190631 278.5536 
L 345.51561 259.2 
L 345.84059 276.1344 
L 346.165569 273.7152 
L 346.490549 273.7152 
L 346.815528 259.2 
L 347.465487 280.9728 
L 347.790467 266.4576 
L 348.115446 285.8112 
L 348.765405 264.0384 
L 349.090385 273.7152 
L 349.415364 271.296 
L 349.740344 278.5536 
L 350.065324 280.9728 
L 350.390303 273.7152 
L 350.715283 283.392 
L 351.040262 268.8768 
L 351.365242 264.0384 
L 351.690221 285.8112 
L 352.015201 254.3616 
L 352.34018 273.7152 
L 352.66516 261.6192 
L 352.990139 271.296 
L 353.315119 273.7152 
L 353.640098 268.8768 
L 353.965078 288.2304 
L 354.290057 271.296 
L 354.615037 273.7152 
L 354.940016 259.2 
L 355.264996 276.1344 
L 355.589975 276.1344 
L 355.914955 278.5536 
L 356.239934 273.7152 
L 356.564914 280.9728 
L 356.889894 268.8768 
L 357.214873 276.1344 
L 357.539853 276.1344 
L 358.189812 266.4576 
L 358.514791 271.296 
L 358.839771 285.8112 
L 359.16475 280.9728 
L 359.48973 288.2304 
L 360.139689 271.296 
L 360.464668 278.5536 
L 360.789648 271.296 
L 361.114627 285.8112 
L 361.439607 283.392 
L 361.764586 278.5536 
L 362.089566 283.392 
L 362.414545 276.1344 
L 362.739525 288.2304 
L 363.064505 259.2 
L 363.389484 273.7152 
L 363.714464 278.5536 
L 364.039443 285.8112 
L 364.689402 261.6192 
L 365.014382 278.5536 
L 365.664341 283.392 
L 365.98932 283.392 
L 366.3143 288.2304 
L 366.639279 288.2304 
L 366.964259 264.0384 
L 367.289238 278.5536 
L 367.614218 276.1344 
L 367.939197 266.4576 
L 368.264177 276.1344 
L 368.589156 276.1344 
L 368.914136 280.9728 
L 369.239115 276.1344 
L 369.564095 261.6192 
L 369.889075 278.5536 
L 370.214054 273.7152 
L 370.539034 280.9728 
L 370.864013 280.9728 
L 371.513972 271.296 
L 371.838952 278.5536 
L 372.163931 278.5536 
L 372.488911 288.2304 
L 372.81389 283.392 
L 373.13887 285.8112 
L 373.463849 280.9728 
L 373.788829 290.6496 
L 374.113808 285.8112 
L 374.438788 261.6192 
L 374.763767 278.5536 
L 375.088747 285.8112 
L 375.413726 278.5536 
L 375.738706 283.392 
L 376.063686 276.1344 
L 376.388665 285.8112 
L 377.038624 276.1344 
L 377.688583 288.2304 
L 378.338542 278.5536 
L 378.663522 280.9728 
L 378.988501 278.5536 
L 379.313481 280.9728 
L 379.63846 278.5536 
L 380.288419 288.2304 
L 380.613399 285.8112 
L 380.938378 278.5536 
L 381.263358 280.9728 
L 382.238296 280.9728 
L 382.563276 278.5536 
L 382.888256 283.392 
L 383.213235 276.1344 
L 383.538215 285.8112 
L 384.188174 285.8112 
L 384.513153 280.9728 
L 384.838133 285.8112 
L 385.163112 285.8112 
L 385.488092 278.5536 
L 385.813071 280.9728 
L 386.138051 285.8112 
L 386.46303 288.2304 
L 386.78801 273.7152 
L 387.112989 280.9728 
L 387.437969 266.4576 
L 387.762948 271.296 
L 388.087928 283.392 
L 388.412907 288.2304 
L 389.062867 288.2304 
L 389.387846 283.392 
L 389.712826 280.9728 
L 390.037805 288.2304 
L 390.362785 288.2304 
L 390.687764 280.9728 
L 391.012744 285.8112 
L 391.337723 283.392 
L 391.662703 283.392 
L 391.987682 288.2304 
L 392.312662 285.8112 
L 393.2876 285.8112 
L 393.61258 278.5536 
L 393.937559 288.2304 
L 394.262539 290.6496 
L 394.587518 288.2304 
L 394.912498 280.9728 
L 395.237477 290.6496 
L 395.562457 283.392 
L 395.887437 283.392 
L 396.212416 293.0688 
L 396.862375 278.5536 
L 397.187355 288.2304 
L 397.512334 290.6496 
L 398.162293 280.9728 
L 398.487273 285.8112 
L 398.487273 285.8112 
" style="fill:none;stroke:#2ca02c;stroke-linecap:square;stroke-width:1.5;"/>
   </g>
   <g id="patch_3">
    <path d="M 57.6 307.584 
L 57.6 41.472 
" style="fill:none;stroke:#000000;stroke-linecap:square;stroke-linejoin:miter;stroke-width:0.8;"/>
   </g>
   <g id="patch_4">
    <path d="M 414.72 307.584 
L 414.72 41.472 
" style="fill:none;stroke:#000000;stroke-linecap:square;stroke-linejoin:miter;stroke-width:0.8;"/>
   </g>
   <g id="patch_5">
    <path d="M 57.6 307.584 
L 414.72 307.584 
" style="fill:none;stroke:#000000;stroke-linecap:square;stroke-linejoin:miter;stroke-width:0.8;"/>
   </g>
   <g id="patch_6">
    <path d="M 57.6 41.472 
L 414.72 41.472 
" style="fill:none;stroke:#000000;stroke-linecap:square;stroke-linejoin:miter;stroke-width:0.8;"/>
   </g>
   <g id="legend_1">
    <g id="patch_7">
     <path d="M 163.549687 93.506375 
L 407.72 93.506375 
Q 409.72 93.506375 409.72 91.506375 
L 409.72 48.472 
Q 409.72 46.472 407.72 46.472 
L 163.549687 46.472 
Q 161.549687 46.472 161.549687 48.472 
L 161.549687 91.506375 
Q 161.549687 93.506375 163.549687 93.506375 
z
" style="fill:#ffffff;opacity:0.8;stroke:#cccccc;stroke-linejoin:miter;"/>
    </g>
    <g id="line2d_16">
     <path d="M 165.549687 54.570438 
L 185.549687 54.570438 
" style="fill:none;stroke:#1f77b4;stroke-linecap:square;stroke-width:1.5;"/>
    </g>
    <g id="line2d_17"/>
    <g id="text_13">
     <!-- The target acceptance rate -->
     <g transform="translate(193.549687 58.070438)scale(0.1 -0.1)">
      <defs>
       <path d="M -0.296875 72.90625 
L 61.375 72.90625 
L 61.375 64.59375 
L 35.5 64.59375 
L 35.5 0 
L 25.59375 0 
L 25.59375 64.59375 
L -0.296875 64.59375 
z
" id="DejaVuSans-84"/>
       <path d="M 54.890625 33.015625 
L 54.890625 0 
L 45.90625 0 
L 45.90625 32.71875 
Q 45.90625 40.484375 42.875 44.328125 
Q 39.84375 48.1875 33.796875 48.1875 
Q 26.515625 48.1875 22.3125 43.546875 
Q 18.109375 38.921875 18.109375 30.90625 
L 18.109375 0 
L 9.078125 0 
L 9.078125 75.984375 
L 18.109375 75.984375 
L 18.109375 46.1875 
Q 21.34375 51.125 25.703125 53.5625 
Q 30.078125 56 35.796875 56 
Q 45.21875 56 50.046875 50.171875 
Q 54.890625 44.34375 54.890625 33.015625 
z
" id="DejaVuSans-104"/>
       <path d="M 56.203125 29.59375 
L 56.203125 25.203125 
L 14.890625 25.203125 
Q 15.484375 15.921875 20.484375 11.0625 
Q 25.484375 6.203125 34.421875 6.203125 
Q 39.59375 6.203125 44.453125 7.46875 
Q 49.3125 8.734375 54.109375 11.28125 
L 54.109375 2.78125 
Q 49.265625 0.734375 44.1875 -0.34375 
Q 39.109375 -1.421875 33.890625 -1.421875 
Q 20.796875 -1.421875 13.15625 6.1875 
Q 5.515625 13.8125 5.515625 26.8125 
Q 5.515625 40.234375 12.765625 48.109375 
Q 20.015625 56 32.328125 56 
Q 43.359375 56 49.78125 48.890625 
Q 56.203125 41.796875 56.203125 29.59375 
z
M 47.21875 32.234375 
Q 47.125 39.59375 43.09375 43.984375 
Q 39.0625 48.390625 32.421875 48.390625 
Q 24.90625 48.390625 20.390625 44.140625 
Q 15.875 39.890625 15.1875 32.171875 
z
" id="DejaVuSans-101"/>
       <path id="DejaVuSans-32"/>
       <path d="M 18.3125 70.21875 
L 18.3125 54.6875 
L 36.8125 54.6875 
L 36.8125 47.703125 
L 18.3125 47.703125 
L 18.3125 18.015625 
Q 18.3125 11.328125 20.140625 9.421875 
Q 21.96875 7.515625 27.59375 7.515625 
L 36.8125 7.515625 
L 36.8125 0 
L 27.59375 0 
Q 17.1875 0 13.234375 3.875 
Q 9.28125 7.765625 9.28125 18.015625 
L 9.28125 47.703125 
L 2.6875 47.703125 
L 2.6875 54.6875 
L 9.28125 54.6875 
L 9.28125 70.21875 
z
" id="DejaVuSans-116"/>
       <path d="M 34.28125 27.484375 
Q 23.390625 27.484375 19.1875 25 
Q 14.984375 22.515625 14.984375 16.5 
Q 14.984375 11.71875 18.140625 8.90625 
Q 21.296875 6.109375 26.703125 6.109375 
Q 34.1875 6.109375 38.703125 11.40625 
Q 43.21875 16.703125 43.21875 25.484375 
L 43.21875 27.484375 
z
M 52.203125 31.203125 
L 52.203125 0 
L 43.21875 0 
L 43.21875 8.296875 
Q 40.140625 3.328125 35.546875 0.953125 
Q 30.953125 -1.421875 24.3125 -1.421875 
Q 15.921875 -1.421875 10.953125 3.296875 
Q 6 8.015625 6 15.921875 
Q 6 25.140625 12.171875 29.828125 
Q 18.359375 34.515625 30.609375 34.515625 
L 43.21875 34.515625 
L 43.21875 35.40625 
Q 43.21875 41.609375 39.140625 45 
Q 35.0625 48.390625 27.6875 48.390625 
Q 23 48.390625 18.546875 47.265625 
Q 14.109375 46.140625 10.015625 43.890625 
L 10.015625 52.203125 
Q 14.9375 54.109375 19.578125 55.046875 
Q 24.21875 56 28.609375 56 
Q 40.484375 56 46.34375 49.84375 
Q 52.203125 43.703125 52.203125 31.203125 
z
" id="DejaVuSans-97"/>
       <path d="M 41.109375 46.296875 
Q 39.59375 47.171875 37.8125 47.578125 
Q 36.03125 48 33.890625 48 
Q 26.265625 48 22.1875 43.046875 
Q 18.109375 38.09375 18.109375 28.8125 
L 18.109375 0 
L 9.078125 0 
L 9.078125 54.6875 
L 18.109375 54.6875 
L 18.109375 46.1875 
Q 20.953125 51.171875 25.484375 53.578125 
Q 30.03125 56 36.53125 56 
Q 37.453125 56 38.578125 55.875 
Q 39.703125 55.765625 41.0625 55.515625 
z
" id="DejaVuSans-114"/>
       <path d="M 45.40625 27.984375 
Q 45.40625 37.75 41.375 43.109375 
Q 37.359375 48.484375 30.078125 48.484375 
Q 22.859375 48.484375 18.828125 43.109375 
Q 14.796875 37.75 14.796875 27.984375 
Q 14.796875 18.265625 18.828125 12.890625 
Q 22.859375 7.515625 30.078125 7.515625 
Q 37.359375 7.515625 41.375 12.890625 
Q 45.40625 18.265625 45.40625 27.984375 
z
M 54.390625 6.78125 
Q 54.390625 -7.171875 48.1875 -13.984375 
Q 42 -20.796875 29.203125 -20.796875 
Q 24.46875 -20.796875 20.265625 -20.09375 
Q 16.0625 -19.390625 12.109375 -17.921875 
L 12.109375 -9.1875 
Q 16.0625 -11.328125 19.921875 -12.34375 
Q 23.78125 -13.375 27.78125 -13.375 
Q 36.625 -13.375 41.015625 -8.765625 
Q 45.40625 -4.15625 45.40625 5.171875 
L 45.40625 9.625 
Q 42.625 4.78125 38.28125 2.390625 
Q 33.9375 0 27.875 0 
Q 17.828125 0 11.671875 7.65625 
Q 5.515625 15.328125 5.515625 27.984375 
Q 5.515625 40.671875 11.671875 48.328125 
Q 17.828125 56 27.875 56 
Q 33.9375 56 38.28125 53.609375 
Q 42.625 51.21875 45.40625 46.390625 
L 45.40625 54.6875 
L 54.390625 54.6875 
z
" id="DejaVuSans-103"/>
       <path d="M 48.78125 52.59375 
L 48.78125 44.1875 
Q 44.96875 46.296875 41.140625 47.34375 
Q 37.3125 48.390625 33.40625 48.390625 
Q 24.65625 48.390625 19.8125 42.84375 
Q 14.984375 37.3125 14.984375 27.296875 
Q 14.984375 17.28125 19.8125 11.734375 
Q 24.65625 6.203125 33.40625 6.203125 
Q 37.3125 6.203125 41.140625 7.25 
Q 44.96875 8.296875 48.78125 10.40625 
L 48.78125 2.09375 
Q 45.015625 0.34375 40.984375 -0.53125 
Q 36.96875 -1.421875 32.421875 -1.421875 
Q 20.0625 -1.421875 12.78125 6.34375 
Q 5.515625 14.109375 5.515625 27.296875 
Q 5.515625 40.671875 12.859375 48.328125 
Q 20.21875 56 33.015625 56 
Q 37.15625 56 41.109375 55.140625 
Q 45.0625 54.296875 48.78125 52.59375 
z
" id="DejaVuSans-99"/>
       <path d="M 18.109375 8.203125 
L 18.109375 -20.796875 
L 9.078125 -20.796875 
L 9.078125 54.6875 
L 18.109375 54.6875 
L 18.109375 46.390625 
Q 20.953125 51.265625 25.265625 53.625 
Q 29.59375 56 35.59375 56 
Q 45.5625 56 51.78125 48.09375 
Q 58.015625 40.1875 58.015625 27.296875 
Q 58.015625 14.40625 51.78125 6.484375 
Q 45.5625 -1.421875 35.59375 -1.421875 
Q 29.59375 -1.421875 25.265625 0.953125 
Q 20.953125 3.328125 18.109375 8.203125 
z
M 48.6875 27.296875 
Q 48.6875 37.203125 44.609375 42.84375 
Q 40.53125 48.484375 33.40625 48.484375 
Q 26.265625 48.484375 22.1875 42.84375 
Q 18.109375 37.203125 18.109375 27.296875 
Q 18.109375 17.390625 22.1875 11.75 
Q 26.265625 6.109375 33.40625 6.109375 
Q 40.53125 6.109375 44.609375 11.75 
Q 48.6875 17.390625 48.6875 27.296875 
z
" id="DejaVuSans-112"/>
       <path d="M 54.890625 33.015625 
L 54.890625 0 
L 45.90625 0 
L 45.90625 32.71875 
Q 45.90625 40.484375 42.875 44.328125 
Q 39.84375 48.1875 33.796875 48.1875 
Q 26.515625 48.1875 22.3125 43.546875 
Q 18.109375 38.921875 18.109375 30.90625 
L 18.109375 0 
L 9.078125 0 
L 9.078125 54.6875 
L 18.109375 54.6875 
L 18.109375 46.1875 
Q 21.34375 51.125 25.703125 53.5625 
Q 30.078125 56 35.796875 56 
Q 45.21875 56 50.046875 50.171875 
Q 54.890625 44.34375 54.890625 33.015625 
z
" id="DejaVuSans-110"/>
      </defs>
      <use xlink:href="#DejaVuSans-84"/>
      <use x="61.083984" xlink:href="#DejaVuSans-104"/>
      <use x="124.462891" xlink:href="#DejaVuSans-101"/>
      <use x="185.986328" xlink:href="#DejaVuSans-32"/>
      <use x="217.773438" xlink:href="#DejaVuSans-116"/>
      <use x="256.982422" xlink:href="#DejaVuSans-97"/>
      <use x="318.261719" xlink:href="#DejaVuSans-114"/>
      <use x="357.625" xlink:href="#DejaVuSans-103"/>
      <use x="421.101562" xlink:href="#DejaVuSans-101"/>
      <use x="482.625" xlink:href="#DejaVuSans-116"/>
      <use x="521.833984" xlink:href="#DejaVuSans-32"/>
      <use x="553.621094" xlink:href="#DejaVuSans-97"/>
      <use x="614.900391" xlink:href="#DejaVuSans-99"/>
      <use x="669.880859" xlink:href="#DejaVuSans-99"/>
      <use x="724.861328" xlink:href="#DejaVuSans-101"/>
      <use x="786.384766" xlink:href="#DejaVuSans-112"/>
      <use x="849.861328" xlink:href="#DejaVuSans-116"/>
      <use x="889.070312" xlink:href="#DejaVuSans-97"/>
      <use x="950.349609" xlink:href="#DejaVuSans-110"/>
      <use x="1013.728516" xlink:href="#DejaVuSans-99"/>
      <use x="1068.708984" xlink:href="#DejaVuSans-101"/>
      <use x="1130.232422" xlink:href="#DejaVuSans-32"/>
      <use x="1162.019531" xlink:href="#DejaVuSans-114"/>
      <use x="1203.132812" xlink:href="#DejaVuSans-97"/>
      <use x="1264.412109" xlink:href="#DejaVuSans-116"/>
      <use x="1303.621094" xlink:href="#DejaVuSans-101"/>
     </g>
    </g>
    <g id="line2d_18">
     <path d="M 165.549687 69.248563 
L 185.549687 69.248563 
" style="fill:none;stroke:#ff7f0e;stroke-linecap:square;stroke-width:1.5;"/>
    </g>
    <g id="line2d_19"/>
    <g id="text_14">
     <!-- Modified Lam observed acceptance rate -->
     <g transform="translate(193.549687 72.748563)scale(0.1 -0.1)">
      <defs>
       <path d="M 9.8125 72.90625 
L 24.515625 72.90625 
L 43.109375 23.296875 
L 61.8125 72.90625 
L 76.515625 72.90625 
L 76.515625 0 
L 66.890625 0 
L 66.890625 64.015625 
L 48.09375 14.015625 
L 38.1875 14.015625 
L 19.390625 64.015625 
L 19.390625 0 
L 9.8125 0 
z
" id="DejaVuSans-77"/>
       <path d="M 30.609375 48.390625 
Q 23.390625 48.390625 19.1875 42.75 
Q 14.984375 37.109375 14.984375 27.296875 
Q 14.984375 17.484375 19.15625 11.84375 
Q 23.34375 6.203125 30.609375 6.203125 
Q 37.796875 6.203125 41.984375 11.859375 
Q 46.1875 17.53125 46.1875 27.296875 
Q 46.1875 37.015625 41.984375 42.703125 
Q 37.796875 48.390625 30.609375 48.390625 
z
M 30.609375 56 
Q 42.328125 56 49.015625 48.375 
Q 55.71875 40.765625 55.71875 27.296875 
Q 55.71875 13.875 49.015625 6.21875 
Q 42.328125 -1.421875 30.609375 -1.421875 
Q 18.84375 -1.421875 12.171875 6.21875 
Q 5.515625 13.875 5.515625 27.296875 
Q 5.515625 40.765625 12.171875 48.375 
Q 18.84375 56 30.609375 56 
z
" id="DejaVuSans-111"/>
       <path d="M 45.40625 46.390625 
L 45.40625 75.984375 
L 54.390625 75.984375 
L 54.390625 0 
L 45.40625 0 
L 45.40625 8.203125 
Q 42.578125 3.328125 38.25 0.953125 
Q 33.9375 -1.421875 27.875 -1.421875 
Q 17.96875 -1.421875 11.734375 6.484375 
Q 5.515625 14.40625 5.515625 27.296875 
Q 5.515625 40.1875 11.734375 48.09375 
Q 17.96875 56 27.875 56 
Q 33.9375 56 38.25 53.625 
Q 42.578125 51.265625 45.40625 46.390625 
z
M 14.796875 27.296875 
Q 14.796875 17.390625 18.875 11.75 
Q 22.953125 6.109375 30.078125 6.109375 
Q 37.203125 6.109375 41.296875 11.75 
Q 45.40625 17.390625 45.40625 27.296875 
Q 45.40625 37.203125 41.296875 42.84375 
Q 37.203125 48.484375 30.078125 48.484375 
Q 22.953125 48.484375 18.875 42.84375 
Q 14.796875 37.203125 14.796875 27.296875 
z
" id="DejaVuSans-100"/>
       <path d="M 9.421875 54.6875 
L 18.40625 54.6875 
L 18.40625 0 
L 9.421875 0 
z
M 9.421875 75.984375 
L 18.40625 75.984375 
L 18.40625 64.59375 
L 9.421875 64.59375 
z
" id="DejaVuSans-105"/>
       <path d="M 37.109375 75.984375 
L 37.109375 68.5 
L 28.515625 68.5 
Q 23.6875 68.5 21.796875 66.546875 
Q 19.921875 64.59375 19.921875 59.515625 
L 19.921875 54.6875 
L 34.71875 54.6875 
L 34.71875 47.703125 
L 19.921875 47.703125 
L 19.921875 0 
L 10.890625 0 
L 10.890625 47.703125 
L 2.296875 47.703125 
L 2.296875 54.6875 
L 10.890625 54.6875 
L 10.890625 58.5 
Q 10.890625 67.625 15.140625 71.796875 
Q 19.390625 75.984375 28.609375 75.984375 
z
" id="DejaVuSans-102"/>
       <path d="M 9.8125 72.90625 
L 19.671875 72.90625 
L 19.671875 8.296875 
L 55.171875 8.296875 
L 55.171875 0 
L 9.8125 0 
z
" id="DejaVuSans-76"/>
       <path d="M 52 44.1875 
Q 55.375 50.25 60.0625 53.125 
Q 64.75 56 71.09375 56 
Q 79.640625 56 84.28125 50.015625 
Q 88.921875 44.046875 88.921875 33.015625 
L 88.921875 0 
L 79.890625 0 
L 79.890625 32.71875 
Q 79.890625 40.578125 77.09375 44.375 
Q 74.3125 48.1875 68.609375 48.1875 
Q 61.625 48.1875 57.5625 43.546875 
Q 53.515625 38.921875 53.515625 30.90625 
L 53.515625 0 
L 44.484375 0 
L 44.484375 32.71875 
Q 44.484375 40.625 41.703125 44.40625 
Q 38.921875 48.1875 33.109375 48.1875 
Q 26.21875 48.1875 22.15625 43.53125 
Q 18.109375 38.875 18.109375 30.90625 
L 18.109375 0 
L 9.078125 0 
L 9.078125 54.6875 
L 18.109375 54.6875 
L 18.109375 46.1875 
Q 21.1875 51.21875 25.484375 53.609375 
Q 29.78125 56 35.6875 56 
Q 41.65625 56 45.828125 52.96875 
Q 50 49.953125 52 44.1875 
z
" id="DejaVuSans-109"/>
       <path d="M 48.6875 27.296875 
Q 48.6875 37.203125 44.609375 42.84375 
Q 40.53125 48.484375 33.40625 48.484375 
Q 26.265625 48.484375 22.1875 42.84375 
Q 18.109375 37.203125 18.109375 27.296875 
Q 18.109375 17.390625 22.1875 11.75 
Q 26.265625 6.109375 33.40625 6.109375 
Q 40.53125 6.109375 44.609375 11.75 
Q 48.6875 17.390625 48.6875 27.296875 
z
M 18.109375 46.390625 
Q 20.953125 51.265625 25.265625 53.625 
Q 29.59375 56 35.59375 56 
Q 45.5625 56 51.78125 48.09375 
Q 58.015625 40.1875 58.015625 27.296875 
Q 58.015625 14.40625 51.78125 6.484375 
Q 45.5625 -1.421875 35.59375 -1.421875 
Q 29.59375 -1.421875 25.265625 0.953125 
Q 20.953125 3.328125 18.109375 8.203125 
L 18.109375 0 
L 9.078125 0 
L 9.078125 75.984375 
L 18.109375 75.984375 
z
" id="DejaVuSans-98"/>
       <path d="M 44.28125 53.078125 
L 44.28125 44.578125 
Q 40.484375 46.53125 36.375 47.5 
Q 32.28125 48.484375 27.875 48.484375 
Q 21.1875 48.484375 17.84375 46.4375 
Q 14.5 44.390625 14.5 40.28125 
Q 14.5 37.15625 16.890625 35.375 
Q 19.28125 33.59375 26.515625 31.984375 
L 29.59375 31.296875 
Q 39.15625 29.25 43.1875 25.515625 
Q 47.21875 21.78125 47.21875 15.09375 
Q 47.21875 7.46875 41.1875 3.015625 
Q 35.15625 -1.421875 24.609375 -1.421875 
Q 20.21875 -1.421875 15.453125 -0.5625 
Q 10.6875 0.296875 5.421875 2 
L 5.421875 11.28125 
Q 10.40625 8.6875 15.234375 7.390625 
Q 20.0625 6.109375 24.8125 6.109375 
Q 31.15625 6.109375 34.5625 8.28125 
Q 37.984375 10.453125 37.984375 14.40625 
Q 37.984375 18.0625 35.515625 20.015625 
Q 33.0625 21.96875 24.703125 23.78125 
L 21.578125 24.515625 
Q 13.234375 26.265625 9.515625 29.90625 
Q 5.8125 33.546875 5.8125 39.890625 
Q 5.8125 47.609375 11.28125 51.796875 
Q 16.75 56 26.8125 56 
Q 31.78125 56 36.171875 55.265625 
Q 40.578125 54.546875 44.28125 53.078125 
z
" id="DejaVuSans-115"/>
       <path d="M 2.984375 54.6875 
L 12.5 54.6875 
L 29.59375 8.796875 
L 46.6875 54.6875 
L 56.203125 54.6875 
L 35.6875 0 
L 23.484375 0 
z
" id="DejaVuSans-118"/>
      </defs>
      <use xlink:href="#DejaVuSans-77"/>
      <use x="86.279297" xlink:href="#DejaVuSans-111"/>
      <use x="147.460938" xlink:href="#DejaVuSans-100"/>
      <use x="210.9375" xlink:href="#DejaVuSans-105"/>
      <use x="238.720703" xlink:href="#DejaVuSans-102"/>
      <use x="273.925781" xlink:href="#DejaVuSans-105"/>
      <use x="301.708984" xlink:href="#DejaVuSans-101"/>
      <use x="363.232422" xlink:href="#DejaVuSans-100"/>
      <use x="426.708984" xlink:href="#DejaVuSans-32"/>
      <use x="458.496094" xlink:href="#DejaVuSans-76"/>
      <use x="514.208984" xlink:href="#DejaVuSans-97"/>
      <use x="575.488281" xlink:href="#DejaVuSans-109"/>
      <use x="672.900391" xlink:href="#DejaVuSans-32"/>
      <use x="704.6875" xlink:href="#DejaVuSans-111"/>
      <use x="765.869141" xlink:href="#DejaVuSans-98"/>
      <use x="829.345703" xlink:href="#DejaVuSans-115"/>
      <use x="881.445312" xlink:href="#DejaVuSans-101"/>
      <use x="942.96875" xlink:href="#DejaVuSans-114"/>
      <use x="984.082031" xlink:href="#DejaVuSans-118"/>
      <use x="1043.261719" xlink:href="#DejaVuSans-101"/>
      <use x="1104.785156" xlink:href="#DejaVuSans-100"/>
      <use x="1168.261719" xlink:href="#DejaVuSans-32"/>
      <use x="1200.048828" xlink:href="#DejaVuSans-97"/>
      <use x="1261.328125" xlink:href="#DejaVuSans-99"/>
      <use x="1316.308594" xlink:href="#DejaVuSans-99"/>
      <use x="1371.289062" xlink:href="#DejaVuSans-101"/>
      <use x="1432.8125" xlink:href="#DejaVuSans-112"/>
      <use x="1496.289062" xlink:href="#DejaVuSans-116"/>
      <use x="1535.498047" xlink:href="#DejaVuSans-97"/>
      <use x="1596.777344" xlink:href="#DejaVuSans-110"/>
      <use x="1660.15625" xlink:href="#DejaVuSans-99"/>
      <use x="1715.136719" xlink:href="#DejaVuSans-101"/>
      <use x="1776.660156" xlink:href="#DejaVuSans-32"/>
      <use x="1808.447266" xlink:href="#DejaVuSans-114"/>
      <use x="1849.560547" xlink:href="#DejaVuSans-97"/>
      <use x="1910.839844" xlink:href="#DejaVuSans-116"/>
      <use x="1950.048828" xlink:href="#DejaVuSans-101"/>
     </g>
    </g>
    <g id="line2d_20">
     <path d="M 165.549687 83.926688 
L 185.549687 83.926688 
" style="fill:none;stroke:#2ca02c;stroke-linecap:square;stroke-width:1.5;"/>
    </g>
    <g id="line2d_21"/>
    <g id="text_15">
     <!-- Self-Tuning Lam observed acceptance rate -->
     <g transform="translate(193.549687 87.426688)scale(0.1 -0.1)">
      <defs>
       <path d="M 53.515625 70.515625 
L 53.515625 60.890625 
Q 47.90625 63.578125 42.921875 64.890625 
Q 37.9375 66.21875 33.296875 66.21875 
Q 25.25 66.21875 20.875 63.09375 
Q 16.5 59.96875 16.5 54.203125 
Q 16.5 49.359375 19.40625 46.890625 
Q 22.3125 44.4375 30.421875 42.921875 
L 36.375 41.703125 
Q 47.40625 39.59375 52.65625 34.296875 
Q 57.90625 29 57.90625 20.125 
Q 57.90625 9.515625 50.796875 4.046875 
Q 43.703125 -1.421875 29.984375 -1.421875 
Q 24.8125 -1.421875 18.96875 -0.25 
Q 13.140625 0.921875 6.890625 3.21875 
L 6.890625 13.375 
Q 12.890625 10.015625 18.65625 8.296875 
Q 24.421875 6.59375 29.984375 6.59375 
Q 38.421875 6.59375 43.015625 9.90625 
Q 47.609375 13.234375 47.609375 19.390625 
Q 47.609375 24.75 44.3125 27.78125 
Q 41.015625 30.8125 33.5 32.328125 
L 27.484375 33.5 
Q 16.453125 35.6875 11.515625 40.375 
Q 6.59375 45.0625 6.59375 53.421875 
Q 6.59375 63.09375 13.40625 68.65625 
Q 20.21875 74.21875 32.171875 74.21875 
Q 37.3125 74.21875 42.625 73.28125 
Q 47.953125 72.359375 53.515625 70.515625 
z
" id="DejaVuSans-83"/>
       <path d="M 9.421875 75.984375 
L 18.40625 75.984375 
L 18.40625 0 
L 9.421875 0 
z
" id="DejaVuSans-108"/>
       <path d="M 4.890625 31.390625 
L 31.203125 31.390625 
L 31.203125 23.390625 
L 4.890625 23.390625 
z
" id="DejaVuSans-45"/>
       <path d="M 8.5 21.578125 
L 8.5 54.6875 
L 17.484375 54.6875 
L 17.484375 21.921875 
Q 17.484375 14.15625 20.5 10.265625 
Q 23.53125 6.390625 29.59375 6.390625 
Q 36.859375 6.390625 41.078125 11.03125 
Q 45.3125 15.671875 45.3125 23.6875 
L 45.3125 54.6875 
L 54.296875 54.6875 
L 54.296875 0 
L 45.3125 0 
L 45.3125 8.40625 
Q 42.046875 3.421875 37.71875 1 
Q 33.40625 -1.421875 27.6875 -1.421875 
Q 18.265625 -1.421875 13.375 4.4375 
Q 8.5 10.296875 8.5 21.578125 
z
M 31.109375 56 
z
" id="DejaVuSans-117"/>
      </defs>
      <use xlink:href="#DejaVuSans-83"/>
      <use x="63.476562" xlink:href="#DejaVuSans-101"/>
      <use x="125" xlink:href="#DejaVuSans-108"/>
      <use x="152.783203" xlink:href="#DejaVuSans-102"/>
      <use x="182.488281" xlink:href="#DejaVuSans-45"/>
      <use x="209.447266" xlink:href="#DejaVuSans-84"/>
      <use x="255.40625" xlink:href="#DejaVuSans-117"/>
      <use x="318.785156" xlink:href="#DejaVuSans-110"/>
      <use x="382.164062" xlink:href="#DejaVuSans-105"/>
      <use x="409.947266" xlink:href="#DejaVuSans-110"/>
      <use x="473.326172" xlink:href="#DejaVuSans-103"/>
      <use x="536.802734" xlink:href="#DejaVuSans-32"/>
      <use x="568.589844" xlink:href="#DejaVuSans-76"/>
      <use x="624.302734" xlink:href="#DejaVuSans-97"/>
      <use x="685.582031" xlink:href="#DejaVuSans-109"/>
      <use x="782.994141" xlink:href="#DejaVuSans-32"/>
      <use x="814.78125" xlink:href="#DejaVuSans-111"/>
      <use x="875.962891" xlink:href="#DejaVuSans-98"/>
      <use x="939.439453" xlink:href="#DejaVuSans-115"/>
      <use x="991.539062" xlink:href="#DejaVuSans-101"/>
      <use x="1053.0625" xlink:href="#DejaVuSans-114"/>
      <use x="1094.175781" xlink:href="#DejaVuSans-118"/>
      <use x="1153.355469" xlink:href="#DejaVuSans-101"/>
      <use x="1214.878906" xlink:href="#DejaVuSans-100"/>
      <use x="1278.355469" xlink:href="#DejaVuSans-32"/>
      <use x="1310.142578" xlink:href="#DejaVuSans-97"/>
      <use x="1371.421875" xlink:href="#DejaVuSans-99"/>
      <use x="1426.402344" xlink:href="#DejaVuSans-99"/>
      <use x="1481.382812" xlink:href="#DejaVuSans-101"/>
      <use x="1542.90625" xlink:href="#DejaVuSans-112"/>
      <use x="1606.382812" xlink:href="#DejaVuSans-116"/>
      <use x="1645.591797" xlink:href="#DejaVuSans-97"/>
      <use x="1706.871094" xlink:href="#DejaVuSans-110"/>
      <use x="1770.25" xlink:href="#DejaVuSans-99"/>
      <use x="1825.230469" xlink:href="#DejaVuSans-101"/>
      <use x="1886.753906" xlink:href="#DejaVuSans-32"/>
      <use x="1918.541016" xlink:href="#DejaVuSans-114"/>
      <use x="1959.654297" xlink:href="#DejaVuSans-97"/>
      <use x="2020.933594" xlink:href="#DejaVuSans-116"/>
      <use x="2060.142578" xlink:href="#DejaVuSans-101"/>
     </g>
    </g>
   </g>
  </g>
 </g>
 <defs>
  <clipPath id="pf77b26a960">
   <rect height="266.112" width="357.12" x="57.6" y="41.472"/>
  </clipPath>
 </defs>
</svg>
