<?xml version="1.0" encoding="utf-8" standalone="no"?>
<!DOCTYPE svg PUBLIC "-//W3C//DTD SVG 1.1//EN"
  "http://www.w3.org/Graphics/SVG/1.1/DTD/svg11.dtd">
<!-- Created with matplotlib (https://matplotlib.org/) -->
<svg height="345.6pt" version="1.1" viewBox="0 0 460.8 345.6" width="460.8pt" xmlns="http://www.w3.org/2000/svg" xmlns:xlink="http://www.w3.org/1999/xlink">
 <metadata>
  <rdf:RDF xmlns:cc="http://creativecommons.org/ns#" xmlns:dc="http://purl.org/dc/elements/1.1/" xmlns:rdf="http://www.w3.org/1999/02/22-rdf-syntax-ns#">
   <cc:Work>
    <dc:type rdf:resource="http://purl.org/dc/dcmitype/StillImage"/>
    <dc:date>2021-03-15T17:13:04.596947</dc:date>
    <dc:format>image/svg+xml</dc:format>
    <dc:creator>
     <cc:Agent>
      <dc:title>Matplotlib v3.3.4, https://matplotlib.org/</dc:title>
     </cc:Agent>
    </dc:creator>
   </cc:Work>
  </rdf:RDF>
 </metadata>
 <defs>
  <style type="text/css">*{stroke-linecap:butt;stroke-linejoin:round;}</style>
 </defs>
 <g id="figure_1">
  <g id="patch_1">
   <path d="M 0 345.6 
L 460.8 345.6 
L 460.8 0 
L 0 0 
z
" style="fill:#ffffff;"/>
  </g>
  <g id="axes_1">
   <g id="patch_2">
    <path d="M 57.6 307.584 
L 414.72 307.584 
L 414.72 41.472 
L 57.6 41.472 
z
" style="fill:#ffffff;"/>
   </g>
   <g id="matplotlib.axis_1">
    <g id="xtick_1">
     <g id="line2d_1">
      <defs>
       <path d="M 0 0 
L 0 3.5 
" id="m95d5de8bec" style="stroke:#000000;stroke-width:0.8;"/>
      </defs>
      <g>
       <use style="stroke:#000000;stroke-width:0.8;" x="73.507748" xlink:href="#m95d5de8bec" y="307.584"/>
      </g>
     </g>
     <g id="text_1">
      <!-- 0 -->
      <g transform="translate(70.326498 322.182437)scale(0.1 -0.1)">
       <defs>
        <path d="M 31.78125 66.40625 
Q 24.171875 66.40625 20.328125 58.90625 
Q 16.5 51.421875 16.5 36.375 
Q 16.5 21.390625 20.328125 13.890625 
Q 24.171875 6.390625 31.78125 6.390625 
Q 39.453125 6.390625 43.28125 13.890625 
Q 47.125 21.390625 47.125 36.375 
Q 47.125 51.421875 43.28125 58.90625 
Q 39.453125 66.40625 31.78125 66.40625 
z
M 31.78125 74.21875 
Q 44.046875 74.21875 50.515625 64.515625 
Q 56.984375 54.828125 56.984375 36.375 
Q 56.984375 17.96875 50.515625 8.265625 
Q 44.046875 -1.421875 31.78125 -1.421875 
Q 19.53125 -1.421875 13.0625 8.265625 
Q 6.59375 17.96875 6.59375 36.375 
Q 6.59375 54.828125 13.0625 64.515625 
Q 19.53125 74.21875 31.78125 74.21875 
z
" id="DejaVuSans-48"/>
       </defs>
       <use xlink:href="#DejaVuSans-48"/>
      </g>
     </g>
    </g>
    <g id="xtick_2">
     <g id="line2d_2">
      <g>
       <use style="stroke:#000000;stroke-width:0.8;" x="138.503653" xlink:href="#m95d5de8bec" y="307.584"/>
      </g>
     </g>
     <g id="text_2">
      <!-- 200 -->
      <g transform="translate(128.959903 322.182437)scale(0.1 -0.1)">
       <defs>
        <path d="M 19.1875 8.296875 
L 53.609375 8.296875 
L 53.609375 0 
L 7.328125 0 
L 7.328125 8.296875 
Q 12.9375 14.109375 22.625 23.890625 
Q 32.328125 33.6875 34.8125 36.53125 
Q 39.546875 41.84375 41.421875 45.53125 
Q 43.3125 49.21875 43.3125 52.78125 
Q 43.3125 58.59375 39.234375 62.25 
Q 35.15625 65.921875 28.609375 65.921875 
Q 23.96875 65.921875 18.8125 64.3125 
Q 13.671875 62.703125 7.8125 59.421875 
L 7.8125 69.390625 
Q 13.765625 71.78125 18.9375 73 
Q 24.125 74.21875 28.421875 74.21875 
Q 39.75 74.21875 46.484375 68.546875 
Q 53.21875 62.890625 53.21875 53.421875 
Q 53.21875 48.921875 51.53125 44.890625 
Q 49.859375 40.875 45.40625 35.40625 
Q 44.1875 33.984375 37.640625 27.21875 
Q 31.109375 20.453125 19.1875 8.296875 
z
" id="DejaVuSans-50"/>
       </defs>
       <use xlink:href="#DejaVuSans-50"/>
       <use x="63.623047" xlink:href="#DejaVuSans-48"/>
       <use x="127.246094" xlink:href="#DejaVuSans-48"/>
      </g>
     </g>
    </g>
    <g id="xtick_3">
     <g id="line2d_3">
      <g>
       <use style="stroke:#000000;stroke-width:0.8;" x="203.499558" xlink:href="#m95d5de8bec" y="307.584"/>
      </g>
     </g>
     <g id="text_3">
      <!-- 400 -->
      <g transform="translate(193.955808 322.182437)scale(0.1 -0.1)">
       <defs>
        <path d="M 37.796875 64.3125 
L 12.890625 25.390625 
L 37.796875 25.390625 
z
M 35.203125 72.90625 
L 47.609375 72.90625 
L 47.609375 25.390625 
L 58.015625 25.390625 
L 58.015625 17.1875 
L 47.609375 17.1875 
L 47.609375 0 
L 37.796875 0 
L 37.796875 17.1875 
L 4.890625 17.1875 
L 4.890625 26.703125 
z
" id="DejaVuSans-52"/>
       </defs>
       <use xlink:href="#DejaVuSans-52"/>
       <use x="63.623047" xlink:href="#DejaVuSans-48"/>
       <use x="127.246094" xlink:href="#DejaVuSans-48"/>
      </g>
     </g>
    </g>
    <g id="xtick_4">
     <g id="line2d_4">
      <g>
       <use style="stroke:#000000;stroke-width:0.8;" x="268.495463" xlink:href="#m95d5de8bec" y="307.584"/>
      </g>
     </g>
     <g id="text_4">
      <!-- 600 -->
      <g transform="translate(258.951713 322.182437)scale(0.1 -0.1)">
       <defs>
        <path d="M 33.015625 40.375 
Q 26.375 40.375 22.484375 35.828125 
Q 18.609375 31.296875 18.609375 23.390625 
Q 18.609375 15.53125 22.484375 10.953125 
Q 26.375 6.390625 33.015625 6.390625 
Q 39.65625 6.390625 43.53125 10.953125 
Q 47.40625 15.53125 47.40625 23.390625 
Q 47.40625 31.296875 43.53125 35.828125 
Q 39.65625 40.375 33.015625 40.375 
z
M 52.59375 71.296875 
L 52.59375 62.3125 
Q 48.875 64.0625 45.09375 64.984375 
Q 41.3125 65.921875 37.59375 65.921875 
Q 27.828125 65.921875 22.671875 59.328125 
Q 17.53125 52.734375 16.796875 39.40625 
Q 19.671875 43.65625 24.015625 45.921875 
Q 28.375 48.1875 33.59375 48.1875 
Q 44.578125 48.1875 50.953125 41.515625 
Q 57.328125 34.859375 57.328125 23.390625 
Q 57.328125 12.15625 50.6875 5.359375 
Q 44.046875 -1.421875 33.015625 -1.421875 
Q 20.359375 -1.421875 13.671875 8.265625 
Q 6.984375 17.96875 6.984375 36.375 
Q 6.984375 53.65625 15.1875 63.9375 
Q 23.390625 74.21875 37.203125 74.21875 
Q 40.921875 74.21875 44.703125 73.484375 
Q 48.484375 72.75 52.59375 71.296875 
z
" id="DejaVuSans-54"/>
       </defs>
       <use xlink:href="#DejaVuSans-54"/>
       <use x="63.623047" xlink:href="#DejaVuSans-48"/>
       <use x="127.246094" xlink:href="#DejaVuSans-48"/>
      </g>
     </g>
    </g>
    <g id="xtick_5">
     <g id="line2d_5">
      <g>
       <use style="stroke:#000000;stroke-width:0.8;" x="333.491368" xlink:href="#m95d5de8bec" y="307.584"/>
      </g>
     </g>
     <g id="text_5">
      <!-- 800 -->
      <g transform="translate(323.947618 322.182437)scale(0.1 -0.1)">
       <defs>
        <path d="M 31.78125 34.625 
Q 24.75 34.625 20.71875 30.859375 
Q 16.703125 27.09375 16.703125 20.515625 
Q 16.703125 13.921875 20.71875 10.15625 
Q 24.75 6.390625 31.78125 6.390625 
Q 38.8125 6.390625 42.859375 10.171875 
Q 46.921875 13.96875 46.921875 20.515625 
Q 46.921875 27.09375 42.890625 30.859375 
Q 38.875 34.625 31.78125 34.625 
z
M 21.921875 38.8125 
Q 15.578125 40.375 12.03125 44.71875 
Q 8.5 49.078125 8.5 55.328125 
Q 8.5 64.0625 14.71875 69.140625 
Q 20.953125 74.21875 31.78125 74.21875 
Q 42.671875 74.21875 48.875 69.140625 
Q 55.078125 64.0625 55.078125 55.328125 
Q 55.078125 49.078125 51.53125 44.71875 
Q 48 40.375 41.703125 38.8125 
Q 48.828125 37.15625 52.796875 32.3125 
Q 56.78125 27.484375 56.78125 20.515625 
Q 56.78125 9.90625 50.3125 4.234375 
Q 43.84375 -1.421875 31.78125 -1.421875 
Q 19.734375 -1.421875 13.25 4.234375 
Q 6.78125 9.90625 6.78125 20.515625 
Q 6.78125 27.484375 10.78125 32.3125 
Q 14.796875 37.15625 21.921875 38.8125 
z
M 18.3125 54.390625 
Q 18.3125 48.734375 21.84375 45.5625 
Q 25.390625 42.390625 31.78125 42.390625 
Q 38.140625 42.390625 41.71875 45.5625 
Q 45.3125 48.734375 45.3125 54.390625 
Q 45.3125 60.0625 41.71875 63.234375 
Q 38.140625 66.40625 31.78125 66.40625 
Q 25.390625 66.40625 21.84375 63.234375 
Q 18.3125 60.0625 18.3125 54.390625 
z
" id="DejaVuSans-56"/>
       </defs>
       <use xlink:href="#DejaVuSans-56"/>
       <use x="63.623047" xlink:href="#DejaVuSans-48"/>
       <use x="127.246094" xlink:href="#DejaVuSans-48"/>
      </g>
     </g>
    </g>
    <g id="xtick_6">
     <g id="line2d_6">
      <g>
       <use style="stroke:#000000;stroke-width:0.8;" x="398.487273" xlink:href="#m95d5de8bec" y="307.584"/>
      </g>
     </g>
     <g id="text_6">
      <!-- 1000 -->
      <g transform="translate(385.762273 322.182437)scale(0.1 -0.1)">
       <defs>
        <path d="M 12.40625 8.296875 
L 28.515625 8.296875 
L 28.515625 63.921875 
L 10.984375 60.40625 
L 10.984375 69.390625 
L 28.421875 72.90625 
L 38.28125 72.90625 
L 38.28125 8.296875 
L 54.390625 8.296875 
L 54.390625 0 
L 12.40625 0 
z
" id="DejaVuSans-49"/>
       </defs>
       <use xlink:href="#DejaVuSans-49"/>
       <use x="63.623047" xlink:href="#DejaVuSans-48"/>
       <use x="127.246094" xlink:href="#DejaVuSans-48"/>
       <use x="190.869141" xlink:href="#DejaVuSans-48"/>
      </g>
     </g>
    </g>
   </g>
   <g id="matplotlib.axis_2">
    <g id="ytick_1">
     <g id="line2d_7">
      <defs>
       <path d="M 0 0 
L -3.5 0 
" id="m0cbee723cc" style="stroke:#000000;stroke-width:0.8;"/>
      </defs>
      <g>
       <use style="stroke:#000000;stroke-width:0.8;" x="57.6" xlink:href="#m0cbee723cc" y="295.730162"/>
      </g>
     </g>
     <g id="text_7">
      <!-- 0.0 -->
      <g transform="translate(34.696875 299.529381)scale(0.1 -0.1)">
       <defs>
        <path d="M 10.6875 12.40625 
L 21 12.40625 
L 21 0 
L 10.6875 0 
z
" id="DejaVuSans-46"/>
       </defs>
       <use xlink:href="#DejaVuSans-48"/>
       <use x="63.623047" xlink:href="#DejaVuSans-46"/>
       <use x="95.410156" xlink:href="#DejaVuSans-48"/>
      </g>
     </g>
    </g>
    <g id="ytick_2">
     <g id="line2d_8">
      <g>
       <use style="stroke:#000000;stroke-width:0.8;" x="57.6" xlink:href="#m0cbee723cc" y="247.29773"/>
      </g>
     </g>
     <g id="text_8">
      <!-- 0.2 -->
      <g transform="translate(34.696875 251.096948)scale(0.1 -0.1)">
       <use xlink:href="#DejaVuSans-48"/>
       <use x="63.623047" xlink:href="#DejaVuSans-46"/>
       <use x="95.410156" xlink:href="#DejaVuSans-50"/>
      </g>
     </g>
    </g>
    <g id="ytick_3">
     <g id="line2d_9">
      <g>
       <use style="stroke:#000000;stroke-width:0.8;" x="57.6" xlink:href="#m0cbee723cc" y="198.865297"/>
      </g>
     </g>
     <g id="text_9">
      <!-- 0.4 -->
      <g transform="translate(34.696875 202.664516)scale(0.1 -0.1)">
       <use xlink:href="#DejaVuSans-48"/>
       <use x="63.623047" xlink:href="#DejaVuSans-46"/>
       <use x="95.410156" xlink:href="#DejaVuSans-52"/>
      </g>
     </g>
    </g>
    <g id="ytick_4">
     <g id="line2d_10">
      <g>
       <use style="stroke:#000000;stroke-width:0.8;" x="57.6" xlink:href="#m0cbee723cc" y="150.432865"/>
      </g>
     </g>
     <g id="text_10">
      <!-- 0.6 -->
      <g transform="translate(34.696875 154.232084)scale(0.1 -0.1)">
       <use xlink:href="#DejaVuSans-48"/>
       <use x="63.623047" xlink:href="#DejaVuSans-46"/>
       <use x="95.410156" xlink:href="#DejaVuSans-54"/>
      </g>
     </g>
    </g>
    <g id="ytick_5">
     <g id="line2d_11">
      <g>
       <use style="stroke:#000000;stroke-width:0.8;" x="57.6" xlink:href="#m0cbee723cc" y="102.000432"/>
      </g>
     </g>
     <g id="text_11">
      <!-- 0.8 -->
      <g transform="translate(34.696875 105.799651)scale(0.1 -0.1)">
       <use xlink:href="#DejaVuSans-48"/>
       <use x="63.623047" xlink:href="#DejaVuSans-46"/>
       <use x="95.410156" xlink:href="#DejaVuSans-56"/>
      </g>
     </g>
    </g>
    <g id="ytick_6">
     <g id="line2d_12">
      <g>
       <use style="stroke:#000000;stroke-width:0.8;" x="57.6" xlink:href="#m0cbee723cc" y="53.568"/>
      </g>
     </g>
     <g id="text_12">
      <!-- 1.0 -->
      <g transform="translate(34.696875 57.367219)scale(0.1 -0.1)">
       <use xlink:href="#DejaVuSans-49"/>
       <use x="63.623047" xlink:href="#DejaVuSans-46"/>
       <use x="95.410156" xlink:href="#DejaVuSans-48"/>
      </g>
     </g>
    </g>
   </g>
   <g id="line2d_13">
    <path clip-path="url(#p632e531cf7)" d="M 73.832727 59.169918 
L 75.132645 79.35714 
L 76.432563 96.409778 
L 77.732482 110.814554 
L 79.0324 122.982619 
L 80.332318 133.26128 
L 81.632236 141.943914 
L 82.932154 149.278345 
L 84.232072 155.473918 
L 85.53199 160.707469 
L 86.831908 165.128377 
L 88.131826 168.862825 
L 89.431744 172.017404 
L 90.731663 174.682153 
L 92.031581 176.933132 
L 93.656478 179.261896 
L 95.281376 181.147798 
L 96.906274 182.675058 
L 98.531171 183.911878 
L 100.481048 185.089687 
L 102.430925 186.00411 
L 104.705782 186.815864 
L 107.305618 187.492708 
L 110.230434 188.025377 
L 113.805209 188.453609 
L 118.679902 188.793652 
L 122.254676 188.936649 
L 122.579656 189.178811 
L 284.744439 189.178811 
L 286.694316 199.736484 
L 288.644193 209.248048 
L 290.59407 217.817155 
L 292.543948 225.537189 
L 294.818804 233.582531 
L 297.093661 240.705735 
L 299.368518 247.012496 
L 301.643374 252.596392 
L 303.918231 257.540276 
L 306.193088 261.917504 
L 308.467944 265.793025 
L 310.742801 269.224344 
L 313.017658 272.262374 
L 315.292514 274.952193 
L 317.567371 277.333711 
L 320.167207 279.723076 
L 322.767043 281.802106 
L 325.36688 283.611108 
L 328.291695 285.366954 
L 331.216511 286.868407 
L 334.466306 288.282971 
L 338.041081 289.579632 
L 341.940835 290.738101 
L 346.165569 291.748224 
L 350.715283 292.608712 
L 355.914955 293.366895 
L 362.089566 294.031875 
L 369.239115 294.571782 
L 378.013563 295.005847 
L 389.387846 295.336084 
L 398.487273 295.488 
L 398.487273 295.488 
" style="fill:none;stroke:#1f77b4;stroke-linecap:square;stroke-width:1.5;"/>
   </g>
   <g id="line2d_14">
    <path clip-path="url(#p632e531cf7)" d="M 74.157707 162.540973 
L 74.482686 157.69773 
L 74.807666 148.011243 
L 75.132645 148.011243 
L 75.457625 157.69773 
L 75.782604 184.335568 
L 76.107584 157.69773 
L 76.432563 164.962595 
L 76.757543 162.540973 
L 77.407502 162.540973 
L 77.732482 167.384216 
L 78.382441 172.227459 
L 78.70742 172.227459 
L 79.0324 167.384216 
L 79.682359 167.384216 
L 80.007338 162.540973 
L 80.332318 155.276108 
L 80.657297 155.276108 
L 80.982277 157.69773 
L 81.307256 162.540973 
L 81.632236 172.227459 
L 81.957215 172.227459 
L 82.282195 160.119351 
L 82.607174 160.119351 
L 82.932154 169.805838 
L 83.257133 169.805838 
L 83.582113 157.69773 
L 83.907093 157.69773 
L 84.232072 160.119351 
L 84.557052 164.962595 
L 84.882031 164.962595 
L 85.207011 174.649081 
L 85.53199 174.649081 
L 85.85697 184.335568 
L 86.181949 172.227459 
L 86.506929 179.492324 
L 87.156888 167.384216 
L 87.481867 167.384216 
L 87.806847 172.227459 
L 88.131826 172.227459 
L 88.456806 160.119351 
L 88.781785 160.119351 
L 89.106765 164.962595 
L 89.431744 177.070703 
L 89.756724 179.492324 
L 90.081704 179.492324 
L 90.406683 172.227459 
L 90.731663 169.805838 
L 91.056642 172.227459 
L 91.381622 189.178811 
L 91.706601 189.178811 
L 92.031581 174.649081 
L 92.35656 174.649081 
L 92.68154 177.070703 
L 93.006519 177.070703 
L 93.331499 186.757189 
L 93.656478 186.757189 
L 93.981458 172.227459 
L 94.631417 172.227459 
L 94.956396 174.649081 
L 95.281376 179.492324 
L 95.606355 177.070703 
L 95.931335 179.492324 
L 96.256314 184.335568 
L 96.906274 184.335568 
L 97.231253 181.913946 
L 97.556233 181.913946 
L 97.881212 174.649081 
L 98.206192 181.913946 
L 98.531171 194.022054 
L 98.856151 194.022054 
L 99.18113 198.865297 
L 99.50611 186.757189 
L 100.156069 181.913946 
L 100.481048 181.913946 
L 100.806028 203.708541 
L 101.131007 203.708541 
L 101.455987 201.286919 
L 101.780966 196.443676 
L 102.105946 177.070703 
L 102.430925 196.443676 
L 102.755905 201.286919 
L 103.080885 210.973405 
L 103.405864 210.973405 
L 103.730844 186.757189 
L 104.055823 186.757189 
L 104.380803 201.286919 
L 104.705782 201.286919 
L 105.030762 208.551784 
L 105.680721 208.551784 
L 106.33068 184.335568 
L 106.655659 194.022054 
L 106.980639 194.022054 
L 107.305618 198.865297 
L 107.630598 196.443676 
L 107.955577 196.443676 
L 108.280557 194.022054 
L 108.605536 184.335568 
L 108.930516 194.022054 
L 109.255495 210.973405 
L 109.580475 210.973405 
L 110.230434 189.178811 
L 110.555414 189.178811 
L 110.880393 210.973405 
L 111.205373 210.973405 
L 111.530352 203.708541 
L 111.855332 184.335568 
L 112.180311 196.443676 
L 113.15525 196.443676 
L 113.480229 194.022054 
L 114.130188 194.022054 
L 114.455168 201.286919 
L 114.780147 198.865297 
L 115.105127 206.130162 
L 115.755086 206.130162 
L 116.080066 208.551784 
L 116.405045 196.443676 
L 116.730025 194.022054 
L 117.055004 177.070703 
L 117.379984 191.600432 
L 117.704963 191.600432 
L 118.029943 218.23827 
L 118.354922 218.23827 
L 118.679902 191.600432 
L 119.004881 191.600432 
L 119.329861 206.130162 
L 119.65484 206.130162 
L 119.97982 201.286919 
L 120.304799 201.286919 
L 120.629779 203.708541 
L 121.279738 203.708541 
L 121.604717 201.286919 
L 121.929697 203.708541 
L 122.254676 208.551784 
L 122.579656 208.551784 
L 122.904636 198.865297 
L 123.229615 198.865297 
L 123.554595 220.659892 
L 123.879574 220.659892 
L 124.204554 213.395027 
L 124.854513 213.395027 
L 125.179492 215.816649 
L 125.504472 213.395027 
L 125.829451 206.130162 
L 126.154431 203.708541 
L 126.80439 203.708541 
L 127.129369 215.816649 
L 127.454349 215.816649 
L 127.779328 223.081514 
L 128.429287 223.081514 
L 128.754267 225.503135 
L 129.079247 225.503135 
L 129.729206 210.973405 
L 131.029124 210.973405 
L 131.354103 206.130162 
L 132.004062 220.659892 
L 132.329042 223.081514 
L 132.654021 227.924757 
L 132.979001 223.081514 
L 133.30398 213.395027 
L 133.953939 213.395027 
L 134.278919 218.23827 
L 134.603898 215.816649 
L 134.928878 218.23827 
L 135.253857 215.816649 
L 135.903817 232.768 
L 136.228796 232.768 
L 136.878755 218.23827 
L 138.828632 218.23827 
L 139.153612 220.659892 
L 139.478591 210.973405 
L 139.803571 220.659892 
L 140.12855 213.395027 
L 140.45353 227.924757 
L 140.778509 223.081514 
L 141.103489 227.924757 
L 141.428468 225.503135 
L 141.753448 227.924757 
L 142.403407 227.924757 
L 142.728387 218.23827 
L 143.378346 218.23827 
L 143.703325 230.346378 
L 144.028305 215.816649 
L 144.353284 218.23827 
L 144.678264 218.23827 
L 145.003243 223.081514 
L 145.328223 223.081514 
L 145.653202 225.503135 
L 145.978182 213.395027 
L 146.303161 215.816649 
L 146.628141 215.816649 
L 146.95312 225.503135 
L 147.2781 225.503135 
L 147.603079 223.081514 
L 147.928059 223.081514 
L 148.253038 220.659892 
L 149.227977 220.659892 
L 149.552957 227.924757 
L 149.877936 220.659892 
L 150.202916 218.23827 
L 150.527895 208.551784 
L 150.852875 218.23827 
L 151.177854 237.611243 
L 151.827813 237.611243 
L 152.152793 218.23827 
L 152.477772 218.23827 
L 153.127731 232.768 
L 153.77769 232.768 
L 154.10267 230.346378 
L 155.077609 230.346378 
L 155.402588 225.503135 
L 156.052547 225.503135 
L 156.377527 232.768 
L 156.702506 232.768 
L 157.027486 240.032865 
L 157.677445 240.032865 
L 158.002424 230.346378 
L 158.327404 242.454486 
L 158.652383 225.503135 
L 158.977363 227.924757 
L 160.277281 227.924757 
L 160.92724 242.454486 
L 161.252219 242.454486 
L 161.577199 237.611243 
L 161.902179 230.346378 
L 162.227158 237.611243 
L 162.552138 240.032865 
L 163.202097 240.032865 
L 163.527076 232.768 
L 164.502015 232.768 
L 165.151974 227.924757 
L 165.476953 227.924757 
L 165.801933 230.346378 
L 166.126912 235.189622 
L 166.451892 235.189622 
L 166.776871 237.611243 
L 167.101851 235.189622 
L 168.07679 235.189622 
L 168.401769 237.611243 
L 169.051728 237.611243 
L 169.376708 230.346378 
L 170.026667 230.346378 
L 170.351646 225.503135 
L 170.676626 225.503135 
L 171.001605 223.081514 
L 171.326585 227.924757 
L 171.651564 227.924757 
L 172.301523 242.454486 
L 172.626503 237.611243 
L 172.951482 237.611243 
L 173.276462 235.189622 
L 173.601441 235.189622 
L 173.926421 237.611243 
L 174.2514 237.611243 
L 174.57638 225.503135 
L 175.226339 225.503135 
L 175.551319 242.454486 
L 175.876298 230.346378 
L 176.201278 232.768 
L 176.526257 232.768 
L 176.851237 235.189622 
L 177.176216 235.189622 
L 177.501196 232.768 
L 178.151155 232.768 
L 178.476134 247.29773 
L 178.801114 232.768 
L 179.126093 232.768 
L 179.451073 225.503135 
L 179.776052 225.503135 
L 180.101032 235.189622 
L 180.426011 237.611243 
L 181.40095 237.611243 
L 181.72593 232.768 
L 182.050909 232.768 
L 182.375889 225.503135 
L 182.700868 225.503135 
L 183.025848 227.924757 
L 183.350827 232.768 
L 183.675807 230.346378 
L 184.650745 230.346378 
L 184.975725 242.454486 
L 185.300704 242.454486 
L 185.625684 232.768 
L 185.950663 232.768 
L 186.275643 227.924757 
L 186.600622 232.768 
L 186.925602 232.768 
L 187.250581 235.189622 
L 187.900541 235.189622 
L 188.22552 230.346378 
L 188.5505 232.768 
L 189.200459 232.768 
L 189.525438 230.346378 
L 190.175397 230.346378 
L 190.500377 232.768 
L 190.825356 232.768 
L 191.150336 240.032865 
L 191.475315 240.032865 
L 191.800295 232.768 
L 192.125274 230.346378 
L 192.450254 230.346378 
L 193.100213 235.189622 
L 193.425192 242.454486 
L 194.075152 242.454486 
L 194.400131 240.032865 
L 194.725111 240.032865 
L 195.05009 232.768 
L 195.37507 247.29773 
L 195.700049 237.611243 
L 196.025029 244.876108 
L 196.674988 244.876108 
L 197.324947 235.189622 
L 198.299885 235.189622 
L 198.624865 240.032865 
L 198.949844 230.346378 
L 199.274824 254.562595 
L 199.599803 235.189622 
L 199.924783 242.454486 
L 200.249762 235.189622 
L 200.574742 242.454486 
L 200.899722 227.924757 
L 201.224701 232.768 
L 201.549681 232.768 
L 201.87466 237.611243 
L 202.19964 237.611243 
L 202.524619 227.924757 
L 202.849599 227.924757 
L 203.174578 235.189622 
L 203.499558 235.189622 
L 203.824537 232.768 
L 204.149517 232.768 
L 204.474496 237.611243 
L 204.799476 237.611243 
L 205.124455 244.876108 
L 205.449435 242.454486 
L 205.774414 244.876108 
L 206.099394 242.454486 
L 206.424373 237.611243 
L 208.049271 237.611243 
L 208.374251 244.876108 
L 208.69923 247.29773 
L 209.349189 247.29773 
L 209.674169 244.876108 
L 210.324128 244.876108 
L 210.649107 237.611243 
L 210.974087 235.189622 
L 211.624046 235.189622 
L 211.949025 240.032865 
L 212.274005 240.032865 
L 212.598984 235.189622 
L 212.923964 235.189622 
L 213.248943 247.29773 
L 213.573923 247.29773 
L 214.223882 223.081514 
L 214.873841 223.081514 
L 215.198821 218.23827 
L 215.5238 240.032865 
L 215.84878 247.29773 
L 216.173759 247.29773 
L 216.498739 244.876108 
L 216.823718 244.876108 
L 217.148698 247.29773 
L 217.473677 247.29773 
L 217.798657 240.032865 
L 218.123636 240.032865 
L 218.448616 235.189622 
L 218.773595 240.032865 
L 219.098575 232.768 
L 219.423554 242.454486 
L 219.748534 232.768 
L 220.073514 227.924757 
L 220.398493 227.924757 
L 220.723473 249.719351 
L 221.048452 249.719351 
L 221.373432 240.032865 
L 223.323309 240.032865 
L 223.648288 249.719351 
L 223.973268 230.346378 
L 224.298247 237.611243 
L 224.623227 232.768 
L 225.273186 242.454486 
L 225.598165 242.454486 
L 225.923145 227.924757 
L 226.573104 227.924757 
L 226.898084 235.189622 
L 227.223063 227.924757 
L 227.548043 237.611243 
L 227.873022 230.346378 
L 228.198002 240.032865 
L 228.847961 240.032865 
L 229.17294 254.562595 
L 229.49792 242.454486 
L 229.822899 242.454486 
L 230.147879 235.189622 
L 230.472858 235.189622 
L 230.797838 247.29773 
L 231.447797 247.29773 
L 231.772776 242.454486 
L 233.072695 242.454486 
L 233.397674 227.924757 
L 234.697592 227.924757 
L 235.022572 240.032865 
L 235.347551 242.454486 
L 235.672531 240.032865 
L 235.99751 232.768 
L 236.32249 232.768 
L 236.647469 235.189622 
L 237.297428 235.189622 
L 237.622408 237.611243 
L 238.922326 237.611243 
L 239.247305 249.719351 
L 240.222244 249.719351 
L 240.547224 227.924757 
L 240.872203 223.081514 
L 242.172121 223.081514 
L 242.497101 225.503135 
L 242.82208 232.768 
L 243.472039 232.768 
L 243.797019 240.032865 
L 244.121998 240.032865 
L 244.446978 242.454486 
L 244.771957 225.503135 
L 245.096937 240.032865 
L 245.421916 227.924757 
L 246.396855 227.924757 
L 246.721835 244.876108 
L 247.046814 249.719351 
L 247.371794 249.719351 
L 247.696773 232.768 
L 248.021753 232.768 
L 248.346732 235.189622 
L 248.671712 235.189622 
L 248.996691 240.032865 
L 249.321671 232.768 
L 249.64665 237.611243 
L 249.97163 235.189622 
L 251.271548 235.189622 
L 251.596527 227.924757 
L 251.921507 227.924757 
L 252.246486 230.346378 
L 253.546405 230.346378 
L 253.871384 227.924757 
L 254.196364 227.924757 
L 254.521343 237.611243 
L 254.846323 237.611243 
L 255.171302 235.189622 
L 255.821261 235.189622 
L 256.146241 232.768 
L 256.47122 232.768 
L 256.7962 215.816649 
L 257.121179 223.081514 
L 257.771138 223.081514 
L 258.096118 227.924757 
L 258.421097 223.081514 
L 258.746077 227.924757 
L 259.396036 227.924757 
L 259.721016 223.081514 
L 260.045995 223.081514 
L 260.370975 237.611243 
L 260.695954 237.611243 
L 261.020934 225.503135 
L 261.345913 225.503135 
L 261.670893 227.924757 
L 261.995872 227.924757 
L 262.320852 218.23827 
L 262.970811 218.23827 
L 263.945749 240.032865 
L 264.270729 240.032865 
L 264.595708 235.189622 
L 264.920688 232.768 
L 265.570647 218.23827 
L 265.895627 225.503135 
L 266.220606 237.611243 
L 266.870565 237.611243 
L 267.195545 223.081514 
L 267.520524 215.816649 
L 267.845504 223.081514 
L 268.170483 213.395027 
L 268.495463 225.503135 
L 268.820442 227.924757 
L 269.470401 227.924757 
L 269.795381 232.768 
L 270.12036 232.768 
L 270.44534 227.924757 
L 271.095299 227.924757 
L 271.420278 223.081514 
L 272.070238 223.081514 
L 272.395217 218.23827 
L 272.720197 210.973405 
L 273.045176 210.973405 
L 273.370156 208.551784 
L 273.695135 218.23827 
L 274.020115 218.23827 
L 274.670074 237.611243 
L 274.995053 237.611243 
L 275.969992 230.346378 
L 276.294971 218.23827 
L 276.619951 218.23827 
L 276.94493 237.611243 
L 277.26991 237.611243 
L 277.919869 223.081514 
L 278.569828 223.081514 
L 278.894808 242.454486 
L 279.219787 242.454486 
L 279.869746 225.503135 
L 280.194726 235.189622 
L 280.519705 215.816649 
L 280.844685 227.924757 
L 281.169664 215.816649 
L 281.494644 223.081514 
L 281.819623 215.816649 
L 282.144603 213.395027 
L 282.794562 213.395027 
L 283.119541 227.924757 
L 283.444521 223.081514 
L 283.7695 223.081514 
L 284.09448 215.816649 
L 284.744439 215.816649 
L 285.069419 230.346378 
L 285.394398 215.816649 
L 285.719378 230.346378 
L 286.044357 225.503135 
L 286.694316 225.503135 
L 287.019296 220.659892 
L 287.344275 218.23827 
L 287.669255 218.23827 
L 287.994234 227.924757 
L 288.644193 227.924757 
L 288.969173 225.503135 
L 289.294152 198.865297 
L 289.619132 225.503135 
L 289.944111 203.708541 
L 290.269091 232.768 
L 290.59407 218.23827 
L 290.91905 223.081514 
L 291.244029 220.659892 
L 291.569009 223.081514 
L 291.893989 220.659892 
L 292.218968 230.346378 
L 292.543948 223.081514 
L 292.868927 230.346378 
L 293.193907 223.081514 
L 293.518886 220.659892 
L 293.843866 220.659892 
L 294.168845 223.081514 
L 294.493825 223.081514 
L 294.818804 218.23827 
L 295.143784 218.23827 
L 295.468763 208.551784 
L 295.793743 210.973405 
L 296.118722 210.973405 
L 296.443702 223.081514 
L 297.093661 227.924757 
L 297.41864 227.924757 
L 297.74362 240.032865 
L 298.393579 210.973405 
L 298.718559 210.973405 
L 299.368518 244.876108 
L 299.693497 244.876108 
L 300.018477 227.924757 
L 300.343456 225.503135 
L 300.668436 220.659892 
L 301.318395 220.659892 
L 301.643374 218.23827 
L 301.968354 223.081514 
L 302.293333 230.346378 
L 302.618313 232.768 
L 302.943292 230.346378 
L 303.268272 232.768 
L 303.593251 220.659892 
L 303.918231 218.23827 
L 304.24321 218.23827 
L 304.56819 225.503135 
L 304.89317 225.503135 
L 305.218149 218.23827 
L 305.868108 218.23827 
L 306.193088 223.081514 
L 306.843047 223.081514 
L 307.168026 225.503135 
L 307.493006 210.973405 
L 307.817985 230.346378 
L 308.792924 230.346378 
L 309.117903 227.924757 
L 309.442883 227.924757 
L 309.767862 223.081514 
L 310.092842 223.081514 
L 310.417821 227.924757 
L 310.742801 227.924757 
L 311.067781 225.503135 
L 311.39276 225.503135 
L 311.71774 218.23827 
L 312.042719 218.23827 
L 312.367699 215.816649 
L 312.692678 215.816649 
L 313.017658 225.503135 
L 313.342637 230.346378 
L 313.992596 230.346378 
L 314.317576 232.768 
L 314.642555 223.081514 
L 314.967535 223.081514 
L 315.292514 218.23827 
L 315.617494 218.23827 
L 316.267453 227.924757 
L 316.592432 227.924757 
L 316.917412 240.032865 
L 317.242391 225.503135 
L 317.567371 237.611243 
L 317.892351 225.503135 
L 318.21733 237.611243 
L 318.54231 225.503135 
L 318.867289 232.768 
L 319.192269 218.23827 
L 319.842228 218.23827 
L 320.167207 225.503135 
L 320.492187 225.503135 
L 320.817166 230.346378 
L 321.142146 230.346378 
L 321.467125 237.611243 
L 321.792105 237.611243 
L 322.117084 240.032865 
L 322.442064 237.611243 
L 323.092023 237.611243 
L 323.417002 230.346378 
L 324.066962 230.346378 
L 324.391941 232.768 
L 326.016839 232.768 
L 326.341818 235.189622 
L 326.991777 235.189622 
L 327.316757 225.503135 
L 327.641736 235.189622 
L 328.616675 235.189622 
L 328.941654 232.768 
L 329.266634 235.189622 
L 329.591613 230.346378 
L 329.916593 223.081514 
L 330.241572 223.081514 
L 330.566552 225.503135 
L 330.891532 225.503135 
L 331.216511 220.659892 
L 331.541491 220.659892 
L 331.86647 232.768 
L 332.841409 232.768 
L 333.491368 227.924757 
L 334.141327 227.924757 
L 334.466306 230.346378 
L 334.791286 237.611243 
L 335.116265 230.346378 
L 335.441245 227.924757 
L 335.766224 223.081514 
L 336.091204 225.503135 
L 336.741163 225.503135 
L 337.066143 220.659892 
L 337.391122 220.659892 
L 337.716102 215.816649 
L 338.366061 230.346378 
L 338.69104 232.768 
L 339.01602 240.032865 
L 339.340999 232.768 
L 339.665979 232.768 
L 339.990958 225.503135 
L 340.315938 232.768 
L 340.640917 235.189622 
L 340.965897 235.189622 
L 341.290876 232.768 
L 341.615856 227.924757 
L 341.940835 232.768 
L 342.590794 232.768 
L 342.915774 225.503135 
L 343.240753 225.503135 
L 343.565733 230.346378 
L 343.890713 230.346378 
L 344.215692 225.503135 
L 344.540672 225.503135 
L 344.865651 232.768 
L 345.84059 232.768 
L 346.165569 242.454486 
L 346.815528 242.454486 
L 347.140508 252.140973 
L 347.465487 240.032865 
L 347.790467 232.768 
L 348.440426 232.768 
L 348.765405 235.189622 
L 349.090385 232.768 
L 349.415364 244.876108 
L 349.740344 232.768 
L 350.065324 240.032865 
L 350.390303 232.768 
L 350.715283 240.032865 
L 351.040262 240.032865 
L 351.365242 242.454486 
L 352.015201 242.454486 
L 352.34018 232.768 
L 352.66516 232.768 
L 352.990139 240.032865 
L 353.315119 240.032865 
L 353.640098 232.768 
L 353.965078 232.768 
L 354.290057 223.081514 
L 354.615037 223.081514 
L 354.940016 237.611243 
L 355.264996 240.032865 
L 355.589975 237.611243 
L 355.914955 249.719351 
L 356.239934 244.876108 
L 356.564914 244.876108 
L 356.889894 235.189622 
L 358.189812 235.189622 
L 358.514791 227.924757 
L 359.16475 242.454486 
L 359.48973 242.454486 
L 359.814709 240.032865 
L 360.139689 232.768 
L 360.464668 240.032865 
L 360.789648 242.454486 
L 361.114627 249.719351 
L 361.764586 249.719351 
L 362.089566 247.29773 
L 362.414545 225.503135 
L 362.739525 247.29773 
L 363.064505 249.719351 
L 363.714464 249.719351 
L 364.364423 232.768 
L 365.014382 232.768 
L 365.339361 235.189622 
L 365.664341 235.189622 
L 365.98932 240.032865 
L 366.3143 237.611243 
L 366.639279 244.876108 
L 368.264177 244.876108 
L 368.589156 247.29773 
L 369.239115 247.29773 
L 369.564095 235.189622 
L 369.889075 232.768 
L 370.214054 235.189622 
L 370.539034 227.924757 
L 370.864013 237.611243 
L 371.188993 237.611243 
L 371.513972 242.454486 
L 372.163931 242.454486 
L 372.488911 247.29773 
L 373.13887 247.29773 
L 373.463849 244.876108 
L 373.788829 247.29773 
L 374.113808 244.876108 
L 374.438788 247.29773 
L 374.763767 244.876108 
L 375.088747 247.29773 
L 375.413726 240.032865 
L 375.738706 247.29773 
L 376.063686 249.719351 
L 376.388665 249.719351 
L 376.713645 240.032865 
L 377.038624 237.611243 
L 378.013563 237.611243 
L 378.338542 240.032865 
L 378.663522 240.032865 
L 378.988501 247.29773 
L 379.96344 247.29773 
L 380.288419 259.405838 
L 380.613399 259.405838 
L 380.938378 252.140973 
L 381.263358 237.611243 
L 381.913317 237.611243 
L 382.238296 244.876108 
L 382.563276 244.876108 
L 382.888256 242.454486 
L 383.538215 242.454486 
L 383.863194 244.876108 
L 384.188174 244.876108 
L 384.513153 252.140973 
L 384.838133 240.032865 
L 385.163112 252.140973 
L 385.488092 240.032865 
L 385.813071 240.032865 
L 386.138051 232.768 
L 386.46303 232.768 
L 386.78801 247.29773 
L 387.112989 247.29773 
L 387.437969 242.454486 
L 388.087928 242.454486 
L 388.412907 252.140973 
L 388.737887 252.140973 
L 389.062867 254.562595 
L 389.712826 254.562595 
L 390.037805 232.768 
L 390.362785 232.768 
L 390.687764 223.081514 
L 391.012744 249.719351 
L 391.337723 225.503135 
L 391.662703 235.189622 
L 392.312662 235.189622 
L 392.962621 247.29773 
L 393.2876 247.29773 
L 393.61258 240.032865 
L 394.262539 240.032865 
L 394.587518 242.454486 
L 394.912498 242.454486 
L 395.237477 244.876108 
L 395.562457 244.876108 
L 395.887437 261.827459 
L 396.212416 235.189622 
L 396.537396 240.032865 
L 396.862375 240.032865 
L 397.187355 242.454486 
L 397.512334 261.827459 
L 397.837314 261.827459 
L 398.162293 249.719351 
L 398.162293 249.719351 
" style="fill:none;stroke:#ff7f0e;stroke-linecap:square;stroke-width:1.5;"/>
   </g>
   <g id="line2d_15">
    <path clip-path="url(#p632e531cf7)" d="M 74.157707 53.568 
L 76.757543 53.568 
L 77.082523 92.313946 
L 77.407502 92.313946 
L 77.732482 99.578811 
L 78.057461 99.578811 
L 78.382441 102.000432 
L 79.0324 114.108541 
L 79.357379 118.951784 
L 79.682359 118.951784 
L 80.657297 111.686919 
L 80.982277 111.686919 
L 82.282195 138.324757 
L 82.607174 138.324757 
L 83.257133 148.011243 
L 83.582113 150.432865 
L 83.907093 150.432865 
L 84.232072 148.011243 
L 84.557052 148.011243 
L 84.882031 143.168 
L 85.53199 155.276108 
L 86.506929 155.276108 
L 86.831908 160.119351 
L 87.481867 164.962595 
L 87.806847 164.962595 
L 88.131826 162.540973 
L 88.781785 162.540973 
L 89.106765 152.854486 
L 89.431744 152.854486 
L 89.756724 157.69773 
L 90.406683 157.69773 
L 90.731663 164.962595 
L 91.056642 167.384216 
L 91.381622 167.384216 
L 91.706601 164.962595 
L 92.35656 164.962595 
L 92.68154 189.178811 
L 93.006519 164.962595 
L 93.656478 164.962595 
L 94.306437 169.805838 
L 94.956396 169.805838 
L 95.281376 181.913946 
L 95.931335 181.913946 
L 96.256314 174.649081 
L 96.581294 181.913946 
L 96.906274 179.492324 
L 97.231253 179.492324 
L 97.556233 177.070703 
L 98.206192 177.070703 
L 98.531171 194.022054 
L 98.856151 189.178811 
L 99.18113 189.178811 
L 99.50611 186.757189 
L 99.831089 186.757189 
L 100.156069 191.600432 
L 100.806028 191.600432 
L 101.131007 196.443676 
L 101.455987 196.443676 
L 101.780966 177.070703 
L 102.105946 177.070703 
L 102.430925 179.492324 
L 103.080885 179.492324 
L 103.730844 194.022054 
L 104.380803 177.070703 
L 104.705782 177.070703 
L 105.030762 203.708541 
L 105.355741 203.708541 
L 105.680721 186.757189 
L 106.33068 186.757189 
L 106.655659 191.600432 
L 107.305618 191.600432 
L 107.955577 201.286919 
L 108.280557 201.286919 
L 108.605536 203.708541 
L 108.930516 203.708541 
L 109.255495 206.130162 
L 109.580475 206.130162 
L 109.905455 189.178811 
L 110.230434 179.492324 
L 110.555414 179.492324 
L 110.880393 174.649081 
L 111.205373 179.492324 
L 111.530352 179.492324 
L 112.180311 189.178811 
L 112.83027 189.178811 
L 113.15525 196.443676 
L 113.480229 196.443676 
L 114.130188 179.492324 
L 114.455168 186.757189 
L 114.780147 184.335568 
L 115.105127 186.757189 
L 115.430106 196.443676 
L 115.755086 213.395027 
L 116.080066 213.395027 
L 116.730025 179.492324 
L 117.055004 179.492324 
L 117.379984 196.443676 
L 117.704963 196.443676 
L 118.029943 189.178811 
L 118.354922 189.178811 
L 118.679902 206.130162 
L 119.004881 206.130162 
L 119.329861 189.178811 
L 119.97982 189.178811 
L 120.304799 196.443676 
L 120.629779 191.600432 
L 121.279738 191.600432 
L 121.604717 184.335568 
L 121.929697 181.913946 
L 122.254676 181.913946 
L 122.579656 179.492324 
L 122.904636 186.757189 
L 123.229615 184.335568 
L 123.879574 184.335568 
L 124.204554 186.757189 
L 124.854513 186.757189 
L 125.179492 198.865297 
L 125.504472 198.865297 
L 125.829451 191.600432 
L 126.154431 191.600432 
L 126.47941 196.443676 
L 126.80439 196.443676 
L 127.129369 184.335568 
L 127.454349 184.335568 
L 127.779328 203.708541 
L 128.104308 203.708541 
L 128.429287 201.286919 
L 128.754267 201.286919 
L 129.079247 186.757189 
L 129.404226 184.335568 
L 129.729206 177.070703 
L 130.054185 177.070703 
L 130.379165 184.335568 
L 131.029124 184.335568 
L 131.354103 191.600432 
L 131.679083 191.600432 
L 132.004062 206.130162 
L 132.329042 189.178811 
L 132.654021 206.130162 
L 132.979001 201.286919 
L 133.30398 201.286919 
L 133.953939 186.757189 
L 134.603898 186.757189 
L 134.928878 189.178811 
L 135.253857 189.178811 
L 135.578837 177.070703 
L 135.903817 177.070703 
L 136.228796 179.492324 
L 136.553776 184.335568 
L 136.878755 179.492324 
L 137.528714 179.492324 
L 137.853694 191.600432 
L 138.178673 198.865297 
L 138.503653 198.865297 
L 138.828632 196.443676 
L 139.153612 186.757189 
L 139.478591 196.443676 
L 139.803571 194.022054 
L 140.45353 194.022054 
L 140.778509 191.600432 
L 141.428468 191.600432 
L 141.753448 189.178811 
L 142.078428 189.178811 
L 142.403407 194.022054 
L 143.053366 194.022054 
L 143.378346 198.865297 
L 143.703325 184.335568 
L 144.028305 196.443676 
L 144.353284 191.600432 
L 144.678264 194.022054 
L 145.003243 191.600432 
L 145.328223 186.757189 
L 145.978182 186.757189 
L 146.303161 191.600432 
L 146.628141 186.757189 
L 146.95312 191.600432 
L 147.928059 191.600432 
L 148.253038 194.022054 
L 148.578018 194.022054 
L 148.902998 191.600432 
L 149.227977 184.335568 
L 149.552957 186.757189 
L 149.877936 184.335568 
L 150.202916 186.757189 
L 150.527895 184.335568 
L 150.852875 184.335568 
L 151.177854 181.913946 
L 151.502834 184.335568 
L 151.827813 181.913946 
L 152.152793 184.335568 
L 152.802752 184.335568 
L 153.127731 189.178811 
L 153.452711 179.492324 
L 154.10267 198.865297 
L 154.427649 198.865297 
L 155.077609 181.913946 
L 155.727568 181.913946 
L 156.377527 177.070703 
L 156.702506 177.070703 
L 157.027486 186.757189 
L 157.352465 189.178811 
L 157.677445 203.708541 
L 158.002424 206.130162 
L 158.327404 206.130162 
L 158.652383 191.600432 
L 158.977363 191.600432 
L 159.302342 186.757189 
L 159.952301 186.757189 
L 160.277281 189.178811 
L 160.92724 189.178811 
L 161.252219 194.022054 
L 161.902179 194.022054 
L 162.227158 191.600432 
L 162.552138 186.757189 
L 162.877117 186.757189 
L 163.202097 191.600432 
L 163.527076 191.600432 
L 163.852056 181.913946 
L 164.502015 181.913946 
L 164.826994 198.865297 
L 165.151974 196.443676 
L 166.126912 196.443676 
L 166.451892 194.022054 
L 166.776871 198.865297 
L 167.101851 194.022054 
L 167.42683 198.865297 
L 167.75181 194.022054 
L 168.07679 194.022054 
L 168.401769 179.492324 
L 169.051728 179.492324 
L 169.376708 184.335568 
L 169.701687 186.757189 
L 170.026667 186.757189 
L 170.351646 181.913946 
L 171.651564 181.913946 
L 171.976544 186.757189 
L 172.301523 194.022054 
L 172.626503 196.443676 
L 172.951482 196.443676 
L 173.276462 191.600432 
L 174.2514 191.600432 
L 174.57638 181.913946 
L 174.90136 191.600432 
L 175.226339 189.178811 
L 175.551319 194.022054 
L 175.876298 189.178811 
L 176.201278 169.805838 
L 176.526257 169.805838 
L 176.851237 194.022054 
L 177.176216 194.022054 
L 177.501196 184.335568 
L 177.826175 181.913946 
L 178.151155 181.913946 
L 178.476134 186.757189 
L 178.801114 198.865297 
L 179.126093 198.865297 
L 179.451073 196.443676 
L 179.776052 186.757189 
L 180.101032 186.757189 
L 180.426011 194.022054 
L 181.075971 194.022054 
L 181.40095 191.600432 
L 181.72593 194.022054 
L 182.050909 191.600432 
L 182.375889 196.443676 
L 182.700868 186.757189 
L 183.025848 194.022054 
L 183.350827 186.757189 
L 183.675807 189.178811 
L 184.325766 189.178811 
L 184.650745 196.443676 
L 184.975725 179.492324 
L 185.300704 189.178811 
L 187.575561 189.178811 
L 187.900541 184.335568 
L 188.22552 189.178811 
L 188.5505 189.178811 
L 188.875479 198.865297 
L 189.200459 198.865297 
L 189.525438 194.022054 
L 189.850418 194.022054 
L 190.175397 201.286919 
L 190.500377 201.286919 
L 190.825356 177.070703 
L 191.475315 177.070703 
L 191.800295 179.492324 
L 192.125274 177.070703 
L 192.450254 179.492324 
L 193.100213 179.492324 
L 193.425192 189.178811 
L 193.750172 179.492324 
L 194.075152 191.600432 
L 194.400131 179.492324 
L 195.05009 179.492324 
L 195.37507 191.600432 
L 195.700049 196.443676 
L 196.674988 196.443676 
L 196.999967 177.070703 
L 197.324947 184.335568 
L 197.649926 184.335568 
L 197.974906 186.757189 
L 198.299885 196.443676 
L 198.624865 186.757189 
L 198.949844 191.600432 
L 199.599803 181.913946 
L 199.924783 181.913946 
L 200.249762 174.649081 
L 200.574742 179.492324 
L 201.224701 179.492324 
L 201.549681 186.757189 
L 202.849599 186.757189 
L 203.174578 184.335568 
L 204.149517 184.335568 
L 204.474496 186.757189 
L 205.124455 186.757189 
L 205.449435 203.708541 
L 205.774414 189.178811 
L 207.074333 189.178811 
L 207.724292 194.022054 
L 208.049271 194.022054 
L 208.374251 189.178811 
L 208.69923 189.178811 
L 209.02421 184.335568 
L 209.349189 194.022054 
L 209.674169 186.757189 
L 210.324128 186.757189 
L 210.649107 198.865297 
L 210.974087 201.286919 
L 211.299066 201.286919 
L 211.624046 203.708541 
L 212.274005 203.708541 
L 212.598984 201.286919 
L 212.923964 186.757189 
L 213.573923 186.757189 
L 213.898903 177.070703 
L 214.223882 177.070703 
L 214.548862 198.865297 
L 214.873841 198.865297 
L 215.5238 179.492324 
L 216.173759 179.492324 
L 216.498739 184.335568 
L 216.823718 184.335568 
L 217.148698 181.913946 
L 217.473677 181.913946 
L 217.798657 174.649081 
L 218.448616 196.443676 
L 218.773595 196.443676 
L 219.098575 189.178811 
L 220.398493 189.178811 
L 220.723473 179.492324 
L 221.048452 177.070703 
L 221.373432 179.492324 
L 221.698411 179.492324 
L 222.023391 184.335568 
L 222.34837 196.443676 
L 222.998329 196.443676 
L 223.323309 189.178811 
L 223.648288 189.178811 
L 223.973268 184.335568 
L 224.298247 191.600432 
L 224.623227 184.335568 
L 224.948206 181.913946 
L 225.273186 181.913946 
L 225.598165 191.600432 
L 225.923145 191.600432 
L 226.248124 184.335568 
L 226.573104 184.335568 
L 226.898084 196.443676 
L 227.223063 196.443676 
L 227.548043 184.335568 
L 227.873022 184.335568 
L 228.198002 189.178811 
L 228.847961 189.178811 
L 229.17294 186.757189 
L 229.49792 194.022054 
L 229.822899 177.070703 
L 230.147879 196.443676 
L 230.797838 196.443676 
L 231.122817 189.178811 
L 231.772776 189.178811 
L 232.097756 206.130162 
L 232.422735 206.130162 
L 232.747715 203.708541 
L 233.722654 179.492324 
L 234.047633 184.335568 
L 234.697592 184.335568 
L 235.022572 191.600432 
L 235.672531 196.443676 
L 235.99751 196.443676 
L 236.32249 194.022054 
L 236.647469 194.022054 
L 236.972449 198.865297 
L 237.297428 198.865297 
L 237.622408 181.913946 
L 237.947387 181.913946 
L 238.272367 174.649081 
L 238.597346 184.335568 
L 238.922326 167.384216 
L 239.247305 174.649081 
L 239.572285 174.649081 
L 240.222244 206.130162 
L 240.547224 206.130162 
L 241.197183 184.335568 
L 241.847142 184.335568 
L 242.172121 186.757189 
L 242.497101 186.757189 
L 242.82208 181.913946 
L 243.14706 181.913946 
L 243.472039 184.335568 
L 243.797019 191.600432 
L 244.121998 194.022054 
L 244.771957 194.022054 
L 245.096937 198.865297 
L 245.421916 184.335568 
L 245.746896 184.335568 
L 246.071876 174.649081 
L 246.396855 174.649081 
L 246.721835 181.913946 
L 247.046814 184.335568 
L 247.371794 191.600432 
L 248.021753 191.600432 
L 248.346732 169.805838 
L 248.671712 179.492324 
L 248.996691 177.070703 
L 249.321671 179.492324 
L 249.64665 191.600432 
L 249.97163 191.600432 
L 250.296609 184.335568 
L 250.621589 169.805838 
L 250.946568 184.335568 
L 251.271548 191.600432 
L 251.596527 191.600432 
L 251.921507 184.335568 
L 252.571466 184.335568 
L 252.896446 189.178811 
L 253.546405 189.178811 
L 254.196364 184.335568 
L 254.846323 189.178811 
L 255.171302 194.022054 
L 256.7962 194.022054 
L 257.121179 189.178811 
L 258.096118 189.178811 
L 258.421097 181.913946 
L 258.746077 181.913946 
L 259.071057 194.022054 
L 259.721016 194.022054 
L 260.045995 189.178811 
L 260.370975 172.227459 
L 260.695954 172.227459 
L 261.020934 186.757189 
L 261.345913 194.022054 
L 261.670893 194.022054 
L 261.995872 191.600432 
L 262.320852 184.335568 
L 263.29579 184.335568 
L 263.62077 189.178811 
L 264.270729 201.286919 
L 264.595708 201.286919 
L 264.920688 189.178811 
L 265.245667 186.757189 
L 265.570647 189.178811 
L 265.895627 186.757189 
L 266.220606 191.600432 
L 266.545586 189.178811 
L 267.195545 189.178811 
L 267.520524 203.708541 
L 267.845504 203.708541 
L 268.170483 194.022054 
L 268.495463 194.022054 
L 268.820442 181.913946 
L 269.145422 181.913946 
L 269.470401 179.492324 
L 270.12036 184.335568 
L 270.44534 184.335568 
L 270.770319 179.492324 
L 271.095299 179.492324 
L 271.420278 181.913946 
L 271.745258 196.443676 
L 272.395217 196.443676 
L 272.720197 203.708541 
L 273.370156 203.708541 
L 273.695135 196.443676 
L 274.020115 196.443676 
L 274.345094 184.335568 
L 274.670074 184.335568 
L 274.995053 189.178811 
L 275.320033 189.178811 
L 275.645012 179.492324 
L 275.969992 179.492324 
L 276.294971 191.600432 
L 276.94493 196.443676 
L 277.26991 201.286919 
L 277.919869 201.286919 
L 278.244848 179.492324 
L 278.569828 177.070703 
L 278.894808 177.070703 
L 279.219787 198.865297 
L 279.544767 198.865297 
L 279.869746 184.335568 
L 280.194726 184.335568 
L 280.519705 181.913946 
L 281.169664 181.913946 
L 281.494644 179.492324 
L 283.119541 179.492324 
L 283.444521 184.335568 
L 284.09448 184.335568 
L 284.419459 206.130162 
L 284.744439 206.130162 
L 285.394398 189.178811 
L 285.719378 189.178811 
L 286.044357 179.492324 
L 286.369337 179.492324 
L 286.694316 191.600432 
L 287.344275 203.708541 
L 287.669255 203.708541 
L 287.994234 196.443676 
L 288.969173 196.443676 
L 289.294152 179.492324 
L 289.619132 196.443676 
L 289.944111 191.600432 
L 290.269091 198.865297 
L 290.59407 198.865297 
L 291.244029 218.23827 
L 291.893989 218.23827 
L 292.218968 213.395027 
L 293.193907 213.395027 
L 293.518886 230.346378 
L 293.843866 220.659892 
L 294.493825 220.659892 
L 294.818804 223.081514 
L 295.143784 223.081514 
L 295.468763 220.659892 
L 295.793743 220.659892 
L 296.118722 235.189622 
L 296.768681 235.189622 
L 297.093661 227.924757 
L 297.74362 227.924757 
L 298.0686 230.346378 
L 299.043538 230.346378 
L 299.368518 232.768 
L 300.018477 232.768 
L 300.668436 244.876108 
L 300.993415 244.876108 
L 301.318395 230.346378 
L 301.643374 230.346378 
L 301.968354 235.189622 
L 303.268272 235.189622 
L 303.593251 240.032865 
L 304.24321 240.032865 
L 304.56819 237.611243 
L 304.89317 237.611243 
L 305.218149 230.346378 
L 305.868108 230.346378 
L 306.193088 225.503135 
L 306.518067 235.189622 
L 306.843047 254.562595 
L 307.168026 254.562595 
L 307.493006 266.670703 
L 307.817985 252.140973 
L 308.142965 252.140973 
L 308.467944 249.719351 
L 309.117903 249.719351 
L 309.442883 252.140973 
L 309.767862 256.984216 
L 310.092842 264.249081 
L 310.417821 264.249081 
L 310.742801 261.827459 
L 311.067781 247.29773 
L 311.39276 254.562595 
L 312.042719 254.562595 
L 312.367699 252.140973 
L 313.342637 252.140973 
L 313.667617 254.562595 
L 313.992596 252.140973 
L 314.317576 254.562595 
L 314.642555 247.29773 
L 314.967535 254.562595 
L 315.292514 237.611243 
L 315.617494 254.562595 
L 316.592432 254.562595 
L 316.917412 256.984216 
L 317.567371 269.092324 
L 317.892351 269.092324 
L 318.21733 249.719351 
L 318.54231 247.29773 
L 318.867289 249.719351 
L 319.192269 247.29773 
L 319.842228 256.984216 
L 320.167207 259.405838 
L 320.492187 259.405838 
L 320.817166 261.827459 
L 321.792105 261.827459 
L 322.117084 252.140973 
L 322.442064 252.140973 
L 322.767043 259.405838 
L 323.092023 261.827459 
L 323.741982 271.513946 
L 324.391941 261.827459 
L 324.716921 261.827459 
L 325.0419 259.405838 
L 325.691859 271.513946 
L 326.016839 271.513946 
L 326.341818 266.670703 
L 326.666798 264.249081 
L 326.991777 264.249081 
L 327.316757 261.827459 
L 327.966716 261.827459 
L 328.291695 264.249081 
L 328.616675 261.827459 
L 328.941654 269.092324 
L 329.591613 269.092324 
L 329.916593 271.513946 
L 330.241572 264.249081 
L 330.566552 276.357189 
L 330.891532 259.405838 
L 331.216511 266.670703 
L 331.86647 266.670703 
L 332.19145 271.513946 
L 332.516429 273.935568 
L 333.166388 273.935568 
L 333.816347 256.984216 
L 334.141327 256.984216 
L 334.791286 266.670703 
L 335.441245 266.670703 
L 335.766224 264.249081 
L 336.091204 264.249081 
L 336.741163 259.405838 
L 337.066143 259.405838 
L 337.716102 271.513946 
L 338.041081 271.513946 
L 338.366061 259.405838 
L 338.69104 259.405838 
L 339.01602 273.935568 
L 339.340999 273.935568 
L 339.665979 269.092324 
L 341.940835 269.092324 
L 342.265815 264.249081 
L 342.590794 269.092324 
L 342.915774 264.249081 
L 343.240753 266.670703 
L 343.565733 266.670703 
L 343.890713 269.092324 
L 344.215692 276.357189 
L 344.540672 269.092324 
L 344.865651 276.357189 
L 345.51561 264.249081 
L 345.84059 261.827459 
L 346.165569 264.249081 
L 346.490549 261.827459 
L 346.815528 264.249081 
L 347.465487 264.249081 
L 347.790467 281.200432 
L 348.115446 269.092324 
L 348.440426 281.200432 
L 348.765405 269.092324 
L 349.090385 264.249081 
L 349.415364 261.827459 
L 349.740344 261.827459 
L 350.065324 281.200432 
L 350.390303 281.200432 
L 350.715283 278.778811 
L 351.040262 278.778811 
L 351.365242 269.092324 
L 352.015201 269.092324 
L 352.34018 271.513946 
L 353.315119 271.513946 
L 353.640098 266.670703 
L 353.965078 264.249081 
L 354.290057 264.249081 
L 354.615037 276.357189 
L 354.940016 278.778811 
L 355.264996 276.357189 
L 355.589975 271.513946 
L 356.239934 271.513946 
L 356.564914 278.778811 
L 357.214873 278.778811 
L 357.539853 283.622054 
L 357.864832 283.622054 
L 358.514791 269.092324 
L 358.839771 269.092324 
L 359.16475 273.935568 
L 359.814709 273.935568 
L 360.139689 281.200432 
L 360.464668 281.200432 
L 360.789648 276.357189 
L 361.114627 273.935568 
L 361.439607 276.357189 
L 361.764586 269.092324 
L 362.089566 269.092324 
L 362.414545 264.249081 
L 362.739525 264.249081 
L 363.064505 278.778811 
L 363.389484 278.778811 
L 363.714464 288.465297 
L 364.039443 271.513946 
L 364.364423 283.622054 
L 364.689402 281.200432 
L 365.98932 281.200432 
L 366.3143 278.778811 
L 366.639279 273.935568 
L 366.964259 273.935568 
L 367.289238 281.200432 
L 367.614218 283.622054 
L 368.914136 283.622054 
L 369.239115 281.200432 
L 369.564095 266.670703 
L 369.889075 266.670703 
L 370.539034 278.778811 
L 371.188993 278.778811 
L 371.513972 276.357189 
L 371.838952 276.357189 
L 372.163931 273.935568 
L 372.488911 283.622054 
L 372.81389 278.778811 
L 373.463849 278.778811 
L 373.788829 286.043676 
L 374.113808 286.043676 
L 374.438788 283.622054 
L 374.763767 283.622054 
L 375.088747 276.357189 
L 375.413726 283.622054 
L 376.388665 283.622054 
L 376.713645 281.200432 
L 377.363604 281.200432 
L 377.688583 286.043676 
L 378.338542 286.043676 
L 378.663522 278.778811 
L 378.988501 276.357189 
L 379.313481 278.778811 
L 379.96344 288.465297 
L 380.288419 283.622054 
L 380.613399 286.043676 
L 380.938378 281.200432 
L 381.913317 281.200432 
L 382.238296 283.622054 
L 383.538215 283.622054 
L 383.863194 281.200432 
L 384.188174 281.200432 
L 384.513153 286.043676 
L 384.838133 286.043676 
L 385.163112 283.622054 
L 385.488092 283.622054 
L 385.813071 281.200432 
L 386.78801 281.200432 
L 387.112989 288.465297 
L 387.437969 288.465297 
L 387.762948 283.622054 
L 388.412907 283.622054 
L 388.737887 286.043676 
L 390.037805 286.043676 
L 390.362785 283.622054 
L 390.687764 283.622054 
L 391.012744 286.043676 
L 391.662703 286.043676 
L 391.987682 288.465297 
L 392.312662 288.465297 
L 392.637641 283.622054 
L 392.962621 281.200432 
L 393.61258 281.200432 
L 393.937559 283.622054 
L 394.262539 283.622054 
L 394.587518 286.043676 
L 395.562457 286.043676 
L 395.887437 283.622054 
L 396.212416 283.622054 
L 396.537396 286.043676 
L 396.862375 286.043676 
L 397.187355 283.622054 
L 398.162293 283.622054 
L 398.162293 283.622054 
" style="fill:none;stroke:#2ca02c;stroke-linecap:square;stroke-width:1.5;"/>
   </g>
   <g id="patch_3">
    <path d="M 57.6 307.584 
L 57.6 41.472 
" style="fill:none;stroke:#000000;stroke-linecap:square;stroke-linejoin:miter;stroke-width:0.8;"/>
   </g>
   <g id="patch_4">
    <path d="M 414.72 307.584 
L 414.72 41.472 
" style="fill:none;stroke:#000000;stroke-linecap:square;stroke-linejoin:miter;stroke-width:0.8;"/>
   </g>
   <g id="patch_5">
    <path d="M 57.6 307.584 
L 414.72 307.584 
" style="fill:none;stroke:#000000;stroke-linecap:square;stroke-linejoin:miter;stroke-width:0.8;"/>
   </g>
   <g id="patch_6">
    <path d="M 57.6 41.472 
L 414.72 41.472 
" style="fill:none;stroke:#000000;stroke-linecap:square;stroke-linejoin:miter;stroke-width:0.8;"/>
   </g>
   <g id="legend_1">
    <g id="patch_7">
     <path d="M 163.549687 93.506375 
L 407.72 93.506375 
Q 409.72 93.506375 409.72 91.506375 
L 409.72 48.472 
Q 409.72 46.472 407.72 46.472 
L 163.549687 46.472 
Q 161.549687 46.472 161.549687 48.472 
L 161.549687 91.506375 
Q 161.549687 93.506375 163.549687 93.506375 
z
" style="fill:#ffffff;opacity:0.8;stroke:#cccccc;stroke-linejoin:miter;"/>
    </g>
    <g id="line2d_16">
     <path d="M 165.549687 54.570438 
L 185.549687 54.570438 
" style="fill:none;stroke:#1f77b4;stroke-linecap:square;stroke-width:1.5;"/>
    </g>
    <g id="line2d_17"/>
    <g id="text_13">
     <!-- The target acceptance rate -->
     <g transform="translate(193.549687 58.070438)scale(0.1 -0.1)">
      <defs>
       <path d="M -0.296875 72.90625 
L 61.375 72.90625 
L 61.375 64.59375 
L 35.5 64.59375 
L 35.5 0 
L 25.59375 0 
L 25.59375 64.59375 
L -0.296875 64.59375 
z
" id="DejaVuSans-84"/>
       <path d="M 54.890625 33.015625 
L 54.890625 0 
L 45.90625 0 
L 45.90625 32.71875 
Q 45.90625 40.484375 42.875 44.328125 
Q 39.84375 48.1875 33.796875 48.1875 
Q 26.515625 48.1875 22.3125 43.546875 
Q 18.109375 38.921875 18.109375 30.90625 
L 18.109375 0 
L 9.078125 0 
L 9.078125 75.984375 
L 18.109375 75.984375 
L 18.109375 46.1875 
Q 21.34375 51.125 25.703125 53.5625 
Q 30.078125 56 35.796875 56 
Q 45.21875 56 50.046875 50.171875 
Q 54.890625 44.34375 54.890625 33.015625 
z
" id="DejaVuSans-104"/>
       <path d="M 56.203125 29.59375 
L 56.203125 25.203125 
L 14.890625 25.203125 
Q 15.484375 15.921875 20.484375 11.0625 
Q 25.484375 6.203125 34.421875 6.203125 
Q 39.59375 6.203125 44.453125 7.46875 
Q 49.3125 8.734375 54.109375 11.28125 
L 54.109375 2.78125 
Q 49.265625 0.734375 44.1875 -0.34375 
Q 39.109375 -1.421875 33.890625 -1.421875 
Q 20.796875 -1.421875 13.15625 6.1875 
Q 5.515625 13.8125 5.515625 26.8125 
Q 5.515625 40.234375 12.765625 48.109375 
Q 20.015625 56 32.328125 56 
Q 43.359375 56 49.78125 48.890625 
Q 56.203125 41.796875 56.203125 29.59375 
z
M 47.21875 32.234375 
Q 47.125 39.59375 43.09375 43.984375 
Q 39.0625 48.390625 32.421875 48.390625 
Q 24.90625 48.390625 20.390625 44.140625 
Q 15.875 39.890625 15.1875 32.171875 
z
" id="DejaVuSans-101"/>
       <path id="DejaVuSans-32"/>
       <path d="M 18.3125 70.21875 
L 18.3125 54.6875 
L 36.8125 54.6875 
L 36.8125 47.703125 
L 18.3125 47.703125 
L 18.3125 18.015625 
Q 18.3125 11.328125 20.140625 9.421875 
Q 21.96875 7.515625 27.59375 7.515625 
L 36.8125 7.515625 
L 36.8125 0 
L 27.59375 0 
Q 17.1875 0 13.234375 3.875 
Q 9.28125 7.765625 9.28125 18.015625 
L 9.28125 47.703125 
L 2.6875 47.703125 
L 2.6875 54.6875 
L 9.28125 54.6875 
L 9.28125 70.21875 
z
" id="DejaVuSans-116"/>
       <path d="M 34.28125 27.484375 
Q 23.390625 27.484375 19.1875 25 
Q 14.984375 22.515625 14.984375 16.5 
Q 14.984375 11.71875 18.140625 8.90625 
Q 21.296875 6.109375 26.703125 6.109375 
Q 34.1875 6.109375 38.703125 11.40625 
Q 43.21875 16.703125 43.21875 25.484375 
L 43.21875 27.484375 
z
M 52.203125 31.203125 
L 52.203125 0 
L 43.21875 0 
L 43.21875 8.296875 
Q 40.140625 3.328125 35.546875 0.953125 
Q 30.953125 -1.421875 24.3125 -1.421875 
Q 15.921875 -1.421875 10.953125 3.296875 
Q 6 8.015625 6 15.921875 
Q 6 25.140625 12.171875 29.828125 
Q 18.359375 34.515625 30.609375 34.515625 
L 43.21875 34.515625 
L 43.21875 35.40625 
Q 43.21875 41.609375 39.140625 45 
Q 35.0625 48.390625 27.6875 48.390625 
Q 23 48.390625 18.546875 47.265625 
Q 14.109375 46.140625 10.015625 43.890625 
L 10.015625 52.203125 
Q 14.9375 54.109375 19.578125 55.046875 
Q 24.21875 56 28.609375 56 
Q 40.484375 56 46.34375 49.84375 
Q 52.203125 43.703125 52.203125 31.203125 
z
" id="DejaVuSans-97"/>
       <path d="M 41.109375 46.296875 
Q 39.59375 47.171875 37.8125 47.578125 
Q 36.03125 48 33.890625 48 
Q 26.265625 48 22.1875 43.046875 
Q 18.109375 38.09375 18.109375 28.8125 
L 18.109375 0 
L 9.078125 0 
L 9.078125 54.6875 
L 18.109375 54.6875 
L 18.109375 46.1875 
Q 20.953125 51.171875 25.484375 53.578125 
Q 30.03125 56 36.53125 56 
Q 37.453125 56 38.578125 55.875 
Q 39.703125 55.765625 41.0625 55.515625 
z
" id="DejaVuSans-114"/>
       <path d="M 45.40625 27.984375 
Q 45.40625 37.75 41.375 43.109375 
Q 37.359375 48.484375 30.078125 48.484375 
Q 22.859375 48.484375 18.828125 43.109375 
Q 14.796875 37.75 14.796875 27.984375 
Q 14.796875 18.265625 18.828125 12.890625 
Q 22.859375 7.515625 30.078125 7.515625 
Q 37.359375 7.515625 41.375 12.890625 
Q 45.40625 18.265625 45.40625 27.984375 
z
M 54.390625 6.78125 
Q 54.390625 -7.171875 48.1875 -13.984375 
Q 42 -20.796875 29.203125 -20.796875 
Q 24.46875 -20.796875 20.265625 -20.09375 
Q 16.0625 -19.390625 12.109375 -17.921875 
L 12.109375 -9.1875 
Q 16.0625 -11.328125 19.921875 -12.34375 
Q 23.78125 -13.375 27.78125 -13.375 
Q 36.625 -13.375 41.015625 -8.765625 
Q 45.40625 -4.15625 45.40625 5.171875 
L 45.40625 9.625 
Q 42.625 4.78125 38.28125 2.390625 
Q 33.9375 0 27.875 0 
Q 17.828125 0 11.671875 7.65625 
Q 5.515625 15.328125 5.515625 27.984375 
Q 5.515625 40.671875 11.671875 48.328125 
Q 17.828125 56 27.875 56 
Q 33.9375 56 38.28125 53.609375 
Q 42.625 51.21875 45.40625 46.390625 
L 45.40625 54.6875 
L 54.390625 54.6875 
z
" id="DejaVuSans-103"/>
       <path d="M 48.78125 52.59375 
L 48.78125 44.1875 
Q 44.96875 46.296875 41.140625 47.34375 
Q 37.3125 48.390625 33.40625 48.390625 
Q 24.65625 48.390625 19.8125 42.84375 
Q 14.984375 37.3125 14.984375 27.296875 
Q 14.984375 17.28125 19.8125 11.734375 
Q 24.65625 6.203125 33.40625 6.203125 
Q 37.3125 6.203125 41.140625 7.25 
Q 44.96875 8.296875 48.78125 10.40625 
L 48.78125 2.09375 
Q 45.015625 0.34375 40.984375 -0.53125 
Q 36.96875 -1.421875 32.421875 -1.421875 
Q 20.0625 -1.421875 12.78125 6.34375 
Q 5.515625 14.109375 5.515625 27.296875 
Q 5.515625 40.671875 12.859375 48.328125 
Q 20.21875 56 33.015625 56 
Q 37.15625 56 41.109375 55.140625 
Q 45.0625 54.296875 48.78125 52.59375 
z
" id="DejaVuSans-99"/>
       <path d="M 18.109375 8.203125 
L 18.109375 -20.796875 
L 9.078125 -20.796875 
L 9.078125 54.6875 
L 18.109375 54.6875 
L 18.109375 46.390625 
Q 20.953125 51.265625 25.265625 53.625 
Q 29.59375 56 35.59375 56 
Q 45.5625 56 51.78125 48.09375 
Q 58.015625 40.1875 58.015625 27.296875 
Q 58.015625 14.40625 51.78125 6.484375 
Q 45.5625 -1.421875 35.59375 -1.421875 
Q 29.59375 -1.421875 25.265625 0.953125 
Q 20.953125 3.328125 18.109375 8.203125 
z
M 48.6875 27.296875 
Q 48.6875 37.203125 44.609375 42.84375 
Q 40.53125 48.484375 33.40625 48.484375 
Q 26.265625 48.484375 22.1875 42.84375 
Q 18.109375 37.203125 18.109375 27.296875 
Q 18.109375 17.390625 22.1875 11.75 
Q 26.265625 6.109375 33.40625 6.109375 
Q 40.53125 6.109375 44.609375 11.75 
Q 48.6875 17.390625 48.6875 27.296875 
z
" id="DejaVuSans-112"/>
       <path d="M 54.890625 33.015625 
L 54.890625 0 
L 45.90625 0 
L 45.90625 32.71875 
Q 45.90625 40.484375 42.875 44.328125 
Q 39.84375 48.1875 33.796875 48.1875 
Q 26.515625 48.1875 22.3125 43.546875 
Q 18.109375 38.921875 18.109375 30.90625 
L 18.109375 0 
L 9.078125 0 
L 9.078125 54.6875 
L 18.109375 54.6875 
L 18.109375 46.1875 
Q 21.34375 51.125 25.703125 53.5625 
Q 30.078125 56 35.796875 56 
Q 45.21875 56 50.046875 50.171875 
Q 54.890625 44.34375 54.890625 33.015625 
z
" id="DejaVuSans-110"/>
      </defs>
      <use xlink:href="#DejaVuSans-84"/>
      <use x="61.083984" xlink:href="#DejaVuSans-104"/>
      <use x="124.462891" xlink:href="#DejaVuSans-101"/>
      <use x="185.986328" xlink:href="#DejaVuSans-32"/>
      <use x="217.773438" xlink:href="#DejaVuSans-116"/>
      <use x="256.982422" xlink:href="#DejaVuSans-97"/>
      <use x="318.261719" xlink:href="#DejaVuSans-114"/>
      <use x="357.625" xlink:href="#DejaVuSans-103"/>
      <use x="421.101562" xlink:href="#DejaVuSans-101"/>
      <use x="482.625" xlink:href="#DejaVuSans-116"/>
      <use x="521.833984" xlink:href="#DejaVuSans-32"/>
      <use x="553.621094" xlink:href="#DejaVuSans-97"/>
      <use x="614.900391" xlink:href="#DejaVuSans-99"/>
      <use x="669.880859" xlink:href="#DejaVuSans-99"/>
      <use x="724.861328" xlink:href="#DejaVuSans-101"/>
      <use x="786.384766" xlink:href="#DejaVuSans-112"/>
      <use x="849.861328" xlink:href="#DejaVuSans-116"/>
      <use x="889.070312" xlink:href="#DejaVuSans-97"/>
      <use x="950.349609" xlink:href="#DejaVuSans-110"/>
      <use x="1013.728516" xlink:href="#DejaVuSans-99"/>
      <use x="1068.708984" xlink:href="#DejaVuSans-101"/>
      <use x="1130.232422" xlink:href="#DejaVuSans-32"/>
      <use x="1162.019531" xlink:href="#DejaVuSans-114"/>
      <use x="1203.132812" xlink:href="#DejaVuSans-97"/>
      <use x="1264.412109" xlink:href="#DejaVuSans-116"/>
      <use x="1303.621094" xlink:href="#DejaVuSans-101"/>
     </g>
    </g>
    <g id="line2d_18">
     <path d="M 165.549687 69.248563 
L 185.549687 69.248563 
" style="fill:none;stroke:#ff7f0e;stroke-linecap:square;stroke-width:1.5;"/>
    </g>
    <g id="line2d_19"/>
    <g id="text_14">
     <!-- Modified Lam observed acceptance rate -->
     <g transform="translate(193.549687 72.748563)scale(0.1 -0.1)">
      <defs>
       <path d="M 9.8125 72.90625 
L 24.515625 72.90625 
L 43.109375 23.296875 
L 61.8125 72.90625 
L 76.515625 72.90625 
L 76.515625 0 
L 66.890625 0 
L 66.890625 64.015625 
L 48.09375 14.015625 
L 38.1875 14.015625 
L 19.390625 64.015625 
L 19.390625 0 
L 9.8125 0 
z
" id="DejaVuSans-77"/>
       <path d="M 30.609375 48.390625 
Q 23.390625 48.390625 19.1875 42.75 
Q 14.984375 37.109375 14.984375 27.296875 
Q 14.984375 17.484375 19.15625 11.84375 
Q 23.34375 6.203125 30.609375 6.203125 
Q 37.796875 6.203125 41.984375 11.859375 
Q 46.1875 17.53125 46.1875 27.296875 
Q 46.1875 37.015625 41.984375 42.703125 
Q 37.796875 48.390625 30.609375 48.390625 
z
M 30.609375 56 
Q 42.328125 56 49.015625 48.375 
Q 55.71875 40.765625 55.71875 27.296875 
Q 55.71875 13.875 49.015625 6.21875 
Q 42.328125 -1.421875 30.609375 -1.421875 
Q 18.84375 -1.421875 12.171875 6.21875 
Q 5.515625 13.875 5.515625 27.296875 
Q 5.515625 40.765625 12.171875 48.375 
Q 18.84375 56 30.609375 56 
z
" id="DejaVuSans-111"/>
       <path d="M 45.40625 46.390625 
L 45.40625 75.984375 
L 54.390625 75.984375 
L 54.390625 0 
L 45.40625 0 
L 45.40625 8.203125 
Q 42.578125 3.328125 38.25 0.953125 
Q 33.9375 -1.421875 27.875 -1.421875 
Q 17.96875 -1.421875 11.734375 6.484375 
Q 5.515625 14.40625 5.515625 27.296875 
Q 5.515625 40.1875 11.734375 48.09375 
Q 17.96875 56 27.875 56 
Q 33.9375 56 38.25 53.625 
Q 42.578125 51.265625 45.40625 46.390625 
z
M 14.796875 27.296875 
Q 14.796875 17.390625 18.875 11.75 
Q 22.953125 6.109375 30.078125 6.109375 
Q 37.203125 6.109375 41.296875 11.75 
Q 45.40625 17.390625 45.40625 27.296875 
Q 45.40625 37.203125 41.296875 42.84375 
Q 37.203125 48.484375 30.078125 48.484375 
Q 22.953125 48.484375 18.875 42.84375 
Q 14.796875 37.203125 14.796875 27.296875 
z
" id="DejaVuSans-100"/>
       <path d="M 9.421875 54.6875 
L 18.40625 54.6875 
L 18.40625 0 
L 9.421875 0 
z
M 9.421875 75.984375 
L 18.40625 75.984375 
L 18.40625 64.59375 
L 9.421875 64.59375 
z
" id="DejaVuSans-105"/>
       <path d="M 37.109375 75.984375 
L 37.109375 68.5 
L 28.515625 68.5 
Q 23.6875 68.5 21.796875 66.546875 
Q 19.921875 64.59375 19.921875 59.515625 
L 19.921875 54.6875 
L 34.71875 54.6875 
L 34.71875 47.703125 
L 19.921875 47.703125 
L 19.921875 0 
L 10.890625 0 
L 10.890625 47.703125 
L 2.296875 47.703125 
L 2.296875 54.6875 
L 10.890625 54.6875 
L 10.890625 58.5 
Q 10.890625 67.625 15.140625 71.796875 
Q 19.390625 75.984375 28.609375 75.984375 
z
" id="DejaVuSans-102"/>
       <path d="M 9.8125 72.90625 
L 19.671875 72.90625 
L 19.671875 8.296875 
L 55.171875 8.296875 
L 55.171875 0 
L 9.8125 0 
z
" id="DejaVuSans-76"/>
       <path d="M 52 44.1875 
Q 55.375 50.25 60.0625 53.125 
Q 64.75 56 71.09375 56 
Q 79.640625 56 84.28125 50.015625 
Q 88.921875 44.046875 88.921875 33.015625 
L 88.921875 0 
L 79.890625 0 
L 79.890625 32.71875 
Q 79.890625 40.578125 77.09375 44.375 
Q 74.3125 48.1875 68.609375 48.1875 
Q 61.625 48.1875 57.5625 43.546875 
Q 53.515625 38.921875 53.515625 30.90625 
L 53.515625 0 
L 44.484375 0 
L 44.484375 32.71875 
Q 44.484375 40.625 41.703125 44.40625 
Q 38.921875 48.1875 33.109375 48.1875 
Q 26.21875 48.1875 22.15625 43.53125 
Q 18.109375 38.875 18.109375 30.90625 
L 18.109375 0 
L 9.078125 0 
L 9.078125 54.6875 
L 18.109375 54.6875 
L 18.109375 46.1875 
Q 21.1875 51.21875 25.484375 53.609375 
Q 29.78125 56 35.6875 56 
Q 41.65625 56 45.828125 52.96875 
Q 50 49.953125 52 44.1875 
z
" id="DejaVuSans-109"/>
       <path d="M 48.6875 27.296875 
Q 48.6875 37.203125 44.609375 42.84375 
Q 40.53125 48.484375 33.40625 48.484375 
Q 26.265625 48.484375 22.1875 42.84375 
Q 18.109375 37.203125 18.109375 27.296875 
Q 18.109375 17.390625 22.1875 11.75 
Q 26.265625 6.109375 33.40625 6.109375 
Q 40.53125 6.109375 44.609375 11.75 
Q 48.6875 17.390625 48.6875 27.296875 
z
M 18.109375 46.390625 
Q 20.953125 51.265625 25.265625 53.625 
Q 29.59375 56 35.59375 56 
Q 45.5625 56 51.78125 48.09375 
Q 58.015625 40.1875 58.015625 27.296875 
Q 58.015625 14.40625 51.78125 6.484375 
Q 45.5625 -1.421875 35.59375 -1.421875 
Q 29.59375 -1.421875 25.265625 0.953125 
Q 20.953125 3.328125 18.109375 8.203125 
L 18.109375 0 
L 9.078125 0 
L 9.078125 75.984375 
L 18.109375 75.984375 
z
" id="DejaVuSans-98"/>
       <path d="M 44.28125 53.078125 
L 44.28125 44.578125 
Q 40.484375 46.53125 36.375 47.5 
Q 32.28125 48.484375 27.875 48.484375 
Q 21.1875 48.484375 17.84375 46.4375 
Q 14.5 44.390625 14.5 40.28125 
Q 14.5 37.15625 16.890625 35.375 
Q 19.28125 33.59375 26.515625 31.984375 
L 29.59375 31.296875 
Q 39.15625 29.25 43.1875 25.515625 
Q 47.21875 21.78125 47.21875 15.09375 
Q 47.21875 7.46875 41.1875 3.015625 
Q 35.15625 -1.421875 24.609375 -1.421875 
Q 20.21875 -1.421875 15.453125 -0.5625 
Q 10.6875 0.296875 5.421875 2 
L 5.421875 11.28125 
Q 10.40625 8.6875 15.234375 7.390625 
Q 20.0625 6.109375 24.8125 6.109375 
Q 31.15625 6.109375 34.5625 8.28125 
Q 37.984375 10.453125 37.984375 14.40625 
Q 37.984375 18.0625 35.515625 20.015625 
Q 33.0625 21.96875 24.703125 23.78125 
L 21.578125 24.515625 
Q 13.234375 26.265625 9.515625 29.90625 
Q 5.8125 33.546875 5.8125 39.890625 
Q 5.8125 47.609375 11.28125 51.796875 
Q 16.75 56 26.8125 56 
Q 31.78125 56 36.171875 55.265625 
Q 40.578125 54.546875 44.28125 53.078125 
z
" id="DejaVuSans-115"/>
       <path d="M 2.984375 54.6875 
L 12.5 54.6875 
L 29.59375 8.796875 
L 46.6875 54.6875 
L 56.203125 54.6875 
L 35.6875 0 
L 23.484375 0 
z
" id="DejaVuSans-118"/>
      </defs>
      <use xlink:href="#DejaVuSans-77"/>
      <use x="86.279297" xlink:href="#DejaVuSans-111"/>
      <use x="147.460938" xlink:href="#DejaVuSans-100"/>
      <use x="210.9375" xlink:href="#DejaVuSans-105"/>
      <use x="238.720703" xlink:href="#DejaVuSans-102"/>
      <use x="273.925781" xlink:href="#DejaVuSans-105"/>
      <use x="301.708984" xlink:href="#DejaVuSans-101"/>
      <use x="363.232422" xlink:href="#DejaVuSans-100"/>
      <use x="426.708984" xlink:href="#DejaVuSans-32"/>
      <use x="458.496094" xlink:href="#DejaVuSans-76"/>
      <use x="514.208984" xlink:href="#DejaVuSans-97"/>
      <use x="575.488281" xlink:href="#DejaVuSans-109"/>
      <use x="672.900391" xlink:href="#DejaVuSans-32"/>
      <use x="704.6875" xlink:href="#DejaVuSans-111"/>
      <use x="765.869141" xlink:href="#DejaVuSans-98"/>
      <use x="829.345703" xlink:href="#DejaVuSans-115"/>
      <use x="881.445312" xlink:href="#DejaVuSans-101"/>
      <use x="942.96875" xlink:href="#DejaVuSans-114"/>
      <use x="984.082031" xlink:href="#DejaVuSans-118"/>
      <use x="1043.261719" xlink:href="#DejaVuSans-101"/>
      <use x="1104.785156" xlink:href="#DejaVuSans-100"/>
      <use x="1168.261719" xlink:href="#DejaVuSans-32"/>
      <use x="1200.048828" xlink:href="#DejaVuSans-97"/>
      <use x="1261.328125" xlink:href="#DejaVuSans-99"/>
      <use x="1316.308594" xlink:href="#DejaVuSans-99"/>
      <use x="1371.289062" xlink:href="#DejaVuSans-101"/>
      <use x="1432.8125" xlink:href="#DejaVuSans-112"/>
      <use x="1496.289062" xlink:href="#DejaVuSans-116"/>
      <use x="1535.498047" xlink:href="#DejaVuSans-97"/>
      <use x="1596.777344" xlink:href="#DejaVuSans-110"/>
      <use x="1660.15625" xlink:href="#DejaVuSans-99"/>
      <use x="1715.136719" xlink:href="#DejaVuSans-101"/>
      <use x="1776.660156" xlink:href="#DejaVuSans-32"/>
      <use x="1808.447266" xlink:href="#DejaVuSans-114"/>
      <use x="1849.560547" xlink:href="#DejaVuSans-97"/>
      <use x="1910.839844" xlink:href="#DejaVuSans-116"/>
      <use x="1950.048828" xlink:href="#DejaVuSans-101"/>
     </g>
    </g>
    <g id="line2d_20">
     <path d="M 165.549687 83.926688 
L 185.549687 83.926688 
" style="fill:none;stroke:#2ca02c;stroke-linecap:square;stroke-width:1.5;"/>
    </g>
    <g id="line2d_21"/>
    <g id="text_15">
     <!-- Self-Tuning Lam observed acceptance rate -->
     <g transform="translate(193.549687 87.426688)scale(0.1 -0.1)">
      <defs>
       <path d="M 53.515625 70.515625 
L 53.515625 60.890625 
Q 47.90625 63.578125 42.921875 64.890625 
Q 37.9375 66.21875 33.296875 66.21875 
Q 25.25 66.21875 20.875 63.09375 
Q 16.5 59.96875 16.5 54.203125 
Q 16.5 49.359375 19.40625 46.890625 
Q 22.3125 44.4375 30.421875 42.921875 
L 36.375 41.703125 
Q 47.40625 39.59375 52.65625 34.296875 
Q 57.90625 29 57.90625 20.125 
Q 57.90625 9.515625 50.796875 4.046875 
Q 43.703125 -1.421875 29.984375 -1.421875 
Q 24.8125 -1.421875 18.96875 -0.25 
Q 13.140625 0.921875 6.890625 3.21875 
L 6.890625 13.375 
Q 12.890625 10.015625 18.65625 8.296875 
Q 24.421875 6.59375 29.984375 6.59375 
Q 38.421875 6.59375 43.015625 9.90625 
Q 47.609375 13.234375 47.609375 19.390625 
Q 47.609375 24.75 44.3125 27.78125 
Q 41.015625 30.8125 33.5 32.328125 
L 27.484375 33.5 
Q 16.453125 35.6875 11.515625 40.375 
Q 6.59375 45.0625 6.59375 53.421875 
Q 6.59375 63.09375 13.40625 68.65625 
Q 20.21875 74.21875 32.171875 74.21875 
Q 37.3125 74.21875 42.625 73.28125 
Q 47.953125 72.359375 53.515625 70.515625 
z
" id="DejaVuSans-83"/>
       <path d="M 9.421875 75.984375 
L 18.40625 75.984375 
L 18.40625 0 
L 9.421875 0 
z
" id="DejaVuSans-108"/>
       <path d="M 4.890625 31.390625 
L 31.203125 31.390625 
L 31.203125 23.390625 
L 4.890625 23.390625 
z
" id="DejaVuSans-45"/>
       <path d="M 8.5 21.578125 
L 8.5 54.6875 
L 17.484375 54.6875 
L 17.484375 21.921875 
Q 17.484375 14.15625 20.5 10.265625 
Q 23.53125 6.390625 29.59375 6.390625 
Q 36.859375 6.390625 41.078125 11.03125 
Q 45.3125 15.671875 45.3125 23.6875 
L 45.3125 54.6875 
L 54.296875 54.6875 
L 54.296875 0 
L 45.3125 0 
L 45.3125 8.40625 
Q 42.046875 3.421875 37.71875 1 
Q 33.40625 -1.421875 27.6875 -1.421875 
Q 18.265625 -1.421875 13.375 4.4375 
Q 8.5 10.296875 8.5 21.578125 
z
M 31.109375 56 
z
" id="DejaVuSans-117"/>
      </defs>
      <use xlink:href="#DejaVuSans-83"/>
      <use x="63.476562" xlink:href="#DejaVuSans-101"/>
      <use x="125" xlink:href="#DejaVuSans-108"/>
      <use x="152.783203" xlink:href="#DejaVuSans-102"/>
      <use x="182.488281" xlink:href="#DejaVuSans-45"/>
      <use x="209.447266" xlink:href="#DejaVuSans-84"/>
      <use x="255.40625" xlink:href="#DejaVuSans-117"/>
      <use x="318.785156" xlink:href="#DejaVuSans-110"/>
      <use x="382.164062" xlink:href="#DejaVuSans-105"/>
      <use x="409.947266" xlink:href="#DejaVuSans-110"/>
      <use x="473.326172" xlink:href="#DejaVuSans-103"/>
      <use x="536.802734" xlink:href="#DejaVuSans-32"/>
      <use x="568.589844" xlink:href="#DejaVuSans-76"/>
      <use x="624.302734" xlink:href="#DejaVuSans-97"/>
      <use x="685.582031" xlink:href="#DejaVuSans-109"/>
      <use x="782.994141" xlink:href="#DejaVuSans-32"/>
      <use x="814.78125" xlink:href="#DejaVuSans-111"/>
      <use x="875.962891" xlink:href="#DejaVuSans-98"/>
      <use x="939.439453" xlink:href="#DejaVuSans-115"/>
      <use x="991.539062" xlink:href="#DejaVuSans-101"/>
      <use x="1053.0625" xlink:href="#DejaVuSans-114"/>
      <use x="1094.175781" xlink:href="#DejaVuSans-118"/>
      <use x="1153.355469" xlink:href="#DejaVuSans-101"/>
      <use x="1214.878906" xlink:href="#DejaVuSans-100"/>
      <use x="1278.355469" xlink:href="#DejaVuSans-32"/>
      <use x="1310.142578" xlink:href="#DejaVuSans-97"/>
      <use x="1371.421875" xlink:href="#DejaVuSans-99"/>
      <use x="1426.402344" xlink:href="#DejaVuSans-99"/>
      <use x="1481.382812" xlink:href="#DejaVuSans-101"/>
      <use x="1542.90625" xlink:href="#DejaVuSans-112"/>
      <use x="1606.382812" xlink:href="#DejaVuSans-116"/>
      <use x="1645.591797" xlink:href="#DejaVuSans-97"/>
      <use x="1706.871094" xlink:href="#DejaVuSans-110"/>
      <use x="1770.25" xlink:href="#DejaVuSans-99"/>
      <use x="1825.230469" xlink:href="#DejaVuSans-101"/>
      <use x="1886.753906" xlink:href="#DejaVuSans-32"/>
      <use x="1918.541016" xlink:href="#DejaVuSans-114"/>
      <use x="1959.654297" xlink:href="#DejaVuSans-97"/>
      <use x="2020.933594" xlink:href="#DejaVuSans-116"/>
      <use x="2060.142578" xlink:href="#DejaVuSans-101"/>
     </g>
    </g>
   </g>
  </g>
 </g>
 <defs>
  <clipPath id="p632e531cf7">
   <rect height="266.112" width="357.12" x="57.6" y="41.472"/>
  </clipPath>
 </defs>
</svg>
