<?xml version="1.0" encoding="utf-8" standalone="no"?>
<!DOCTYPE svg PUBLIC "-//W3C//DTD SVG 1.1//EN"
  "http://www.w3.org/Graphics/SVG/1.1/DTD/svg11.dtd">
<!-- Created with matplotlib (https://matplotlib.org/) -->
<svg height="345.6pt" version="1.1" viewBox="0 0 460.8 345.6" width="460.8pt" xmlns="http://www.w3.org/2000/svg" xmlns:xlink="http://www.w3.org/1999/xlink">
 <metadata>
  <rdf:RDF xmlns:cc="http://creativecommons.org/ns#" xmlns:dc="http://purl.org/dc/elements/1.1/" xmlns:rdf="http://www.w3.org/1999/02/22-rdf-syntax-ns#">
   <cc:Work>
    <dc:type rdf:resource="http://purl.org/dc/dcmitype/StillImage"/>
    <dc:date>2021-03-15T17:13:04.315699</dc:date>
    <dc:format>image/svg+xml</dc:format>
    <dc:creator>
     <cc:Agent>
      <dc:title>Matplotlib v3.3.4, https://matplotlib.org/</dc:title>
     </cc:Agent>
    </dc:creator>
   </cc:Work>
  </rdf:RDF>
 </metadata>
 <defs>
  <style type="text/css">*{stroke-linecap:butt;stroke-linejoin:round;}</style>
 </defs>
 <g id="figure_1">
  <g id="patch_1">
   <path d="M 0 345.6 
L 460.8 345.6 
L 460.8 0 
L 0 0 
z
" style="fill:#ffffff;"/>
  </g>
  <g id="axes_1">
   <g id="patch_2">
    <path d="M 57.6 307.584 
L 414.72 307.584 
L 414.72 41.472 
L 57.6 41.472 
z
" style="fill:#ffffff;"/>
   </g>
   <g id="matplotlib.axis_1">
    <g id="xtick_1">
     <g id="line2d_1">
      <defs>
       <path d="M 0 0 
L 0 3.5 
" id="mc1ed93c8c2" style="stroke:#000000;stroke-width:0.8;"/>
      </defs>
      <g>
       <use style="stroke:#000000;stroke-width:0.8;" x="73.507748" xlink:href="#mc1ed93c8c2" y="307.584"/>
      </g>
     </g>
     <g id="text_1">
      <!-- 0 -->
      <g transform="translate(70.326498 322.182437)scale(0.1 -0.1)">
       <defs>
        <path d="M 31.78125 66.40625 
Q 24.171875 66.40625 20.328125 58.90625 
Q 16.5 51.421875 16.5 36.375 
Q 16.5 21.390625 20.328125 13.890625 
Q 24.171875 6.390625 31.78125 6.390625 
Q 39.453125 6.390625 43.28125 13.890625 
Q 47.125 21.390625 47.125 36.375 
Q 47.125 51.421875 43.28125 58.90625 
Q 39.453125 66.40625 31.78125 66.40625 
z
M 31.78125 74.21875 
Q 44.046875 74.21875 50.515625 64.515625 
Q 56.984375 54.828125 56.984375 36.375 
Q 56.984375 17.96875 50.515625 8.265625 
Q 44.046875 -1.421875 31.78125 -1.421875 
Q 19.53125 -1.421875 13.0625 8.265625 
Q 6.59375 17.96875 6.59375 36.375 
Q 6.59375 54.828125 13.0625 64.515625 
Q 19.53125 74.21875 31.78125 74.21875 
z
" id="DejaVuSans-48"/>
       </defs>
       <use xlink:href="#DejaVuSans-48"/>
      </g>
     </g>
    </g>
    <g id="xtick_2">
     <g id="line2d_2">
      <g>
       <use style="stroke:#000000;stroke-width:0.8;" x="138.503653" xlink:href="#mc1ed93c8c2" y="307.584"/>
      </g>
     </g>
     <g id="text_2">
      <!-- 200 -->
      <g transform="translate(128.959903 322.182437)scale(0.1 -0.1)">
       <defs>
        <path d="M 19.1875 8.296875 
L 53.609375 8.296875 
L 53.609375 0 
L 7.328125 0 
L 7.328125 8.296875 
Q 12.9375 14.109375 22.625 23.890625 
Q 32.328125 33.6875 34.8125 36.53125 
Q 39.546875 41.84375 41.421875 45.53125 
Q 43.3125 49.21875 43.3125 52.78125 
Q 43.3125 58.59375 39.234375 62.25 
Q 35.15625 65.921875 28.609375 65.921875 
Q 23.96875 65.921875 18.8125 64.3125 
Q 13.671875 62.703125 7.8125 59.421875 
L 7.8125 69.390625 
Q 13.765625 71.78125 18.9375 73 
Q 24.125 74.21875 28.421875 74.21875 
Q 39.75 74.21875 46.484375 68.546875 
Q 53.21875 62.890625 53.21875 53.421875 
Q 53.21875 48.921875 51.53125 44.890625 
Q 49.859375 40.875 45.40625 35.40625 
Q 44.1875 33.984375 37.640625 27.21875 
Q 31.109375 20.453125 19.1875 8.296875 
z
" id="DejaVuSans-50"/>
       </defs>
       <use xlink:href="#DejaVuSans-50"/>
       <use x="63.623047" xlink:href="#DejaVuSans-48"/>
       <use x="127.246094" xlink:href="#DejaVuSans-48"/>
      </g>
     </g>
    </g>
    <g id="xtick_3">
     <g id="line2d_3">
      <g>
       <use style="stroke:#000000;stroke-width:0.8;" x="203.499558" xlink:href="#mc1ed93c8c2" y="307.584"/>
      </g>
     </g>
     <g id="text_3">
      <!-- 400 -->
      <g transform="translate(193.955808 322.182437)scale(0.1 -0.1)">
       <defs>
        <path d="M 37.796875 64.3125 
L 12.890625 25.390625 
L 37.796875 25.390625 
z
M 35.203125 72.90625 
L 47.609375 72.90625 
L 47.609375 25.390625 
L 58.015625 25.390625 
L 58.015625 17.1875 
L 47.609375 17.1875 
L 47.609375 0 
L 37.796875 0 
L 37.796875 17.1875 
L 4.890625 17.1875 
L 4.890625 26.703125 
z
" id="DejaVuSans-52"/>
       </defs>
       <use xlink:href="#DejaVuSans-52"/>
       <use x="63.623047" xlink:href="#DejaVuSans-48"/>
       <use x="127.246094" xlink:href="#DejaVuSans-48"/>
      </g>
     </g>
    </g>
    <g id="xtick_4">
     <g id="line2d_4">
      <g>
       <use style="stroke:#000000;stroke-width:0.8;" x="268.495463" xlink:href="#mc1ed93c8c2" y="307.584"/>
      </g>
     </g>
     <g id="text_4">
      <!-- 600 -->
      <g transform="translate(258.951713 322.182437)scale(0.1 -0.1)">
       <defs>
        <path d="M 33.015625 40.375 
Q 26.375 40.375 22.484375 35.828125 
Q 18.609375 31.296875 18.609375 23.390625 
Q 18.609375 15.53125 22.484375 10.953125 
Q 26.375 6.390625 33.015625 6.390625 
Q 39.65625 6.390625 43.53125 10.953125 
Q 47.40625 15.53125 47.40625 23.390625 
Q 47.40625 31.296875 43.53125 35.828125 
Q 39.65625 40.375 33.015625 40.375 
z
M 52.59375 71.296875 
L 52.59375 62.3125 
Q 48.875 64.0625 45.09375 64.984375 
Q 41.3125 65.921875 37.59375 65.921875 
Q 27.828125 65.921875 22.671875 59.328125 
Q 17.53125 52.734375 16.796875 39.40625 
Q 19.671875 43.65625 24.015625 45.921875 
Q 28.375 48.1875 33.59375 48.1875 
Q 44.578125 48.1875 50.953125 41.515625 
Q 57.328125 34.859375 57.328125 23.390625 
Q 57.328125 12.15625 50.6875 5.359375 
Q 44.046875 -1.421875 33.015625 -1.421875 
Q 20.359375 -1.421875 13.671875 8.265625 
Q 6.984375 17.96875 6.984375 36.375 
Q 6.984375 53.65625 15.1875 63.9375 
Q 23.390625 74.21875 37.203125 74.21875 
Q 40.921875 74.21875 44.703125 73.484375 
Q 48.484375 72.75 52.59375 71.296875 
z
" id="DejaVuSans-54"/>
       </defs>
       <use xlink:href="#DejaVuSans-54"/>
       <use x="63.623047" xlink:href="#DejaVuSans-48"/>
       <use x="127.246094" xlink:href="#DejaVuSans-48"/>
      </g>
     </g>
    </g>
    <g id="xtick_5">
     <g id="line2d_5">
      <g>
       <use style="stroke:#000000;stroke-width:0.8;" x="333.491368" xlink:href="#mc1ed93c8c2" y="307.584"/>
      </g>
     </g>
     <g id="text_5">
      <!-- 800 -->
      <g transform="translate(323.947618 322.182437)scale(0.1 -0.1)">
       <defs>
        <path d="M 31.78125 34.625 
Q 24.75 34.625 20.71875 30.859375 
Q 16.703125 27.09375 16.703125 20.515625 
Q 16.703125 13.921875 20.71875 10.15625 
Q 24.75 6.390625 31.78125 6.390625 
Q 38.8125 6.390625 42.859375 10.171875 
Q 46.921875 13.96875 46.921875 20.515625 
Q 46.921875 27.09375 42.890625 30.859375 
Q 38.875 34.625 31.78125 34.625 
z
M 21.921875 38.8125 
Q 15.578125 40.375 12.03125 44.71875 
Q 8.5 49.078125 8.5 55.328125 
Q 8.5 64.0625 14.71875 69.140625 
Q 20.953125 74.21875 31.78125 74.21875 
Q 42.671875 74.21875 48.875 69.140625 
Q 55.078125 64.0625 55.078125 55.328125 
Q 55.078125 49.078125 51.53125 44.71875 
Q 48 40.375 41.703125 38.8125 
Q 48.828125 37.15625 52.796875 32.3125 
Q 56.78125 27.484375 56.78125 20.515625 
Q 56.78125 9.90625 50.3125 4.234375 
Q 43.84375 -1.421875 31.78125 -1.421875 
Q 19.734375 -1.421875 13.25 4.234375 
Q 6.78125 9.90625 6.78125 20.515625 
Q 6.78125 27.484375 10.78125 32.3125 
Q 14.796875 37.15625 21.921875 38.8125 
z
M 18.3125 54.390625 
Q 18.3125 48.734375 21.84375 45.5625 
Q 25.390625 42.390625 31.78125 42.390625 
Q 38.140625 42.390625 41.71875 45.5625 
Q 45.3125 48.734375 45.3125 54.390625 
Q 45.3125 60.0625 41.71875 63.234375 
Q 38.140625 66.40625 31.78125 66.40625 
Q 25.390625 66.40625 21.84375 63.234375 
Q 18.3125 60.0625 18.3125 54.390625 
z
" id="DejaVuSans-56"/>
       </defs>
       <use xlink:href="#DejaVuSans-56"/>
       <use x="63.623047" xlink:href="#DejaVuSans-48"/>
       <use x="127.246094" xlink:href="#DejaVuSans-48"/>
      </g>
     </g>
    </g>
    <g id="xtick_6">
     <g id="line2d_6">
      <g>
       <use style="stroke:#000000;stroke-width:0.8;" x="398.487273" xlink:href="#mc1ed93c8c2" y="307.584"/>
      </g>
     </g>
     <g id="text_6">
      <!-- 1000 -->
      <g transform="translate(385.762273 322.182437)scale(0.1 -0.1)">
       <defs>
        <path d="M 12.40625 8.296875 
L 28.515625 8.296875 
L 28.515625 63.921875 
L 10.984375 60.40625 
L 10.984375 69.390625 
L 28.421875 72.90625 
L 38.28125 72.90625 
L 38.28125 8.296875 
L 54.390625 8.296875 
L 54.390625 0 
L 12.40625 0 
z
" id="DejaVuSans-49"/>
       </defs>
       <use xlink:href="#DejaVuSans-49"/>
       <use x="63.623047" xlink:href="#DejaVuSans-48"/>
       <use x="127.246094" xlink:href="#DejaVuSans-48"/>
       <use x="190.869141" xlink:href="#DejaVuSans-48"/>
      </g>
     </g>
    </g>
   </g>
   <g id="matplotlib.axis_2">
    <g id="ytick_1">
     <g id="line2d_7">
      <defs>
       <path d="M 0 0 
L -3.5 0 
" id="m06a5453615" style="stroke:#000000;stroke-width:0.8;"/>
      </defs>
      <g>
       <use style="stroke:#000000;stroke-width:0.8;" x="57.6" xlink:href="#m06a5453615" y="295.730162"/>
      </g>
     </g>
     <g id="text_7">
      <!-- 0.0 -->
      <g transform="translate(34.696875 299.529381)scale(0.1 -0.1)">
       <defs>
        <path d="M 10.6875 12.40625 
L 21 12.40625 
L 21 0 
L 10.6875 0 
z
" id="DejaVuSans-46"/>
       </defs>
       <use xlink:href="#DejaVuSans-48"/>
       <use x="63.623047" xlink:href="#DejaVuSans-46"/>
       <use x="95.410156" xlink:href="#DejaVuSans-48"/>
      </g>
     </g>
    </g>
    <g id="ytick_2">
     <g id="line2d_8">
      <g>
       <use style="stroke:#000000;stroke-width:0.8;" x="57.6" xlink:href="#m06a5453615" y="247.29773"/>
      </g>
     </g>
     <g id="text_8">
      <!-- 0.2 -->
      <g transform="translate(34.696875 251.096948)scale(0.1 -0.1)">
       <use xlink:href="#DejaVuSans-48"/>
       <use x="63.623047" xlink:href="#DejaVuSans-46"/>
       <use x="95.410156" xlink:href="#DejaVuSans-50"/>
      </g>
     </g>
    </g>
    <g id="ytick_3">
     <g id="line2d_9">
      <g>
       <use style="stroke:#000000;stroke-width:0.8;" x="57.6" xlink:href="#m06a5453615" y="198.865297"/>
      </g>
     </g>
     <g id="text_9">
      <!-- 0.4 -->
      <g transform="translate(34.696875 202.664516)scale(0.1 -0.1)">
       <use xlink:href="#DejaVuSans-48"/>
       <use x="63.623047" xlink:href="#DejaVuSans-46"/>
       <use x="95.410156" xlink:href="#DejaVuSans-52"/>
      </g>
     </g>
    </g>
    <g id="ytick_4">
     <g id="line2d_10">
      <g>
       <use style="stroke:#000000;stroke-width:0.8;" x="57.6" xlink:href="#m06a5453615" y="150.432865"/>
      </g>
     </g>
     <g id="text_10">
      <!-- 0.6 -->
      <g transform="translate(34.696875 154.232084)scale(0.1 -0.1)">
       <use xlink:href="#DejaVuSans-48"/>
       <use x="63.623047" xlink:href="#DejaVuSans-46"/>
       <use x="95.410156" xlink:href="#DejaVuSans-54"/>
      </g>
     </g>
    </g>
    <g id="ytick_5">
     <g id="line2d_11">
      <g>
       <use style="stroke:#000000;stroke-width:0.8;" x="57.6" xlink:href="#m06a5453615" y="102.000432"/>
      </g>
     </g>
     <g id="text_11">
      <!-- 0.8 -->
      <g transform="translate(34.696875 105.799651)scale(0.1 -0.1)">
       <use xlink:href="#DejaVuSans-48"/>
       <use x="63.623047" xlink:href="#DejaVuSans-46"/>
       <use x="95.410156" xlink:href="#DejaVuSans-56"/>
      </g>
     </g>
    </g>
    <g id="ytick_6">
     <g id="line2d_12">
      <g>
       <use style="stroke:#000000;stroke-width:0.8;" x="57.6" xlink:href="#m06a5453615" y="53.568"/>
      </g>
     </g>
     <g id="text_12">
      <!-- 1.0 -->
      <g transform="translate(34.696875 57.367219)scale(0.1 -0.1)">
       <use xlink:href="#DejaVuSans-49"/>
       <use x="63.623047" xlink:href="#DejaVuSans-46"/>
       <use x="95.410156" xlink:href="#DejaVuSans-48"/>
      </g>
     </g>
    </g>
   </g>
   <g id="line2d_13">
    <path clip-path="url(#p145338d974)" d="M 73.832727 59.169918 
L 75.132645 79.35714 
L 76.432563 96.409778 
L 77.732482 110.814554 
L 79.0324 122.982619 
L 80.332318 133.26128 
L 81.632236 141.943914 
L 82.932154 149.278345 
L 84.232072 155.473918 
L 85.53199 160.707469 
L 86.831908 165.128377 
L 88.131826 168.862825 
L 89.431744 172.017404 
L 90.731663 174.682153 
L 92.031581 176.933132 
L 93.656478 179.261896 
L 95.281376 181.147798 
L 96.906274 182.675058 
L 98.531171 183.911878 
L 100.481048 185.089687 
L 102.430925 186.00411 
L 104.705782 186.815864 
L 107.305618 187.492708 
L 110.230434 188.025377 
L 113.805209 188.453609 
L 118.679902 188.793652 
L 122.254676 188.936649 
L 122.579656 189.178811 
L 284.744439 189.178811 
L 286.694316 199.736484 
L 288.644193 209.248048 
L 290.59407 217.817155 
L 292.543948 225.537189 
L 294.818804 233.582531 
L 297.093661 240.705735 
L 299.368518 247.012496 
L 301.643374 252.596392 
L 303.918231 257.540276 
L 306.193088 261.917504 
L 308.467944 265.793025 
L 310.742801 269.224344 
L 313.017658 272.262374 
L 315.292514 274.952193 
L 317.567371 277.333711 
L 320.167207 279.723076 
L 322.767043 281.802106 
L 325.36688 283.611108 
L 328.291695 285.366954 
L 331.216511 286.868407 
L 334.466306 288.282971 
L 338.041081 289.579632 
L 341.940835 290.738101 
L 346.165569 291.748224 
L 350.715283 292.608712 
L 355.914955 293.366895 
L 362.089566 294.031875 
L 369.239115 294.571782 
L 378.013563 295.005847 
L 389.387846 295.336084 
L 398.487273 295.488 
L 398.487273 295.488 
" style="fill:none;stroke:#1f77b4;stroke-linecap:square;stroke-width:1.5;"/>
   </g>
   <g id="line2d_14">
    <path clip-path="url(#p145338d974)" d="M 73.832727 162.540973 
L 74.157707 157.69773 
L 74.482686 196.443676 
L 74.807666 145.589622 
L 75.132645 148.011243 
L 75.457625 184.335568 
L 75.782604 157.69773 
L 76.107584 184.335568 
L 76.432563 152.854486 
L 76.757543 164.962595 
L 77.082523 162.540973 
L 77.407502 148.011243 
L 77.732482 169.805838 
L 78.057461 167.384216 
L 78.382441 172.227459 
L 78.70742 179.492324 
L 79.0324 167.384216 
L 79.357379 167.384216 
L 79.682359 172.227459 
L 80.007338 162.540973 
L 80.332318 148.011243 
L 80.982277 162.540973 
L 81.307256 157.69773 
L 81.957215 184.335568 
L 82.282195 160.119351 
L 82.607174 155.276108 
L 82.932154 169.805838 
L 83.257133 169.805838 
L 83.582113 157.69773 
L 83.907093 155.276108 
L 84.557052 164.962595 
L 84.882031 164.962595 
L 85.53199 184.335568 
L 85.85697 152.854486 
L 86.181949 196.443676 
L 86.506929 172.227459 
L 86.831908 179.492324 
L 87.156888 160.119351 
L 87.806847 177.070703 
L 88.131826 172.227459 
L 88.456806 160.119351 
L 88.781785 152.854486 
L 89.431744 177.070703 
L 89.756724 179.492324 
L 90.081704 210.973405 
L 90.406683 167.384216 
L 90.731663 172.227459 
L 91.056642 169.805838 
L 91.381622 189.178811 
L 91.706601 196.443676 
L 92.031581 172.227459 
L 92.68154 177.070703 
L 93.006519 177.070703 
L 93.331499 203.708541 
L 93.981458 172.227459 
L 94.306437 172.227459 
L 94.631417 169.805838 
L 94.956396 189.178811 
L 95.281376 174.649081 
L 95.606355 179.492324 
L 95.931335 177.070703 
L 96.256314 186.757189 
L 96.906274 181.913946 
L 97.231253 184.335568 
L 97.556233 169.805838 
L 97.881212 181.913946 
L 98.206192 174.649081 
L 98.531171 194.022054 
L 98.856151 198.865297 
L 99.18113 186.757189 
L 99.50611 210.973405 
L 99.831089 184.335568 
L 100.156069 181.913946 
L 100.481048 174.649081 
L 100.806028 206.130162 
L 101.455987 201.286919 
L 101.780966 172.227459 
L 102.105946 196.443676 
L 102.430925 177.070703 
L 102.755905 201.286919 
L 103.080885 210.973405 
L 103.405864 215.816649 
L 103.730844 179.492324 
L 104.055823 186.757189 
L 104.380803 201.286919 
L 104.705782 208.551784 
L 105.030762 194.022054 
L 105.355741 220.659892 
L 105.680721 208.551784 
L 106.0057 174.649081 
L 106.33068 194.022054 
L 106.655659 184.335568 
L 106.980639 206.130162 
L 107.305618 194.022054 
L 107.630598 198.865297 
L 107.955577 196.443676 
L 108.280557 174.649081 
L 108.605536 194.022054 
L 108.930516 184.335568 
L 109.255495 210.973405 
L 109.580475 223.081514 
L 110.230434 174.649081 
L 110.555414 189.178811 
L 111.205373 232.768 
L 111.530352 184.335568 
L 111.855332 203.708541 
L 112.180311 179.492324 
L 112.505291 196.443676 
L 113.15525 196.443676 
L 113.480229 189.178811 
L 113.805209 194.022054 
L 114.130188 201.286919 
L 114.455168 191.600432 
L 114.780147 206.130162 
L 115.105127 198.865297 
L 115.430106 206.130162 
L 115.755086 208.551784 
L 116.080066 196.443676 
L 116.405045 210.973405 
L 116.730025 169.805838 
L 117.055004 194.022054 
L 117.379984 177.070703 
L 117.704963 191.600432 
L 118.029943 218.23827 
L 118.354922 235.189622 
L 118.679902 191.600432 
L 119.004881 177.070703 
L 119.329861 213.395027 
L 119.97982 198.865297 
L 120.304799 201.286919 
L 120.629779 215.816649 
L 120.954758 203.708541 
L 121.279738 201.286919 
L 121.604717 203.708541 
L 121.929697 172.227459 
L 122.254676 208.551784 
L 122.579656 213.395027 
L 122.904636 198.865297 
L 123.229615 198.865297 
L 123.554595 220.659892 
L 123.879574 220.659892 
L 124.204554 181.913946 
L 124.529533 213.395027 
L 124.854513 218.23827 
L 125.179492 213.395027 
L 125.504472 215.816649 
L 126.154431 196.443676 
L 126.47941 203.708541 
L 126.80439 223.081514 
L 127.129369 196.443676 
L 127.454349 215.816649 
L 127.779328 225.503135 
L 128.104308 223.081514 
L 128.429287 194.022054 
L 128.754267 225.503135 
L 129.079247 232.768 
L 129.404226 218.23827 
L 129.729206 196.443676 
L 130.054185 210.973405 
L 130.379165 218.23827 
L 131.029124 201.286919 
L 131.354103 213.395027 
L 131.679083 206.130162 
L 132.004062 220.659892 
L 132.329042 242.454486 
L 132.654021 223.081514 
L 132.979001 227.924757 
L 133.62896 203.708541 
L 133.953939 223.081514 
L 134.278919 213.395027 
L 134.603898 218.23827 
L 134.928878 215.816649 
L 135.253857 225.503135 
L 135.578837 201.286919 
L 135.903817 232.768 
L 136.228796 240.032865 
L 136.553776 194.022054 
L 136.878755 225.503135 
L 137.203735 218.23827 
L 137.528714 218.23827 
L 137.853694 206.130162 
L 138.178673 218.23827 
L 138.503653 218.23827 
L 138.828632 237.611243 
L 139.153612 210.973405 
L 139.478591 220.659892 
L 139.803571 203.708541 
L 140.12855 237.611243 
L 140.45353 213.395027 
L 140.778509 227.924757 
L 141.103489 223.081514 
L 141.428468 227.924757 
L 141.753448 225.503135 
L 142.078428 227.924757 
L 142.403407 237.611243 
L 142.728387 203.708541 
L 143.378346 235.189622 
L 143.703325 213.395027 
L 144.028305 230.346378 
L 144.353284 215.816649 
L 144.678264 218.23827 
L 145.003243 223.081514 
L 145.328223 235.189622 
L 145.653202 213.395027 
L 145.978182 225.503135 
L 146.303161 203.708541 
L 146.95312 225.503135 
L 147.2781 230.346378 
L 147.928059 213.395027 
L 148.253038 230.346378 
L 148.578018 220.659892 
L 148.902998 220.659892 
L 149.227977 227.924757 
L 149.552957 220.659892 
L 149.877936 232.768 
L 150.202916 194.022054 
L 150.527895 218.23827 
L 150.852875 208.551784 
L 151.177854 237.611243 
L 151.502834 237.611243 
L 151.827813 242.454486 
L 152.152793 208.551784 
L 152.802752 225.503135 
L 153.127731 232.768 
L 153.452711 232.768 
L 153.77769 249.719351 
L 154.10267 230.346378 
L 154.427649 225.503135 
L 154.752629 230.346378 
L 155.077609 230.346378 
L 155.402588 223.081514 
L 155.727568 225.503135 
L 156.052547 244.876108 
L 156.377527 225.503135 
L 157.027486 240.032865 
L 157.352465 240.032865 
L 157.677445 230.346378 
L 158.002424 247.29773 
L 158.327404 225.503135 
L 158.652383 242.454486 
L 158.977363 225.503135 
L 159.302342 227.924757 
L 159.627322 235.189622 
L 159.952301 227.924757 
L 160.277281 227.924757 
L 160.92724 242.454486 
L 161.252219 242.454486 
L 161.577199 223.081514 
L 161.902179 237.611243 
L 162.227158 230.346378 
L 162.877117 247.29773 
L 163.202097 240.032865 
L 163.527076 220.659892 
L 163.852056 232.768 
L 164.177035 232.768 
L 164.502015 230.346378 
L 164.826994 252.140973 
L 165.151974 227.924757 
L 165.476953 227.924757 
L 165.801933 235.189622 
L 166.126912 230.346378 
L 166.451892 249.719351 
L 166.776871 235.189622 
L 167.101851 237.611243 
L 167.42683 235.189622 
L 167.75181 235.189622 
L 168.07679 240.032865 
L 168.401769 230.346378 
L 169.051728 242.454486 
L 169.376708 208.551784 
L 170.026667 244.876108 
L 170.676626 208.551784 
L 171.001605 240.032865 
L 171.326585 223.081514 
L 171.651564 227.924757 
L 171.976544 242.454486 
L 172.301523 235.189622 
L 172.626503 244.876108 
L 172.951482 237.611243 
L 173.276462 223.081514 
L 173.601441 235.189622 
L 173.926421 237.611243 
L 174.2514 237.611243 
L 174.57638 215.816649 
L 174.90136 225.503135 
L 175.226339 249.719351 
L 175.551319 223.081514 
L 175.876298 242.454486 
L 176.201278 230.346378 
L 176.526257 232.768 
L 176.851237 240.032865 
L 177.176216 235.189622 
L 177.501196 225.503135 
L 177.826175 232.768 
L 178.151155 247.29773 
L 178.476134 220.659892 
L 178.801114 247.29773 
L 179.126093 232.768 
L 179.776052 220.659892 
L 180.101032 237.611243 
L 180.426011 235.189622 
L 180.750991 237.611243 
L 181.075971 237.611243 
L 181.40095 225.503135 
L 181.72593 237.611243 
L 182.050909 232.768 
L 182.700868 215.816649 
L 183.025848 232.768 
L 183.350827 227.924757 
L 183.675807 235.189622 
L 184.000786 230.346378 
L 184.325766 230.346378 
L 184.650745 220.659892 
L 184.975725 242.454486 
L 185.300704 242.454486 
L 185.625684 232.768 
L 185.950663 227.924757 
L 186.275643 242.454486 
L 186.600622 223.081514 
L 187.250581 244.876108 
L 187.575561 235.189622 
L 187.900541 230.346378 
L 188.22552 249.719351 
L 188.5505 227.924757 
L 188.875479 232.768 
L 189.200459 232.768 
L 189.525438 230.346378 
L 189.850418 230.346378 
L 190.175397 240.032865 
L 190.500377 227.924757 
L 190.825356 232.768 
L 191.150336 240.032865 
L 191.475315 240.032865 
L 192.125274 225.503135 
L 192.450254 230.346378 
L 192.775233 232.768 
L 193.100213 242.454486 
L 193.425192 235.189622 
L 193.750172 247.29773 
L 194.075152 242.454486 
L 194.400131 240.032865 
L 194.725111 232.768 
L 195.05009 247.29773 
L 195.37507 230.346378 
L 195.700049 249.719351 
L 196.025029 237.611243 
L 196.350008 244.876108 
L 196.674988 247.29773 
L 197.324947 235.189622 
L 197.649926 232.768 
L 197.974906 235.189622 
L 198.299885 240.032865 
L 198.624865 213.395027 
L 198.949844 264.249081 
L 199.274824 230.346378 
L 199.599803 254.562595 
L 199.924783 235.189622 
L 200.249762 242.454486 
L 200.574742 225.503135 
L 200.899722 252.140973 
L 201.224701 227.924757 
L 201.549681 232.768 
L 201.87466 261.827459 
L 202.19964 237.611243 
L 202.524619 227.924757 
L 202.849599 227.924757 
L 203.174578 242.454486 
L 203.824537 227.924757 
L 204.474496 237.611243 
L 204.799476 249.719351 
L 205.124455 235.189622 
L 205.449435 244.876108 
L 205.774414 242.454486 
L 206.099394 247.29773 
L 206.424373 237.611243 
L 206.749353 235.189622 
L 207.074333 237.611243 
L 207.399312 244.876108 
L 207.724292 237.611243 
L 208.049271 225.503135 
L 208.374251 244.876108 
L 208.69923 254.562595 
L 209.02421 247.29773 
L 209.349189 247.29773 
L 209.674169 237.611243 
L 210.324128 254.562595 
L 210.649107 223.081514 
L 210.974087 237.611243 
L 211.299066 235.189622 
L 211.624046 235.189622 
L 211.949025 247.29773 
L 212.598984 232.768 
L 212.923964 235.189622 
L 213.248943 254.562595 
L 213.573923 247.29773 
L 214.223882 223.081514 
L 214.548862 223.081514 
L 214.873841 218.23827 
L 215.198821 240.032865 
L 215.5238 210.973405 
L 215.84878 252.140973 
L 216.173759 247.29773 
L 216.498739 227.924757 
L 216.823718 244.876108 
L 217.148698 249.719351 
L 217.473677 247.29773 
L 218.123636 235.189622 
L 218.448616 240.032865 
L 218.773595 232.768 
L 219.098575 256.984216 
L 219.423554 232.768 
L 219.748534 242.454486 
L 220.073514 225.503135 
L 220.398493 227.924757 
L 220.723473 252.140973 
L 221.048452 249.719351 
L 221.698411 232.768 
L 222.023391 242.454486 
L 222.67335 237.611243 
L 222.998329 240.032865 
L 223.323309 249.719351 
L 223.648288 230.346378 
L 223.973268 249.719351 
L 224.298247 225.503135 
L 224.623227 237.611243 
L 224.948206 232.768 
L 225.273186 244.876108 
L 225.598165 242.454486 
L 225.923145 227.924757 
L 226.248124 225.503135 
L 226.573104 235.189622 
L 226.898084 227.924757 
L 227.223063 237.611243 
L 227.548043 225.503135 
L 227.873022 244.876108 
L 228.198002 230.346378 
L 228.522981 240.032865 
L 228.847961 264.249081 
L 229.17294 240.032865 
L 229.49792 254.562595 
L 229.822899 242.454486 
L 230.147879 235.189622 
L 230.472858 223.081514 
L 230.797838 249.719351 
L 231.122817 247.29773 
L 231.447797 232.768 
L 231.772776 249.719351 
L 232.422735 235.189622 
L 232.747715 242.454486 
L 233.072695 254.562595 
L 233.397674 223.081514 
L 233.722654 227.924757 
L 234.047633 235.189622 
L 234.372613 227.924757 
L 234.697592 208.551784 
L 235.022572 242.454486 
L 235.347551 240.032865 
L 235.672531 252.140973 
L 235.99751 232.768 
L 236.32249 223.081514 
L 236.647469 256.984216 
L 237.297428 215.816649 
L 237.622408 247.29773 
L 237.947387 237.611243 
L 238.272367 232.768 
L 238.597346 237.611243 
L 238.922326 249.719351 
L 239.247305 230.346378 
L 239.572285 252.140973 
L 239.897265 249.719351 
L 240.222244 227.924757 
L 240.547224 252.140973 
L 240.872203 220.659892 
L 241.197183 223.081514 
L 241.522162 227.924757 
L 241.847142 223.081514 
L 242.172121 206.130162 
L 242.82208 247.29773 
L 243.14706 232.768 
L 243.472039 232.768 
L 243.797019 240.032865 
L 244.121998 242.454486 
L 244.446978 223.081514 
L 244.771957 247.29773 
L 245.096937 225.503135 
L 245.421916 240.032865 
L 245.746896 227.924757 
L 246.071876 227.924757 
L 246.396855 223.081514 
L 246.721835 244.876108 
L 247.046814 249.719351 
L 247.371794 252.140973 
L 247.696773 232.768 
L 248.021753 227.924757 
L 248.671712 240.032865 
L 248.996691 232.768 
L 249.321671 252.140973 
L 249.64665 232.768 
L 249.97163 237.611243 
L 250.621589 232.768 
L 251.271548 237.611243 
L 251.596527 215.816649 
L 251.921507 227.924757 
L 252.246486 244.876108 
L 252.571466 230.346378 
L 253.221425 230.346378 
L 253.546405 235.189622 
L 253.871384 223.081514 
L 254.196364 227.924757 
L 254.521343 249.719351 
L 255.171302 227.924757 
L 255.821261 240.032865 
L 256.146241 232.768 
L 256.47122 208.551784 
L 256.7962 247.29773 
L 257.121179 215.816649 
L 257.771138 232.768 
L 258.096118 223.081514 
L 258.421097 227.924757 
L 258.746077 218.23827 
L 259.071057 227.924757 
L 259.396036 227.924757 
L 259.721016 215.816649 
L 260.045995 223.081514 
L 260.370975 237.611243 
L 260.695954 242.454486 
L 261.020934 223.081514 
L 261.345913 225.503135 
L 261.670893 230.346378 
L 261.995872 227.924757 
L 262.320852 215.816649 
L 262.645831 218.23827 
L 262.970811 218.23827 
L 263.29579 232.768 
L 263.62077 225.503135 
L 263.945749 247.29773 
L 264.595708 232.768 
L 264.920688 235.189622 
L 265.245667 218.23827 
L 265.570647 225.503135 
L 265.895627 215.816649 
L 266.220606 237.611243 
L 266.545586 249.719351 
L 266.870565 237.611243 
L 267.195545 215.816649 
L 267.520524 223.081514 
L 267.845504 213.395027 
L 268.170483 225.503135 
L 268.495463 208.551784 
L 268.820442 237.611243 
L 269.470401 220.659892 
L 269.795381 242.454486 
L 270.12036 232.768 
L 270.44534 215.816649 
L 270.770319 227.924757 
L 271.095299 235.189622 
L 271.420278 215.816649 
L 271.745258 223.081514 
L 272.070238 252.140973 
L 272.395217 218.23827 
L 272.720197 210.973405 
L 273.045176 208.551784 
L 273.370156 223.081514 
L 273.695135 201.286919 
L 274.020115 218.23827 
L 274.670074 240.032865 
L 275.969992 230.346378 
L 276.294971 210.973405 
L 276.619951 218.23827 
L 276.94493 237.611243 
L 277.26991 237.611243 
L 277.594889 203.708541 
L 277.919869 230.346378 
L 278.569828 215.816649 
L 278.894808 242.454486 
L 279.219787 252.140973 
L 279.544767 225.503135 
L 279.869746 235.189622 
L 280.194726 215.816649 
L 280.519705 244.876108 
L 280.844685 215.816649 
L 281.169664 227.924757 
L 281.494644 215.816649 
L 281.819623 223.081514 
L 282.144603 203.708541 
L 282.469582 213.395027 
L 282.794562 227.924757 
L 283.119541 206.130162 
L 283.444521 235.189622 
L 283.7695 223.081514 
L 284.419459 210.973405 
L 284.744439 237.611243 
L 285.069419 215.816649 
L 285.394398 230.346378 
L 285.719378 201.286919 
L 286.044357 235.189622 
L 286.369337 225.503135 
L 286.694316 220.659892 
L 287.019296 232.768 
L 287.344275 218.23827 
L 287.669255 218.23827 
L 287.994234 227.924757 
L 288.319214 232.768 
L 288.644193 227.924757 
L 288.969173 198.865297 
L 289.294152 225.503135 
L 289.619132 194.022054 
L 289.944111 232.768 
L 290.269091 203.708541 
L 290.59407 235.189622 
L 290.91905 218.23827 
L 291.244029 223.081514 
L 291.569009 220.659892 
L 291.893989 242.454486 
L 292.218968 198.865297 
L 292.543948 230.346378 
L 292.868927 223.081514 
L 293.193907 244.876108 
L 293.518886 220.659892 
L 293.843866 218.23827 
L 294.168845 223.081514 
L 294.493825 232.768 
L 295.143784 208.551784 
L 295.468763 244.876108 
L 295.793743 206.130162 
L 296.118722 210.973405 
L 296.443702 223.081514 
L 297.093661 227.924757 
L 297.41864 240.032865 
L 297.74362 225.503135 
L 298.0686 240.032865 
L 298.393579 210.973405 
L 298.718559 203.708541 
L 299.368518 244.876108 
L 299.693497 244.876108 
L 300.018477 227.924757 
L 300.343456 220.659892 
L 300.668436 225.503135 
L 300.993415 220.659892 
L 301.318395 218.23827 
L 301.643374 223.081514 
L 301.968354 215.816649 
L 302.293333 235.189622 
L 302.618313 230.346378 
L 302.943292 232.768 
L 303.268272 220.659892 
L 303.593251 232.768 
L 303.918231 210.973405 
L 304.24321 218.23827 
L 304.56819 235.189622 
L 305.218149 213.395027 
L 305.543129 218.23827 
L 305.868108 227.924757 
L 306.193088 206.130162 
L 306.518067 223.081514 
L 306.843047 225.503135 
L 307.168026 210.973405 
L 307.493006 230.346378 
L 307.817985 194.022054 
L 308.142965 230.346378 
L 308.467944 230.346378 
L 308.792924 225.503135 
L 309.117903 232.768 
L 309.442883 227.924757 
L 309.767862 206.130162 
L 310.092842 223.081514 
L 310.417821 227.924757 
L 310.742801 227.924757 
L 311.067781 225.503135 
L 311.39276 218.23827 
L 311.71774 225.503135 
L 312.042719 218.23827 
L 312.692678 213.395027 
L 313.017658 242.454486 
L 313.342637 225.503135 
L 313.992596 235.189622 
L 314.317576 208.551784 
L 314.642555 232.768 
L 314.967535 223.081514 
L 315.292514 218.23827 
L 315.617494 215.816649 
L 316.592432 240.032865 
L 316.917412 215.816649 
L 317.242391 252.140973 
L 317.567371 225.503135 
L 317.892351 237.611243 
L 318.21733 225.503135 
L 318.54231 240.032865 
L 318.867289 218.23827 
L 319.192269 232.768 
L 319.842228 206.130162 
L 320.167207 225.503135 
L 320.492187 237.611243 
L 320.817166 225.503135 
L 321.142146 230.346378 
L 321.467125 237.611243 
L 321.792105 240.032865 
L 322.117084 225.503135 
L 322.442064 247.29773 
L 322.767043 237.611243 
L 323.092023 223.081514 
L 323.417002 244.876108 
L 324.066962 213.395027 
L 324.391941 232.768 
L 324.716921 232.768 
L 325.0419 225.503135 
L 325.36688 240.032865 
L 325.691859 232.768 
L 326.016839 215.816649 
L 326.341818 235.189622 
L 326.666798 235.189622 
L 326.991777 225.503135 
L 327.316757 235.189622 
L 327.641736 213.395027 
L 328.291695 249.719351 
L 328.616675 232.768 
L 328.941654 235.189622 
L 329.266634 230.346378 
L 329.591613 240.032865 
L 329.916593 220.659892 
L 330.241572 223.081514 
L 330.566552 232.768 
L 330.891532 225.503135 
L 331.216511 203.708541 
L 331.86647 232.768 
L 332.19145 235.189622 
L 332.516429 232.768 
L 332.841409 232.768 
L 333.491368 227.924757 
L 333.816347 223.081514 
L 334.141327 227.924757 
L 334.466306 242.454486 
L 334.791286 230.346378 
L 335.116265 237.611243 
L 335.441245 223.081514 
L 335.766224 227.924757 
L 336.091204 218.23827 
L 336.416183 225.503135 
L 336.741163 227.924757 
L 337.391122 215.816649 
L 337.716102 223.081514 
L 338.041081 210.973405 
L 338.366061 230.346378 
L 338.69104 240.032865 
L 339.01602 232.768 
L 339.340999 240.032865 
L 339.665979 218.23827 
L 339.990958 232.768 
L 340.315938 225.503135 
L 340.640917 244.876108 
L 341.290876 227.924757 
L 341.615856 232.768 
L 341.940835 227.924757 
L 342.265815 232.768 
L 342.590794 249.719351 
L 342.915774 220.659892 
L 343.565733 230.346378 
L 343.890713 254.562595 
L 344.215692 225.503135 
L 344.540672 215.816649 
L 344.865651 232.768 
L 345.190631 232.768 
L 345.51561 223.081514 
L 345.84059 244.876108 
L 346.165569 232.768 
L 346.815528 252.140973 
L 347.140508 240.032865 
L 347.465487 254.562595 
L 347.790467 227.924757 
L 348.115446 232.768 
L 348.440426 235.189622 
L 348.765405 227.924757 
L 349.090385 244.876108 
L 349.415364 232.768 
L 349.740344 249.719351 
L 350.065324 232.768 
L 350.390303 240.032865 
L 350.715283 215.816649 
L 351.040262 269.092324 
L 351.365242 240.032865 
L 351.690221 242.454486 
L 352.015201 247.29773 
L 352.66516 215.816649 
L 352.990139 244.876108 
L 353.315119 240.032865 
L 353.640098 232.768 
L 353.965078 232.768 
L 354.290057 223.081514 
L 354.615037 223.081514 
L 354.940016 240.032865 
L 355.264996 237.611243 
L 355.589975 249.719351 
L 355.914955 235.189622 
L 356.239934 252.140973 
L 356.889894 235.189622 
L 357.864832 235.189622 
L 358.189812 227.924757 
L 358.514791 235.189622 
L 358.839771 227.924757 
L 359.16475 242.454486 
L 359.48973 247.29773 
L 359.814709 215.816649 
L 360.139689 240.032865 
L 360.464668 232.768 
L 360.789648 249.719351 
L 361.114627 242.454486 
L 361.439607 249.719351 
L 361.764586 252.140973 
L 362.089566 225.503135 
L 362.414545 247.29773 
L 362.739525 225.503135 
L 363.064505 249.719351 
L 363.389484 249.719351 
L 363.714464 254.562595 
L 364.039443 240.032865 
L 364.364423 232.768 
L 365.014382 232.768 
L 365.339361 235.189622 
L 365.664341 240.032865 
L 365.98932 230.346378 
L 366.3143 244.876108 
L 366.639279 237.611243 
L 366.964259 244.876108 
L 367.289238 244.876108 
L 367.614218 235.189622 
L 367.939197 244.876108 
L 368.264177 247.29773 
L 368.589156 237.611243 
L 368.914136 247.29773 
L 369.239115 252.140973 
L 369.564095 232.768 
L 369.889075 235.189622 
L 370.214054 225.503135 
L 370.539034 237.611243 
L 370.864013 227.924757 
L 371.513972 249.719351 
L 372.163931 237.611243 
L 372.81389 256.984216 
L 373.13887 244.876108 
L 373.463849 247.29773 
L 373.788829 244.876108 
L 374.113808 247.29773 
L 374.438788 244.876108 
L 374.763767 252.140973 
L 375.088747 240.032865 
L 375.413726 247.29773 
L 375.738706 240.032865 
L 376.063686 252.140973 
L 376.388665 249.719351 
L 376.713645 237.611243 
L 377.038624 240.032865 
L 377.363604 230.346378 
L 377.688583 237.611243 
L 378.013563 252.140973 
L 378.338542 232.768 
L 378.988501 247.29773 
L 379.313481 247.29773 
L 379.63846 227.924757 
L 380.288419 264.249081 
L 380.613399 259.405838 
L 380.938378 252.140973 
L 381.263358 237.611243 
L 381.588337 237.611243 
L 381.913317 235.189622 
L 382.238296 254.562595 
L 382.563276 244.876108 
L 382.888256 242.454486 
L 383.213235 242.454486 
L 383.538215 230.346378 
L 383.863194 244.876108 
L 384.188174 252.140973 
L 384.513153 240.032865 
L 384.838133 252.140973 
L 385.163112 225.503135 
L 385.488092 254.562595 
L 386.138051 230.346378 
L 386.46303 232.768 
L 386.78801 247.29773 
L 387.112989 249.719351 
L 387.762948 232.768 
L 388.087928 252.140973 
L 388.412907 242.454486 
L 389.062867 259.405838 
L 389.387846 254.562595 
L 389.712826 254.562595 
L 390.362785 218.23827 
L 390.687764 249.719351 
L 391.012744 223.081514 
L 391.337723 252.140973 
L 391.662703 225.503135 
L 391.987682 235.189622 
L 392.312662 235.189622 
L 393.2876 254.562595 
L 393.61258 237.611243 
L 393.937559 240.032865 
L 394.262539 247.29773 
L 394.587518 237.611243 
L 394.912498 242.454486 
L 395.237477 244.876108 
L 395.562457 261.827459 
L 395.887437 232.768 
L 396.212416 261.827459 
L 396.537396 235.189622 
L 396.862375 240.032865 
L 397.187355 242.454486 
L 397.512334 269.092324 
L 397.837314 261.827459 
L 398.162293 240.032865 
L 398.487273 249.719351 
L 398.487273 249.719351 
" style="fill:none;stroke:#ff7f0e;stroke-linecap:square;stroke-width:1.5;"/>
   </g>
   <g id="line2d_15">
    <path clip-path="url(#p145338d974)" d="M 73.832727 53.568 
L 76.757543 53.568 
L 77.082523 92.313946 
L 77.407502 106.843676 
L 77.732482 87.470703 
L 78.382441 109.265297 
L 78.70742 102.000432 
L 79.357379 123.795027 
L 79.682359 118.951784 
L 80.657297 111.686919 
L 80.982277 111.686919 
L 81.307256 118.951784 
L 81.632236 131.059892 
L 81.957215 123.795027 
L 82.282195 138.324757 
L 82.607174 143.168 
L 82.932154 123.795027 
L 83.257133 148.011243 
L 83.582113 150.432865 
L 83.907093 164.962595 
L 84.557052 126.216649 
L 84.882031 150.432865 
L 85.207011 143.168 
L 85.53199 162.540973 
L 85.85697 155.276108 
L 86.181949 155.276108 
L 86.506929 123.795027 
L 86.831908 160.119351 
L 87.481867 164.962595 
L 87.806847 174.649081 
L 88.131826 155.276108 
L 88.781785 172.227459 
L 89.106765 143.168 
L 89.756724 162.540973 
L 90.081704 157.69773 
L 90.406683 145.589622 
L 90.731663 164.962595 
L 91.056642 191.600432 
L 91.706601 150.432865 
L 92.031581 164.962595 
L 92.35656 189.178811 
L 92.68154 162.540973 
L 93.006519 201.286919 
L 93.331499 164.962595 
L 93.656478 160.119351 
L 93.981458 167.384216 
L 94.306437 191.600432 
L 94.631417 169.805838 
L 94.956396 167.384216 
L 95.281376 181.913946 
L 95.606355 184.335568 
L 95.931335 174.649081 
L 96.256314 181.913946 
L 96.581294 172.227459 
L 96.906274 184.335568 
L 97.231253 179.492324 
L 97.556233 167.384216 
L 97.881212 177.070703 
L 98.206192 220.659892 
L 98.531171 172.227459 
L 98.856151 194.022054 
L 99.18113 189.178811 
L 99.50611 181.913946 
L 99.831089 186.757189 
L 100.156069 196.443676 
L 100.806028 186.757189 
L 101.131007 196.443676 
L 101.455987 198.865297 
L 101.780966 169.805838 
L 102.105946 177.070703 
L 102.430925 179.492324 
L 102.755905 179.492324 
L 103.080885 169.805838 
L 103.405864 194.022054 
L 103.730844 186.757189 
L 104.055823 203.708541 
L 104.380803 177.070703 
L 104.705782 172.227459 
L 105.030762 206.130162 
L 105.355741 203.708541 
L 105.680721 186.757189 
L 106.0057 186.757189 
L 106.33068 201.286919 
L 106.655659 184.335568 
L 107.305618 196.443676 
L 107.630598 186.757189 
L 108.280557 213.395027 
L 108.605536 177.070703 
L 108.930516 203.708541 
L 109.255495 208.551784 
L 109.580475 206.130162 
L 109.905455 189.178811 
L 110.230434 179.492324 
L 110.555414 174.649081 
L 110.880393 179.492324 
L 111.205373 164.962595 
L 111.530352 184.335568 
L 111.855332 179.492324 
L 112.180311 203.708541 
L 112.505291 189.178811 
L 112.83027 189.178811 
L 113.15525 196.443676 
L 113.480229 198.865297 
L 113.805209 179.492324 
L 114.130188 186.757189 
L 114.455168 177.070703 
L 114.780147 186.757189 
L 115.105127 184.335568 
L 115.430106 196.443676 
L 115.755086 215.816649 
L 116.080066 213.395027 
L 116.730025 179.492324 
L 117.055004 177.070703 
L 117.379984 203.708541 
L 118.029943 189.178811 
L 118.354922 167.384216 
L 118.679902 213.395027 
L 119.004881 206.130162 
L 119.329861 184.335568 
L 119.65484 189.178811 
L 119.97982 196.443676 
L 120.304799 186.757189 
L 120.629779 198.865297 
L 121.279738 184.335568 
L 121.604717 206.130162 
L 121.929697 181.913946 
L 122.254676 179.492324 
L 122.579656 186.757189 
L 122.904636 179.492324 
L 123.229615 189.178811 
L 123.554595 184.335568 
L 123.879574 181.913946 
L 124.204554 196.443676 
L 124.529533 186.757189 
L 124.854513 186.757189 
L 125.179492 198.865297 
L 125.504472 203.708541 
L 125.829451 189.178811 
L 126.154431 191.600432 
L 126.47941 198.865297 
L 126.80439 196.443676 
L 127.129369 174.649081 
L 127.454349 184.335568 
L 127.779328 208.551784 
L 128.104308 203.708541 
L 128.429287 201.286919 
L 128.754267 201.286919 
L 129.079247 184.335568 
L 129.404226 186.757189 
L 129.729206 169.805838 
L 130.054185 177.070703 
L 130.379165 213.395027 
L 130.704144 184.335568 
L 131.029124 177.070703 
L 131.354103 191.600432 
L 131.679083 218.23827 
L 132.004062 189.178811 
L 132.329042 206.130162 
L 132.654021 186.757189 
L 132.979001 215.816649 
L 133.30398 201.286919 
L 133.62896 179.492324 
L 133.953939 194.022054 
L 134.278919 186.757189 
L 134.603898 184.335568 
L 134.928878 196.443676 
L 135.253857 189.178811 
L 135.578837 164.962595 
L 135.903817 177.070703 
L 136.228796 184.335568 
L 136.553776 179.492324 
L 136.878755 220.659892 
L 137.203735 179.492324 
L 137.528714 179.492324 
L 137.853694 191.600432 
L 138.178673 210.973405 
L 138.828632 186.757189 
L 139.153612 196.443676 
L 139.478591 186.757189 
L 139.803571 198.865297 
L 140.12855 194.022054 
L 140.45353 194.022054 
L 140.778509 189.178811 
L 141.428468 194.022054 
L 141.753448 177.070703 
L 142.078428 189.178811 
L 142.403407 194.022054 
L 142.728387 194.022054 
L 143.053366 208.551784 
L 143.378346 164.962595 
L 143.703325 198.865297 
L 144.028305 184.335568 
L 144.353284 196.443676 
L 144.678264 191.600432 
L 145.003243 194.022054 
L 145.328223 186.757189 
L 145.653202 186.757189 
L 145.978182 196.443676 
L 146.303161 186.757189 
L 146.628141 191.600432 
L 146.95312 181.913946 
L 147.2781 191.600432 
L 147.928059 191.600432 
L 148.253038 194.022054 
L 148.578018 201.286919 
L 148.902998 184.335568 
L 149.227977 191.600432 
L 149.552957 169.805838 
L 149.877936 186.757189 
L 150.202916 184.335568 
L 150.527895 196.443676 
L 150.852875 181.913946 
L 151.177854 184.335568 
L 151.502834 157.69773 
L 151.827813 186.757189 
L 152.152793 181.913946 
L 152.477772 184.335568 
L 152.802752 201.286919 
L 153.127731 179.492324 
L 153.452711 189.178811 
L 153.77769 179.492324 
L 154.10267 215.816649 
L 154.752629 181.913946 
L 155.077609 189.178811 
L 155.402588 181.913946 
L 155.727568 179.492324 
L 156.052547 189.178811 
L 156.377527 177.070703 
L 156.702506 174.649081 
L 157.027486 186.757189 
L 157.352465 189.178811 
L 158.002424 223.081514 
L 158.652383 191.600432 
L 158.977363 186.757189 
L 159.302342 194.022054 
L 159.952301 177.070703 
L 160.277281 201.286919 
L 160.92724 177.070703 
L 161.252219 210.973405 
L 161.577199 194.022054 
L 161.902179 191.600432 
L 162.227158 198.865297 
L 162.552138 181.913946 
L 163.202097 191.600432 
L 163.527076 191.600432 
L 163.852056 177.070703 
L 164.177035 181.913946 
L 164.502015 198.865297 
L 164.826994 169.805838 
L 165.151974 201.286919 
L 165.476953 196.443676 
L 165.801933 196.443676 
L 166.126912 184.335568 
L 166.451892 203.708541 
L 166.776871 194.022054 
L 167.101851 198.865297 
L 167.42683 169.805838 
L 167.75181 206.130162 
L 168.07679 194.022054 
L 168.401769 160.119351 
L 168.726749 179.492324 
L 169.051728 184.335568 
L 169.376708 152.854486 
L 169.701687 196.443676 
L 170.026667 186.757189 
L 170.351646 181.913946 
L 170.676626 172.227459 
L 171.001605 181.913946 
L 171.326585 181.913946 
L 171.651564 186.757189 
L 171.976544 174.649081 
L 172.301523 194.022054 
L 172.626503 220.659892 
L 172.951482 196.443676 
L 173.276462 191.600432 
L 173.601441 191.600432 
L 173.926421 198.865297 
L 174.2514 181.913946 
L 174.57638 191.600432 
L 174.90136 145.589622 
L 175.226339 194.022054 
L 175.551319 189.178811 
L 175.876298 203.708541 
L 176.201278 169.805838 
L 176.526257 164.962595 
L 176.851237 198.865297 
L 177.176216 194.022054 
L 177.501196 184.335568 
L 177.826175 181.913946 
L 178.151155 174.649081 
L 178.476134 186.757189 
L 178.801114 213.395027 
L 179.126093 198.865297 
L 179.451073 196.443676 
L 179.776052 186.757189 
L 180.101032 172.227459 
L 180.750991 215.816649 
L 181.075971 184.335568 
L 181.40095 194.022054 
L 181.72593 191.600432 
L 182.050909 196.443676 
L 182.375889 174.649081 
L 182.700868 203.708541 
L 183.025848 186.757189 
L 183.350827 194.022054 
L 183.675807 164.962595 
L 184.000786 189.178811 
L 184.325766 196.443676 
L 184.650745 179.492324 
L 184.975725 201.286919 
L 185.300704 162.540973 
L 185.625684 189.178811 
L 185.950663 196.443676 
L 186.600622 179.492324 
L 186.925602 191.600432 
L 187.250581 189.178811 
L 187.575561 184.335568 
L 187.900541 196.443676 
L 188.22552 184.335568 
L 188.5505 189.178811 
L 188.875479 203.708541 
L 189.200459 198.865297 
L 189.525438 181.913946 
L 189.850418 194.022054 
L 190.500377 208.551784 
L 190.825356 177.070703 
L 191.150336 167.384216 
L 191.475315 198.865297 
L 191.800295 177.070703 
L 192.125274 179.492324 
L 192.450254 172.227459 
L 193.100213 189.178811 
L 193.425192 179.492324 
L 193.750172 198.865297 
L 194.075152 177.070703 
L 194.400131 191.600432 
L 195.05009 169.805838 
L 195.37507 196.443676 
L 195.700049 191.600432 
L 196.025029 203.708541 
L 196.350008 196.443676 
L 196.674988 174.649081 
L 196.999967 196.443676 
L 197.324947 177.070703 
L 197.649926 184.335568 
L 197.974906 196.443676 
L 198.299885 186.757189 
L 198.624865 196.443676 
L 198.949844 186.757189 
L 199.274824 191.600432 
L 199.924783 174.649081 
L 200.249762 201.286919 
L 200.574742 164.962595 
L 200.899722 179.492324 
L 201.224701 210.973405 
L 201.549681 179.492324 
L 201.87466 186.757189 
L 202.19964 189.178811 
L 202.524619 186.757189 
L 202.849599 186.757189 
L 203.174578 174.649081 
L 203.499558 184.335568 
L 203.824537 184.335568 
L 204.149517 167.384216 
L 204.474496 186.757189 
L 204.799476 186.757189 
L 205.124455 208.551784 
L 205.449435 177.070703 
L 205.774414 203.708541 
L 206.099394 189.178811 
L 206.424373 189.178811 
L 206.749353 186.757189 
L 207.074333 191.600432 
L 207.399312 189.178811 
L 207.724292 194.022054 
L 208.049271 206.130162 
L 208.374251 189.178811 
L 208.69923 164.962595 
L 209.02421 194.022054 
L 209.349189 184.335568 
L 209.674169 198.865297 
L 209.999148 186.757189 
L 210.324128 169.805838 
L 210.649107 201.286919 
L 210.974087 198.865297 
L 211.624046 203.708541 
L 211.949025 210.973405 
L 212.274005 201.286919 
L 212.598984 203.708541 
L 212.923964 181.913946 
L 213.248943 186.757189 
L 213.573923 206.130162 
L 213.898903 177.070703 
L 214.223882 177.070703 
L 214.548862 198.865297 
L 214.873841 203.708541 
L 215.198821 177.070703 
L 215.5238 189.178811 
L 215.84878 179.492324 
L 216.173759 177.070703 
L 216.498739 194.022054 
L 216.823718 184.335568 
L 217.148698 181.913946 
L 217.473677 167.384216 
L 217.798657 186.757189 
L 218.123636 174.649081 
L 218.448616 196.443676 
L 218.773595 196.443676 
L 219.423554 181.913946 
L 220.073514 196.443676 
L 220.398493 189.178811 
L 220.723473 177.070703 
L 221.048452 179.492324 
L 221.373432 164.962595 
L 221.698411 179.492324 
L 222.023391 206.130162 
L 222.34837 184.335568 
L 222.67335 196.443676 
L 222.998329 203.708541 
L 223.648288 179.492324 
L 223.973268 196.443676 
L 224.298247 184.335568 
L 224.623227 191.600432 
L 224.948206 181.913946 
L 225.273186 181.913946 
L 225.598165 191.600432 
L 225.923145 196.443676 
L 226.248124 184.335568 
L 226.573104 177.070703 
L 226.898084 198.865297 
L 227.223063 196.443676 
L 227.548043 164.962595 
L 228.198002 198.865297 
L 228.522981 189.178811 
L 228.847961 186.757189 
L 229.17294 194.022054 
L 229.49792 169.805838 
L 229.822899 198.865297 
L 230.147879 177.070703 
L 230.472858 196.443676 
L 230.797838 201.286919 
L 231.122817 189.178811 
L 231.447797 162.540973 
L 231.772776 189.178811 
L 232.097756 206.130162 
L 232.422735 208.551784 
L 232.747715 203.708541 
L 233.072695 196.443676 
L 233.397674 174.649081 
L 233.722654 191.600432 
L 234.047633 179.492324 
L 234.372613 184.335568 
L 234.697592 191.600432 
L 235.022572 179.492324 
L 235.347551 194.022054 
L 235.672531 196.443676 
L 235.99751 206.130162 
L 236.32249 191.600432 
L 236.647469 194.022054 
L 236.972449 198.865297 
L 237.297428 201.286919 
L 237.622408 181.913946 
L 237.947387 174.649081 
L 238.272367 184.335568 
L 238.597346 167.384216 
L 238.922326 208.551784 
L 239.247305 164.962595 
L 239.572285 174.649081 
L 240.222244 206.130162 
L 240.547224 206.130162 
L 240.872203 179.492324 
L 241.197183 194.022054 
L 241.847142 174.649081 
L 242.172121 186.757189 
L 242.497101 191.600432 
L 242.82208 181.913946 
L 243.14706 167.384216 
L 243.797019 196.443676 
L 244.121998 191.600432 
L 244.446978 194.022054 
L 244.771957 198.865297 
L 245.096937 179.492324 
L 245.421916 208.551784 
L 245.746896 184.335568 
L 246.071876 169.805838 
L 246.396855 174.649081 
L 246.721835 184.335568 
L 247.046814 181.913946 
L 247.371794 194.022054 
L 247.696773 191.600432 
L 248.021753 169.805838 
L 248.346732 203.708541 
L 248.671712 169.805838 
L 248.996691 179.492324 
L 249.321671 177.070703 
L 249.64665 201.286919 
L 249.97163 191.600432 
L 250.296609 169.805838 
L 250.621589 184.335568 
L 250.946568 169.805838 
L 251.271548 191.600432 
L 251.596527 191.600432 
L 251.921507 169.805838 
L 252.246486 184.335568 
L 252.571466 189.178811 
L 252.896446 184.335568 
L 253.546405 194.022054 
L 253.871384 184.335568 
L 254.196364 186.757189 
L 254.521343 184.335568 
L 255.496282 198.865297 
L 255.821261 194.022054 
L 256.146241 191.600432 
L 256.47122 194.022054 
L 256.7962 194.022054 
L 257.121179 184.335568 
L 257.446159 189.178811 
L 257.771138 208.551784 
L 258.096118 189.178811 
L 258.421097 181.913946 
L 258.746077 181.913946 
L 259.071057 194.022054 
L 259.396036 215.816649 
L 259.721016 194.022054 
L 260.045995 189.178811 
L 260.370975 169.805838 
L 260.695954 172.227459 
L 261.020934 186.757189 
L 261.345913 208.551784 
L 261.670893 194.022054 
L 261.995872 191.600432 
L 262.320852 174.649081 
L 262.645831 184.335568 
L 262.970811 184.335568 
L 263.29579 164.962595 
L 263.62077 196.443676 
L 263.945749 189.178811 
L 264.270729 201.286919 
L 264.595708 208.551784 
L 264.920688 169.805838 
L 265.245667 189.178811 
L 265.570647 186.757189 
L 265.895627 191.600432 
L 266.220606 184.335568 
L 266.545586 201.286919 
L 266.870565 189.178811 
L 267.195545 189.178811 
L 267.520524 203.708541 
L 267.845504 203.708541 
L 268.495463 181.913946 
L 268.820442 196.443676 
L 269.145422 179.492324 
L 269.470401 181.913946 
L 269.795381 172.227459 
L 270.44534 194.022054 
L 270.770319 177.070703 
L 271.420278 181.913946 
L 271.745258 196.443676 
L 272.070238 196.443676 
L 272.395217 206.130162 
L 272.720197 184.335568 
L 273.045176 203.708541 
L 273.370156 208.551784 
L 273.695135 196.443676 
L 274.020115 196.443676 
L 274.345094 172.227459 
L 274.670074 184.335568 
L 275.320033 194.022054 
L 275.645012 177.070703 
L 275.969992 179.492324 
L 276.294971 191.600432 
L 276.619951 194.022054 
L 276.94493 213.395027 
L 277.26991 196.443676 
L 277.919869 206.130162 
L 278.244848 179.492324 
L 278.569828 177.070703 
L 278.894808 172.227459 
L 279.219787 198.865297 
L 279.544767 203.708541 
L 279.869746 184.335568 
L 280.194726 179.492324 
L 280.519705 184.335568 
L 280.844685 181.913946 
L 281.169664 174.649081 
L 281.494644 181.913946 
L 282.144603 177.070703 
L 282.469582 186.757189 
L 283.119541 172.227459 
L 283.444521 194.022054 
L 283.7695 184.335568 
L 284.09448 184.335568 
L 284.419459 206.130162 
L 284.744439 206.130162 
L 285.069419 155.276108 
L 285.394398 196.443676 
L 285.719378 189.178811 
L 286.044357 172.227459 
L 286.369337 179.492324 
L 286.694316 198.865297 
L 287.019296 191.600432 
L 287.344275 208.551784 
L 287.669255 203.708541 
L 287.994234 191.600432 
L 288.319214 196.443676 
L 288.644193 208.551784 
L 288.969173 177.070703 
L 289.294152 196.443676 
L 289.619132 179.492324 
L 289.944111 206.130162 
L 290.269091 191.600432 
L 290.59407 198.865297 
L 290.91905 230.346378 
L 291.244029 208.551784 
L 291.893989 225.503135 
L 292.218968 186.757189 
L 292.543948 213.395027 
L 292.868927 213.395027 
L 293.193907 230.346378 
L 293.518886 213.395027 
L 293.843866 232.768 
L 294.493825 206.130162 
L 294.818804 232.768 
L 295.143784 223.081514 
L 295.468763 220.659892 
L 295.793743 215.816649 
L 296.118722 235.189622 
L 296.443702 235.189622 
L 296.768681 206.130162 
L 297.093661 235.189622 
L 297.41864 227.924757 
L 297.74362 227.924757 
L 298.0686 237.611243 
L 298.718559 225.503135 
L 299.043538 230.346378 
L 299.368518 232.768 
L 299.693497 232.768 
L 300.018477 230.346378 
L 300.668436 249.719351 
L 300.993415 244.876108 
L 301.318395 230.346378 
L 301.643374 227.924757 
L 301.968354 235.189622 
L 302.293333 235.189622 
L 302.618313 227.924757 
L 302.943292 235.189622 
L 303.268272 235.189622 
L 303.593251 264.249081 
L 303.918231 240.032865 
L 304.24321 237.611243 
L 304.56819 261.827459 
L 304.89317 230.346378 
L 305.218149 237.611243 
L 305.868108 225.503135 
L 306.193088 235.189622 
L 306.518067 223.081514 
L 306.843047 254.562595 
L 307.168026 266.670703 
L 307.493006 249.719351 
L 307.817985 271.513946 
L 308.142965 252.140973 
L 308.467944 240.032865 
L 308.792924 249.719351 
L 309.117903 249.719351 
L 309.442883 252.140973 
L 309.767862 256.984216 
L 310.092842 276.357189 
L 310.417821 264.249081 
L 310.742801 247.29773 
L 311.067781 261.827459 
L 311.39276 247.29773 
L 311.71774 254.562595 
L 312.042719 254.562595 
L 312.367699 252.140973 
L 312.692678 252.140973 
L 313.017658 249.719351 
L 313.342637 254.562595 
L 313.667617 252.140973 
L 313.992596 271.513946 
L 314.317576 247.29773 
L 314.642555 254.562595 
L 314.967535 237.611243 
L 315.292514 254.562595 
L 315.617494 232.768 
L 315.942473 261.827459 
L 316.592432 249.719351 
L 316.917412 264.249081 
L 317.242391 256.984216 
L 317.567371 271.513946 
L 317.892351 269.092324 
L 318.21733 242.454486 
L 318.54231 249.719351 
L 318.867289 247.29773 
L 319.192269 252.140973 
L 319.517248 247.29773 
L 319.842228 256.984216 
L 320.167207 259.405838 
L 320.492187 271.513946 
L 320.817166 259.405838 
L 321.142146 261.827459 
L 321.467125 266.670703 
L 321.792105 261.827459 
L 322.117084 252.140973 
L 322.442064 247.29773 
L 322.767043 261.827459 
L 323.092023 259.405838 
L 323.417002 271.513946 
L 323.741982 266.670703 
L 324.066962 276.357189 
L 324.391941 261.827459 
L 324.716921 254.562595 
L 325.0419 266.670703 
L 325.36688 259.405838 
L 326.016839 283.622054 
L 326.341818 247.29773 
L 326.666798 266.670703 
L 326.991777 264.249081 
L 327.316757 252.140973 
L 327.641736 261.827459 
L 327.966716 264.249081 
L 328.291695 261.827459 
L 328.616675 273.935568 
L 328.941654 256.984216 
L 329.266634 269.092324 
L 329.591613 271.513946 
L 329.916593 264.249081 
L 330.241572 281.200432 
L 330.566552 259.405838 
L 330.891532 276.357189 
L 331.216511 259.405838 
L 331.541491 266.670703 
L 331.86647 266.670703 
L 332.19145 271.513946 
L 332.516429 278.778811 
L 332.841409 273.935568 
L 333.166388 264.249081 
L 333.491368 273.935568 
L 333.816347 256.984216 
L 334.141327 256.984216 
L 335.116265 271.513946 
L 335.441245 264.249081 
L 335.766224 266.670703 
L 336.091204 261.827459 
L 336.416183 264.249081 
L 336.741163 254.562595 
L 337.066143 259.405838 
L 337.716102 276.357189 
L 338.041081 271.513946 
L 338.366061 259.405838 
L 338.69104 259.405838 
L 339.01602 273.935568 
L 339.340999 273.935568 
L 339.665979 261.827459 
L 339.990958 269.092324 
L 340.315938 269.092324 
L 340.640917 278.778811 
L 340.965897 256.984216 
L 341.615856 281.200432 
L 341.940835 256.984216 
L 342.265815 269.092324 
L 342.590794 264.249081 
L 342.915774 273.935568 
L 343.240753 261.827459 
L 343.565733 266.670703 
L 343.890713 281.200432 
L 344.215692 269.092324 
L 344.540672 276.357189 
L 344.865651 269.092324 
L 345.190631 278.778811 
L 345.51561 259.405838 
L 345.84059 264.249081 
L 346.165569 261.827459 
L 346.490549 271.513946 
L 346.815528 256.984216 
L 347.140508 264.249081 
L 347.465487 281.200432 
L 347.790467 264.249081 
L 348.115446 281.200432 
L 348.440426 269.092324 
L 348.765405 281.200432 
L 349.090385 264.249081 
L 349.415364 259.405838 
L 349.740344 261.827459 
L 350.065324 281.200432 
L 350.390303 286.043676 
L 350.715283 278.778811 
L 351.040262 278.778811 
L 351.365242 269.092324 
L 351.690221 269.092324 
L 352.015201 278.778811 
L 352.34018 261.827459 
L 352.66516 271.513946 
L 352.990139 273.935568 
L 353.315119 271.513946 
L 353.640098 266.670703 
L 353.965078 264.249081 
L 354.290057 264.249081 
L 354.615037 278.778811 
L 354.940016 276.357189 
L 355.264996 286.043676 
L 355.914955 259.405838 
L 356.564914 281.200432 
L 356.889894 278.778811 
L 357.214873 269.092324 
L 357.539853 283.622054 
L 357.864832 283.622054 
L 358.514791 269.092324 
L 358.839771 266.670703 
L 359.16475 273.935568 
L 359.48973 273.935568 
L 359.814709 266.670703 
L 360.139689 286.043676 
L 360.464668 281.200432 
L 360.789648 273.935568 
L 361.114627 276.357189 
L 361.439607 264.249081 
L 361.764586 276.357189 
L 362.414545 264.249081 
L 362.739525 259.405838 
L 363.064505 278.778811 
L 363.389484 288.465297 
L 363.714464 261.827459 
L 364.039443 288.465297 
L 364.364423 271.513946 
L 364.689402 283.622054 
L 365.339361 278.778811 
L 365.98932 283.622054 
L 366.3143 278.778811 
L 366.639279 264.249081 
L 367.289238 281.200432 
L 367.614218 283.622054 
L 367.939197 283.622054 
L 368.264177 290.886919 
L 368.589156 283.622054 
L 368.914136 281.200432 
L 369.239115 286.043676 
L 369.564095 266.670703 
L 369.889075 266.670703 
L 370.539034 278.778811 
L 370.864013 283.622054 
L 371.188993 278.778811 
L 371.838952 273.935568 
L 372.163931 283.622054 
L 372.488911 273.935568 
L 372.81389 290.886919 
L 373.13887 278.778811 
L 373.463849 273.935568 
L 373.788829 286.043676 
L 374.113808 286.043676 
L 374.438788 283.622054 
L 374.763767 276.357189 
L 375.088747 283.622054 
L 375.413726 266.670703 
L 375.738706 283.622054 
L 376.388665 283.622054 
L 376.713645 281.200432 
L 377.038624 269.092324 
L 377.363604 286.043676 
L 377.688583 281.200432 
L 378.013563 290.886919 
L 378.338542 286.043676 
L 378.663522 276.357189 
L 378.988501 278.778811 
L 379.313481 276.357189 
L 379.63846 288.465297 
L 379.96344 283.622054 
L 380.288419 288.465297 
L 380.613399 281.200432 
L 380.938378 286.043676 
L 381.263358 276.357189 
L 381.588337 281.200432 
L 381.913317 281.200432 
L 382.238296 290.886919 
L 382.563276 283.622054 
L 382.888256 281.200432 
L 383.213235 283.622054 
L 383.538215 288.465297 
L 383.863194 276.357189 
L 384.513153 286.043676 
L 384.838133 286.043676 
L 385.163112 283.622054 
L 385.488092 271.513946 
L 385.813071 293.308541 
L 386.138051 281.200432 
L 386.46303 276.357189 
L 386.78801 281.200432 
L 387.112989 288.465297 
L 387.437969 288.465297 
L 387.762948 283.622054 
L 388.087928 281.200432 
L 389.062867 288.465297 
L 389.387846 276.357189 
L 389.712826 286.043676 
L 390.037805 288.465297 
L 390.362785 283.622054 
L 390.687764 283.622054 
L 391.012744 290.886919 
L 391.662703 281.200432 
L 391.987682 288.465297 
L 392.312662 288.465297 
L 392.637641 283.622054 
L 392.962621 281.200432 
L 393.2876 281.200432 
L 393.61258 290.886919 
L 393.937559 276.357189 
L 394.587518 288.465297 
L 394.912498 286.043676 
L 395.237477 286.043676 
L 395.562457 290.886919 
L 395.887437 283.622054 
L 396.212416 281.200432 
L 396.537396 286.043676 
L 396.862375 286.043676 
L 397.187355 281.200432 
L 397.512334 283.622054 
L 398.162293 283.622054 
L 398.487273 286.043676 
L 398.487273 286.043676 
" style="fill:none;stroke:#2ca02c;stroke-linecap:square;stroke-width:1.5;"/>
   </g>
   <g id="patch_3">
    <path d="M 57.6 307.584 
L 57.6 41.472 
" style="fill:none;stroke:#000000;stroke-linecap:square;stroke-linejoin:miter;stroke-width:0.8;"/>
   </g>
   <g id="patch_4">
    <path d="M 414.72 307.584 
L 414.72 41.472 
" style="fill:none;stroke:#000000;stroke-linecap:square;stroke-linejoin:miter;stroke-width:0.8;"/>
   </g>
   <g id="patch_5">
    <path d="M 57.6 307.584 
L 414.72 307.584 
" style="fill:none;stroke:#000000;stroke-linecap:square;stroke-linejoin:miter;stroke-width:0.8;"/>
   </g>
   <g id="patch_6">
    <path d="M 57.6 41.472 
L 414.72 41.472 
" style="fill:none;stroke:#000000;stroke-linecap:square;stroke-linejoin:miter;stroke-width:0.8;"/>
   </g>
   <g id="legend_1">
    <g id="patch_7">
     <path d="M 163.549687 93.506375 
L 407.72 93.506375 
Q 409.72 93.506375 409.72 91.506375 
L 409.72 48.472 
Q 409.72 46.472 407.72 46.472 
L 163.549687 46.472 
Q 161.549687 46.472 161.549687 48.472 
L 161.549687 91.506375 
Q 161.549687 93.506375 163.549687 93.506375 
z
" style="fill:#ffffff;opacity:0.8;stroke:#cccccc;stroke-linejoin:miter;"/>
    </g>
    <g id="line2d_16">
     <path d="M 165.549687 54.570438 
L 185.549687 54.570438 
" style="fill:none;stroke:#1f77b4;stroke-linecap:square;stroke-width:1.5;"/>
    </g>
    <g id="line2d_17"/>
    <g id="text_13">
     <!-- The target acceptance rate -->
     <g transform="translate(193.549687 58.070438)scale(0.1 -0.1)">
      <defs>
       <path d="M -0.296875 72.90625 
L 61.375 72.90625 
L 61.375 64.59375 
L 35.5 64.59375 
L 35.5 0 
L 25.59375 0 
L 25.59375 64.59375 
L -0.296875 64.59375 
z
" id="DejaVuSans-84"/>
       <path d="M 54.890625 33.015625 
L 54.890625 0 
L 45.90625 0 
L 45.90625 32.71875 
Q 45.90625 40.484375 42.875 44.328125 
Q 39.84375 48.1875 33.796875 48.1875 
Q 26.515625 48.1875 22.3125 43.546875 
Q 18.109375 38.921875 18.109375 30.90625 
L 18.109375 0 
L 9.078125 0 
L 9.078125 75.984375 
L 18.109375 75.984375 
L 18.109375 46.1875 
Q 21.34375 51.125 25.703125 53.5625 
Q 30.078125 56 35.796875 56 
Q 45.21875 56 50.046875 50.171875 
Q 54.890625 44.34375 54.890625 33.015625 
z
" id="DejaVuSans-104"/>
       <path d="M 56.203125 29.59375 
L 56.203125 25.203125 
L 14.890625 25.203125 
Q 15.484375 15.921875 20.484375 11.0625 
Q 25.484375 6.203125 34.421875 6.203125 
Q 39.59375 6.203125 44.453125 7.46875 
Q 49.3125 8.734375 54.109375 11.28125 
L 54.109375 2.78125 
Q 49.265625 0.734375 44.1875 -0.34375 
Q 39.109375 -1.421875 33.890625 -1.421875 
Q 20.796875 -1.421875 13.15625 6.1875 
Q 5.515625 13.8125 5.515625 26.8125 
Q 5.515625 40.234375 12.765625 48.109375 
Q 20.015625 56 32.328125 56 
Q 43.359375 56 49.78125 48.890625 
Q 56.203125 41.796875 56.203125 29.59375 
z
M 47.21875 32.234375 
Q 47.125 39.59375 43.09375 43.984375 
Q 39.0625 48.390625 32.421875 48.390625 
Q 24.90625 48.390625 20.390625 44.140625 
Q 15.875 39.890625 15.1875 32.171875 
z
" id="DejaVuSans-101"/>
       <path id="DejaVuSans-32"/>
       <path d="M 18.3125 70.21875 
L 18.3125 54.6875 
L 36.8125 54.6875 
L 36.8125 47.703125 
L 18.3125 47.703125 
L 18.3125 18.015625 
Q 18.3125 11.328125 20.140625 9.421875 
Q 21.96875 7.515625 27.59375 7.515625 
L 36.8125 7.515625 
L 36.8125 0 
L 27.59375 0 
Q 17.1875 0 13.234375 3.875 
Q 9.28125 7.765625 9.28125 18.015625 
L 9.28125 47.703125 
L 2.6875 47.703125 
L 2.6875 54.6875 
L 9.28125 54.6875 
L 9.28125 70.21875 
z
" id="DejaVuSans-116"/>
       <path d="M 34.28125 27.484375 
Q 23.390625 27.484375 19.1875 25 
Q 14.984375 22.515625 14.984375 16.5 
Q 14.984375 11.71875 18.140625 8.90625 
Q 21.296875 6.109375 26.703125 6.109375 
Q 34.1875 6.109375 38.703125 11.40625 
Q 43.21875 16.703125 43.21875 25.484375 
L 43.21875 27.484375 
z
M 52.203125 31.203125 
L 52.203125 0 
L 43.21875 0 
L 43.21875 8.296875 
Q 40.140625 3.328125 35.546875 0.953125 
Q 30.953125 -1.421875 24.3125 -1.421875 
Q 15.921875 -1.421875 10.953125 3.296875 
Q 6 8.015625 6 15.921875 
Q 6 25.140625 12.171875 29.828125 
Q 18.359375 34.515625 30.609375 34.515625 
L 43.21875 34.515625 
L 43.21875 35.40625 
Q 43.21875 41.609375 39.140625 45 
Q 35.0625 48.390625 27.6875 48.390625 
Q 23 48.390625 18.546875 47.265625 
Q 14.109375 46.140625 10.015625 43.890625 
L 10.015625 52.203125 
Q 14.9375 54.109375 19.578125 55.046875 
Q 24.21875 56 28.609375 56 
Q 40.484375 56 46.34375 49.84375 
Q 52.203125 43.703125 52.203125 31.203125 
z
" id="DejaVuSans-97"/>
       <path d="M 41.109375 46.296875 
Q 39.59375 47.171875 37.8125 47.578125 
Q 36.03125 48 33.890625 48 
Q 26.265625 48 22.1875 43.046875 
Q 18.109375 38.09375 18.109375 28.8125 
L 18.109375 0 
L 9.078125 0 
L 9.078125 54.6875 
L 18.109375 54.6875 
L 18.109375 46.1875 
Q 20.953125 51.171875 25.484375 53.578125 
Q 30.03125 56 36.53125 56 
Q 37.453125 56 38.578125 55.875 
Q 39.703125 55.765625 41.0625 55.515625 
z
" id="DejaVuSans-114"/>
       <path d="M 45.40625 27.984375 
Q 45.40625 37.75 41.375 43.109375 
Q 37.359375 48.484375 30.078125 48.484375 
Q 22.859375 48.484375 18.828125 43.109375 
Q 14.796875 37.75 14.796875 27.984375 
Q 14.796875 18.265625 18.828125 12.890625 
Q 22.859375 7.515625 30.078125 7.515625 
Q 37.359375 7.515625 41.375 12.890625 
Q 45.40625 18.265625 45.40625 27.984375 
z
M 54.390625 6.78125 
Q 54.390625 -7.171875 48.1875 -13.984375 
Q 42 -20.796875 29.203125 -20.796875 
Q 24.46875 -20.796875 20.265625 -20.09375 
Q 16.0625 -19.390625 12.109375 -17.921875 
L 12.109375 -9.1875 
Q 16.0625 -11.328125 19.921875 -12.34375 
Q 23.78125 -13.375 27.78125 -13.375 
Q 36.625 -13.375 41.015625 -8.765625 
Q 45.40625 -4.15625 45.40625 5.171875 
L 45.40625 9.625 
Q 42.625 4.78125 38.28125 2.390625 
Q 33.9375 0 27.875 0 
Q 17.828125 0 11.671875 7.65625 
Q 5.515625 15.328125 5.515625 27.984375 
Q 5.515625 40.671875 11.671875 48.328125 
Q 17.828125 56 27.875 56 
Q 33.9375 56 38.28125 53.609375 
Q 42.625 51.21875 45.40625 46.390625 
L 45.40625 54.6875 
L 54.390625 54.6875 
z
" id="DejaVuSans-103"/>
       <path d="M 48.78125 52.59375 
L 48.78125 44.1875 
Q 44.96875 46.296875 41.140625 47.34375 
Q 37.3125 48.390625 33.40625 48.390625 
Q 24.65625 48.390625 19.8125 42.84375 
Q 14.984375 37.3125 14.984375 27.296875 
Q 14.984375 17.28125 19.8125 11.734375 
Q 24.65625 6.203125 33.40625 6.203125 
Q 37.3125 6.203125 41.140625 7.25 
Q 44.96875 8.296875 48.78125 10.40625 
L 48.78125 2.09375 
Q 45.015625 0.34375 40.984375 -0.53125 
Q 36.96875 -1.421875 32.421875 -1.421875 
Q 20.0625 -1.421875 12.78125 6.34375 
Q 5.515625 14.109375 5.515625 27.296875 
Q 5.515625 40.671875 12.859375 48.328125 
Q 20.21875 56 33.015625 56 
Q 37.15625 56 41.109375 55.140625 
Q 45.0625 54.296875 48.78125 52.59375 
z
" id="DejaVuSans-99"/>
       <path d="M 18.109375 8.203125 
L 18.109375 -20.796875 
L 9.078125 -20.796875 
L 9.078125 54.6875 
L 18.109375 54.6875 
L 18.109375 46.390625 
Q 20.953125 51.265625 25.265625 53.625 
Q 29.59375 56 35.59375 56 
Q 45.5625 56 51.78125 48.09375 
Q 58.015625 40.1875 58.015625 27.296875 
Q 58.015625 14.40625 51.78125 6.484375 
Q 45.5625 -1.421875 35.59375 -1.421875 
Q 29.59375 -1.421875 25.265625 0.953125 
Q 20.953125 3.328125 18.109375 8.203125 
z
M 48.6875 27.296875 
Q 48.6875 37.203125 44.609375 42.84375 
Q 40.53125 48.484375 33.40625 48.484375 
Q 26.265625 48.484375 22.1875 42.84375 
Q 18.109375 37.203125 18.109375 27.296875 
Q 18.109375 17.390625 22.1875 11.75 
Q 26.265625 6.109375 33.40625 6.109375 
Q 40.53125 6.109375 44.609375 11.75 
Q 48.6875 17.390625 48.6875 27.296875 
z
" id="DejaVuSans-112"/>
       <path d="M 54.890625 33.015625 
L 54.890625 0 
L 45.90625 0 
L 45.90625 32.71875 
Q 45.90625 40.484375 42.875 44.328125 
Q 39.84375 48.1875 33.796875 48.1875 
Q 26.515625 48.1875 22.3125 43.546875 
Q 18.109375 38.921875 18.109375 30.90625 
L 18.109375 0 
L 9.078125 0 
L 9.078125 54.6875 
L 18.109375 54.6875 
L 18.109375 46.1875 
Q 21.34375 51.125 25.703125 53.5625 
Q 30.078125 56 35.796875 56 
Q 45.21875 56 50.046875 50.171875 
Q 54.890625 44.34375 54.890625 33.015625 
z
" id="DejaVuSans-110"/>
      </defs>
      <use xlink:href="#DejaVuSans-84"/>
      <use x="61.083984" xlink:href="#DejaVuSans-104"/>
      <use x="124.462891" xlink:href="#DejaVuSans-101"/>
      <use x="185.986328" xlink:href="#DejaVuSans-32"/>
      <use x="217.773438" xlink:href="#DejaVuSans-116"/>
      <use x="256.982422" xlink:href="#DejaVuSans-97"/>
      <use x="318.261719" xlink:href="#DejaVuSans-114"/>
      <use x="357.625" xlink:href="#DejaVuSans-103"/>
      <use x="421.101562" xlink:href="#DejaVuSans-101"/>
      <use x="482.625" xlink:href="#DejaVuSans-116"/>
      <use x="521.833984" xlink:href="#DejaVuSans-32"/>
      <use x="553.621094" xlink:href="#DejaVuSans-97"/>
      <use x="614.900391" xlink:href="#DejaVuSans-99"/>
      <use x="669.880859" xlink:href="#DejaVuSans-99"/>
      <use x="724.861328" xlink:href="#DejaVuSans-101"/>
      <use x="786.384766" xlink:href="#DejaVuSans-112"/>
      <use x="849.861328" xlink:href="#DejaVuSans-116"/>
      <use x="889.070312" xlink:href="#DejaVuSans-97"/>
      <use x="950.349609" xlink:href="#DejaVuSans-110"/>
      <use x="1013.728516" xlink:href="#DejaVuSans-99"/>
      <use x="1068.708984" xlink:href="#DejaVuSans-101"/>
      <use x="1130.232422" xlink:href="#DejaVuSans-32"/>
      <use x="1162.019531" xlink:href="#DejaVuSans-114"/>
      <use x="1203.132812" xlink:href="#DejaVuSans-97"/>
      <use x="1264.412109" xlink:href="#DejaVuSans-116"/>
      <use x="1303.621094" xlink:href="#DejaVuSans-101"/>
     </g>
    </g>
    <g id="line2d_18">
     <path d="M 165.549687 69.248563 
L 185.549687 69.248563 
" style="fill:none;stroke:#ff7f0e;stroke-linecap:square;stroke-width:1.5;"/>
    </g>
    <g id="line2d_19"/>
    <g id="text_14">
     <!-- Modified Lam observed acceptance rate -->
     <g transform="translate(193.549687 72.748563)scale(0.1 -0.1)">
      <defs>
       <path d="M 9.8125 72.90625 
L 24.515625 72.90625 
L 43.109375 23.296875 
L 61.8125 72.90625 
L 76.515625 72.90625 
L 76.515625 0 
L 66.890625 0 
L 66.890625 64.015625 
L 48.09375 14.015625 
L 38.1875 14.015625 
L 19.390625 64.015625 
L 19.390625 0 
L 9.8125 0 
z
" id="DejaVuSans-77"/>
       <path d="M 30.609375 48.390625 
Q 23.390625 48.390625 19.1875 42.75 
Q 14.984375 37.109375 14.984375 27.296875 
Q 14.984375 17.484375 19.15625 11.84375 
Q 23.34375 6.203125 30.609375 6.203125 
Q 37.796875 6.203125 41.984375 11.859375 
Q 46.1875 17.53125 46.1875 27.296875 
Q 46.1875 37.015625 41.984375 42.703125 
Q 37.796875 48.390625 30.609375 48.390625 
z
M 30.609375 56 
Q 42.328125 56 49.015625 48.375 
Q 55.71875 40.765625 55.71875 27.296875 
Q 55.71875 13.875 49.015625 6.21875 
Q 42.328125 -1.421875 30.609375 -1.421875 
Q 18.84375 -1.421875 12.171875 6.21875 
Q 5.515625 13.875 5.515625 27.296875 
Q 5.515625 40.765625 12.171875 48.375 
Q 18.84375 56 30.609375 56 
z
" id="DejaVuSans-111"/>
       <path d="M 45.40625 46.390625 
L 45.40625 75.984375 
L 54.390625 75.984375 
L 54.390625 0 
L 45.40625 0 
L 45.40625 8.203125 
Q 42.578125 3.328125 38.25 0.953125 
Q 33.9375 -1.421875 27.875 -1.421875 
Q 17.96875 -1.421875 11.734375 6.484375 
Q 5.515625 14.40625 5.515625 27.296875 
Q 5.515625 40.1875 11.734375 48.09375 
Q 17.96875 56 27.875 56 
Q 33.9375 56 38.25 53.625 
Q 42.578125 51.265625 45.40625 46.390625 
z
M 14.796875 27.296875 
Q 14.796875 17.390625 18.875 11.75 
Q 22.953125 6.109375 30.078125 6.109375 
Q 37.203125 6.109375 41.296875 11.75 
Q 45.40625 17.390625 45.40625 27.296875 
Q 45.40625 37.203125 41.296875 42.84375 
Q 37.203125 48.484375 30.078125 48.484375 
Q 22.953125 48.484375 18.875 42.84375 
Q 14.796875 37.203125 14.796875 27.296875 
z
" id="DejaVuSans-100"/>
       <path d="M 9.421875 54.6875 
L 18.40625 54.6875 
L 18.40625 0 
L 9.421875 0 
z
M 9.421875 75.984375 
L 18.40625 75.984375 
L 18.40625 64.59375 
L 9.421875 64.59375 
z
" id="DejaVuSans-105"/>
       <path d="M 37.109375 75.984375 
L 37.109375 68.5 
L 28.515625 68.5 
Q 23.6875 68.5 21.796875 66.546875 
Q 19.921875 64.59375 19.921875 59.515625 
L 19.921875 54.6875 
L 34.71875 54.6875 
L 34.71875 47.703125 
L 19.921875 47.703125 
L 19.921875 0 
L 10.890625 0 
L 10.890625 47.703125 
L 2.296875 47.703125 
L 2.296875 54.6875 
L 10.890625 54.6875 
L 10.890625 58.5 
Q 10.890625 67.625 15.140625 71.796875 
Q 19.390625 75.984375 28.609375 75.984375 
z
" id="DejaVuSans-102"/>
       <path d="M 9.8125 72.90625 
L 19.671875 72.90625 
L 19.671875 8.296875 
L 55.171875 8.296875 
L 55.171875 0 
L 9.8125 0 
z
" id="DejaVuSans-76"/>
       <path d="M 52 44.1875 
Q 55.375 50.25 60.0625 53.125 
Q 64.75 56 71.09375 56 
Q 79.640625 56 84.28125 50.015625 
Q 88.921875 44.046875 88.921875 33.015625 
L 88.921875 0 
L 79.890625 0 
L 79.890625 32.71875 
Q 79.890625 40.578125 77.09375 44.375 
Q 74.3125 48.1875 68.609375 48.1875 
Q 61.625 48.1875 57.5625 43.546875 
Q 53.515625 38.921875 53.515625 30.90625 
L 53.515625 0 
L 44.484375 0 
L 44.484375 32.71875 
Q 44.484375 40.625 41.703125 44.40625 
Q 38.921875 48.1875 33.109375 48.1875 
Q 26.21875 48.1875 22.15625 43.53125 
Q 18.109375 38.875 18.109375 30.90625 
L 18.109375 0 
L 9.078125 0 
L 9.078125 54.6875 
L 18.109375 54.6875 
L 18.109375 46.1875 
Q 21.1875 51.21875 25.484375 53.609375 
Q 29.78125 56 35.6875 56 
Q 41.65625 56 45.828125 52.96875 
Q 50 49.953125 52 44.1875 
z
" id="DejaVuSans-109"/>
       <path d="M 48.6875 27.296875 
Q 48.6875 37.203125 44.609375 42.84375 
Q 40.53125 48.484375 33.40625 48.484375 
Q 26.265625 48.484375 22.1875 42.84375 
Q 18.109375 37.203125 18.109375 27.296875 
Q 18.109375 17.390625 22.1875 11.75 
Q 26.265625 6.109375 33.40625 6.109375 
Q 40.53125 6.109375 44.609375 11.75 
Q 48.6875 17.390625 48.6875 27.296875 
z
M 18.109375 46.390625 
Q 20.953125 51.265625 25.265625 53.625 
Q 29.59375 56 35.59375 56 
Q 45.5625 56 51.78125 48.09375 
Q 58.015625 40.1875 58.015625 27.296875 
Q 58.015625 14.40625 51.78125 6.484375 
Q 45.5625 -1.421875 35.59375 -1.421875 
Q 29.59375 -1.421875 25.265625 0.953125 
Q 20.953125 3.328125 18.109375 8.203125 
L 18.109375 0 
L 9.078125 0 
L 9.078125 75.984375 
L 18.109375 75.984375 
z
" id="DejaVuSans-98"/>
       <path d="M 44.28125 53.078125 
L 44.28125 44.578125 
Q 40.484375 46.53125 36.375 47.5 
Q 32.28125 48.484375 27.875 48.484375 
Q 21.1875 48.484375 17.84375 46.4375 
Q 14.5 44.390625 14.5 40.28125 
Q 14.5 37.15625 16.890625 35.375 
Q 19.28125 33.59375 26.515625 31.984375 
L 29.59375 31.296875 
Q 39.15625 29.25 43.1875 25.515625 
Q 47.21875 21.78125 47.21875 15.09375 
Q 47.21875 7.46875 41.1875 3.015625 
Q 35.15625 -1.421875 24.609375 -1.421875 
Q 20.21875 -1.421875 15.453125 -0.5625 
Q 10.6875 0.296875 5.421875 2 
L 5.421875 11.28125 
Q 10.40625 8.6875 15.234375 7.390625 
Q 20.0625 6.109375 24.8125 6.109375 
Q 31.15625 6.109375 34.5625 8.28125 
Q 37.984375 10.453125 37.984375 14.40625 
Q 37.984375 18.0625 35.515625 20.015625 
Q 33.0625 21.96875 24.703125 23.78125 
L 21.578125 24.515625 
Q 13.234375 26.265625 9.515625 29.90625 
Q 5.8125 33.546875 5.8125 39.890625 
Q 5.8125 47.609375 11.28125 51.796875 
Q 16.75 56 26.8125 56 
Q 31.78125 56 36.171875 55.265625 
Q 40.578125 54.546875 44.28125 53.078125 
z
" id="DejaVuSans-115"/>
       <path d="M 2.984375 54.6875 
L 12.5 54.6875 
L 29.59375 8.796875 
L 46.6875 54.6875 
L 56.203125 54.6875 
L 35.6875 0 
L 23.484375 0 
z
" id="DejaVuSans-118"/>
      </defs>
      <use xlink:href="#DejaVuSans-77"/>
      <use x="86.279297" xlink:href="#DejaVuSans-111"/>
      <use x="147.460938" xlink:href="#DejaVuSans-100"/>
      <use x="210.9375" xlink:href="#DejaVuSans-105"/>
      <use x="238.720703" xlink:href="#DejaVuSans-102"/>
      <use x="273.925781" xlink:href="#DejaVuSans-105"/>
      <use x="301.708984" xlink:href="#DejaVuSans-101"/>
      <use x="363.232422" xlink:href="#DejaVuSans-100"/>
      <use x="426.708984" xlink:href="#DejaVuSans-32"/>
      <use x="458.496094" xlink:href="#DejaVuSans-76"/>
      <use x="514.208984" xlink:href="#DejaVuSans-97"/>
      <use x="575.488281" xlink:href="#DejaVuSans-109"/>
      <use x="672.900391" xlink:href="#DejaVuSans-32"/>
      <use x="704.6875" xlink:href="#DejaVuSans-111"/>
      <use x="765.869141" xlink:href="#DejaVuSans-98"/>
      <use x="829.345703" xlink:href="#DejaVuSans-115"/>
      <use x="881.445312" xlink:href="#DejaVuSans-101"/>
      <use x="942.96875" xlink:href="#DejaVuSans-114"/>
      <use x="984.082031" xlink:href="#DejaVuSans-118"/>
      <use x="1043.261719" xlink:href="#DejaVuSans-101"/>
      <use x="1104.785156" xlink:href="#DejaVuSans-100"/>
      <use x="1168.261719" xlink:href="#DejaVuSans-32"/>
      <use x="1200.048828" xlink:href="#DejaVuSans-97"/>
      <use x="1261.328125" xlink:href="#DejaVuSans-99"/>
      <use x="1316.308594" xlink:href="#DejaVuSans-99"/>
      <use x="1371.289062" xlink:href="#DejaVuSans-101"/>
      <use x="1432.8125" xlink:href="#DejaVuSans-112"/>
      <use x="1496.289062" xlink:href="#DejaVuSans-116"/>
      <use x="1535.498047" xlink:href="#DejaVuSans-97"/>
      <use x="1596.777344" xlink:href="#DejaVuSans-110"/>
      <use x="1660.15625" xlink:href="#DejaVuSans-99"/>
      <use x="1715.136719" xlink:href="#DejaVuSans-101"/>
      <use x="1776.660156" xlink:href="#DejaVuSans-32"/>
      <use x="1808.447266" xlink:href="#DejaVuSans-114"/>
      <use x="1849.560547" xlink:href="#DejaVuSans-97"/>
      <use x="1910.839844" xlink:href="#DejaVuSans-116"/>
      <use x="1950.048828" xlink:href="#DejaVuSans-101"/>
     </g>
    </g>
    <g id="line2d_20">
     <path d="M 165.549687 83.926688 
L 185.549687 83.926688 
" style="fill:none;stroke:#2ca02c;stroke-linecap:square;stroke-width:1.5;"/>
    </g>
    <g id="line2d_21"/>
    <g id="text_15">
     <!-- Self-Tuning Lam observed acceptance rate -->
     <g transform="translate(193.549687 87.426688)scale(0.1 -0.1)">
      <defs>
       <path d="M 53.515625 70.515625 
L 53.515625 60.890625 
Q 47.90625 63.578125 42.921875 64.890625 
Q 37.9375 66.21875 33.296875 66.21875 
Q 25.25 66.21875 20.875 63.09375 
Q 16.5 59.96875 16.5 54.203125 
Q 16.5 49.359375 19.40625 46.890625 
Q 22.3125 44.4375 30.421875 42.921875 
L 36.375 41.703125 
Q 47.40625 39.59375 52.65625 34.296875 
Q 57.90625 29 57.90625 20.125 
Q 57.90625 9.515625 50.796875 4.046875 
Q 43.703125 -1.421875 29.984375 -1.421875 
Q 24.8125 -1.421875 18.96875 -0.25 
Q 13.140625 0.921875 6.890625 3.21875 
L 6.890625 13.375 
Q 12.890625 10.015625 18.65625 8.296875 
Q 24.421875 6.59375 29.984375 6.59375 
Q 38.421875 6.59375 43.015625 9.90625 
Q 47.609375 13.234375 47.609375 19.390625 
Q 47.609375 24.75 44.3125 27.78125 
Q 41.015625 30.8125 33.5 32.328125 
L 27.484375 33.5 
Q 16.453125 35.6875 11.515625 40.375 
Q 6.59375 45.0625 6.59375 53.421875 
Q 6.59375 63.09375 13.40625 68.65625 
Q 20.21875 74.21875 32.171875 74.21875 
Q 37.3125 74.21875 42.625 73.28125 
Q 47.953125 72.359375 53.515625 70.515625 
z
" id="DejaVuSans-83"/>
       <path d="M 9.421875 75.984375 
L 18.40625 75.984375 
L 18.40625 0 
L 9.421875 0 
z
" id="DejaVuSans-108"/>
       <path d="M 4.890625 31.390625 
L 31.203125 31.390625 
L 31.203125 23.390625 
L 4.890625 23.390625 
z
" id="DejaVuSans-45"/>
       <path d="M 8.5 21.578125 
L 8.5 54.6875 
L 17.484375 54.6875 
L 17.484375 21.921875 
Q 17.484375 14.15625 20.5 10.265625 
Q 23.53125 6.390625 29.59375 6.390625 
Q 36.859375 6.390625 41.078125 11.03125 
Q 45.3125 15.671875 45.3125 23.6875 
L 45.3125 54.6875 
L 54.296875 54.6875 
L 54.296875 0 
L 45.3125 0 
L 45.3125 8.40625 
Q 42.046875 3.421875 37.71875 1 
Q 33.40625 -1.421875 27.6875 -1.421875 
Q 18.265625 -1.421875 13.375 4.4375 
Q 8.5 10.296875 8.5 21.578125 
z
M 31.109375 56 
z
" id="DejaVuSans-117"/>
      </defs>
      <use xlink:href="#DejaVuSans-83"/>
      <use x="63.476562" xlink:href="#DejaVuSans-101"/>
      <use x="125" xlink:href="#DejaVuSans-108"/>
      <use x="152.783203" xlink:href="#DejaVuSans-102"/>
      <use x="182.488281" xlink:href="#DejaVuSans-45"/>
      <use x="209.447266" xlink:href="#DejaVuSans-84"/>
      <use x="255.40625" xlink:href="#DejaVuSans-117"/>
      <use x="318.785156" xlink:href="#DejaVuSans-110"/>
      <use x="382.164062" xlink:href="#DejaVuSans-105"/>
      <use x="409.947266" xlink:href="#DejaVuSans-110"/>
      <use x="473.326172" xlink:href="#DejaVuSans-103"/>
      <use x="536.802734" xlink:href="#DejaVuSans-32"/>
      <use x="568.589844" xlink:href="#DejaVuSans-76"/>
      <use x="624.302734" xlink:href="#DejaVuSans-97"/>
      <use x="685.582031" xlink:href="#DejaVuSans-109"/>
      <use x="782.994141" xlink:href="#DejaVuSans-32"/>
      <use x="814.78125" xlink:href="#DejaVuSans-111"/>
      <use x="875.962891" xlink:href="#DejaVuSans-98"/>
      <use x="939.439453" xlink:href="#DejaVuSans-115"/>
      <use x="991.539062" xlink:href="#DejaVuSans-101"/>
      <use x="1053.0625" xlink:href="#DejaVuSans-114"/>
      <use x="1094.175781" xlink:href="#DejaVuSans-118"/>
      <use x="1153.355469" xlink:href="#DejaVuSans-101"/>
      <use x="1214.878906" xlink:href="#DejaVuSans-100"/>
      <use x="1278.355469" xlink:href="#DejaVuSans-32"/>
      <use x="1310.142578" xlink:href="#DejaVuSans-97"/>
      <use x="1371.421875" xlink:href="#DejaVuSans-99"/>
      <use x="1426.402344" xlink:href="#DejaVuSans-99"/>
      <use x="1481.382812" xlink:href="#DejaVuSans-101"/>
      <use x="1542.90625" xlink:href="#DejaVuSans-112"/>
      <use x="1606.382812" xlink:href="#DejaVuSans-116"/>
      <use x="1645.591797" xlink:href="#DejaVuSans-97"/>
      <use x="1706.871094" xlink:href="#DejaVuSans-110"/>
      <use x="1770.25" xlink:href="#DejaVuSans-99"/>
      <use x="1825.230469" xlink:href="#DejaVuSans-101"/>
      <use x="1886.753906" xlink:href="#DejaVuSans-32"/>
      <use x="1918.541016" xlink:href="#DejaVuSans-114"/>
      <use x="1959.654297" xlink:href="#DejaVuSans-97"/>
      <use x="2020.933594" xlink:href="#DejaVuSans-116"/>
      <use x="2060.142578" xlink:href="#DejaVuSans-101"/>
     </g>
    </g>
   </g>
  </g>
 </g>
 <defs>
  <clipPath id="p145338d974">
   <rect height="266.112" width="357.12" x="57.6" y="41.472"/>
  </clipPath>
 </defs>
</svg>
