<?xml version="1.0" encoding="utf-8" standalone="no"?>
<!DOCTYPE svg PUBLIC "-//W3C//DTD SVG 1.1//EN"
  "http://www.w3.org/Graphics/SVG/1.1/DTD/svg11.dtd">
<!-- Created with matplotlib (https://matplotlib.org/) -->
<svg height="345.6pt" version="1.1" viewBox="0 0 460.8 345.6" width="460.8pt" xmlns="http://www.w3.org/2000/svg" xmlns:xlink="http://www.w3.org/1999/xlink">
 <metadata>
  <rdf:RDF xmlns:cc="http://creativecommons.org/ns#" xmlns:dc="http://purl.org/dc/elements/1.1/" xmlns:rdf="http://www.w3.org/1999/02/22-rdf-syntax-ns#">
   <cc:Work>
    <dc:type rdf:resource="http://purl.org/dc/dcmitype/StillImage"/>
    <dc:date>2021-03-15T17:13:30.459969</dc:date>
    <dc:format>image/svg+xml</dc:format>
    <dc:creator>
     <cc:Agent>
      <dc:title>Matplotlib v3.3.4, https://matplotlib.org/</dc:title>
     </cc:Agent>
    </dc:creator>
   </cc:Work>
  </rdf:RDF>
 </metadata>
 <defs>
  <style type="text/css">*{stroke-linecap:butt;stroke-linejoin:round;}</style>
 </defs>
 <g id="figure_1">
  <g id="patch_1">
   <path d="M 0 345.6 
L 460.8 345.6 
L 460.8 0 
L 0 0 
z
" style="fill:#ffffff;"/>
  </g>
  <g id="axes_1">
   <g id="patch_2">
    <path d="M 57.6 307.584 
L 414.72 307.584 
L 414.72 41.472 
L 57.6 41.472 
z
" style="fill:#ffffff;"/>
   </g>
   <g id="matplotlib.axis_1">
    <g id="xtick_1">
     <g id="line2d_1">
      <defs>
       <path d="M 0 0 
L 0 3.5 
" id="m177cb4509b" style="stroke:#000000;stroke-width:0.8;"/>
      </defs>
      <g>
       <use style="stroke:#000000;stroke-width:0.8;" x="73.507748" xlink:href="#m177cb4509b" y="307.584"/>
      </g>
     </g>
     <g id="text_1">
      <!-- 0 -->
      <g transform="translate(70.326498 322.182437)scale(0.1 -0.1)">
       <defs>
        <path d="M 31.78125 66.40625 
Q 24.171875 66.40625 20.328125 58.90625 
Q 16.5 51.421875 16.5 36.375 
Q 16.5 21.390625 20.328125 13.890625 
Q 24.171875 6.390625 31.78125 6.390625 
Q 39.453125 6.390625 43.28125 13.890625 
Q 47.125 21.390625 47.125 36.375 
Q 47.125 51.421875 43.28125 58.90625 
Q 39.453125 66.40625 31.78125 66.40625 
z
M 31.78125 74.21875 
Q 44.046875 74.21875 50.515625 64.515625 
Q 56.984375 54.828125 56.984375 36.375 
Q 56.984375 17.96875 50.515625 8.265625 
Q 44.046875 -1.421875 31.78125 -1.421875 
Q 19.53125 -1.421875 13.0625 8.265625 
Q 6.59375 17.96875 6.59375 36.375 
Q 6.59375 54.828125 13.0625 64.515625 
Q 19.53125 74.21875 31.78125 74.21875 
z
" id="DejaVuSans-48"/>
       </defs>
       <use xlink:href="#DejaVuSans-48"/>
      </g>
     </g>
    </g>
    <g id="xtick_2">
     <g id="line2d_2">
      <g>
       <use style="stroke:#000000;stroke-width:0.8;" x="138.503653" xlink:href="#m177cb4509b" y="307.584"/>
      </g>
     </g>
     <g id="text_2">
      <!-- 200 -->
      <g transform="translate(128.959903 322.182437)scale(0.1 -0.1)">
       <defs>
        <path d="M 19.1875 8.296875 
L 53.609375 8.296875 
L 53.609375 0 
L 7.328125 0 
L 7.328125 8.296875 
Q 12.9375 14.109375 22.625 23.890625 
Q 32.328125 33.6875 34.8125 36.53125 
Q 39.546875 41.84375 41.421875 45.53125 
Q 43.3125 49.21875 43.3125 52.78125 
Q 43.3125 58.59375 39.234375 62.25 
Q 35.15625 65.921875 28.609375 65.921875 
Q 23.96875 65.921875 18.8125 64.3125 
Q 13.671875 62.703125 7.8125 59.421875 
L 7.8125 69.390625 
Q 13.765625 71.78125 18.9375 73 
Q 24.125 74.21875 28.421875 74.21875 
Q 39.75 74.21875 46.484375 68.546875 
Q 53.21875 62.890625 53.21875 53.421875 
Q 53.21875 48.921875 51.53125 44.890625 
Q 49.859375 40.875 45.40625 35.40625 
Q 44.1875 33.984375 37.640625 27.21875 
Q 31.109375 20.453125 19.1875 8.296875 
z
" id="DejaVuSans-50"/>
       </defs>
       <use xlink:href="#DejaVuSans-50"/>
       <use x="63.623047" xlink:href="#DejaVuSans-48"/>
       <use x="127.246094" xlink:href="#DejaVuSans-48"/>
      </g>
     </g>
    </g>
    <g id="xtick_3">
     <g id="line2d_3">
      <g>
       <use style="stroke:#000000;stroke-width:0.8;" x="203.499558" xlink:href="#m177cb4509b" y="307.584"/>
      </g>
     </g>
     <g id="text_3">
      <!-- 400 -->
      <g transform="translate(193.955808 322.182437)scale(0.1 -0.1)">
       <defs>
        <path d="M 37.796875 64.3125 
L 12.890625 25.390625 
L 37.796875 25.390625 
z
M 35.203125 72.90625 
L 47.609375 72.90625 
L 47.609375 25.390625 
L 58.015625 25.390625 
L 58.015625 17.1875 
L 47.609375 17.1875 
L 47.609375 0 
L 37.796875 0 
L 37.796875 17.1875 
L 4.890625 17.1875 
L 4.890625 26.703125 
z
" id="DejaVuSans-52"/>
       </defs>
       <use xlink:href="#DejaVuSans-52"/>
       <use x="63.623047" xlink:href="#DejaVuSans-48"/>
       <use x="127.246094" xlink:href="#DejaVuSans-48"/>
      </g>
     </g>
    </g>
    <g id="xtick_4">
     <g id="line2d_4">
      <g>
       <use style="stroke:#000000;stroke-width:0.8;" x="268.495463" xlink:href="#m177cb4509b" y="307.584"/>
      </g>
     </g>
     <g id="text_4">
      <!-- 600 -->
      <g transform="translate(258.951713 322.182437)scale(0.1 -0.1)">
       <defs>
        <path d="M 33.015625 40.375 
Q 26.375 40.375 22.484375 35.828125 
Q 18.609375 31.296875 18.609375 23.390625 
Q 18.609375 15.53125 22.484375 10.953125 
Q 26.375 6.390625 33.015625 6.390625 
Q 39.65625 6.390625 43.53125 10.953125 
Q 47.40625 15.53125 47.40625 23.390625 
Q 47.40625 31.296875 43.53125 35.828125 
Q 39.65625 40.375 33.015625 40.375 
z
M 52.59375 71.296875 
L 52.59375 62.3125 
Q 48.875 64.0625 45.09375 64.984375 
Q 41.3125 65.921875 37.59375 65.921875 
Q 27.828125 65.921875 22.671875 59.328125 
Q 17.53125 52.734375 16.796875 39.40625 
Q 19.671875 43.65625 24.015625 45.921875 
Q 28.375 48.1875 33.59375 48.1875 
Q 44.578125 48.1875 50.953125 41.515625 
Q 57.328125 34.859375 57.328125 23.390625 
Q 57.328125 12.15625 50.6875 5.359375 
Q 44.046875 -1.421875 33.015625 -1.421875 
Q 20.359375 -1.421875 13.671875 8.265625 
Q 6.984375 17.96875 6.984375 36.375 
Q 6.984375 53.65625 15.1875 63.9375 
Q 23.390625 74.21875 37.203125 74.21875 
Q 40.921875 74.21875 44.703125 73.484375 
Q 48.484375 72.75 52.59375 71.296875 
z
" id="DejaVuSans-54"/>
       </defs>
       <use xlink:href="#DejaVuSans-54"/>
       <use x="63.623047" xlink:href="#DejaVuSans-48"/>
       <use x="127.246094" xlink:href="#DejaVuSans-48"/>
      </g>
     </g>
    </g>
    <g id="xtick_5">
     <g id="line2d_5">
      <g>
       <use style="stroke:#000000;stroke-width:0.8;" x="333.491368" xlink:href="#m177cb4509b" y="307.584"/>
      </g>
     </g>
     <g id="text_5">
      <!-- 800 -->
      <g transform="translate(323.947618 322.182437)scale(0.1 -0.1)">
       <defs>
        <path d="M 31.78125 34.625 
Q 24.75 34.625 20.71875 30.859375 
Q 16.703125 27.09375 16.703125 20.515625 
Q 16.703125 13.921875 20.71875 10.15625 
Q 24.75 6.390625 31.78125 6.390625 
Q 38.8125 6.390625 42.859375 10.171875 
Q 46.921875 13.96875 46.921875 20.515625 
Q 46.921875 27.09375 42.890625 30.859375 
Q 38.875 34.625 31.78125 34.625 
z
M 21.921875 38.8125 
Q 15.578125 40.375 12.03125 44.71875 
Q 8.5 49.078125 8.5 55.328125 
Q 8.5 64.0625 14.71875 69.140625 
Q 20.953125 74.21875 31.78125 74.21875 
Q 42.671875 74.21875 48.875 69.140625 
Q 55.078125 64.0625 55.078125 55.328125 
Q 55.078125 49.078125 51.53125 44.71875 
Q 48 40.375 41.703125 38.8125 
Q 48.828125 37.15625 52.796875 32.3125 
Q 56.78125 27.484375 56.78125 20.515625 
Q 56.78125 9.90625 50.3125 4.234375 
Q 43.84375 -1.421875 31.78125 -1.421875 
Q 19.734375 -1.421875 13.25 4.234375 
Q 6.78125 9.90625 6.78125 20.515625 
Q 6.78125 27.484375 10.78125 32.3125 
Q 14.796875 37.15625 21.921875 38.8125 
z
M 18.3125 54.390625 
Q 18.3125 48.734375 21.84375 45.5625 
Q 25.390625 42.390625 31.78125 42.390625 
Q 38.140625 42.390625 41.71875 45.5625 
Q 45.3125 48.734375 45.3125 54.390625 
Q 45.3125 60.0625 41.71875 63.234375 
Q 38.140625 66.40625 31.78125 66.40625 
Q 25.390625 66.40625 21.84375 63.234375 
Q 18.3125 60.0625 18.3125 54.390625 
z
" id="DejaVuSans-56"/>
       </defs>
       <use xlink:href="#DejaVuSans-56"/>
       <use x="63.623047" xlink:href="#DejaVuSans-48"/>
       <use x="127.246094" xlink:href="#DejaVuSans-48"/>
      </g>
     </g>
    </g>
    <g id="xtick_6">
     <g id="line2d_6">
      <g>
       <use style="stroke:#000000;stroke-width:0.8;" x="398.487273" xlink:href="#m177cb4509b" y="307.584"/>
      </g>
     </g>
     <g id="text_6">
      <!-- 1000 -->
      <g transform="translate(385.762273 322.182437)scale(0.1 -0.1)">
       <defs>
        <path d="M 12.40625 8.296875 
L 28.515625 8.296875 
L 28.515625 63.921875 
L 10.984375 60.40625 
L 10.984375 69.390625 
L 28.421875 72.90625 
L 38.28125 72.90625 
L 38.28125 8.296875 
L 54.390625 8.296875 
L 54.390625 0 
L 12.40625 0 
z
" id="DejaVuSans-49"/>
       </defs>
       <use xlink:href="#DejaVuSans-49"/>
       <use x="63.623047" xlink:href="#DejaVuSans-48"/>
       <use x="127.246094" xlink:href="#DejaVuSans-48"/>
       <use x="190.869141" xlink:href="#DejaVuSans-48"/>
      </g>
     </g>
    </g>
   </g>
   <g id="matplotlib.axis_2">
    <g id="ytick_1">
     <g id="line2d_7">
      <defs>
       <path d="M 0 0 
L -3.5 0 
" id="m1dec6483c2" style="stroke:#000000;stroke-width:0.8;"/>
      </defs>
      <g>
       <use style="stroke:#000000;stroke-width:0.8;" x="57.6" xlink:href="#m1dec6483c2" y="295.488"/>
      </g>
     </g>
     <g id="text_7">
      <!-- 0.0 -->
      <g transform="translate(34.696875 299.287219)scale(0.1 -0.1)">
       <defs>
        <path d="M 10.6875 12.40625 
L 21 12.40625 
L 21 0 
L 10.6875 0 
z
" id="DejaVuSans-46"/>
       </defs>
       <use xlink:href="#DejaVuSans-48"/>
       <use x="63.623047" xlink:href="#DejaVuSans-46"/>
       <use x="95.410156" xlink:href="#DejaVuSans-48"/>
      </g>
     </g>
    </g>
    <g id="ytick_2">
     <g id="line2d_8">
      <g>
       <use style="stroke:#000000;stroke-width:0.8;" x="57.6" xlink:href="#m1dec6483c2" y="247.104"/>
      </g>
     </g>
     <g id="text_8">
      <!-- 0.2 -->
      <g transform="translate(34.696875 250.903219)scale(0.1 -0.1)">
       <use xlink:href="#DejaVuSans-48"/>
       <use x="63.623047" xlink:href="#DejaVuSans-46"/>
       <use x="95.410156" xlink:href="#DejaVuSans-50"/>
      </g>
     </g>
    </g>
    <g id="ytick_3">
     <g id="line2d_9">
      <g>
       <use style="stroke:#000000;stroke-width:0.8;" x="57.6" xlink:href="#m1dec6483c2" y="198.72"/>
      </g>
     </g>
     <g id="text_9">
      <!-- 0.4 -->
      <g transform="translate(34.696875 202.519219)scale(0.1 -0.1)">
       <use xlink:href="#DejaVuSans-48"/>
       <use x="63.623047" xlink:href="#DejaVuSans-46"/>
       <use x="95.410156" xlink:href="#DejaVuSans-52"/>
      </g>
     </g>
    </g>
    <g id="ytick_4">
     <g id="line2d_10">
      <g>
       <use style="stroke:#000000;stroke-width:0.8;" x="57.6" xlink:href="#m1dec6483c2" y="150.336"/>
      </g>
     </g>
     <g id="text_10">
      <!-- 0.6 -->
      <g transform="translate(34.696875 154.135219)scale(0.1 -0.1)">
       <use xlink:href="#DejaVuSans-48"/>
       <use x="63.623047" xlink:href="#DejaVuSans-46"/>
       <use x="95.410156" xlink:href="#DejaVuSans-54"/>
      </g>
     </g>
    </g>
    <g id="ytick_5">
     <g id="line2d_11">
      <g>
       <use style="stroke:#000000;stroke-width:0.8;" x="57.6" xlink:href="#m1dec6483c2" y="101.952"/>
      </g>
     </g>
     <g id="text_11">
      <!-- 0.8 -->
      <g transform="translate(34.696875 105.751219)scale(0.1 -0.1)">
       <use xlink:href="#DejaVuSans-48"/>
       <use x="63.623047" xlink:href="#DejaVuSans-46"/>
       <use x="95.410156" xlink:href="#DejaVuSans-56"/>
      </g>
     </g>
    </g>
    <g id="ytick_6">
     <g id="line2d_12">
      <g>
       <use style="stroke:#000000;stroke-width:0.8;" x="57.6" xlink:href="#m1dec6483c2" y="53.568"/>
      </g>
     </g>
     <g id="text_12">
      <!-- 1.0 -->
      <g transform="translate(34.696875 57.367219)scale(0.1 -0.1)">
       <use xlink:href="#DejaVuSans-49"/>
       <use x="63.623047" xlink:href="#DejaVuSans-46"/>
       <use x="95.410156" xlink:href="#DejaVuSans-48"/>
      </g>
     </g>
    </g>
   </g>
   <g id="line2d_13">
    <path clip-path="url(#pc366123a85)" d="M 73.832727 59.164316 
L 75.132645 79.331351 
L 76.432563 96.366936 
L 77.732482 110.757308 
L 79.0324 122.913205 
L 80.332318 133.181586 
L 81.632236 141.855538 
L 82.932154 149.182635 
L 84.232072 155.372012 
L 85.53199 160.60033 
L 86.831908 165.016816 
L 88.131826 168.74753 
L 89.431744 171.898954 
L 90.731663 174.561039 
L 92.031581 176.809767 
L 93.656478 179.136202 
L 95.281376 181.020218 
L 96.906274 182.54595 
L 98.531171 183.781534 
L 100.481048 184.958165 
L 102.430925 185.871674 
L 104.705782 186.682616 
L 107.305618 187.358784 
L 110.230434 187.89092 
L 113.805209 188.318723 
L 118.679902 188.658426 
L 122.254676 188.80128 
L 122.579656 189.0432 
L 284.744439 189.0432 
L 286.694316 199.590316 
L 288.644193 209.092368 
L 290.59407 217.652906 
L 292.543948 225.36522 
L 294.818804 233.402516 
L 297.093661 240.518597 
L 299.368518 246.819052 
L 301.643374 252.397363 
L 303.918231 257.336303 
L 306.193088 261.709154 
L 308.467944 265.5808 
L 310.742801 269.008688 
L 313.017658 272.04368 
L 315.292514 274.730809 
L 317.567371 277.109945 
L 320.167207 279.496921 
L 322.767043 281.573872 
L 325.36688 283.381065 
L 328.291695 285.135155 
L 331.216511 286.635107 
L 334.466306 288.048256 
L 338.041081 289.34362 
L 341.940835 290.500931 
L 346.165569 291.510044 
L 350.715283 292.369671 
L 355.914955 293.127096 
L 362.089566 293.791411 
L 369.239115 294.330778 
L 378.013563 294.764409 
L 389.387846 295.094316 
L 398.487273 295.24608 
L 398.487273 295.24608 
" style="fill:none;stroke:#1f77b4;stroke-linecap:square;stroke-width:1.5;"/>
   </g>
   <g id="line2d_14">
    <path clip-path="url(#pc366123a85)" d="M 74.157707 186.624 
L 74.482686 162.432 
L 74.807666 189.0432 
L 75.132645 157.5936 
L 75.457625 167.2704 
L 75.782604 167.2704 
L 76.107584 172.1088 
L 76.432563 189.0432 
L 76.757543 193.8816 
L 77.082523 193.8816 
L 77.407502 176.9472 
L 78.057461 176.9472 
L 78.382441 189.0432 
L 79.0324 189.0432 
L 79.357379 191.4624 
L 79.682359 191.4624 
L 80.007338 179.3664 
L 80.332318 179.3664 
L 80.657297 189.0432 
L 82.282195 189.0432 
L 82.607174 193.8816 
L 83.582113 193.8816 
L 84.232072 205.9776 
L 84.557052 205.9776 
L 84.882031 191.4624 
L 85.207011 191.4624 
L 85.53199 196.3008 
L 86.181949 196.3008 
L 86.506929 184.2048 
L 86.831908 184.2048 
L 87.156888 181.7856 
L 87.481867 181.7856 
L 87.806847 179.3664 
L 88.131826 181.7856 
L 88.456806 193.8816 
L 89.106765 203.5584 
L 89.431744 205.9776 
L 89.756724 205.9776 
L 90.081704 203.5584 
L 90.406683 203.5584 
L 90.731663 198.72 
L 91.056642 215.6544 
L 91.381622 208.3968 
L 91.706601 213.2352 
L 92.031581 208.3968 
L 92.68154 193.8816 
L 93.331499 193.8816 
L 93.656478 210.816 
L 93.981458 215.6544 
L 94.306437 215.6544 
L 94.631417 210.816 
L 94.956396 203.5584 
L 95.931335 222.912 
L 96.256314 222.912 
L 96.581294 220.4928 
L 96.906274 220.4928 
L 97.231253 230.1696 
L 97.556233 230.1696 
L 97.881212 201.1392 
L 98.206192 201.1392 
L 98.531171 227.7504 
L 98.856151 227.7504 
L 99.18113 220.4928 
L 99.831089 220.4928 
L 100.156069 203.5584 
L 100.481048 203.5584 
L 100.806028 218.0736 
L 101.455987 218.0736 
L 101.780966 208.3968 
L 102.105946 222.912 
L 102.430925 208.3968 
L 102.755905 222.912 
L 103.080885 215.6544 
L 103.405864 225.3312 
L 103.730844 218.0736 
L 104.055823 222.912 
L 104.705782 213.2352 
L 105.030762 213.2352 
L 105.355741 227.7504 
L 105.680721 230.1696 
L 106.33068 230.1696 
L 106.655659 232.5888 
L 106.980639 220.4928 
L 107.305618 222.912 
L 107.955577 222.912 
L 108.280557 218.0736 
L 108.605536 218.0736 
L 109.255495 239.8464 
L 109.580475 239.8464 
L 109.905455 227.7504 
L 110.230434 227.7504 
L 110.555414 232.5888 
L 110.880393 232.5888 
L 111.205373 222.912 
L 111.530352 218.0736 
L 111.855332 222.912 
L 112.180311 220.4928 
L 112.505291 237.4272 
L 113.15525 237.4272 
L 113.480229 220.4928 
L 113.805209 220.4928 
L 114.130188 232.5888 
L 114.455168 235.008 
L 115.105127 235.008 
L 115.430106 222.912 
L 115.755086 222.912 
L 116.080066 239.8464 
L 116.405045 239.8464 
L 117.379984 218.0736 
L 117.704963 218.0736 
L 118.029943 249.5232 
L 118.354922 249.5232 
L 118.679902 244.6848 
L 119.004881 235.008 
L 119.329861 235.008 
L 119.65484 232.5888 
L 119.97982 237.4272 
L 120.304799 237.4272 
L 120.629779 256.7808 
L 120.954758 256.7808 
L 121.279738 242.2656 
L 121.604717 239.8464 
L 121.929697 242.2656 
L 122.254676 239.8464 
L 122.579656 242.2656 
L 123.229615 242.2656 
L 123.554595 239.8464 
L 123.879574 239.8464 
L 124.204554 251.9424 
L 124.529533 251.9424 
L 124.854513 249.5232 
L 125.504472 249.5232 
L 126.154431 239.8464 
L 126.47941 239.8464 
L 126.80439 242.2656 
L 127.454349 242.2656 
L 127.779328 227.7504 
L 128.104308 242.2656 
L 128.754267 242.2656 
L 129.079247 251.9424 
L 129.404226 235.008 
L 129.729206 247.104 
L 130.054185 247.104 
L 130.379165 251.9424 
L 131.029124 251.9424 
L 131.354103 249.5232 
L 132.004062 249.5232 
L 132.329042 247.104 
L 132.979001 247.104 
L 133.30398 251.9424 
L 134.278919 251.9424 
L 134.603898 249.5232 
L 134.928878 242.2656 
L 135.578837 242.2656 
L 135.903817 259.2 
L 136.228796 259.2 
L 136.553776 249.5232 
L 137.203735 249.5232 
L 137.528714 251.9424 
L 137.853694 242.2656 
L 138.178673 247.104 
L 138.503653 247.104 
L 138.828632 259.2 
L 139.153612 259.2 
L 139.478591 249.5232 
L 140.12855 249.5232 
L 140.45353 247.104 
L 140.778509 256.7808 
L 141.428468 256.7808 
L 141.753448 254.3616 
L 142.403407 254.3616 
L 142.728387 256.7808 
L 143.378346 256.7808 
L 143.703325 254.3616 
L 144.353284 254.3616 
L 144.678264 264.0384 
L 145.328223 264.0384 
L 145.653202 249.5232 
L 145.978182 247.104 
L 146.303161 249.5232 
L 146.628141 247.104 
L 146.95312 256.7808 
L 147.2781 251.9424 
L 147.603079 264.0384 
L 147.928059 256.7808 
L 148.253038 264.0384 
L 148.578018 256.7808 
L 148.902998 256.7808 
L 149.227977 254.3616 
L 149.552957 256.7808 
L 149.877936 254.3616 
L 150.527895 254.3616 
L 150.852875 259.2 
L 151.177854 259.2 
L 151.502834 254.3616 
L 151.827813 254.3616 
L 152.152793 256.7808 
L 152.802752 256.7808 
L 153.127731 259.2 
L 154.427649 259.2 
L 154.752629 254.3616 
L 155.077609 261.6192 
L 155.402588 261.6192 
L 156.052547 271.296 
L 156.377527 271.296 
L 157.027486 256.7808 
L 157.352465 256.7808 
L 157.677445 266.4576 
L 158.002424 271.296 
L 158.652383 271.296 
L 158.977363 266.4576 
L 159.627322 266.4576 
L 159.952301 276.1344 
L 160.277281 273.7152 
L 160.60226 273.7152 
L 160.92724 264.0384 
L 161.252219 264.0384 
L 161.577199 268.8768 
L 162.227158 268.8768 
L 162.552138 259.2 
L 162.877117 268.8768 
L 163.527076 268.8768 
L 163.852056 264.0384 
L 164.177035 264.0384 
L 164.502015 271.296 
L 164.826994 271.296 
L 165.151974 268.8768 
L 165.476953 268.8768 
L 165.801933 273.7152 
L 166.451892 273.7152 
L 166.776871 268.8768 
L 167.101851 268.8768 
L 167.42683 261.6192 
L 167.75181 261.6192 
L 168.401769 271.296 
L 168.726749 266.4576 
L 169.051728 271.296 
L 169.376708 268.8768 
L 170.026667 268.8768 
L 170.351646 259.2 
L 170.676626 261.6192 
L 171.001605 261.6192 
L 171.326585 271.296 
L 171.976544 276.1344 
L 172.301523 276.1344 
L 172.626503 280.9728 
L 172.951482 278.5536 
L 173.276462 278.5536 
L 173.601441 264.0384 
L 173.926421 264.0384 
L 174.2514 261.6192 
L 175.226339 261.6192 
L 175.876298 276.1344 
L 176.526257 276.1344 
L 177.176216 271.296 
L 178.151155 271.296 
L 178.476134 268.8768 
L 178.801114 268.8768 
L 179.126093 266.4576 
L 179.776052 266.4576 
L 180.426011 271.296 
L 180.750991 271.296 
L 181.40095 276.1344 
L 182.700868 276.1344 
L 183.025848 271.296 
L 183.350827 268.8768 
L 184.000786 273.7152 
L 184.325766 273.7152 
L 184.650745 280.9728 
L 184.975725 271.296 
L 185.300704 276.1344 
L 185.625684 271.296 
L 185.950663 276.1344 
L 187.575561 276.1344 
L 187.900541 280.9728 
L 188.875479 280.9728 
L 189.200459 268.8768 
L 189.850418 268.8768 
L 190.175397 280.9728 
L 190.500377 280.9728 
L 190.825356 276.1344 
L 191.150336 276.1344 
L 191.475315 268.8768 
L 191.800295 283.392 
L 192.125274 280.9728 
L 192.450254 283.392 
L 192.775233 280.9728 
L 193.100213 283.392 
L 193.425192 280.9728 
L 193.750172 280.9728 
L 194.075152 278.5536 
L 194.400131 273.7152 
L 195.05009 273.7152 
L 195.37507 278.5536 
L 195.700049 278.5536 
L 196.025029 276.1344 
L 196.350008 276.1344 
L 196.674988 283.392 
L 197.649926 283.392 
L 197.974906 285.8112 
L 198.949844 278.5536 
L 199.274824 278.5536 
L 199.599803 280.9728 
L 201.224701 280.9728 
L 201.549681 283.392 
L 201.87466 283.392 
L 202.19964 280.9728 
L 202.524619 273.7152 
L 202.849599 273.7152 
L 203.174578 278.5536 
L 203.824537 278.5536 
L 204.149517 283.392 
L 204.474496 283.392 
L 204.799476 273.7152 
L 205.124455 273.7152 
L 205.774414 283.392 
L 206.099394 283.392 
L 206.424373 290.6496 
L 206.749353 285.8112 
L 207.399312 285.8112 
L 207.724292 280.9728 
L 208.69923 280.9728 
L 209.02421 288.2304 
L 209.349189 280.9728 
L 209.674169 278.5536 
L 209.999148 278.5536 
L 210.324128 276.1344 
L 210.649107 278.5536 
L 210.974087 278.5536 
L 211.624046 283.392 
L 211.949025 283.392 
L 212.274005 288.2304 
L 212.598984 288.2304 
L 212.923964 283.392 
L 213.573923 278.5536 
L 214.223882 283.392 
L 215.198821 283.392 
L 215.5238 288.2304 
L 215.84878 280.9728 
L 216.173759 288.2304 
L 216.498739 278.5536 
L 216.823718 280.9728 
L 218.123636 280.9728 
L 219.098575 288.2304 
L 219.423554 285.8112 
L 219.748534 280.9728 
L 220.073514 280.9728 
L 220.398493 276.1344 
L 221.048452 276.1344 
L 221.373432 280.9728 
L 221.698411 280.9728 
L 222.023391 285.8112 
L 223.323309 285.8112 
L 223.648288 280.9728 
L 223.973268 280.9728 
L 224.298247 288.2304 
L 224.623227 288.2304 
L 224.948206 283.392 
L 226.248124 283.392 
L 226.573104 285.8112 
L 227.873022 285.8112 
L 228.198002 288.2304 
L 228.522981 288.2304 
L 228.847961 285.8112 
L 229.17294 280.9728 
L 229.49792 280.9728 
L 229.822899 285.8112 
L 230.147879 285.8112 
L 230.472858 283.392 
L 230.797838 283.392 
L 231.122817 285.8112 
L 231.772776 285.8112 
L 232.097756 288.2304 
L 232.422735 283.392 
L 232.747715 288.2304 
L 233.072695 285.8112 
L 233.722654 285.8112 
L 234.047633 288.2304 
L 234.697592 288.2304 
L 235.022572 290.6496 
L 235.347551 290.6496 
L 235.672531 288.2304 
L 236.32249 288.2304 
L 236.647469 285.8112 
L 236.972449 285.8112 
L 237.297428 280.9728 
L 237.622408 290.6496 
L 237.947387 285.8112 
L 238.597346 285.8112 
L 238.922326 288.2304 
L 239.897265 288.2304 
L 240.222244 290.6496 
L 240.547224 290.6496 
L 240.872203 285.8112 
L 241.197183 283.392 
L 241.522162 283.392 
L 241.847142 285.8112 
L 242.172121 290.6496 
L 242.497101 288.2304 
L 242.82208 290.6496 
L 243.797019 290.6496 
L 244.121998 285.8112 
L 244.446978 290.6496 
L 245.421916 290.6496 
L 245.746896 288.2304 
L 246.071876 293.0688 
L 246.396855 288.2304 
L 246.721835 285.8112 
L 247.046814 285.8112 
L 247.371794 283.392 
L 248.671712 283.392 
L 248.996691 293.0688 
L 250.296609 293.0688 
L 250.621589 288.2304 
L 251.271548 288.2304 
L 251.596527 290.6496 
L 253.221425 290.6496 
L 253.546405 288.2304 
L 254.196364 288.2304 
L 254.521343 290.6496 
L 254.846323 290.6496 
L 255.171302 293.0688 
L 255.496282 290.6496 
L 255.821261 293.0688 
L 256.146241 285.8112 
L 256.47122 288.2304 
L 258.096118 288.2304 
L 258.421097 290.6496 
L 258.746077 290.6496 
L 259.071057 293.0688 
L 259.721016 293.0688 
L 260.695954 285.8112 
L 261.020934 285.8112 
L 261.345913 290.6496 
L 261.670893 290.6496 
L 261.995872 293.0688 
L 262.645831 288.2304 
L 262.970811 288.2304 
L 263.29579 290.6496 
L 263.945749 290.6496 
L 264.270729 288.2304 
L 264.595708 288.2304 
L 264.920688 290.6496 
L 266.545586 290.6496 
L 266.870565 288.2304 
L 268.820442 288.2304 
L 269.145422 285.8112 
L 269.795381 285.8112 
L 270.12036 293.0688 
L 270.770319 293.0688 
L 271.095299 280.9728 
L 271.420278 290.6496 
L 272.070238 290.6496 
L 272.395217 285.8112 
L 272.720197 283.392 
L 273.045176 285.8112 
L 274.020115 285.8112 
L 274.345094 288.2304 
L 275.969992 288.2304 
L 276.294971 293.0688 
L 276.619951 293.0688 
L 276.94493 290.6496 
L 278.569828 290.6496 
L 278.894808 295.488 
L 279.219787 288.2304 
L 279.544767 290.6496 
L 280.519705 290.6496 
L 281.169664 285.8112 
L 281.494644 285.8112 
L 281.819623 295.488 
L 282.144603 295.488 
L 282.469582 290.6496 
L 282.794562 290.6496 
L 283.119541 293.0688 
L 283.7695 293.0688 
L 284.09448 290.6496 
L 284.744439 290.6496 
L 285.069419 293.0688 
L 286.044357 293.0688 
L 286.369337 295.488 
L 286.694316 293.0688 
L 287.019296 293.0688 
L 287.344275 290.6496 
L 287.994234 290.6496 
L 288.319214 293.0688 
L 288.644193 290.6496 
L 289.944111 290.6496 
L 290.269091 293.0688 
L 291.244029 293.0688 
L 291.569009 295.488 
L 291.893989 295.488 
L 292.218968 290.6496 
L 293.193907 290.6496 
L 293.843866 295.488 
L 294.493825 295.488 
L 294.818804 293.0688 
L 295.143784 293.0688 
L 295.468763 290.6496 
L 295.793743 290.6496 
L 296.118722 293.0688 
L 298.393579 293.0688 
L 298.718559 295.488 
L 299.043538 295.488 
L 299.693497 290.6496 
L 300.343456 290.6496 
L 300.668436 295.488 
L 300.993415 293.0688 
L 301.968354 293.0688 
L 302.293333 290.6496 
L 302.943292 290.6496 
L 303.268272 293.0688 
L 303.918231 293.0688 
L 304.24321 295.488 
L 304.89317 295.488 
L 305.543129 290.6496 
L 306.843047 290.6496 
L 307.168026 288.2304 
L 307.493006 288.2304 
L 307.817985 293.0688 
L 308.142965 293.0688 
L 308.467944 290.6496 
L 308.792924 290.6496 
L 309.117903 293.0688 
L 310.417821 293.0688 
L 310.742801 295.488 
L 311.39276 295.488 
L 311.71774 293.0688 
L 312.042719 293.0688 
L 312.367699 290.6496 
L 312.692678 290.6496 
L 313.017658 293.0688 
L 313.342637 293.0688 
L 313.667617 295.488 
L 315.617494 295.488 
L 315.942473 293.0688 
L 316.917412 293.0688 
L 317.242391 295.488 
L 317.567371 295.488 
L 317.892351 290.6496 
L 318.21733 290.6496 
L 318.54231 293.0688 
L 319.192269 293.0688 
L 319.517248 290.6496 
L 320.492187 290.6496 
L 320.817166 293.0688 
L 321.142146 290.6496 
L 321.467125 293.0688 
L 322.117084 293.0688 
L 322.442064 295.488 
L 322.767043 295.488 
L 323.092023 293.0688 
L 323.741982 293.0688 
L 324.066962 295.488 
L 324.391941 290.6496 
L 324.716921 295.488 
L 325.0419 293.0688 
L 325.36688 295.488 
L 326.016839 290.6496 
L 326.341818 290.6496 
L 326.666798 293.0688 
L 326.991777 293.0688 
L 327.316757 295.488 
L 328.291695 295.488 
L 328.616675 293.0688 
L 329.591613 293.0688 
L 329.916593 295.488 
L 330.241572 293.0688 
L 331.541491 293.0688 
L 331.86647 295.488 
L 335.441245 295.488 
L 335.766224 290.6496 
L 336.091204 290.6496 
L 336.741163 295.488 
L 338.041081 295.488 
L 338.366061 293.0688 
L 338.69104 295.488 
L 339.665979 295.488 
L 339.990958 293.0688 
L 340.315938 293.0688 
L 340.640917 290.6496 
L 341.290876 290.6496 
L 341.615856 293.0688 
L 342.590794 293.0688 
L 342.915774 290.6496 
L 343.240753 293.0688 
L 343.565733 293.0688 
L 343.890713 295.488 
L 345.84059 295.488 
L 346.165569 293.0688 
L 346.490549 295.488 
L 346.815528 293.0688 
L 347.140508 295.488 
L 347.790467 295.488 
L 348.115446 293.0688 
L 348.765405 293.0688 
L 349.090385 295.488 
L 350.065324 295.488 
L 350.390303 293.0688 
L 350.715283 293.0688 
L 351.040262 295.488 
L 352.990139 295.488 
L 353.315119 293.0688 
L 353.640098 295.488 
L 355.589975 295.488 
L 355.914955 293.0688 
L 356.239934 293.0688 
L 356.564914 295.488 
L 357.214873 295.488 
L 357.539853 293.0688 
L 358.189812 293.0688 
L 358.514791 295.488 
L 360.139689 295.488 
L 360.464668 293.0688 
L 360.789648 293.0688 
L 361.114627 295.488 
L 361.764586 295.488 
L 362.089566 293.0688 
L 362.414545 295.488 
L 363.064505 295.488 
L 363.389484 293.0688 
L 364.039443 293.0688 
L 364.364423 295.488 
L 366.3143 295.488 
L 366.639279 293.0688 
L 367.614218 293.0688 
L 367.939197 295.488 
L 368.589156 295.488 
L 368.914136 293.0688 
L 369.239115 295.488 
L 369.564095 293.0688 
L 369.889075 295.488 
L 372.488911 295.488 
L 372.81389 293.0688 
L 373.13887 293.0688 
L 373.463849 295.488 
L 374.438788 295.488 
L 374.763767 293.0688 
L 375.088747 293.0688 
L 375.413726 295.488 
L 379.63846 295.488 
L 379.96344 293.0688 
L 380.938378 293.0688 
L 381.263358 295.488 
L 384.838133 295.488 
L 385.163112 293.0688 
L 385.488092 293.0688 
L 385.813071 295.488 
L 390.687764 295.488 
L 391.012744 293.0688 
L 391.337723 293.0688 
L 391.662703 295.488 
L 395.562457 295.488 
L 395.887437 293.0688 
L 396.212416 295.488 
L 398.162293 295.488 
L 398.162293 295.488 
" style="fill:none;stroke:#ff7f0e;stroke-linecap:square;stroke-width:1.5;"/>
   </g>
   <g id="line2d_15">
    <path clip-path="url(#pc366123a85)" d="M 74.157707 53.568 
L 76.757543 53.568 
L 77.082523 101.952 
L 77.732482 101.952 
L 78.057461 114.048 
L 78.382441 116.4672 
L 78.70742 116.4672 
L 79.0324 109.2096 
L 79.357379 109.2096 
L 79.682359 121.3056 
L 80.007338 121.3056 
L 80.332318 114.048 
L 80.657297 111.6288 
L 80.982277 111.6288 
L 81.307256 121.3056 
L 81.957215 121.3056 
L 82.282195 128.5632 
L 82.607174 130.9824 
L 82.932154 130.9824 
L 83.257133 135.8208 
L 83.582113 143.0784 
L 84.232072 143.0784 
L 84.557052 150.336 
L 84.882031 150.336 
L 85.207011 147.9168 
L 85.53199 147.9168 
L 86.181949 143.0784 
L 86.506929 143.0784 
L 86.831908 145.4976 
L 87.156888 167.2704 
L 87.481867 167.2704 
L 87.806847 147.9168 
L 88.456806 143.0784 
L 89.106765 143.0784 
L 89.431744 162.432 
L 89.756724 164.8512 
L 90.406683 164.8512 
L 91.381622 172.1088 
L 91.706601 179.3664 
L 92.35656 179.3664 
L 92.68154 169.6896 
L 93.006519 167.2704 
L 93.331499 169.6896 
L 93.656478 179.3664 
L 93.981458 179.3664 
L 94.306437 181.7856 
L 94.631417 176.9472 
L 94.956396 184.2048 
L 95.281376 176.9472 
L 95.606355 176.9472 
L 95.931335 174.528 
L 96.581294 174.528 
L 97.231253 179.3664 
L 97.556233 184.2048 
L 98.206192 174.528 
L 98.531171 174.528 
L 98.856151 191.4624 
L 99.18113 191.4624 
L 99.50611 189.0432 
L 99.831089 184.2048 
L 100.156069 184.2048 
L 100.481048 196.3008 
L 100.806028 196.3008 
L 101.131007 193.8816 
L 101.455987 189.0432 
L 101.780966 186.624 
L 102.430925 186.624 
L 102.755905 191.4624 
L 103.080885 191.4624 
L 103.405864 174.528 
L 103.730844 174.528 
L 104.055823 184.2048 
L 104.380803 186.624 
L 104.705782 184.2048 
L 105.030762 179.3664 
L 105.680721 179.3664 
L 106.0057 174.528 
L 106.33068 174.528 
L 106.655659 186.624 
L 107.305618 186.624 
L 107.630598 191.4624 
L 107.955577 193.8816 
L 108.280557 191.4624 
L 108.930516 196.3008 
L 109.255495 205.9776 
L 109.905455 189.0432 
L 110.880393 189.0432 
L 111.205373 201.1392 
L 111.855332 201.1392 
L 112.505291 184.2048 
L 114.130188 184.2048 
L 114.455168 196.3008 
L 114.780147 196.3008 
L 115.105127 198.72 
L 115.430106 191.4624 
L 116.730025 191.4624 
L 117.055004 189.0432 
L 117.379984 181.7856 
L 117.704963 181.7856 
L 118.354922 193.8816 
L 119.004881 193.8816 
L 119.329861 189.0432 
L 119.65484 189.0432 
L 119.97982 181.7856 
L 120.629779 203.5584 
L 120.954758 203.5584 
L 121.279738 196.3008 
L 122.254676 196.3008 
L 122.579656 193.8816 
L 122.904636 205.9776 
L 123.229615 193.8816 
L 123.554595 201.1392 
L 123.879574 196.3008 
L 124.204554 196.3008 
L 124.529533 191.4624 
L 124.854513 189.0432 
L 125.504472 189.0432 
L 125.829451 191.4624 
L 126.154431 189.0432 
L 126.47941 201.1392 
L 126.80439 198.72 
L 127.129369 198.72 
L 127.454349 196.3008 
L 127.779328 189.0432 
L 128.429287 189.0432 
L 128.754267 203.5584 
L 129.079247 203.5584 
L 129.404226 186.624 
L 130.054185 186.624 
L 130.379165 193.8816 
L 130.704144 196.3008 
L 131.029124 201.1392 
L 131.679083 201.1392 
L 132.004062 189.0432 
L 132.329042 184.2048 
L 132.654021 184.2048 
L 132.979001 196.3008 
L 133.30398 196.3008 
L 133.62896 210.816 
L 133.953939 205.9776 
L 134.278919 205.9776 
L 134.603898 186.624 
L 134.928878 181.7856 
L 135.578837 181.7856 
L 136.228796 196.3008 
L 136.553776 189.0432 
L 136.878755 196.3008 
L 137.203735 193.8816 
L 137.853694 193.8816 
L 138.178673 184.2048 
L 138.503653 184.2048 
L 138.828632 193.8816 
L 139.478591 193.8816 
L 139.803571 191.4624 
L 141.103489 191.4624 
L 141.753448 172.1088 
L 142.078428 172.1088 
L 142.403407 174.528 
L 143.053366 186.624 
L 143.378346 181.7856 
L 144.353284 181.7856 
L 144.678264 184.2048 
L 145.328223 184.2048 
L 145.653202 176.9472 
L 145.978182 205.9776 
L 146.303161 193.8816 
L 146.628141 210.816 
L 146.95312 198.72 
L 147.2781 198.72 
L 147.603079 191.4624 
L 149.877936 191.4624 
L 150.202916 193.8816 
L 150.527895 193.8816 
L 150.852875 191.4624 
L 151.827813 191.4624 
L 152.152793 184.2048 
L 152.802752 184.2048 
L 153.127731 179.3664 
L 153.452711 179.3664 
L 153.77769 181.7856 
L 154.10267 181.7856 
L 154.427649 186.624 
L 154.752629 189.0432 
L 155.077609 189.0432 
L 155.402588 184.2048 
L 155.727568 184.2048 
L 156.052547 186.624 
L 156.377527 186.624 
L 156.702506 181.7856 
L 157.352465 181.7856 
L 157.677445 189.0432 
L 158.002424 189.0432 
L 158.327404 203.5584 
L 159.302342 203.5584 
L 159.627322 179.3664 
L 159.952301 179.3664 
L 160.277281 201.1392 
L 160.60226 201.1392 
L 160.92724 191.4624 
L 161.902179 191.4624 
L 162.552138 203.5584 
L 162.877117 203.5584 
L 163.202097 184.2048 
L 163.852056 184.2048 
L 164.177035 186.624 
L 164.502015 186.624 
L 164.826994 184.2048 
L 165.151974 176.9472 
L 165.476953 184.2048 
L 165.801933 179.3664 
L 166.126912 184.2048 
L 166.451892 184.2048 
L 166.776871 189.0432 
L 167.101851 189.0432 
L 167.42683 191.4624 
L 167.75181 189.0432 
L 168.07679 179.3664 
L 168.401769 179.3664 
L 169.051728 191.4624 
L 169.376708 191.4624 
L 169.701687 198.72 
L 170.351646 198.72 
L 170.676626 179.3664 
L 171.001605 179.3664 
L 171.326585 186.624 
L 171.651564 186.624 
L 171.976544 184.2048 
L 172.301523 184.2048 
L 172.626503 208.3968 
L 172.951482 208.3968 
L 173.276462 184.2048 
L 174.2514 184.2048 
L 174.57638 174.528 
L 174.90136 184.2048 
L 175.226339 179.3664 
L 175.551319 184.2048 
L 176.526257 184.2048 
L 176.851237 186.624 
L 177.501196 186.624 
L 177.826175 196.3008 
L 178.151155 184.2048 
L 178.476134 181.7856 
L 179.126093 181.7856 
L 179.451073 186.624 
L 179.776052 179.3664 
L 180.426011 179.3664 
L 180.750991 176.9472 
L 181.075971 196.3008 
L 181.40095 179.3664 
L 181.72593 189.0432 
L 182.375889 189.0432 
L 182.700868 186.624 
L 183.675807 186.624 
L 184.325766 191.4624 
L 184.975725 191.4624 
L 185.300704 184.2048 
L 185.625684 181.7856 
L 185.950663 184.2048 
L 186.275643 181.7856 
L 186.600622 172.1088 
L 186.925602 172.1088 
L 187.250581 186.624 
L 187.575561 186.624 
L 187.900541 184.2048 
L 188.5505 184.2048 
L 188.875479 193.8816 
L 189.200459 193.8816 
L 189.525438 191.4624 
L 189.850418 176.9472 
L 190.175397 174.528 
L 190.500377 174.528 
L 190.825356 186.624 
L 191.150336 193.8816 
L 191.475315 186.624 
L 191.800295 193.8816 
L 194.725111 193.8816 
L 195.05009 191.4624 
L 195.37507 193.8816 
L 196.674988 193.8816 
L 196.999967 176.9472 
L 197.324947 186.624 
L 197.649926 184.2048 
L 197.974906 186.624 
L 198.299885 191.4624 
L 199.274824 191.4624 
L 199.599803 196.3008 
L 199.924783 198.72 
L 200.249762 198.72 
L 200.574742 179.3664 
L 200.899722 179.3664 
L 201.549681 196.3008 
L 201.87466 196.3008 
L 202.524619 191.4624 
L 202.849599 191.4624 
L 203.174578 196.3008 
L 203.499558 196.3008 
L 203.824537 181.7856 
L 204.149517 181.7856 
L 204.474496 184.2048 
L 205.449435 184.2048 
L 205.774414 193.8816 
L 206.099394 193.8816 
L 206.424373 191.4624 
L 206.749353 169.6896 
L 207.074333 164.8512 
L 207.399312 167.2704 
L 207.724292 167.2704 
L 208.049271 184.2048 
L 208.374251 193.8816 
L 208.69923 193.8816 
L 209.02421 172.1088 
L 209.349189 172.1088 
L 209.999148 189.0432 
L 210.324128 189.0432 
L 211.299066 196.3008 
L 211.624046 193.8816 
L 211.949025 196.3008 
L 212.274005 196.3008 
L 212.598984 203.5584 
L 213.248943 203.5584 
L 213.573923 196.3008 
L 213.898903 196.3008 
L 214.223882 205.9776 
L 214.548862 205.9776 
L 214.873841 198.72 
L 215.198821 172.1088 
L 215.5238 172.1088 
L 216.173759 196.3008 
L 216.823718 196.3008 
L 217.148698 201.1392 
L 217.473677 201.1392 
L 217.798657 181.7856 
L 218.123636 181.7856 
L 218.773595 186.624 
L 219.423554 181.7856 
L 219.748534 181.7856 
L 220.073514 193.8816 
L 220.398493 193.8816 
L 221.048452 189.0432 
L 221.373432 189.0432 
L 221.698411 186.624 
L 222.023391 169.6896 
L 222.34837 169.6896 
L 222.67335 186.624 
L 222.998329 189.0432 
L 223.323309 189.0432 
L 223.648288 184.2048 
L 223.973268 184.2048 
L 224.298247 189.0432 
L 224.623227 189.0432 
L 224.948206 186.624 
L 225.273186 174.528 
L 225.598165 186.624 
L 225.923145 186.624 
L 226.248124 208.3968 
L 226.573104 208.3968 
L 226.898084 184.2048 
L 227.223063 184.2048 
L 227.548043 179.3664 
L 227.873022 189.0432 
L 228.198002 189.0432 
L 228.847961 193.8816 
L 229.17294 191.4624 
L 229.49792 198.72 
L 230.147879 181.7856 
L 230.472858 181.7856 
L 230.797838 174.528 
L 231.122817 201.1392 
L 231.772776 201.1392 
L 232.097756 179.3664 
L 232.747715 179.3664 
L 233.397674 189.0432 
L 234.047633 193.8816 
L 234.372613 191.4624 
L 234.697592 193.8816 
L 235.022572 184.2048 
L 235.672531 184.2048 
L 235.99751 179.3664 
L 236.647469 179.3664 
L 236.972449 181.7856 
L 237.297428 181.7856 
L 237.622408 179.3664 
L 237.947387 174.528 
L 238.272367 174.528 
L 238.922326 184.2048 
L 239.247305 193.8816 
L 239.572285 184.2048 
L 239.897265 181.7856 
L 240.222244 176.9472 
L 240.547224 181.7856 
L 240.872203 184.2048 
L 241.522162 184.2048 
L 241.847142 176.9472 
L 242.497101 176.9472 
L 243.14706 186.624 
L 243.472039 203.5584 
L 243.797019 196.3008 
L 244.121998 203.5584 
L 244.446978 196.3008 
L 244.771957 203.5584 
L 245.096937 196.3008 
L 245.746896 196.3008 
L 246.071876 193.8816 
L 246.396855 193.8816 
L 246.721835 167.2704 
L 247.046814 167.2704 
L 247.371794 189.0432 
L 247.696773 191.4624 
L 248.021753 191.4624 
L 248.346732 189.0432 
L 248.671712 189.0432 
L 248.996691 186.624 
L 249.97163 186.624 
L 250.296609 191.4624 
L 251.596527 191.4624 
L 251.921507 203.5584 
L 252.246486 203.5584 
L 252.571466 201.1392 
L 252.896446 189.0432 
L 253.221425 198.72 
L 253.546405 196.3008 
L 253.871384 198.72 
L 254.196364 196.3008 
L 254.521343 201.1392 
L 255.171302 201.1392 
L 255.496282 191.4624 
L 255.821261 186.624 
L 256.146241 189.0432 
L 256.47122 181.7856 
L 257.121179 181.7856 
L 257.446159 198.72 
L 257.771138 201.1392 
L 258.096118 198.72 
L 258.421097 186.624 
L 259.071057 186.624 
L 259.396036 181.7856 
L 259.721016 181.7856 
L 260.045995 186.624 
L 260.370975 186.624 
L 260.695954 184.2048 
L 261.670893 184.2048 
L 261.995872 174.528 
L 262.645831 174.528 
L 262.970811 184.2048 
L 263.29579 184.2048 
L 263.62077 196.3008 
L 263.945749 196.3008 
L 264.270729 198.72 
L 264.595708 198.72 
L 264.920688 196.3008 
L 265.570647 196.3008 
L 265.895627 186.624 
L 266.545586 186.624 
L 266.870565 203.5584 
L 267.195545 196.3008 
L 267.845504 196.3008 
L 268.170483 191.4624 
L 268.495463 191.4624 
L 268.820442 193.8816 
L 269.145422 193.8816 
L 269.470401 201.1392 
L 269.795381 193.8816 
L 270.12036 193.8816 
L 270.44534 191.4624 
L 270.770319 186.624 
L 271.095299 191.4624 
L 271.745258 203.5584 
L 272.070238 198.72 
L 272.720197 186.624 
L 273.045176 184.2048 
L 274.020115 184.2048 
L 274.345094 176.9472 
L 274.995053 176.9472 
L 275.320033 186.624 
L 275.645012 179.3664 
L 275.969992 191.4624 
L 276.294971 198.72 
L 276.619951 198.72 
L 276.94493 172.1088 
L 277.26991 172.1088 
L 277.919869 176.9472 
L 278.569828 193.8816 
L 279.544767 193.8816 
L 279.869746 191.4624 
L 280.844685 191.4624 
L 281.169664 184.2048 
L 281.494644 181.7856 
L 282.144603 181.7856 
L 282.469582 189.0432 
L 282.794562 181.7856 
L 283.119541 189.0432 
L 283.444521 181.7856 
L 283.7695 191.4624 
L 284.09448 184.2048 
L 284.744439 184.2048 
L 285.394398 203.5584 
L 285.719378 193.8816 
L 286.044357 176.9472 
L 286.369337 176.9472 
L 286.694316 198.72 
L 287.019296 198.72 
L 287.344275 169.6896 
L 287.669255 169.6896 
L 287.994234 189.0432 
L 288.319214 189.0432 
L 288.644193 191.4624 
L 288.969173 198.72 
L 289.294152 198.72 
L 289.619132 189.0432 
L 289.944111 189.0432 
L 290.269091 201.1392 
L 290.91905 201.1392 
L 291.244029 208.3968 
L 291.569009 220.4928 
L 291.893989 220.4928 
L 292.218968 213.2352 
L 292.543948 210.816 
L 293.518886 210.816 
L 293.843866 213.2352 
L 294.818804 227.7504 
L 296.118722 227.7504 
L 296.443702 220.4928 
L 296.768681 218.0736 
L 297.093661 213.2352 
L 297.41864 218.0736 
L 297.74362 218.0736 
L 298.0686 225.3312 
L 298.718559 225.3312 
L 299.043538 235.008 
L 299.368518 239.8464 
L 300.018477 239.8464 
L 300.343456 244.6848 
L 300.668436 237.4272 
L 300.993415 254.3616 
L 301.318395 237.4272 
L 301.643374 237.4272 
L 301.968354 232.5888 
L 302.618313 232.5888 
L 302.943292 242.2656 
L 303.593251 242.2656 
L 303.918231 237.4272 
L 304.24321 237.4272 
L 304.89317 251.9424 
L 305.218149 251.9424 
L 305.868108 247.104 
L 306.193088 249.5232 
L 306.518067 242.2656 
L 306.843047 249.5232 
L 307.168026 244.6848 
L 307.493006 249.5232 
L 307.817985 244.6848 
L 309.442883 244.6848 
L 309.767862 247.104 
L 310.092842 247.104 
L 310.417821 244.6848 
L 310.742801 244.6848 
L 311.39276 249.5232 
L 311.71774 249.5232 
L 312.042719 259.2 
L 312.367699 249.5232 
L 313.017658 249.5232 
L 313.342637 251.9424 
L 313.667617 256.7808 
L 313.992596 251.9424 
L 314.317576 254.3616 
L 315.292514 254.3616 
L 315.617494 251.9424 
L 315.942473 254.3616 
L 316.267453 254.3616 
L 316.592432 261.6192 
L 316.917412 264.0384 
L 317.242391 264.0384 
L 317.567371 259.2 
L 318.867289 259.2 
L 319.192269 256.7808 
L 319.517248 251.9424 
L 319.842228 251.9424 
L 320.492187 264.0384 
L 322.117084 264.0384 
L 322.442064 249.5232 
L 322.767043 264.0384 
L 323.417002 264.0384 
L 323.741982 268.8768 
L 324.066962 251.9424 
L 324.391941 268.8768 
L 324.716921 256.7808 
L 325.0419 266.4576 
L 325.36688 259.2 
L 325.691859 266.4576 
L 326.016839 261.6192 
L 326.666798 261.6192 
L 326.991777 256.7808 
L 327.316757 256.7808 
L 327.641736 251.9424 
L 327.966716 251.9424 
L 328.291695 249.5232 
L 329.266634 264.0384 
L 329.916593 264.0384 
L 330.241572 256.7808 
L 330.566552 256.7808 
L 330.891532 273.7152 
L 331.541491 273.7152 
L 331.86647 264.0384 
L 332.841409 264.0384 
L 333.166388 271.296 
L 333.491368 273.7152 
L 333.816347 271.296 
L 334.141327 271.296 
L 334.466306 266.4576 
L 334.791286 271.296 
L 335.116265 266.4576 
L 335.441245 266.4576 
L 335.766224 259.2 
L 336.091204 256.7808 
L 336.416183 256.7808 
L 337.066143 273.7152 
L 337.391122 273.7152 
L 337.716102 264.0384 
L 338.041081 264.0384 
L 338.366061 261.6192 
L 338.69104 278.5536 
L 339.01602 273.7152 
L 339.340999 273.7152 
L 339.665979 266.4576 
L 339.990958 266.4576 
L 340.315938 264.0384 
L 340.640917 276.1344 
L 340.965897 273.7152 
L 342.265815 273.7152 
L 342.915774 268.8768 
L 343.240753 268.8768 
L 343.565733 266.4576 
L 344.215692 266.4576 
L 344.540672 268.8768 
L 344.865651 276.1344 
L 345.51561 276.1344 
L 345.84059 273.7152 
L 346.490549 273.7152 
L 346.815528 268.8768 
L 347.465487 268.8768 
L 347.790467 280.9728 
L 348.115446 273.7152 
L 348.765405 273.7152 
L 349.090385 271.296 
L 349.415364 273.7152 
L 349.740344 278.5536 
L 350.065324 278.5536 
L 350.390303 280.9728 
L 351.040262 268.8768 
L 351.365242 268.8768 
L 351.690221 264.0384 
L 352.015201 273.7152 
L 352.34018 261.6192 
L 352.66516 271.296 
L 353.315119 271.296 
L 353.640098 273.7152 
L 353.965078 271.296 
L 354.290057 273.7152 
L 354.615037 271.296 
L 355.264996 276.1344 
L 355.914955 276.1344 
L 356.239934 278.5536 
L 356.564914 273.7152 
L 356.889894 276.1344 
L 357.539853 276.1344 
L 357.864832 271.296 
L 358.514791 271.296 
L 358.839771 280.9728 
L 359.16475 285.8112 
L 359.48973 280.9728 
L 359.814709 280.9728 
L 360.139689 278.5536 
L 360.464668 271.296 
L 361.114627 283.392 
L 361.764586 283.392 
L 362.089566 278.5536 
L 362.414545 283.392 
L 362.739525 276.1344 
L 363.064505 273.7152 
L 363.389484 273.7152 
L 363.714464 278.5536 
L 364.039443 278.5536 
L 364.364423 273.7152 
L 364.689402 273.7152 
L 365.014382 278.5536 
L 365.664341 283.392 
L 365.98932 283.392 
L 366.3143 288.2304 
L 366.639279 288.2304 
L 366.964259 278.5536 
L 367.289238 276.1344 
L 369.564095 276.1344 
L 369.889075 273.7152 
L 370.214054 278.5536 
L 370.539034 280.9728 
L 370.864013 280.9728 
L 371.188993 276.1344 
L 371.513972 276.1344 
L 371.838952 278.5536 
L 372.163931 278.5536 
L 372.488911 283.392 
L 372.81389 285.8112 
L 373.13887 283.392 
L 373.463849 285.8112 
L 374.113808 285.8112 
L 374.438788 278.5536 
L 375.088747 278.5536 
L 375.413726 283.392 
L 375.738706 278.5536 
L 376.063686 283.392 
L 376.388665 280.9728 
L 377.038624 280.9728 
L 377.363604 283.392 
L 378.013563 283.392 
L 378.663522 278.5536 
L 378.988501 280.9728 
L 379.313481 278.5536 
L 380.288419 285.8112 
L 380.613399 285.8112 
L 380.938378 280.9728 
L 382.563276 280.9728 
L 382.888256 278.5536 
L 383.213235 283.392 
L 383.538215 285.8112 
L 385.163112 285.8112 
L 385.488092 280.9728 
L 385.813071 280.9728 
L 386.138051 285.8112 
L 386.46303 285.8112 
L 386.78801 280.9728 
L 387.112989 273.7152 
L 387.437969 271.296 
L 387.762948 271.296 
L 388.087928 283.392 
L 388.412907 288.2304 
L 389.062867 288.2304 
L 389.387846 283.392 
L 389.712826 283.392 
L 390.037805 288.2304 
L 390.362785 288.2304 
L 391.012744 283.392 
L 391.662703 283.392 
L 391.987682 285.8112 
L 393.61258 285.8112 
L 393.937559 288.2304 
L 394.912498 288.2304 
L 395.237477 283.392 
L 395.887437 283.392 
L 396.212416 285.8112 
L 396.862375 285.8112 
L 397.187355 288.2304 
L 397.512334 288.2304 
L 397.837314 285.8112 
L 398.162293 285.8112 
L 398.162293 285.8112 
" style="fill:none;stroke:#2ca02c;stroke-linecap:square;stroke-width:1.5;"/>
   </g>
   <g id="patch_3">
    <path d="M 57.6 307.584 
L 57.6 41.472 
" style="fill:none;stroke:#000000;stroke-linecap:square;stroke-linejoin:miter;stroke-width:0.8;"/>
   </g>
   <g id="patch_4">
    <path d="M 414.72 307.584 
L 414.72 41.472 
" style="fill:none;stroke:#000000;stroke-linecap:square;stroke-linejoin:miter;stroke-width:0.8;"/>
   </g>
   <g id="patch_5">
    <path d="M 57.6 307.584 
L 414.72 307.584 
" style="fill:none;stroke:#000000;stroke-linecap:square;stroke-linejoin:miter;stroke-width:0.8;"/>
   </g>
   <g id="patch_6">
    <path d="M 57.6 41.472 
L 414.72 41.472 
" style="fill:none;stroke:#000000;stroke-linecap:square;stroke-linejoin:miter;stroke-width:0.8;"/>
   </g>
   <g id="legend_1">
    <g id="patch_7">
     <path d="M 163.549687 93.506375 
L 407.72 93.506375 
Q 409.72 93.506375 409.72 91.506375 
L 409.72 48.472 
Q 409.72 46.472 407.72 46.472 
L 163.549687 46.472 
Q 161.549687 46.472 161.549687 48.472 
L 161.549687 91.506375 
Q 161.549687 93.506375 163.549687 93.506375 
z
" style="fill:#ffffff;opacity:0.8;stroke:#cccccc;stroke-linejoin:miter;"/>
    </g>
    <g id="line2d_16">
     <path d="M 165.549687 54.570438 
L 185.549687 54.570438 
" style="fill:none;stroke:#1f77b4;stroke-linecap:square;stroke-width:1.5;"/>
    </g>
    <g id="line2d_17"/>
    <g id="text_13">
     <!-- The target acceptance rate -->
     <g transform="translate(193.549687 58.070438)scale(0.1 -0.1)">
      <defs>
       <path d="M -0.296875 72.90625 
L 61.375 72.90625 
L 61.375 64.59375 
L 35.5 64.59375 
L 35.5 0 
L 25.59375 0 
L 25.59375 64.59375 
L -0.296875 64.59375 
z
" id="DejaVuSans-84"/>
       <path d="M 54.890625 33.015625 
L 54.890625 0 
L 45.90625 0 
L 45.90625 32.71875 
Q 45.90625 40.484375 42.875 44.328125 
Q 39.84375 48.1875 33.796875 48.1875 
Q 26.515625 48.1875 22.3125 43.546875 
Q 18.109375 38.921875 18.109375 30.90625 
L 18.109375 0 
L 9.078125 0 
L 9.078125 75.984375 
L 18.109375 75.984375 
L 18.109375 46.1875 
Q 21.34375 51.125 25.703125 53.5625 
Q 30.078125 56 35.796875 56 
Q 45.21875 56 50.046875 50.171875 
Q 54.890625 44.34375 54.890625 33.015625 
z
" id="DejaVuSans-104"/>
       <path d="M 56.203125 29.59375 
L 56.203125 25.203125 
L 14.890625 25.203125 
Q 15.484375 15.921875 20.484375 11.0625 
Q 25.484375 6.203125 34.421875 6.203125 
Q 39.59375 6.203125 44.453125 7.46875 
Q 49.3125 8.734375 54.109375 11.28125 
L 54.109375 2.78125 
Q 49.265625 0.734375 44.1875 -0.34375 
Q 39.109375 -1.421875 33.890625 -1.421875 
Q 20.796875 -1.421875 13.15625 6.1875 
Q 5.515625 13.8125 5.515625 26.8125 
Q 5.515625 40.234375 12.765625 48.109375 
Q 20.015625 56 32.328125 56 
Q 43.359375 56 49.78125 48.890625 
Q 56.203125 41.796875 56.203125 29.59375 
z
M 47.21875 32.234375 
Q 47.125 39.59375 43.09375 43.984375 
Q 39.0625 48.390625 32.421875 48.390625 
Q 24.90625 48.390625 20.390625 44.140625 
Q 15.875 39.890625 15.1875 32.171875 
z
" id="DejaVuSans-101"/>
       <path id="DejaVuSans-32"/>
       <path d="M 18.3125 70.21875 
L 18.3125 54.6875 
L 36.8125 54.6875 
L 36.8125 47.703125 
L 18.3125 47.703125 
L 18.3125 18.015625 
Q 18.3125 11.328125 20.140625 9.421875 
Q 21.96875 7.515625 27.59375 7.515625 
L 36.8125 7.515625 
L 36.8125 0 
L 27.59375 0 
Q 17.1875 0 13.234375 3.875 
Q 9.28125 7.765625 9.28125 18.015625 
L 9.28125 47.703125 
L 2.6875 47.703125 
L 2.6875 54.6875 
L 9.28125 54.6875 
L 9.28125 70.21875 
z
" id="DejaVuSans-116"/>
       <path d="M 34.28125 27.484375 
Q 23.390625 27.484375 19.1875 25 
Q 14.984375 22.515625 14.984375 16.5 
Q 14.984375 11.71875 18.140625 8.90625 
Q 21.296875 6.109375 26.703125 6.109375 
Q 34.1875 6.109375 38.703125 11.40625 
Q 43.21875 16.703125 43.21875 25.484375 
L 43.21875 27.484375 
z
M 52.203125 31.203125 
L 52.203125 0 
L 43.21875 0 
L 43.21875 8.296875 
Q 40.140625 3.328125 35.546875 0.953125 
Q 30.953125 -1.421875 24.3125 -1.421875 
Q 15.921875 -1.421875 10.953125 3.296875 
Q 6 8.015625 6 15.921875 
Q 6 25.140625 12.171875 29.828125 
Q 18.359375 34.515625 30.609375 34.515625 
L 43.21875 34.515625 
L 43.21875 35.40625 
Q 43.21875 41.609375 39.140625 45 
Q 35.0625 48.390625 27.6875 48.390625 
Q 23 48.390625 18.546875 47.265625 
Q 14.109375 46.140625 10.015625 43.890625 
L 10.015625 52.203125 
Q 14.9375 54.109375 19.578125 55.046875 
Q 24.21875 56 28.609375 56 
Q 40.484375 56 46.34375 49.84375 
Q 52.203125 43.703125 52.203125 31.203125 
z
" id="DejaVuSans-97"/>
       <path d="M 41.109375 46.296875 
Q 39.59375 47.171875 37.8125 47.578125 
Q 36.03125 48 33.890625 48 
Q 26.265625 48 22.1875 43.046875 
Q 18.109375 38.09375 18.109375 28.8125 
L 18.109375 0 
L 9.078125 0 
L 9.078125 54.6875 
L 18.109375 54.6875 
L 18.109375 46.1875 
Q 20.953125 51.171875 25.484375 53.578125 
Q 30.03125 56 36.53125 56 
Q 37.453125 56 38.578125 55.875 
Q 39.703125 55.765625 41.0625 55.515625 
z
" id="DejaVuSans-114"/>
       <path d="M 45.40625 27.984375 
Q 45.40625 37.75 41.375 43.109375 
Q 37.359375 48.484375 30.078125 48.484375 
Q 22.859375 48.484375 18.828125 43.109375 
Q 14.796875 37.75 14.796875 27.984375 
Q 14.796875 18.265625 18.828125 12.890625 
Q 22.859375 7.515625 30.078125 7.515625 
Q 37.359375 7.515625 41.375 12.890625 
Q 45.40625 18.265625 45.40625 27.984375 
z
M 54.390625 6.78125 
Q 54.390625 -7.171875 48.1875 -13.984375 
Q 42 -20.796875 29.203125 -20.796875 
Q 24.46875 -20.796875 20.265625 -20.09375 
Q 16.0625 -19.390625 12.109375 -17.921875 
L 12.109375 -9.1875 
Q 16.0625 -11.328125 19.921875 -12.34375 
Q 23.78125 -13.375 27.78125 -13.375 
Q 36.625 -13.375 41.015625 -8.765625 
Q 45.40625 -4.15625 45.40625 5.171875 
L 45.40625 9.625 
Q 42.625 4.78125 38.28125 2.390625 
Q 33.9375 0 27.875 0 
Q 17.828125 0 11.671875 7.65625 
Q 5.515625 15.328125 5.515625 27.984375 
Q 5.515625 40.671875 11.671875 48.328125 
Q 17.828125 56 27.875 56 
Q 33.9375 56 38.28125 53.609375 
Q 42.625 51.21875 45.40625 46.390625 
L 45.40625 54.6875 
L 54.390625 54.6875 
z
" id="DejaVuSans-103"/>
       <path d="M 48.78125 52.59375 
L 48.78125 44.1875 
Q 44.96875 46.296875 41.140625 47.34375 
Q 37.3125 48.390625 33.40625 48.390625 
Q 24.65625 48.390625 19.8125 42.84375 
Q 14.984375 37.3125 14.984375 27.296875 
Q 14.984375 17.28125 19.8125 11.734375 
Q 24.65625 6.203125 33.40625 6.203125 
Q 37.3125 6.203125 41.140625 7.25 
Q 44.96875 8.296875 48.78125 10.40625 
L 48.78125 2.09375 
Q 45.015625 0.34375 40.984375 -0.53125 
Q 36.96875 -1.421875 32.421875 -1.421875 
Q 20.0625 -1.421875 12.78125 6.34375 
Q 5.515625 14.109375 5.515625 27.296875 
Q 5.515625 40.671875 12.859375 48.328125 
Q 20.21875 56 33.015625 56 
Q 37.15625 56 41.109375 55.140625 
Q 45.0625 54.296875 48.78125 52.59375 
z
" id="DejaVuSans-99"/>
       <path d="M 18.109375 8.203125 
L 18.109375 -20.796875 
L 9.078125 -20.796875 
L 9.078125 54.6875 
L 18.109375 54.6875 
L 18.109375 46.390625 
Q 20.953125 51.265625 25.265625 53.625 
Q 29.59375 56 35.59375 56 
Q 45.5625 56 51.78125 48.09375 
Q 58.015625 40.1875 58.015625 27.296875 
Q 58.015625 14.40625 51.78125 6.484375 
Q 45.5625 -1.421875 35.59375 -1.421875 
Q 29.59375 -1.421875 25.265625 0.953125 
Q 20.953125 3.328125 18.109375 8.203125 
z
M 48.6875 27.296875 
Q 48.6875 37.203125 44.609375 42.84375 
Q 40.53125 48.484375 33.40625 48.484375 
Q 26.265625 48.484375 22.1875 42.84375 
Q 18.109375 37.203125 18.109375 27.296875 
Q 18.109375 17.390625 22.1875 11.75 
Q 26.265625 6.109375 33.40625 6.109375 
Q 40.53125 6.109375 44.609375 11.75 
Q 48.6875 17.390625 48.6875 27.296875 
z
" id="DejaVuSans-112"/>
       <path d="M 54.890625 33.015625 
L 54.890625 0 
L 45.90625 0 
L 45.90625 32.71875 
Q 45.90625 40.484375 42.875 44.328125 
Q 39.84375 48.1875 33.796875 48.1875 
Q 26.515625 48.1875 22.3125 43.546875 
Q 18.109375 38.921875 18.109375 30.90625 
L 18.109375 0 
L 9.078125 0 
L 9.078125 54.6875 
L 18.109375 54.6875 
L 18.109375 46.1875 
Q 21.34375 51.125 25.703125 53.5625 
Q 30.078125 56 35.796875 56 
Q 45.21875 56 50.046875 50.171875 
Q 54.890625 44.34375 54.890625 33.015625 
z
" id="DejaVuSans-110"/>
      </defs>
      <use xlink:href="#DejaVuSans-84"/>
      <use x="61.083984" xlink:href="#DejaVuSans-104"/>
      <use x="124.462891" xlink:href="#DejaVuSans-101"/>
      <use x="185.986328" xlink:href="#DejaVuSans-32"/>
      <use x="217.773438" xlink:href="#DejaVuSans-116"/>
      <use x="256.982422" xlink:href="#DejaVuSans-97"/>
      <use x="318.261719" xlink:href="#DejaVuSans-114"/>
      <use x="357.625" xlink:href="#DejaVuSans-103"/>
      <use x="421.101562" xlink:href="#DejaVuSans-101"/>
      <use x="482.625" xlink:href="#DejaVuSans-116"/>
      <use x="521.833984" xlink:href="#DejaVuSans-32"/>
      <use x="553.621094" xlink:href="#DejaVuSans-97"/>
      <use x="614.900391" xlink:href="#DejaVuSans-99"/>
      <use x="669.880859" xlink:href="#DejaVuSans-99"/>
      <use x="724.861328" xlink:href="#DejaVuSans-101"/>
      <use x="786.384766" xlink:href="#DejaVuSans-112"/>
      <use x="849.861328" xlink:href="#DejaVuSans-116"/>
      <use x="889.070312" xlink:href="#DejaVuSans-97"/>
      <use x="950.349609" xlink:href="#DejaVuSans-110"/>
      <use x="1013.728516" xlink:href="#DejaVuSans-99"/>
      <use x="1068.708984" xlink:href="#DejaVuSans-101"/>
      <use x="1130.232422" xlink:href="#DejaVuSans-32"/>
      <use x="1162.019531" xlink:href="#DejaVuSans-114"/>
      <use x="1203.132812" xlink:href="#DejaVuSans-97"/>
      <use x="1264.412109" xlink:href="#DejaVuSans-116"/>
      <use x="1303.621094" xlink:href="#DejaVuSans-101"/>
     </g>
    </g>
    <g id="line2d_18">
     <path d="M 165.549687 69.248563 
L 185.549687 69.248563 
" style="fill:none;stroke:#ff7f0e;stroke-linecap:square;stroke-width:1.5;"/>
    </g>
    <g id="line2d_19"/>
    <g id="text_14">
     <!-- Modified Lam observed acceptance rate -->
     <g transform="translate(193.549687 72.748563)scale(0.1 -0.1)">
      <defs>
       <path d="M 9.8125 72.90625 
L 24.515625 72.90625 
L 43.109375 23.296875 
L 61.8125 72.90625 
L 76.515625 72.90625 
L 76.515625 0 
L 66.890625 0 
L 66.890625 64.015625 
L 48.09375 14.015625 
L 38.1875 14.015625 
L 19.390625 64.015625 
L 19.390625 0 
L 9.8125 0 
z
" id="DejaVuSans-77"/>
       <path d="M 30.609375 48.390625 
Q 23.390625 48.390625 19.1875 42.75 
Q 14.984375 37.109375 14.984375 27.296875 
Q 14.984375 17.484375 19.15625 11.84375 
Q 23.34375 6.203125 30.609375 6.203125 
Q 37.796875 6.203125 41.984375 11.859375 
Q 46.1875 17.53125 46.1875 27.296875 
Q 46.1875 37.015625 41.984375 42.703125 
Q 37.796875 48.390625 30.609375 48.390625 
z
M 30.609375 56 
Q 42.328125 56 49.015625 48.375 
Q 55.71875 40.765625 55.71875 27.296875 
Q 55.71875 13.875 49.015625 6.21875 
Q 42.328125 -1.421875 30.609375 -1.421875 
Q 18.84375 -1.421875 12.171875 6.21875 
Q 5.515625 13.875 5.515625 27.296875 
Q 5.515625 40.765625 12.171875 48.375 
Q 18.84375 56 30.609375 56 
z
" id="DejaVuSans-111"/>
       <path d="M 45.40625 46.390625 
L 45.40625 75.984375 
L 54.390625 75.984375 
L 54.390625 0 
L 45.40625 0 
L 45.40625 8.203125 
Q 42.578125 3.328125 38.25 0.953125 
Q 33.9375 -1.421875 27.875 -1.421875 
Q 17.96875 -1.421875 11.734375 6.484375 
Q 5.515625 14.40625 5.515625 27.296875 
Q 5.515625 40.1875 11.734375 48.09375 
Q 17.96875 56 27.875 56 
Q 33.9375 56 38.25 53.625 
Q 42.578125 51.265625 45.40625 46.390625 
z
M 14.796875 27.296875 
Q 14.796875 17.390625 18.875 11.75 
Q 22.953125 6.109375 30.078125 6.109375 
Q 37.203125 6.109375 41.296875 11.75 
Q 45.40625 17.390625 45.40625 27.296875 
Q 45.40625 37.203125 41.296875 42.84375 
Q 37.203125 48.484375 30.078125 48.484375 
Q 22.953125 48.484375 18.875 42.84375 
Q 14.796875 37.203125 14.796875 27.296875 
z
" id="DejaVuSans-100"/>
       <path d="M 9.421875 54.6875 
L 18.40625 54.6875 
L 18.40625 0 
L 9.421875 0 
z
M 9.421875 75.984375 
L 18.40625 75.984375 
L 18.40625 64.59375 
L 9.421875 64.59375 
z
" id="DejaVuSans-105"/>
       <path d="M 37.109375 75.984375 
L 37.109375 68.5 
L 28.515625 68.5 
Q 23.6875 68.5 21.796875 66.546875 
Q 19.921875 64.59375 19.921875 59.515625 
L 19.921875 54.6875 
L 34.71875 54.6875 
L 34.71875 47.703125 
L 19.921875 47.703125 
L 19.921875 0 
L 10.890625 0 
L 10.890625 47.703125 
L 2.296875 47.703125 
L 2.296875 54.6875 
L 10.890625 54.6875 
L 10.890625 58.5 
Q 10.890625 67.625 15.140625 71.796875 
Q 19.390625 75.984375 28.609375 75.984375 
z
" id="DejaVuSans-102"/>
       <path d="M 9.8125 72.90625 
L 19.671875 72.90625 
L 19.671875 8.296875 
L 55.171875 8.296875 
L 55.171875 0 
L 9.8125 0 
z
" id="DejaVuSans-76"/>
       <path d="M 52 44.1875 
Q 55.375 50.25 60.0625 53.125 
Q 64.75 56 71.09375 56 
Q 79.640625 56 84.28125 50.015625 
Q 88.921875 44.046875 88.921875 33.015625 
L 88.921875 0 
L 79.890625 0 
L 79.890625 32.71875 
Q 79.890625 40.578125 77.09375 44.375 
Q 74.3125 48.1875 68.609375 48.1875 
Q 61.625 48.1875 57.5625 43.546875 
Q 53.515625 38.921875 53.515625 30.90625 
L 53.515625 0 
L 44.484375 0 
L 44.484375 32.71875 
Q 44.484375 40.625 41.703125 44.40625 
Q 38.921875 48.1875 33.109375 48.1875 
Q 26.21875 48.1875 22.15625 43.53125 
Q 18.109375 38.875 18.109375 30.90625 
L 18.109375 0 
L 9.078125 0 
L 9.078125 54.6875 
L 18.109375 54.6875 
L 18.109375 46.1875 
Q 21.1875 51.21875 25.484375 53.609375 
Q 29.78125 56 35.6875 56 
Q 41.65625 56 45.828125 52.96875 
Q 50 49.953125 52 44.1875 
z
" id="DejaVuSans-109"/>
       <path d="M 48.6875 27.296875 
Q 48.6875 37.203125 44.609375 42.84375 
Q 40.53125 48.484375 33.40625 48.484375 
Q 26.265625 48.484375 22.1875 42.84375 
Q 18.109375 37.203125 18.109375 27.296875 
Q 18.109375 17.390625 22.1875 11.75 
Q 26.265625 6.109375 33.40625 6.109375 
Q 40.53125 6.109375 44.609375 11.75 
Q 48.6875 17.390625 48.6875 27.296875 
z
M 18.109375 46.390625 
Q 20.953125 51.265625 25.265625 53.625 
Q 29.59375 56 35.59375 56 
Q 45.5625 56 51.78125 48.09375 
Q 58.015625 40.1875 58.015625 27.296875 
Q 58.015625 14.40625 51.78125 6.484375 
Q 45.5625 -1.421875 35.59375 -1.421875 
Q 29.59375 -1.421875 25.265625 0.953125 
Q 20.953125 3.328125 18.109375 8.203125 
L 18.109375 0 
L 9.078125 0 
L 9.078125 75.984375 
L 18.109375 75.984375 
z
" id="DejaVuSans-98"/>
       <path d="M 44.28125 53.078125 
L 44.28125 44.578125 
Q 40.484375 46.53125 36.375 47.5 
Q 32.28125 48.484375 27.875 48.484375 
Q 21.1875 48.484375 17.84375 46.4375 
Q 14.5 44.390625 14.5 40.28125 
Q 14.5 37.15625 16.890625 35.375 
Q 19.28125 33.59375 26.515625 31.984375 
L 29.59375 31.296875 
Q 39.15625 29.25 43.1875 25.515625 
Q 47.21875 21.78125 47.21875 15.09375 
Q 47.21875 7.46875 41.1875 3.015625 
Q 35.15625 -1.421875 24.609375 -1.421875 
Q 20.21875 -1.421875 15.453125 -0.5625 
Q 10.6875 0.296875 5.421875 2 
L 5.421875 11.28125 
Q 10.40625 8.6875 15.234375 7.390625 
Q 20.0625 6.109375 24.8125 6.109375 
Q 31.15625 6.109375 34.5625 8.28125 
Q 37.984375 10.453125 37.984375 14.40625 
Q 37.984375 18.0625 35.515625 20.015625 
Q 33.0625 21.96875 24.703125 23.78125 
L 21.578125 24.515625 
Q 13.234375 26.265625 9.515625 29.90625 
Q 5.8125 33.546875 5.8125 39.890625 
Q 5.8125 47.609375 11.28125 51.796875 
Q 16.75 56 26.8125 56 
Q 31.78125 56 36.171875 55.265625 
Q 40.578125 54.546875 44.28125 53.078125 
z
" id="DejaVuSans-115"/>
       <path d="M 2.984375 54.6875 
L 12.5 54.6875 
L 29.59375 8.796875 
L 46.6875 54.6875 
L 56.203125 54.6875 
L 35.6875 0 
L 23.484375 0 
z
" id="DejaVuSans-118"/>
      </defs>
      <use xlink:href="#DejaVuSans-77"/>
      <use x="86.279297" xlink:href="#DejaVuSans-111"/>
      <use x="147.460938" xlink:href="#DejaVuSans-100"/>
      <use x="210.9375" xlink:href="#DejaVuSans-105"/>
      <use x="238.720703" xlink:href="#DejaVuSans-102"/>
      <use x="273.925781" xlink:href="#DejaVuSans-105"/>
      <use x="301.708984" xlink:href="#DejaVuSans-101"/>
      <use x="363.232422" xlink:href="#DejaVuSans-100"/>
      <use x="426.708984" xlink:href="#DejaVuSans-32"/>
      <use x="458.496094" xlink:href="#DejaVuSans-76"/>
      <use x="514.208984" xlink:href="#DejaVuSans-97"/>
      <use x="575.488281" xlink:href="#DejaVuSans-109"/>
      <use x="672.900391" xlink:href="#DejaVuSans-32"/>
      <use x="704.6875" xlink:href="#DejaVuSans-111"/>
      <use x="765.869141" xlink:href="#DejaVuSans-98"/>
      <use x="829.345703" xlink:href="#DejaVuSans-115"/>
      <use x="881.445312" xlink:href="#DejaVuSans-101"/>
      <use x="942.96875" xlink:href="#DejaVuSans-114"/>
      <use x="984.082031" xlink:href="#DejaVuSans-118"/>
      <use x="1043.261719" xlink:href="#DejaVuSans-101"/>
      <use x="1104.785156" xlink:href="#DejaVuSans-100"/>
      <use x="1168.261719" xlink:href="#DejaVuSans-32"/>
      <use x="1200.048828" xlink:href="#DejaVuSans-97"/>
      <use x="1261.328125" xlink:href="#DejaVuSans-99"/>
      <use x="1316.308594" xlink:href="#DejaVuSans-99"/>
      <use x="1371.289062" xlink:href="#DejaVuSans-101"/>
      <use x="1432.8125" xlink:href="#DejaVuSans-112"/>
      <use x="1496.289062" xlink:href="#DejaVuSans-116"/>
      <use x="1535.498047" xlink:href="#DejaVuSans-97"/>
      <use x="1596.777344" xlink:href="#DejaVuSans-110"/>
      <use x="1660.15625" xlink:href="#DejaVuSans-99"/>
      <use x="1715.136719" xlink:href="#DejaVuSans-101"/>
      <use x="1776.660156" xlink:href="#DejaVuSans-32"/>
      <use x="1808.447266" xlink:href="#DejaVuSans-114"/>
      <use x="1849.560547" xlink:href="#DejaVuSans-97"/>
      <use x="1910.839844" xlink:href="#DejaVuSans-116"/>
      <use x="1950.048828" xlink:href="#DejaVuSans-101"/>
     </g>
    </g>
    <g id="line2d_20">
     <path d="M 165.549687 83.926688 
L 185.549687 83.926688 
" style="fill:none;stroke:#2ca02c;stroke-linecap:square;stroke-width:1.5;"/>
    </g>
    <g id="line2d_21"/>
    <g id="text_15">
     <!-- Self-Tuning Lam observed acceptance rate -->
     <g transform="translate(193.549687 87.426688)scale(0.1 -0.1)">
      <defs>
       <path d="M 53.515625 70.515625 
L 53.515625 60.890625 
Q 47.90625 63.578125 42.921875 64.890625 
Q 37.9375 66.21875 33.296875 66.21875 
Q 25.25 66.21875 20.875 63.09375 
Q 16.5 59.96875 16.5 54.203125 
Q 16.5 49.359375 19.40625 46.890625 
Q 22.3125 44.4375 30.421875 42.921875 
L 36.375 41.703125 
Q 47.40625 39.59375 52.65625 34.296875 
Q 57.90625 29 57.90625 20.125 
Q 57.90625 9.515625 50.796875 4.046875 
Q 43.703125 -1.421875 29.984375 -1.421875 
Q 24.8125 -1.421875 18.96875 -0.25 
Q 13.140625 0.921875 6.890625 3.21875 
L 6.890625 13.375 
Q 12.890625 10.015625 18.65625 8.296875 
Q 24.421875 6.59375 29.984375 6.59375 
Q 38.421875 6.59375 43.015625 9.90625 
Q 47.609375 13.234375 47.609375 19.390625 
Q 47.609375 24.75 44.3125 27.78125 
Q 41.015625 30.8125 33.5 32.328125 
L 27.484375 33.5 
Q 16.453125 35.6875 11.515625 40.375 
Q 6.59375 45.0625 6.59375 53.421875 
Q 6.59375 63.09375 13.40625 68.65625 
Q 20.21875 74.21875 32.171875 74.21875 
Q 37.3125 74.21875 42.625 73.28125 
Q 47.953125 72.359375 53.515625 70.515625 
z
" id="DejaVuSans-83"/>
       <path d="M 9.421875 75.984375 
L 18.40625 75.984375 
L 18.40625 0 
L 9.421875 0 
z
" id="DejaVuSans-108"/>
       <path d="M 4.890625 31.390625 
L 31.203125 31.390625 
L 31.203125 23.390625 
L 4.890625 23.390625 
z
" id="DejaVuSans-45"/>
       <path d="M 8.5 21.578125 
L 8.5 54.6875 
L 17.484375 54.6875 
L 17.484375 21.921875 
Q 17.484375 14.15625 20.5 10.265625 
Q 23.53125 6.390625 29.59375 6.390625 
Q 36.859375 6.390625 41.078125 11.03125 
Q 45.3125 15.671875 45.3125 23.6875 
L 45.3125 54.6875 
L 54.296875 54.6875 
L 54.296875 0 
L 45.3125 0 
L 45.3125 8.40625 
Q 42.046875 3.421875 37.71875 1 
Q 33.40625 -1.421875 27.6875 -1.421875 
Q 18.265625 -1.421875 13.375 4.4375 
Q 8.5 10.296875 8.5 21.578125 
z
M 31.109375 56 
z
" id="DejaVuSans-117"/>
      </defs>
      <use xlink:href="#DejaVuSans-83"/>
      <use x="63.476562" xlink:href="#DejaVuSans-101"/>
      <use x="125" xlink:href="#DejaVuSans-108"/>
      <use x="152.783203" xlink:href="#DejaVuSans-102"/>
      <use x="182.488281" xlink:href="#DejaVuSans-45"/>
      <use x="209.447266" xlink:href="#DejaVuSans-84"/>
      <use x="255.40625" xlink:href="#DejaVuSans-117"/>
      <use x="318.785156" xlink:href="#DejaVuSans-110"/>
      <use x="382.164062" xlink:href="#DejaVuSans-105"/>
      <use x="409.947266" xlink:href="#DejaVuSans-110"/>
      <use x="473.326172" xlink:href="#DejaVuSans-103"/>
      <use x="536.802734" xlink:href="#DejaVuSans-32"/>
      <use x="568.589844" xlink:href="#DejaVuSans-76"/>
      <use x="624.302734" xlink:href="#DejaVuSans-97"/>
      <use x="685.582031" xlink:href="#DejaVuSans-109"/>
      <use x="782.994141" xlink:href="#DejaVuSans-32"/>
      <use x="814.78125" xlink:href="#DejaVuSans-111"/>
      <use x="875.962891" xlink:href="#DejaVuSans-98"/>
      <use x="939.439453" xlink:href="#DejaVuSans-115"/>
      <use x="991.539062" xlink:href="#DejaVuSans-101"/>
      <use x="1053.0625" xlink:href="#DejaVuSans-114"/>
      <use x="1094.175781" xlink:href="#DejaVuSans-118"/>
      <use x="1153.355469" xlink:href="#DejaVuSans-101"/>
      <use x="1214.878906" xlink:href="#DejaVuSans-100"/>
      <use x="1278.355469" xlink:href="#DejaVuSans-32"/>
      <use x="1310.142578" xlink:href="#DejaVuSans-97"/>
      <use x="1371.421875" xlink:href="#DejaVuSans-99"/>
      <use x="1426.402344" xlink:href="#DejaVuSans-99"/>
      <use x="1481.382812" xlink:href="#DejaVuSans-101"/>
      <use x="1542.90625" xlink:href="#DejaVuSans-112"/>
      <use x="1606.382812" xlink:href="#DejaVuSans-116"/>
      <use x="1645.591797" xlink:href="#DejaVuSans-97"/>
      <use x="1706.871094" xlink:href="#DejaVuSans-110"/>
      <use x="1770.25" xlink:href="#DejaVuSans-99"/>
      <use x="1825.230469" xlink:href="#DejaVuSans-101"/>
      <use x="1886.753906" xlink:href="#DejaVuSans-32"/>
      <use x="1918.541016" xlink:href="#DejaVuSans-114"/>
      <use x="1959.654297" xlink:href="#DejaVuSans-97"/>
      <use x="2020.933594" xlink:href="#DejaVuSans-116"/>
      <use x="2060.142578" xlink:href="#DejaVuSans-101"/>
     </g>
    </g>
   </g>
  </g>
 </g>
 <defs>
  <clipPath id="pc366123a85">
   <rect height="266.112" width="357.12" x="57.6" y="41.472"/>
  </clipPath>
 </defs>
</svg>
