<?xml version="1.0" encoding="utf-8" standalone="no"?>
<!DOCTYPE svg PUBLIC "-//W3C//DTD SVG 1.1//EN"
  "http://www.w3.org/Graphics/SVG/1.1/DTD/svg11.dtd">
<!-- Created with matplotlib (https://matplotlib.org/) -->
<svg height="345.6pt" version="1.1" viewBox="0 0 460.8 345.6" width="460.8pt" xmlns="http://www.w3.org/2000/svg" xmlns:xlink="http://www.w3.org/1999/xlink">
 <metadata>
  <rdf:RDF xmlns:cc="http://creativecommons.org/ns#" xmlns:dc="http://purl.org/dc/elements/1.1/" xmlns:rdf="http://www.w3.org/1999/02/22-rdf-syntax-ns#">
   <cc:Work>
    <dc:type rdf:resource="http://purl.org/dc/dcmitype/StillImage"/>
    <dc:date>2021-03-18T11:20:52.813319</dc:date>
    <dc:format>image/svg+xml</dc:format>
    <dc:creator>
     <cc:Agent>
      <dc:title>Matplotlib v3.3.4, https://matplotlib.org/</dc:title>
     </cc:Agent>
    </dc:creator>
   </cc:Work>
  </rdf:RDF>
 </metadata>
 <defs>
  <style type="text/css">*{stroke-linecap:butt;stroke-linejoin:round;}</style>
 </defs>
 <g id="figure_1">
  <g id="patch_1">
   <path d="M 0 345.6 
L 460.8 345.6 
L 460.8 0 
L 0 0 
z
" style="fill:#ffffff;"/>
  </g>
  <g id="axes_1">
   <g id="patch_2">
    <path d="M 57.6 307.584 
L 414.72 307.584 
L 414.72 41.472 
L 57.6 41.472 
z
" style="fill:#ffffff;"/>
   </g>
   <g id="matplotlib.axis_1">
    <g id="xtick_1">
     <g id="line2d_1">
      <defs>
       <path d="M 0 0 
L 0 3.5 
" id="me11070ab15" style="stroke:#000000;stroke-width:0.8;"/>
      </defs>
      <g>
       <use style="stroke:#000000;stroke-width:0.8;" x="73.800099" xlink:href="#me11070ab15" y="307.584"/>
      </g>
     </g>
     <g id="text_1">
      <!-- 0% -->
      <g transform="translate(65.868067 322.182437)scale(0.1 -0.1)">
       <defs>
        <path d="M 31.78125 66.40625 
Q 24.171875 66.40625 20.328125 58.90625 
Q 16.5 51.421875 16.5 36.375 
Q 16.5 21.390625 20.328125 13.890625 
Q 24.171875 6.390625 31.78125 6.390625 
Q 39.453125 6.390625 43.28125 13.890625 
Q 47.125 21.390625 47.125 36.375 
Q 47.125 51.421875 43.28125 58.90625 
Q 39.453125 66.40625 31.78125 66.40625 
z
M 31.78125 74.21875 
Q 44.046875 74.21875 50.515625 64.515625 
Q 56.984375 54.828125 56.984375 36.375 
Q 56.984375 17.96875 50.515625 8.265625 
Q 44.046875 -1.421875 31.78125 -1.421875 
Q 19.53125 -1.421875 13.0625 8.265625 
Q 6.59375 17.96875 6.59375 36.375 
Q 6.59375 54.828125 13.0625 64.515625 
Q 19.53125 74.21875 31.78125 74.21875 
z
" id="DejaVuSans-48"/>
        <path d="M 72.703125 32.078125 
Q 68.453125 32.078125 66.03125 28.46875 
Q 63.625 24.859375 63.625 18.40625 
Q 63.625 12.0625 66.03125 8.421875 
Q 68.453125 4.78125 72.703125 4.78125 
Q 76.859375 4.78125 79.265625 8.421875 
Q 81.6875 12.0625 81.6875 18.40625 
Q 81.6875 24.8125 79.265625 28.4375 
Q 76.859375 32.078125 72.703125 32.078125 
z
M 72.703125 38.28125 
Q 80.421875 38.28125 84.953125 32.90625 
Q 89.5 27.546875 89.5 18.40625 
Q 89.5 9.28125 84.9375 3.921875 
Q 80.375 -1.421875 72.703125 -1.421875 
Q 64.890625 -1.421875 60.34375 3.921875 
Q 55.8125 9.28125 55.8125 18.40625 
Q 55.8125 27.59375 60.375 32.9375 
Q 64.9375 38.28125 72.703125 38.28125 
z
M 22.3125 68.015625 
Q 18.109375 68.015625 15.6875 64.375 
Q 13.28125 60.75 13.28125 54.390625 
Q 13.28125 47.953125 15.671875 44.328125 
Q 18.0625 40.71875 22.3125 40.71875 
Q 26.5625 40.71875 28.96875 44.328125 
Q 31.390625 47.953125 31.390625 54.390625 
Q 31.390625 60.6875 28.953125 64.34375 
Q 26.515625 68.015625 22.3125 68.015625 
z
M 66.40625 74.21875 
L 74.21875 74.21875 
L 28.609375 -1.421875 
L 20.796875 -1.421875 
z
M 22.3125 74.21875 
Q 30.03125 74.21875 34.609375 68.875 
Q 39.203125 63.53125 39.203125 54.390625 
Q 39.203125 45.171875 34.640625 39.84375 
Q 30.078125 34.515625 22.3125 34.515625 
Q 14.546875 34.515625 10.03125 39.859375 
Q 5.515625 45.21875 5.515625 54.390625 
Q 5.515625 63.484375 10.046875 68.84375 
Q 14.59375 74.21875 22.3125 74.21875 
z
" id="DejaVuSans-37"/>
       </defs>
       <use xlink:href="#DejaVuSans-48"/>
       <use x="63.623047" xlink:href="#DejaVuSans-37"/>
      </g>
     </g>
    </g>
    <g id="xtick_2">
     <g id="line2d_2">
      <g>
       <use style="stroke:#000000;stroke-width:0.8;" x="139.057294" xlink:href="#me11070ab15" y="307.584"/>
      </g>
     </g>
     <g id="text_2">
      <!-- 20% -->
      <g transform="translate(127.944012 322.182437)scale(0.1 -0.1)">
       <defs>
        <path d="M 19.1875 8.296875 
L 53.609375 8.296875 
L 53.609375 0 
L 7.328125 0 
L 7.328125 8.296875 
Q 12.9375 14.109375 22.625 23.890625 
Q 32.328125 33.6875 34.8125 36.53125 
Q 39.546875 41.84375 41.421875 45.53125 
Q 43.3125 49.21875 43.3125 52.78125 
Q 43.3125 58.59375 39.234375 62.25 
Q 35.15625 65.921875 28.609375 65.921875 
Q 23.96875 65.921875 18.8125 64.3125 
Q 13.671875 62.703125 7.8125 59.421875 
L 7.8125 69.390625 
Q 13.765625 71.78125 18.9375 73 
Q 24.125 74.21875 28.421875 74.21875 
Q 39.75 74.21875 46.484375 68.546875 
Q 53.21875 62.890625 53.21875 53.421875 
Q 53.21875 48.921875 51.53125 44.890625 
Q 49.859375 40.875 45.40625 35.40625 
Q 44.1875 33.984375 37.640625 27.21875 
Q 31.109375 20.453125 19.1875 8.296875 
z
" id="DejaVuSans-50"/>
       </defs>
       <use xlink:href="#DejaVuSans-50"/>
       <use x="63.623047" xlink:href="#DejaVuSans-48"/>
       <use x="127.246094" xlink:href="#DejaVuSans-37"/>
      </g>
     </g>
    </g>
    <g id="xtick_3">
     <g id="line2d_3">
      <g>
       <use style="stroke:#000000;stroke-width:0.8;" x="204.314489" xlink:href="#me11070ab15" y="307.584"/>
      </g>
     </g>
     <g id="text_3">
      <!-- 40% -->
      <g transform="translate(193.201208 322.182437)scale(0.1 -0.1)">
       <defs>
        <path d="M 37.796875 64.3125 
L 12.890625 25.390625 
L 37.796875 25.390625 
z
M 35.203125 72.90625 
L 47.609375 72.90625 
L 47.609375 25.390625 
L 58.015625 25.390625 
L 58.015625 17.1875 
L 47.609375 17.1875 
L 47.609375 0 
L 37.796875 0 
L 37.796875 17.1875 
L 4.890625 17.1875 
L 4.890625 26.703125 
z
" id="DejaVuSans-52"/>
       </defs>
       <use xlink:href="#DejaVuSans-52"/>
       <use x="63.623047" xlink:href="#DejaVuSans-48"/>
       <use x="127.246094" xlink:href="#DejaVuSans-37"/>
      </g>
     </g>
    </g>
    <g id="xtick_4">
     <g id="line2d_4">
      <g>
       <use style="stroke:#000000;stroke-width:0.8;" x="269.571684" xlink:href="#me11070ab15" y="307.584"/>
      </g>
     </g>
     <g id="text_4">
      <!-- 60% -->
      <g transform="translate(258.458403 322.182437)scale(0.1 -0.1)">
       <defs>
        <path d="M 33.015625 40.375 
Q 26.375 40.375 22.484375 35.828125 
Q 18.609375 31.296875 18.609375 23.390625 
Q 18.609375 15.53125 22.484375 10.953125 
Q 26.375 6.390625 33.015625 6.390625 
Q 39.65625 6.390625 43.53125 10.953125 
Q 47.40625 15.53125 47.40625 23.390625 
Q 47.40625 31.296875 43.53125 35.828125 
Q 39.65625 40.375 33.015625 40.375 
z
M 52.59375 71.296875 
L 52.59375 62.3125 
Q 48.875 64.0625 45.09375 64.984375 
Q 41.3125 65.921875 37.59375 65.921875 
Q 27.828125 65.921875 22.671875 59.328125 
Q 17.53125 52.734375 16.796875 39.40625 
Q 19.671875 43.65625 24.015625 45.921875 
Q 28.375 48.1875 33.59375 48.1875 
Q 44.578125 48.1875 50.953125 41.515625 
Q 57.328125 34.859375 57.328125 23.390625 
Q 57.328125 12.15625 50.6875 5.359375 
Q 44.046875 -1.421875 33.015625 -1.421875 
Q 20.359375 -1.421875 13.671875 8.265625 
Q 6.984375 17.96875 6.984375 36.375 
Q 6.984375 53.65625 15.1875 63.9375 
Q 23.390625 74.21875 37.203125 74.21875 
Q 40.921875 74.21875 44.703125 73.484375 
Q 48.484375 72.75 52.59375 71.296875 
z
" id="DejaVuSans-54"/>
       </defs>
       <use xlink:href="#DejaVuSans-54"/>
       <use x="63.623047" xlink:href="#DejaVuSans-48"/>
       <use x="127.246094" xlink:href="#DejaVuSans-37"/>
      </g>
     </g>
    </g>
    <g id="xtick_5">
     <g id="line2d_5">
      <g>
       <use style="stroke:#000000;stroke-width:0.8;" x="334.828879" xlink:href="#me11070ab15" y="307.584"/>
      </g>
     </g>
     <g id="text_5">
      <!-- 80% -->
      <g transform="translate(323.715598 322.182437)scale(0.1 -0.1)">
       <defs>
        <path d="M 31.78125 34.625 
Q 24.75 34.625 20.71875 30.859375 
Q 16.703125 27.09375 16.703125 20.515625 
Q 16.703125 13.921875 20.71875 10.15625 
Q 24.75 6.390625 31.78125 6.390625 
Q 38.8125 6.390625 42.859375 10.171875 
Q 46.921875 13.96875 46.921875 20.515625 
Q 46.921875 27.09375 42.890625 30.859375 
Q 38.875 34.625 31.78125 34.625 
z
M 21.921875 38.8125 
Q 15.578125 40.375 12.03125 44.71875 
Q 8.5 49.078125 8.5 55.328125 
Q 8.5 64.0625 14.71875 69.140625 
Q 20.953125 74.21875 31.78125 74.21875 
Q 42.671875 74.21875 48.875 69.140625 
Q 55.078125 64.0625 55.078125 55.328125 
Q 55.078125 49.078125 51.53125 44.71875 
Q 48 40.375 41.703125 38.8125 
Q 48.828125 37.15625 52.796875 32.3125 
Q 56.78125 27.484375 56.78125 20.515625 
Q 56.78125 9.90625 50.3125 4.234375 
Q 43.84375 -1.421875 31.78125 -1.421875 
Q 19.734375 -1.421875 13.25 4.234375 
Q 6.78125 9.90625 6.78125 20.515625 
Q 6.78125 27.484375 10.78125 32.3125 
Q 14.796875 37.15625 21.921875 38.8125 
z
M 18.3125 54.390625 
Q 18.3125 48.734375 21.84375 45.5625 
Q 25.390625 42.390625 31.78125 42.390625 
Q 38.140625 42.390625 41.71875 45.5625 
Q 45.3125 48.734375 45.3125 54.390625 
Q 45.3125 60.0625 41.71875 63.234375 
Q 38.140625 66.40625 31.78125 66.40625 
Q 25.390625 66.40625 21.84375 63.234375 
Q 18.3125 60.0625 18.3125 54.390625 
z
" id="DejaVuSans-56"/>
       </defs>
       <use xlink:href="#DejaVuSans-56"/>
       <use x="63.623047" xlink:href="#DejaVuSans-48"/>
       <use x="127.246094" xlink:href="#DejaVuSans-37"/>
      </g>
     </g>
    </g>
    <g id="xtick_6">
     <g id="line2d_6">
      <g>
       <use style="stroke:#000000;stroke-width:0.8;" x="400.086074" xlink:href="#me11070ab15" y="307.584"/>
      </g>
     </g>
     <g id="text_6">
      <!-- 100% -->
      <g transform="translate(385.791543 322.182437)scale(0.1 -0.1)">
       <defs>
        <path d="M 12.40625 8.296875 
L 28.515625 8.296875 
L 28.515625 63.921875 
L 10.984375 60.40625 
L 10.984375 69.390625 
L 28.421875 72.90625 
L 38.28125 72.90625 
L 38.28125 8.296875 
L 54.390625 8.296875 
L 54.390625 0 
L 12.40625 0 
z
" id="DejaVuSans-49"/>
       </defs>
       <use xlink:href="#DejaVuSans-49"/>
       <use x="63.623047" xlink:href="#DejaVuSans-48"/>
       <use x="127.246094" xlink:href="#DejaVuSans-48"/>
       <use x="190.869141" xlink:href="#DejaVuSans-37"/>
      </g>
     </g>
    </g>
    <g id="text_7">
     <!-- percent of run -->
     <g transform="translate(200.620937 335.860562)scale(0.1 -0.1)">
      <defs>
       <path d="M 18.109375 8.203125 
L 18.109375 -20.796875 
L 9.078125 -20.796875 
L 9.078125 54.6875 
L 18.109375 54.6875 
L 18.109375 46.390625 
Q 20.953125 51.265625 25.265625 53.625 
Q 29.59375 56 35.59375 56 
Q 45.5625 56 51.78125 48.09375 
Q 58.015625 40.1875 58.015625 27.296875 
Q 58.015625 14.40625 51.78125 6.484375 
Q 45.5625 -1.421875 35.59375 -1.421875 
Q 29.59375 -1.421875 25.265625 0.953125 
Q 20.953125 3.328125 18.109375 8.203125 
z
M 48.6875 27.296875 
Q 48.6875 37.203125 44.609375 42.84375 
Q 40.53125 48.484375 33.40625 48.484375 
Q 26.265625 48.484375 22.1875 42.84375 
Q 18.109375 37.203125 18.109375 27.296875 
Q 18.109375 17.390625 22.1875 11.75 
Q 26.265625 6.109375 33.40625 6.109375 
Q 40.53125 6.109375 44.609375 11.75 
Q 48.6875 17.390625 48.6875 27.296875 
z
" id="DejaVuSans-112"/>
       <path d="M 56.203125 29.59375 
L 56.203125 25.203125 
L 14.890625 25.203125 
Q 15.484375 15.921875 20.484375 11.0625 
Q 25.484375 6.203125 34.421875 6.203125 
Q 39.59375 6.203125 44.453125 7.46875 
Q 49.3125 8.734375 54.109375 11.28125 
L 54.109375 2.78125 
Q 49.265625 0.734375 44.1875 -0.34375 
Q 39.109375 -1.421875 33.890625 -1.421875 
Q 20.796875 -1.421875 13.15625 6.1875 
Q 5.515625 13.8125 5.515625 26.8125 
Q 5.515625 40.234375 12.765625 48.109375 
Q 20.015625 56 32.328125 56 
Q 43.359375 56 49.78125 48.890625 
Q 56.203125 41.796875 56.203125 29.59375 
z
M 47.21875 32.234375 
Q 47.125 39.59375 43.09375 43.984375 
Q 39.0625 48.390625 32.421875 48.390625 
Q 24.90625 48.390625 20.390625 44.140625 
Q 15.875 39.890625 15.1875 32.171875 
z
" id="DejaVuSans-101"/>
       <path d="M 41.109375 46.296875 
Q 39.59375 47.171875 37.8125 47.578125 
Q 36.03125 48 33.890625 48 
Q 26.265625 48 22.1875 43.046875 
Q 18.109375 38.09375 18.109375 28.8125 
L 18.109375 0 
L 9.078125 0 
L 9.078125 54.6875 
L 18.109375 54.6875 
L 18.109375 46.1875 
Q 20.953125 51.171875 25.484375 53.578125 
Q 30.03125 56 36.53125 56 
Q 37.453125 56 38.578125 55.875 
Q 39.703125 55.765625 41.0625 55.515625 
z
" id="DejaVuSans-114"/>
       <path d="M 48.78125 52.59375 
L 48.78125 44.1875 
Q 44.96875 46.296875 41.140625 47.34375 
Q 37.3125 48.390625 33.40625 48.390625 
Q 24.65625 48.390625 19.8125 42.84375 
Q 14.984375 37.3125 14.984375 27.296875 
Q 14.984375 17.28125 19.8125 11.734375 
Q 24.65625 6.203125 33.40625 6.203125 
Q 37.3125 6.203125 41.140625 7.25 
Q 44.96875 8.296875 48.78125 10.40625 
L 48.78125 2.09375 
Q 45.015625 0.34375 40.984375 -0.53125 
Q 36.96875 -1.421875 32.421875 -1.421875 
Q 20.0625 -1.421875 12.78125 6.34375 
Q 5.515625 14.109375 5.515625 27.296875 
Q 5.515625 40.671875 12.859375 48.328125 
Q 20.21875 56 33.015625 56 
Q 37.15625 56 41.109375 55.140625 
Q 45.0625 54.296875 48.78125 52.59375 
z
" id="DejaVuSans-99"/>
       <path d="M 54.890625 33.015625 
L 54.890625 0 
L 45.90625 0 
L 45.90625 32.71875 
Q 45.90625 40.484375 42.875 44.328125 
Q 39.84375 48.1875 33.796875 48.1875 
Q 26.515625 48.1875 22.3125 43.546875 
Q 18.109375 38.921875 18.109375 30.90625 
L 18.109375 0 
L 9.078125 0 
L 9.078125 54.6875 
L 18.109375 54.6875 
L 18.109375 46.1875 
Q 21.34375 51.125 25.703125 53.5625 
Q 30.078125 56 35.796875 56 
Q 45.21875 56 50.046875 50.171875 
Q 54.890625 44.34375 54.890625 33.015625 
z
" id="DejaVuSans-110"/>
       <path d="M 18.3125 70.21875 
L 18.3125 54.6875 
L 36.8125 54.6875 
L 36.8125 47.703125 
L 18.3125 47.703125 
L 18.3125 18.015625 
Q 18.3125 11.328125 20.140625 9.421875 
Q 21.96875 7.515625 27.59375 7.515625 
L 36.8125 7.515625 
L 36.8125 0 
L 27.59375 0 
Q 17.1875 0 13.234375 3.875 
Q 9.28125 7.765625 9.28125 18.015625 
L 9.28125 47.703125 
L 2.6875 47.703125 
L 2.6875 54.6875 
L 9.28125 54.6875 
L 9.28125 70.21875 
z
" id="DejaVuSans-116"/>
       <path id="DejaVuSans-32"/>
       <path d="M 30.609375 48.390625 
Q 23.390625 48.390625 19.1875 42.75 
Q 14.984375 37.109375 14.984375 27.296875 
Q 14.984375 17.484375 19.15625 11.84375 
Q 23.34375 6.203125 30.609375 6.203125 
Q 37.796875 6.203125 41.984375 11.859375 
Q 46.1875 17.53125 46.1875 27.296875 
Q 46.1875 37.015625 41.984375 42.703125 
Q 37.796875 48.390625 30.609375 48.390625 
z
M 30.609375 56 
Q 42.328125 56 49.015625 48.375 
Q 55.71875 40.765625 55.71875 27.296875 
Q 55.71875 13.875 49.015625 6.21875 
Q 42.328125 -1.421875 30.609375 -1.421875 
Q 18.84375 -1.421875 12.171875 6.21875 
Q 5.515625 13.875 5.515625 27.296875 
Q 5.515625 40.765625 12.171875 48.375 
Q 18.84375 56 30.609375 56 
z
" id="DejaVuSans-111"/>
       <path d="M 37.109375 75.984375 
L 37.109375 68.5 
L 28.515625 68.5 
Q 23.6875 68.5 21.796875 66.546875 
Q 19.921875 64.59375 19.921875 59.515625 
L 19.921875 54.6875 
L 34.71875 54.6875 
L 34.71875 47.703125 
L 19.921875 47.703125 
L 19.921875 0 
L 10.890625 0 
L 10.890625 47.703125 
L 2.296875 47.703125 
L 2.296875 54.6875 
L 10.890625 54.6875 
L 10.890625 58.5 
Q 10.890625 67.625 15.140625 71.796875 
Q 19.390625 75.984375 28.609375 75.984375 
z
" id="DejaVuSans-102"/>
       <path d="M 8.5 21.578125 
L 8.5 54.6875 
L 17.484375 54.6875 
L 17.484375 21.921875 
Q 17.484375 14.15625 20.5 10.265625 
Q 23.53125 6.390625 29.59375 6.390625 
Q 36.859375 6.390625 41.078125 11.03125 
Q 45.3125 15.671875 45.3125 23.6875 
L 45.3125 54.6875 
L 54.296875 54.6875 
L 54.296875 0 
L 45.3125 0 
L 45.3125 8.40625 
Q 42.046875 3.421875 37.71875 1 
Q 33.40625 -1.421875 27.6875 -1.421875 
Q 18.265625 -1.421875 13.375 4.4375 
Q 8.5 10.296875 8.5 21.578125 
z
M 31.109375 56 
z
" id="DejaVuSans-117"/>
      </defs>
      <use xlink:href="#DejaVuSans-112"/>
      <use x="63.476562" xlink:href="#DejaVuSans-101"/>
      <use x="125" xlink:href="#DejaVuSans-114"/>
      <use x="163.863281" xlink:href="#DejaVuSans-99"/>
      <use x="218.84375" xlink:href="#DejaVuSans-101"/>
      <use x="280.367188" xlink:href="#DejaVuSans-110"/>
      <use x="343.746094" xlink:href="#DejaVuSans-116"/>
      <use x="382.955078" xlink:href="#DejaVuSans-32"/>
      <use x="414.742188" xlink:href="#DejaVuSans-111"/>
      <use x="475.923828" xlink:href="#DejaVuSans-102"/>
      <use x="511.128906" xlink:href="#DejaVuSans-32"/>
      <use x="542.916016" xlink:href="#DejaVuSans-114"/>
      <use x="584.029297" xlink:href="#DejaVuSans-117"/>
      <use x="647.408203" xlink:href="#DejaVuSans-110"/>
     </g>
    </g>
   </g>
   <g id="matplotlib.axis_2">
    <g id="ytick_1">
     <g id="line2d_7">
      <defs>
       <path d="M 0 0 
L -3.5 0 
" id="mf5e1f4893d" style="stroke:#000000;stroke-width:0.8;"/>
      </defs>
      <g>
       <use style="stroke:#000000;stroke-width:0.8;" x="57.6" xlink:href="#mf5e1f4893d" y="295.488"/>
      </g>
     </g>
     <g id="text_8">
      <!-- 0.0 -->
      <g transform="translate(34.696875 299.287219)scale(0.1 -0.1)">
       <defs>
        <path d="M 10.6875 12.40625 
L 21 12.40625 
L 21 0 
L 10.6875 0 
z
" id="DejaVuSans-46"/>
       </defs>
       <use xlink:href="#DejaVuSans-48"/>
       <use x="63.623047" xlink:href="#DejaVuSans-46"/>
       <use x="95.410156" xlink:href="#DejaVuSans-48"/>
      </g>
     </g>
    </g>
    <g id="ytick_2">
     <g id="line2d_8">
      <g>
       <use style="stroke:#000000;stroke-width:0.8;" x="57.6" xlink:href="#mf5e1f4893d" y="247.104"/>
      </g>
     </g>
     <g id="text_9">
      <!-- 0.2 -->
      <g transform="translate(34.696875 250.903219)scale(0.1 -0.1)">
       <use xlink:href="#DejaVuSans-48"/>
       <use x="63.623047" xlink:href="#DejaVuSans-46"/>
       <use x="95.410156" xlink:href="#DejaVuSans-50"/>
      </g>
     </g>
    </g>
    <g id="ytick_3">
     <g id="line2d_9">
      <g>
       <use style="stroke:#000000;stroke-width:0.8;" x="57.6" xlink:href="#mf5e1f4893d" y="198.72"/>
      </g>
     </g>
     <g id="text_10">
      <!-- 0.4 -->
      <g transform="translate(34.696875 202.519219)scale(0.1 -0.1)">
       <use xlink:href="#DejaVuSans-48"/>
       <use x="63.623047" xlink:href="#DejaVuSans-46"/>
       <use x="95.410156" xlink:href="#DejaVuSans-52"/>
      </g>
     </g>
    </g>
    <g id="ytick_4">
     <g id="line2d_10">
      <g>
       <use style="stroke:#000000;stroke-width:0.8;" x="57.6" xlink:href="#mf5e1f4893d" y="150.336"/>
      </g>
     </g>
     <g id="text_11">
      <!-- 0.6 -->
      <g transform="translate(34.696875 154.135219)scale(0.1 -0.1)">
       <use xlink:href="#DejaVuSans-48"/>
       <use x="63.623047" xlink:href="#DejaVuSans-46"/>
       <use x="95.410156" xlink:href="#DejaVuSans-54"/>
      </g>
     </g>
    </g>
    <g id="ytick_5">
     <g id="line2d_11">
      <g>
       <use style="stroke:#000000;stroke-width:0.8;" x="57.6" xlink:href="#mf5e1f4893d" y="101.952"/>
      </g>
     </g>
     <g id="text_12">
      <!-- 0.8 -->
      <g transform="translate(34.696875 105.751219)scale(0.1 -0.1)">
       <use xlink:href="#DejaVuSans-48"/>
       <use x="63.623047" xlink:href="#DejaVuSans-46"/>
       <use x="95.410156" xlink:href="#DejaVuSans-56"/>
      </g>
     </g>
    </g>
    <g id="ytick_6">
     <g id="line2d_12">
      <g>
       <use style="stroke:#000000;stroke-width:0.8;" x="57.6" xlink:href="#mf5e1f4893d" y="53.568"/>
      </g>
     </g>
     <g id="text_13">
      <!-- 1.0 -->
      <g transform="translate(34.696875 57.367219)scale(0.1 -0.1)">
       <use xlink:href="#DejaVuSans-49"/>
       <use x="63.623047" xlink:href="#DejaVuSans-46"/>
       <use x="95.410156" xlink:href="#DejaVuSans-48"/>
      </g>
     </g>
    </g>
    <g id="text_14">
     <!-- acceptance rate -->
     <g transform="translate(28.617187 215.105344)rotate(-90)scale(0.1 -0.1)">
      <defs>
       <path d="M 34.28125 27.484375 
Q 23.390625 27.484375 19.1875 25 
Q 14.984375 22.515625 14.984375 16.5 
Q 14.984375 11.71875 18.140625 8.90625 
Q 21.296875 6.109375 26.703125 6.109375 
Q 34.1875 6.109375 38.703125 11.40625 
Q 43.21875 16.703125 43.21875 25.484375 
L 43.21875 27.484375 
z
M 52.203125 31.203125 
L 52.203125 0 
L 43.21875 0 
L 43.21875 8.296875 
Q 40.140625 3.328125 35.546875 0.953125 
Q 30.953125 -1.421875 24.3125 -1.421875 
Q 15.921875 -1.421875 10.953125 3.296875 
Q 6 8.015625 6 15.921875 
Q 6 25.140625 12.171875 29.828125 
Q 18.359375 34.515625 30.609375 34.515625 
L 43.21875 34.515625 
L 43.21875 35.40625 
Q 43.21875 41.609375 39.140625 45 
Q 35.0625 48.390625 27.6875 48.390625 
Q 23 48.390625 18.546875 47.265625 
Q 14.109375 46.140625 10.015625 43.890625 
L 10.015625 52.203125 
Q 14.9375 54.109375 19.578125 55.046875 
Q 24.21875 56 28.609375 56 
Q 40.484375 56 46.34375 49.84375 
Q 52.203125 43.703125 52.203125 31.203125 
z
" id="DejaVuSans-97"/>
      </defs>
      <use xlink:href="#DejaVuSans-97"/>
      <use x="61.279297" xlink:href="#DejaVuSans-99"/>
      <use x="116.259766" xlink:href="#DejaVuSans-99"/>
      <use x="171.240234" xlink:href="#DejaVuSans-101"/>
      <use x="232.763672" xlink:href="#DejaVuSans-112"/>
      <use x="296.240234" xlink:href="#DejaVuSans-116"/>
      <use x="335.449219" xlink:href="#DejaVuSans-97"/>
      <use x="396.728516" xlink:href="#DejaVuSans-110"/>
      <use x="460.107422" xlink:href="#DejaVuSans-99"/>
      <use x="515.087891" xlink:href="#DejaVuSans-101"/>
      <use x="576.611328" xlink:href="#DejaVuSans-32"/>
      <use x="608.398438" xlink:href="#DejaVuSans-114"/>
      <use x="649.511719" xlink:href="#DejaVuSans-97"/>
      <use x="710.791016" xlink:href="#DejaVuSans-116"/>
      <use x="750" xlink:href="#DejaVuSans-101"/>
     </g>
    </g>
   </g>
   <g id="line2d_13">
    <path clip-path="url(#p1c39a3afc8)" d="M 73.832727 54.138315 
L 75.464157 79.793209 
L 77.095587 100.569306 
L 78.727017 117.394408 
L 80.358447 131.019876 
L 81.989877 142.054185 
L 83.621307 150.990098 
L 85.252736 158.226665 
L 86.884166 164.087053 
L 88.515596 168.832969 
L 90.147026 172.676354 
L 91.778456 175.788841 
L 93.409886 178.309426 
L 95.041316 180.35067 
L 96.672746 182.003731 
L 98.304175 183.342428 
L 99.935605 184.426545 
L 101.567035 185.304496 
L 103.198465 186.015486 
L 106.461325 187.057552 
L 109.724185 187.740964 
L 112.987044 188.189162 
L 117.881334 188.589615 
L 121.144194 188.745728 
L 122.775624 189.0432 
L 284.287181 189.0432 
L 285.918611 189.228155 
L 287.550041 198.077546 
L 289.181471 206.189953 
L 290.812901 213.626754 
L 292.444331 220.444213 
L 294.075761 226.69391 
L 295.70719 232.423128 
L 297.33862 237.675212 
L 298.97005 242.4899 
L 300.60148 246.903617 
L 302.23291 250.949757 
L 303.86434 254.658931 
L 305.49577 258.059204 
L 307.1272 261.176299 
L 308.75863 264.0338 
L 310.390059 266.653327 
L 312.021489 269.054698 
L 315.284349 273.274131 
L 318.547209 276.820035 
L 321.810069 279.799921 
L 325.072928 282.304141 
L 328.335788 284.408623 
L 331.598648 286.177176 
L 334.861508 287.663423 
L 338.124367 288.912426 
L 341.387227 289.962056 
L 346.281517 291.230883 
L 351.175806 292.20837 
L 356.070096 292.961415 
L 362.595815 293.703652 
L 369.121535 294.227842 
L 377.278684 294.672156 
L 388.698693 295.044124 
L 398.487273 295.224561 
L 398.487273 295.224561 
" style="fill:none;stroke:#000000;stroke-linecap:square;stroke-width:1.5;"/>
   </g>
   <g id="line2d_14">
    <path clip-path="url(#p1c39a3afc8)" d="M 73.832727 143.0784 
L 75.464157 179.3664 
L 77.095587 169.6896 
L 78.727017 169.6896 
L 80.358447 140.6592 
L 81.989877 174.528 
L 83.621307 164.8512 
L 85.252736 169.6896 
L 86.884166 155.1744 
L 90.147026 169.6896 
L 91.778456 174.528 
L 93.409886 174.528 
L 95.041316 196.3008 
L 96.672746 196.3008 
L 98.304175 184.2048 
L 99.935605 203.5584 
L 101.567035 203.5584 
L 103.198465 198.72 
L 104.829895 205.9776 
L 106.461325 208.3968 
L 108.092755 225.3312 
L 109.724185 213.2352 
L 111.355614 210.816 
L 112.987044 210.816 
L 114.618474 218.0736 
L 116.249904 203.5584 
L 117.881334 235.008 
L 119.512764 213.2352 
L 121.144194 225.3312 
L 122.775624 205.9776 
L 124.407053 184.2048 
L 126.038483 198.72 
L 127.669913 179.3664 
L 129.301343 189.0432 
L 130.932773 179.3664 
L 132.564203 191.4624 
L 134.195633 191.4624 
L 135.827063 172.1088 
L 137.458492 162.432 
L 139.089922 164.8512 
L 140.721352 201.1392 
L 142.352782 193.8816 
L 143.984212 179.3664 
L 145.615642 205.9776 
L 147.247072 176.9472 
L 148.878502 179.3664 
L 150.509931 186.624 
L 152.141361 179.3664 
L 153.772791 189.0432 
L 155.404221 169.6896 
L 157.035651 205.9776 
L 158.667081 191.4624 
L 160.298511 184.2048 
L 161.929941 193.8816 
L 163.56137 201.1392 
L 165.1928 157.5936 
L 166.82423 203.5584 
L 168.45566 184.2048 
L 170.08709 179.3664 
L 171.71852 184.2048 
L 173.34995 160.0128 
L 174.98138 186.624 
L 176.61281 193.8816 
L 178.244239 191.4624 
L 179.875669 179.3664 
L 181.507099 203.5584 
L 183.138529 167.2704 
L 184.769959 172.1088 
L 186.401389 181.7856 
L 188.032819 172.1088 
L 189.664249 198.72 
L 191.295678 186.624 
L 192.927108 189.0432 
L 194.558538 172.1088 
L 196.189968 193.8816 
L 197.821398 181.7856 
L 199.452828 186.624 
L 201.084258 201.1392 
L 202.715688 201.1392 
L 204.347117 186.624 
L 205.978547 201.1392 
L 207.609977 179.3664 
L 209.241407 179.3664 
L 210.872837 205.9776 
L 212.504267 222.912 
L 214.135697 181.7856 
L 215.767127 174.528 
L 217.398556 189.0432 
L 219.029986 198.72 
L 220.661416 169.6896 
L 222.292846 167.2704 
L 223.924276 181.7856 
L 225.555706 189.0432 
L 227.187136 176.9472 
L 228.818566 184.2048 
L 230.449995 179.3664 
L 232.081425 184.2048 
L 233.712855 196.3008 
L 235.344285 179.3664 
L 236.975715 210.816 
L 238.607145 174.528 
L 240.238575 176.9472 
L 241.870005 196.3008 
L 243.501434 189.0432 
L 245.132864 174.528 
L 246.764294 196.3008 
L 248.395724 179.3664 
L 250.027154 181.7856 
L 251.658584 196.3008 
L 253.290014 169.6896 
L 254.921444 193.8816 
L 256.552873 198.72 
L 258.184303 198.72 
L 259.815733 203.5584 
L 261.447163 193.8816 
L 263.078593 162.432 
L 264.710023 176.9472 
L 266.341453 176.9472 
L 267.972883 198.72 
L 269.604312 210.816 
L 271.235742 179.3664 
L 272.867172 179.3664 
L 274.498602 167.2704 
L 276.130032 189.0432 
L 277.761462 174.528 
L 279.392892 193.8816 
L 281.024322 179.3664 
L 282.655751 201.1392 
L 284.287181 189.0432 
L 285.918611 179.3664 
L 287.550041 208.3968 
L 289.181471 210.816 
L 290.812901 201.1392 
L 292.444331 205.9776 
L 294.075761 191.4624 
L 295.70719 215.6544 
L 297.33862 181.7856 
L 298.97005 218.0736 
L 300.60148 239.8464 
L 302.23291 230.1696 
L 303.86434 210.816 
L 305.49577 227.7504 
L 307.1272 225.3312 
L 308.75863 239.8464 
L 310.390059 239.8464 
L 312.021489 235.008 
L 313.652919 259.2 
L 316.915779 254.3616 
L 318.547209 256.7808 
L 320.178639 256.7808 
L 321.810069 259.2 
L 323.441498 259.2 
L 325.072928 266.4576 
L 326.704358 264.0384 
L 328.335788 256.7808 
L 329.967218 268.8768 
L 331.598648 278.5536 
L 333.230078 276.1344 
L 334.861508 278.5536 
L 336.492937 268.8768 
L 338.124367 273.7152 
L 339.755797 288.2304 
L 341.387227 288.2304 
L 343.018657 278.5536 
L 344.650087 285.8112 
L 346.281517 276.1344 
L 347.912947 276.1344 
L 349.544376 288.2304 
L 352.807236 288.2304 
L 354.438666 273.7152 
L 357.701526 288.2304 
L 359.332956 276.1344 
L 360.964386 285.8112 
L 362.595815 285.8112 
L 365.858675 290.6496 
L 367.490105 290.6496 
L 369.121535 288.2304 
L 372.384395 293.0688 
L 374.015825 290.6496 
L 375.647254 283.392 
L 377.278684 288.2304 
L 380.541544 288.2304 
L 382.172974 285.8112 
L 385.435834 295.488 
L 387.067264 288.2304 
L 388.698693 293.0688 
L 390.330123 288.2304 
L 391.961553 293.0688 
L 393.592983 293.0688 
L 395.224413 290.6496 
L 396.855843 290.6496 
L 398.487273 293.0688 
L 398.487273 293.0688 
" style="fill:none;stroke:#0000ff;stroke-dasharray:1.5,2.475;stroke-dashoffset:0;stroke-width:1.5;"/>
   </g>
   <g id="line2d_15">
    <path clip-path="url(#p1c39a3afc8)" d="M 73.832727 53.568 
L 75.464157 101.952 
L 77.095587 118.8864 
L 78.727017 138.24 
L 80.358447 138.24 
L 81.989877 155.1744 
L 83.621307 169.6896 
L 85.252736 160.0128 
L 86.884166 172.1088 
L 88.515596 157.5936 
L 90.147026 193.8816 
L 91.778456 193.8816 
L 93.409886 198.72 
L 96.672746 169.6896 
L 98.304175 191.4624 
L 99.935605 179.3664 
L 101.567035 201.1392 
L 103.198465 184.2048 
L 104.829895 169.6896 
L 106.461325 172.1088 
L 108.092755 169.6896 
L 109.724185 196.3008 
L 111.355614 193.8816 
L 112.987044 157.5936 
L 114.618474 176.9472 
L 116.249904 172.1088 
L 117.881334 201.1392 
L 119.512764 198.72 
L 121.144194 186.624 
L 122.775624 196.3008 
L 124.407053 184.2048 
L 126.038483 181.7856 
L 127.669913 201.1392 
L 129.301343 186.624 
L 130.932773 181.7856 
L 134.195633 186.624 
L 135.827063 176.9472 
L 137.458492 196.3008 
L 139.089922 205.9776 
L 140.721352 181.7856 
L 142.352782 184.2048 
L 143.984212 193.8816 
L 145.615642 181.7856 
L 147.247072 198.72 
L 148.878502 193.8816 
L 150.509931 198.72 
L 152.141361 155.1744 
L 153.772791 189.0432 
L 157.035651 184.2048 
L 158.667081 179.3664 
L 160.298511 162.432 
L 161.929941 191.4624 
L 163.56137 189.0432 
L 165.1928 201.1392 
L 168.45566 186.624 
L 170.08709 208.3968 
L 171.71852 193.8816 
L 173.34995 186.624 
L 174.98138 193.8816 
L 176.61281 198.72 
L 178.244239 201.1392 
L 179.875669 196.3008 
L 181.507099 196.3008 
L 183.138529 179.3664 
L 184.769959 191.4624 
L 186.401389 189.0432 
L 188.032819 174.528 
L 189.664249 186.624 
L 191.295678 193.8816 
L 192.927108 184.2048 
L 194.558538 186.624 
L 196.189968 179.3664 
L 197.821398 196.3008 
L 199.452828 176.9472 
L 201.084258 201.1392 
L 202.715688 179.3664 
L 205.978547 174.528 
L 207.609977 186.624 
L 209.241407 181.7856 
L 210.872837 191.4624 
L 214.135697 191.4624 
L 215.767127 172.1088 
L 219.029986 196.3008 
L 220.661416 210.816 
L 222.292846 198.72 
L 223.924276 201.1392 
L 225.555706 201.1392 
L 227.187136 181.7856 
L 228.818566 191.4624 
L 230.449995 184.2048 
L 232.081425 203.5584 
L 233.712855 196.3008 
L 235.344285 174.528 
L 236.975715 184.2048 
L 238.607145 181.7856 
L 240.238575 176.9472 
L 241.870005 186.624 
L 243.501434 189.0432 
L 245.132864 201.1392 
L 246.764294 205.9776 
L 248.395724 174.528 
L 250.027154 184.2048 
L 251.658584 181.7856 
L 253.290014 189.0432 
L 254.921444 189.0432 
L 256.552873 201.1392 
L 258.184303 189.0432 
L 259.815733 164.8512 
L 261.447163 174.528 
L 263.078593 179.3664 
L 264.710023 203.5584 
L 266.341453 181.7856 
L 269.604312 176.9472 
L 271.235742 210.816 
L 272.867172 172.1088 
L 274.498602 186.624 
L 276.130032 203.5584 
L 277.761462 181.7856 
L 279.392892 176.9472 
L 281.024322 169.6896 
L 282.655751 189.0432 
L 284.287181 189.0432 
L 285.918611 184.2048 
L 287.550041 210.816 
L 289.181471 230.1696 
L 290.812901 205.9776 
L 292.444331 235.008 
L 294.075761 225.3312 
L 295.70719 235.008 
L 297.33862 239.8464 
L 298.97005 247.104 
L 300.60148 247.104 
L 302.23291 268.8768 
L 303.86434 264.0384 
L 305.49577 261.6192 
L 307.1272 254.3616 
L 308.75863 259.2 
L 310.390059 254.3616 
L 313.652919 268.8768 
L 315.284349 273.7152 
L 316.915779 283.392 
L 318.547209 266.4576 
L 320.178639 278.5536 
L 321.810069 268.8768 
L 323.441498 285.8112 
L 325.072928 280.9728 
L 326.704358 259.2 
L 328.335788 278.5536 
L 329.967218 271.296 
L 331.598648 266.4576 
L 333.230078 290.6496 
L 334.861508 278.5536 
L 336.492937 280.9728 
L 338.124367 288.2304 
L 339.755797 288.2304 
L 341.387227 283.392 
L 343.018657 295.488 
L 344.650087 283.392 
L 346.281517 288.2304 
L 347.912947 288.2304 
L 349.544376 283.392 
L 351.175806 285.8112 
L 352.807236 293.0688 
L 354.438666 290.6496 
L 356.070096 290.6496 
L 357.701526 293.0688 
L 359.332956 283.392 
L 362.595815 293.0688 
L 364.227245 295.488 
L 365.858675 288.2304 
L 367.490105 295.488 
L 369.121535 290.6496 
L 370.752965 293.0688 
L 372.384395 283.392 
L 374.015825 295.488 
L 378.910114 288.2304 
L 380.541544 293.0688 
L 382.172974 290.6496 
L 383.804404 295.488 
L 385.435834 293.0688 
L 387.067264 295.488 
L 388.698693 295.488 
L 390.330123 290.6496 
L 391.961553 295.488 
L 395.224413 295.488 
L 396.855843 290.6496 
L 398.487273 295.488 
L 398.487273 295.488 
" style="fill:none;stroke:#ff0000;stroke-dasharray:5.55,2.4;stroke-dashoffset:0;stroke-width:1.5;"/>
   </g>
   <g id="patch_3">
    <path d="M 57.6 307.584 
L 57.6 41.472 
" style="fill:none;stroke:#000000;stroke-linecap:square;stroke-linejoin:miter;stroke-width:0.8;"/>
   </g>
   <g id="patch_4">
    <path d="M 414.72 307.584 
L 414.72 41.472 
" style="fill:none;stroke:#000000;stroke-linecap:square;stroke-linejoin:miter;stroke-width:0.8;"/>
   </g>
   <g id="patch_5">
    <path d="M 57.6 307.584 
L 414.72 307.584 
" style="fill:none;stroke:#000000;stroke-linecap:square;stroke-linejoin:miter;stroke-width:0.8;"/>
   </g>
   <g id="patch_6">
    <path d="M 57.6 41.472 
L 414.72 41.472 
" style="fill:none;stroke:#000000;stroke-linecap:square;stroke-linejoin:miter;stroke-width:0.8;"/>
   </g>
   <g id="legend_1">
    <g id="patch_7">
     <path d="M 163.549687 93.506375 
L 407.72 93.506375 
Q 409.72 93.506375 409.72 91.506375 
L 409.72 48.472 
Q 409.72 46.472 407.72 46.472 
L 163.549687 46.472 
Q 161.549687 46.472 161.549687 48.472 
L 161.549687 91.506375 
Q 161.549687 93.506375 163.549687 93.506375 
z
" style="fill:#ffffff;opacity:0.8;stroke:#cccccc;stroke-linejoin:miter;"/>
    </g>
    <g id="line2d_16">
     <path d="M 165.549687 54.570438 
L 185.549687 54.570438 
" style="fill:none;stroke:#000000;stroke-linecap:square;stroke-width:1.5;"/>
    </g>
    <g id="line2d_17"/>
    <g id="text_15">
     <!-- The target acceptance rate -->
     <g transform="translate(193.549687 58.070438)scale(0.1 -0.1)">
      <defs>
       <path d="M -0.296875 72.90625 
L 61.375 72.90625 
L 61.375 64.59375 
L 35.5 64.59375 
L 35.5 0 
L 25.59375 0 
L 25.59375 64.59375 
L -0.296875 64.59375 
z
" id="DejaVuSans-84"/>
       <path d="M 54.890625 33.015625 
L 54.890625 0 
L 45.90625 0 
L 45.90625 32.71875 
Q 45.90625 40.484375 42.875 44.328125 
Q 39.84375 48.1875 33.796875 48.1875 
Q 26.515625 48.1875 22.3125 43.546875 
Q 18.109375 38.921875 18.109375 30.90625 
L 18.109375 0 
L 9.078125 0 
L 9.078125 75.984375 
L 18.109375 75.984375 
L 18.109375 46.1875 
Q 21.34375 51.125 25.703125 53.5625 
Q 30.078125 56 35.796875 56 
Q 45.21875 56 50.046875 50.171875 
Q 54.890625 44.34375 54.890625 33.015625 
z
" id="DejaVuSans-104"/>
       <path d="M 45.40625 27.984375 
Q 45.40625 37.75 41.375 43.109375 
Q 37.359375 48.484375 30.078125 48.484375 
Q 22.859375 48.484375 18.828125 43.109375 
Q 14.796875 37.75 14.796875 27.984375 
Q 14.796875 18.265625 18.828125 12.890625 
Q 22.859375 7.515625 30.078125 7.515625 
Q 37.359375 7.515625 41.375 12.890625 
Q 45.40625 18.265625 45.40625 27.984375 
z
M 54.390625 6.78125 
Q 54.390625 -7.171875 48.1875 -13.984375 
Q 42 -20.796875 29.203125 -20.796875 
Q 24.46875 -20.796875 20.265625 -20.09375 
Q 16.0625 -19.390625 12.109375 -17.921875 
L 12.109375 -9.1875 
Q 16.0625 -11.328125 19.921875 -12.34375 
Q 23.78125 -13.375 27.78125 -13.375 
Q 36.625 -13.375 41.015625 -8.765625 
Q 45.40625 -4.15625 45.40625 5.171875 
L 45.40625 9.625 
Q 42.625 4.78125 38.28125 2.390625 
Q 33.9375 0 27.875 0 
Q 17.828125 0 11.671875 7.65625 
Q 5.515625 15.328125 5.515625 27.984375 
Q 5.515625 40.671875 11.671875 48.328125 
Q 17.828125 56 27.875 56 
Q 33.9375 56 38.28125 53.609375 
Q 42.625 51.21875 45.40625 46.390625 
L 45.40625 54.6875 
L 54.390625 54.6875 
z
" id="DejaVuSans-103"/>
      </defs>
      <use xlink:href="#DejaVuSans-84"/>
      <use x="61.083984" xlink:href="#DejaVuSans-104"/>
      <use x="124.462891" xlink:href="#DejaVuSans-101"/>
      <use x="185.986328" xlink:href="#DejaVuSans-32"/>
      <use x="217.773438" xlink:href="#DejaVuSans-116"/>
      <use x="256.982422" xlink:href="#DejaVuSans-97"/>
      <use x="318.261719" xlink:href="#DejaVuSans-114"/>
      <use x="357.625" xlink:href="#DejaVuSans-103"/>
      <use x="421.101562" xlink:href="#DejaVuSans-101"/>
      <use x="482.625" xlink:href="#DejaVuSans-116"/>
      <use x="521.833984" xlink:href="#DejaVuSans-32"/>
      <use x="553.621094" xlink:href="#DejaVuSans-97"/>
      <use x="614.900391" xlink:href="#DejaVuSans-99"/>
      <use x="669.880859" xlink:href="#DejaVuSans-99"/>
      <use x="724.861328" xlink:href="#DejaVuSans-101"/>
      <use x="786.384766" xlink:href="#DejaVuSans-112"/>
      <use x="849.861328" xlink:href="#DejaVuSans-116"/>
      <use x="889.070312" xlink:href="#DejaVuSans-97"/>
      <use x="950.349609" xlink:href="#DejaVuSans-110"/>
      <use x="1013.728516" xlink:href="#DejaVuSans-99"/>
      <use x="1068.708984" xlink:href="#DejaVuSans-101"/>
      <use x="1130.232422" xlink:href="#DejaVuSans-32"/>
      <use x="1162.019531" xlink:href="#DejaVuSans-114"/>
      <use x="1203.132812" xlink:href="#DejaVuSans-97"/>
      <use x="1264.412109" xlink:href="#DejaVuSans-116"/>
      <use x="1303.621094" xlink:href="#DejaVuSans-101"/>
     </g>
    </g>
    <g id="line2d_18">
     <path d="M 165.549687 69.248563 
L 185.549687 69.248563 
" style="fill:none;stroke:#0000ff;stroke-dasharray:1.5,2.475;stroke-dashoffset:0;stroke-width:1.5;"/>
    </g>
    <g id="line2d_19"/>
    <g id="text_16">
     <!-- Modified Lam observed acceptance rate -->
     <g transform="translate(193.549687 72.748563)scale(0.1 -0.1)">
      <defs>
       <path d="M 9.8125 72.90625 
L 24.515625 72.90625 
L 43.109375 23.296875 
L 61.8125 72.90625 
L 76.515625 72.90625 
L 76.515625 0 
L 66.890625 0 
L 66.890625 64.015625 
L 48.09375 14.015625 
L 38.1875 14.015625 
L 19.390625 64.015625 
L 19.390625 0 
L 9.8125 0 
z
" id="DejaVuSans-77"/>
       <path d="M 45.40625 46.390625 
L 45.40625 75.984375 
L 54.390625 75.984375 
L 54.390625 0 
L 45.40625 0 
L 45.40625 8.203125 
Q 42.578125 3.328125 38.25 0.953125 
Q 33.9375 -1.421875 27.875 -1.421875 
Q 17.96875 -1.421875 11.734375 6.484375 
Q 5.515625 14.40625 5.515625 27.296875 
Q 5.515625 40.1875 11.734375 48.09375 
Q 17.96875 56 27.875 56 
Q 33.9375 56 38.25 53.625 
Q 42.578125 51.265625 45.40625 46.390625 
z
M 14.796875 27.296875 
Q 14.796875 17.390625 18.875 11.75 
Q 22.953125 6.109375 30.078125 6.109375 
Q 37.203125 6.109375 41.296875 11.75 
Q 45.40625 17.390625 45.40625 27.296875 
Q 45.40625 37.203125 41.296875 42.84375 
Q 37.203125 48.484375 30.078125 48.484375 
Q 22.953125 48.484375 18.875 42.84375 
Q 14.796875 37.203125 14.796875 27.296875 
z
" id="DejaVuSans-100"/>
       <path d="M 9.421875 54.6875 
L 18.40625 54.6875 
L 18.40625 0 
L 9.421875 0 
z
M 9.421875 75.984375 
L 18.40625 75.984375 
L 18.40625 64.59375 
L 9.421875 64.59375 
z
" id="DejaVuSans-105"/>
       <path d="M 9.8125 72.90625 
L 19.671875 72.90625 
L 19.671875 8.296875 
L 55.171875 8.296875 
L 55.171875 0 
L 9.8125 0 
z
" id="DejaVuSans-76"/>
       <path d="M 52 44.1875 
Q 55.375 50.25 60.0625 53.125 
Q 64.75 56 71.09375 56 
Q 79.640625 56 84.28125 50.015625 
Q 88.921875 44.046875 88.921875 33.015625 
L 88.921875 0 
L 79.890625 0 
L 79.890625 32.71875 
Q 79.890625 40.578125 77.09375 44.375 
Q 74.3125 48.1875 68.609375 48.1875 
Q 61.625 48.1875 57.5625 43.546875 
Q 53.515625 38.921875 53.515625 30.90625 
L 53.515625 0 
L 44.484375 0 
L 44.484375 32.71875 
Q 44.484375 40.625 41.703125 44.40625 
Q 38.921875 48.1875 33.109375 48.1875 
Q 26.21875 48.1875 22.15625 43.53125 
Q 18.109375 38.875 18.109375 30.90625 
L 18.109375 0 
L 9.078125 0 
L 9.078125 54.6875 
L 18.109375 54.6875 
L 18.109375 46.1875 
Q 21.1875 51.21875 25.484375 53.609375 
Q 29.78125 56 35.6875 56 
Q 41.65625 56 45.828125 52.96875 
Q 50 49.953125 52 44.1875 
z
" id="DejaVuSans-109"/>
       <path d="M 48.6875 27.296875 
Q 48.6875 37.203125 44.609375 42.84375 
Q 40.53125 48.484375 33.40625 48.484375 
Q 26.265625 48.484375 22.1875 42.84375 
Q 18.109375 37.203125 18.109375 27.296875 
Q 18.109375 17.390625 22.1875 11.75 
Q 26.265625 6.109375 33.40625 6.109375 
Q 40.53125 6.109375 44.609375 11.75 
Q 48.6875 17.390625 48.6875 27.296875 
z
M 18.109375 46.390625 
Q 20.953125 51.265625 25.265625 53.625 
Q 29.59375 56 35.59375 56 
Q 45.5625 56 51.78125 48.09375 
Q 58.015625 40.1875 58.015625 27.296875 
Q 58.015625 14.40625 51.78125 6.484375 
Q 45.5625 -1.421875 35.59375 -1.421875 
Q 29.59375 -1.421875 25.265625 0.953125 
Q 20.953125 3.328125 18.109375 8.203125 
L 18.109375 0 
L 9.078125 0 
L 9.078125 75.984375 
L 18.109375 75.984375 
z
" id="DejaVuSans-98"/>
       <path d="M 44.28125 53.078125 
L 44.28125 44.578125 
Q 40.484375 46.53125 36.375 47.5 
Q 32.28125 48.484375 27.875 48.484375 
Q 21.1875 48.484375 17.84375 46.4375 
Q 14.5 44.390625 14.5 40.28125 
Q 14.5 37.15625 16.890625 35.375 
Q 19.28125 33.59375 26.515625 31.984375 
L 29.59375 31.296875 
Q 39.15625 29.25 43.1875 25.515625 
Q 47.21875 21.78125 47.21875 15.09375 
Q 47.21875 7.46875 41.1875 3.015625 
Q 35.15625 -1.421875 24.609375 -1.421875 
Q 20.21875 -1.421875 15.453125 -0.5625 
Q 10.6875 0.296875 5.421875 2 
L 5.421875 11.28125 
Q 10.40625 8.6875 15.234375 7.390625 
Q 20.0625 6.109375 24.8125 6.109375 
Q 31.15625 6.109375 34.5625 8.28125 
Q 37.984375 10.453125 37.984375 14.40625 
Q 37.984375 18.0625 35.515625 20.015625 
Q 33.0625 21.96875 24.703125 23.78125 
L 21.578125 24.515625 
Q 13.234375 26.265625 9.515625 29.90625 
Q 5.8125 33.546875 5.8125 39.890625 
Q 5.8125 47.609375 11.28125 51.796875 
Q 16.75 56 26.8125 56 
Q 31.78125 56 36.171875 55.265625 
Q 40.578125 54.546875 44.28125 53.078125 
z
" id="DejaVuSans-115"/>
       <path d="M 2.984375 54.6875 
L 12.5 54.6875 
L 29.59375 8.796875 
L 46.6875 54.6875 
L 56.203125 54.6875 
L 35.6875 0 
L 23.484375 0 
z
" id="DejaVuSans-118"/>
      </defs>
      <use xlink:href="#DejaVuSans-77"/>
      <use x="86.279297" xlink:href="#DejaVuSans-111"/>
      <use x="147.460938" xlink:href="#DejaVuSans-100"/>
      <use x="210.9375" xlink:href="#DejaVuSans-105"/>
      <use x="238.720703" xlink:href="#DejaVuSans-102"/>
      <use x="273.925781" xlink:href="#DejaVuSans-105"/>
      <use x="301.708984" xlink:href="#DejaVuSans-101"/>
      <use x="363.232422" xlink:href="#DejaVuSans-100"/>
      <use x="426.708984" xlink:href="#DejaVuSans-32"/>
      <use x="458.496094" xlink:href="#DejaVuSans-76"/>
      <use x="514.208984" xlink:href="#DejaVuSans-97"/>
      <use x="575.488281" xlink:href="#DejaVuSans-109"/>
      <use x="672.900391" xlink:href="#DejaVuSans-32"/>
      <use x="704.6875" xlink:href="#DejaVuSans-111"/>
      <use x="765.869141" xlink:href="#DejaVuSans-98"/>
      <use x="829.345703" xlink:href="#DejaVuSans-115"/>
      <use x="881.445312" xlink:href="#DejaVuSans-101"/>
      <use x="942.96875" xlink:href="#DejaVuSans-114"/>
      <use x="984.082031" xlink:href="#DejaVuSans-118"/>
      <use x="1043.261719" xlink:href="#DejaVuSans-101"/>
      <use x="1104.785156" xlink:href="#DejaVuSans-100"/>
      <use x="1168.261719" xlink:href="#DejaVuSans-32"/>
      <use x="1200.048828" xlink:href="#DejaVuSans-97"/>
      <use x="1261.328125" xlink:href="#DejaVuSans-99"/>
      <use x="1316.308594" xlink:href="#DejaVuSans-99"/>
      <use x="1371.289062" xlink:href="#DejaVuSans-101"/>
      <use x="1432.8125" xlink:href="#DejaVuSans-112"/>
      <use x="1496.289062" xlink:href="#DejaVuSans-116"/>
      <use x="1535.498047" xlink:href="#DejaVuSans-97"/>
      <use x="1596.777344" xlink:href="#DejaVuSans-110"/>
      <use x="1660.15625" xlink:href="#DejaVuSans-99"/>
      <use x="1715.136719" xlink:href="#DejaVuSans-101"/>
      <use x="1776.660156" xlink:href="#DejaVuSans-32"/>
      <use x="1808.447266" xlink:href="#DejaVuSans-114"/>
      <use x="1849.560547" xlink:href="#DejaVuSans-97"/>
      <use x="1910.839844" xlink:href="#DejaVuSans-116"/>
      <use x="1950.048828" xlink:href="#DejaVuSans-101"/>
     </g>
    </g>
    <g id="line2d_20">
     <path d="M 165.549687 83.926688 
L 185.549687 83.926688 
" style="fill:none;stroke:#ff0000;stroke-dasharray:5.55,2.4;stroke-dashoffset:0;stroke-width:1.5;"/>
    </g>
    <g id="line2d_21"/>
    <g id="text_17">
     <!-- Self-Tuning Lam observed acceptance rate -->
     <g transform="translate(193.549687 87.426688)scale(0.1 -0.1)">
      <defs>
       <path d="M 53.515625 70.515625 
L 53.515625 60.890625 
Q 47.90625 63.578125 42.921875 64.890625 
Q 37.9375 66.21875 33.296875 66.21875 
Q 25.25 66.21875 20.875 63.09375 
Q 16.5 59.96875 16.5 54.203125 
Q 16.5 49.359375 19.40625 46.890625 
Q 22.3125 44.4375 30.421875 42.921875 
L 36.375 41.703125 
Q 47.40625 39.59375 52.65625 34.296875 
Q 57.90625 29 57.90625 20.125 
Q 57.90625 9.515625 50.796875 4.046875 
Q 43.703125 -1.421875 29.984375 -1.421875 
Q 24.8125 -1.421875 18.96875 -0.25 
Q 13.140625 0.921875 6.890625 3.21875 
L 6.890625 13.375 
Q 12.890625 10.015625 18.65625 8.296875 
Q 24.421875 6.59375 29.984375 6.59375 
Q 38.421875 6.59375 43.015625 9.90625 
Q 47.609375 13.234375 47.609375 19.390625 
Q 47.609375 24.75 44.3125 27.78125 
Q 41.015625 30.8125 33.5 32.328125 
L 27.484375 33.5 
Q 16.453125 35.6875 11.515625 40.375 
Q 6.59375 45.0625 6.59375 53.421875 
Q 6.59375 63.09375 13.40625 68.65625 
Q 20.21875 74.21875 32.171875 74.21875 
Q 37.3125 74.21875 42.625 73.28125 
Q 47.953125 72.359375 53.515625 70.515625 
z
" id="DejaVuSans-83"/>
       <path d="M 9.421875 75.984375 
L 18.40625 75.984375 
L 18.40625 0 
L 9.421875 0 
z
" id="DejaVuSans-108"/>
       <path d="M 4.890625 31.390625 
L 31.203125 31.390625 
L 31.203125 23.390625 
L 4.890625 23.390625 
z
" id="DejaVuSans-45"/>
      </defs>
      <use xlink:href="#DejaVuSans-83"/>
      <use x="63.476562" xlink:href="#DejaVuSans-101"/>
      <use x="125" xlink:href="#DejaVuSans-108"/>
      <use x="152.783203" xlink:href="#DejaVuSans-102"/>
      <use x="182.488281" xlink:href="#DejaVuSans-45"/>
      <use x="209.447266" xlink:href="#DejaVuSans-84"/>
      <use x="255.40625" xlink:href="#DejaVuSans-117"/>
      <use x="318.785156" xlink:href="#DejaVuSans-110"/>
      <use x="382.164062" xlink:href="#DejaVuSans-105"/>
      <use x="409.947266" xlink:href="#DejaVuSans-110"/>
      <use x="473.326172" xlink:href="#DejaVuSans-103"/>
      <use x="536.802734" xlink:href="#DejaVuSans-32"/>
      <use x="568.589844" xlink:href="#DejaVuSans-76"/>
      <use x="624.302734" xlink:href="#DejaVuSans-97"/>
      <use x="685.582031" xlink:href="#DejaVuSans-109"/>
      <use x="782.994141" xlink:href="#DejaVuSans-32"/>
      <use x="814.78125" xlink:href="#DejaVuSans-111"/>
      <use x="875.962891" xlink:href="#DejaVuSans-98"/>
      <use x="939.439453" xlink:href="#DejaVuSans-115"/>
      <use x="991.539062" xlink:href="#DejaVuSans-101"/>
      <use x="1053.0625" xlink:href="#DejaVuSans-114"/>
      <use x="1094.175781" xlink:href="#DejaVuSans-118"/>
      <use x="1153.355469" xlink:href="#DejaVuSans-101"/>
      <use x="1214.878906" xlink:href="#DejaVuSans-100"/>
      <use x="1278.355469" xlink:href="#DejaVuSans-32"/>
      <use x="1310.142578" xlink:href="#DejaVuSans-97"/>
      <use x="1371.421875" xlink:href="#DejaVuSans-99"/>
      <use x="1426.402344" xlink:href="#DejaVuSans-99"/>
      <use x="1481.382812" xlink:href="#DejaVuSans-101"/>
      <use x="1542.90625" xlink:href="#DejaVuSans-112"/>
      <use x="1606.382812" xlink:href="#DejaVuSans-116"/>
      <use x="1645.591797" xlink:href="#DejaVuSans-97"/>
      <use x="1706.871094" xlink:href="#DejaVuSans-110"/>
      <use x="1770.25" xlink:href="#DejaVuSans-99"/>
      <use x="1825.230469" xlink:href="#DejaVuSans-101"/>
      <use x="1886.753906" xlink:href="#DejaVuSans-32"/>
      <use x="1918.541016" xlink:href="#DejaVuSans-114"/>
      <use x="1959.654297" xlink:href="#DejaVuSans-97"/>
      <use x="2020.933594" xlink:href="#DejaVuSans-116"/>
      <use x="2060.142578" xlink:href="#DejaVuSans-101"/>
     </g>
    </g>
   </g>
  </g>
 </g>
 <defs>
  <clipPath id="p1c39a3afc8">
   <rect height="266.112" width="357.12" x="57.6" y="41.472"/>
  </clipPath>
 </defs>
</svg>
