<?xml version="1.0" encoding="utf-8" standalone="no"?>
<!DOCTYPE svg PUBLIC "-//W3C//DTD SVG 1.1//EN"
  "http://www.w3.org/Graphics/SVG/1.1/DTD/svg11.dtd">
<!-- Created with matplotlib (https://matplotlib.org/) -->
<svg height="188.46pt" version="1.1" viewBox="0 0 251.28 188.46" width="251.28pt" xmlns="http://www.w3.org/2000/svg" xmlns:xlink="http://www.w3.org/1999/xlink">
 <metadata>
  <rdf:RDF xmlns:cc="http://creativecommons.org/ns#" xmlns:dc="http://purl.org/dc/elements/1.1/" xmlns:rdf="http://www.w3.org/1999/02/22-rdf-syntax-ns#">
   <cc:Work>
    <dc:type rdf:resource="http://purl.org/dc/dcmitype/StillImage"/>
    <dc:date>2021-08-26T12:24:29.172821</dc:date>
    <dc:format>image/svg+xml</dc:format>
    <dc:creator>
     <cc:Agent>
      <dc:title>Matplotlib v3.3.4, https://matplotlib.org/</dc:title>
     </cc:Agent>
    </dc:creator>
   </cc:Work>
  </rdf:RDF>
 </metadata>
 <defs>
  <style type="text/css">*{stroke-linecap:butt;stroke-linejoin:round;}</style>
 </defs>
 <g id="figure_1">
  <g id="patch_1">
   <path d="M 0 188.46 
L 251.28 188.46 
L 251.28 0 
L 0 0 
z
" style="fill:#ffffff;"/>
  </g>
  <g id="axes_1">
   <g id="patch_2">
    <path d="M 33.745561 158.519536 
L 247.193701 158.519536 
L 247.193701 3.00024 
L 33.745561 3.00024 
z
" style="fill:#ffffff;"/>
   </g>
   <g id="matplotlib.axis_1">
    <g id="xtick_1">
     <g id="line2d_1">
      <defs>
       <path d="M 0 0 
L 0 3.5 
" id="md05e50f543" style="stroke:#000000;stroke-width:0.8;"/>
      </defs>
      <g>
       <use style="stroke:#000000;stroke-width:0.8;" x="43.428343" xlink:href="#md05e50f543" y="158.519536"/>
      </g>
     </g>
     <g id="text_1">
      <!-- 0\% -->
      <g transform="translate(37.284756 171.746186)scale(0.09 -0.09)">
       <defs>
        <path d="M 43.09375 31.9375 
C 43.09375 37.578125 43 48.078125 38.90625 56.1875 
C 34.796875 64 28.203125 66.078125 23.5 66.078125 
C 16.703125 66.078125 10.90625 62.109375 7.90625 55.78125 
C 4.703125 49.15625 3.796875 42.328125 3.796875 31.9375 
C 3.796875 24.828125 4.09375 16.109375 7.703125 8.484375 
C 11.796875 0.078125 18.703125 -2 23.40625 -2 
C 29.59375 -2 35.59375 1.265625 39 8.09375 
C 42.5 15.21875 43.09375 23.03125 43.09375 31.9375 
z
M 23.40625 4.078125 
C 15.796875 4.078125 13.5 12.671875 12.796875 15.546875 
C 11.59375 20.46875 11.40625 25.21875 11.40625 33.03125 
C 11.40625 39.15625 11.40625 46.0625 13.296875 51.515625 
C 15.59375 57.828125 19.59375 60 23.40625 60 
C 30.796875 60 33.203125 52.6875 34 50.125 
C 35.5 44.890625 35.5 38.765625 35.5 33.03125 
C 35.5 23.84375 35.5 4.078125 23.40625 4.078125 
z
" id="CMSS17-48"/>
        <path d="M 61.296875 71.609375 
C 61.90625 72.609375 61.90625 73.109375 61.90625 73.203125 
C 61.90625 74.296875 61 75 60.203125 75 
C 59.09375 75 58.59375 74.203125 58.09375 73.203125 
L 17.203125 -1.625 
C 17 -2.015625 16.59375 -2.609375 16.59375 -3.21875 
C 16.59375 -4.3125 17.5 -5 18.40625 -5 
C 19.296875 -5 19.5 -4.609375 20.296875 -3.21875 
z
M 73.09375 14.984375 
C 73.09375 26.53125 66.90625 35 60.09375 35 
C 53.40625 35 47 26.734375 47 14.984375 
C 47 3.25 53.40625 -5 60.09375 -5 
C 67 -5 73.09375 3.453125 73.09375 14.984375 
z
M 60.09375 1.0625 
C 58 1.0625 54.59375 2.953125 54.59375 14.984375 
C 54.59375 26.9375 58 28.921875 60.09375 28.921875 
C 63.796875 28.921875 65.796875 21.65625 65.796875 14.984375 
C 65.796875 8.328125 63.796875 1.0625 60.09375 1.0625 
z
M 31.296875 54.984375 
C 31.296875 66.53125 25.09375 75 18.296875 75 
C 11.59375 75 5.203125 66.734375 5.203125 54.984375 
C 5.203125 43.25 11.59375 35 18.296875 35 
C 25.203125 35 31.296875 43.453125 31.296875 54.984375 
z
M 18.296875 41.0625 
C 16.203125 41.0625 12.796875 42.953125 12.796875 54.984375 
C 12.796875 66.9375 16.203125 68.921875 18.296875 68.921875 
C 22 68.921875 24 61.65625 24 54.984375 
C 24 48.328125 22 41.0625 18.296875 41.0625 
z
" id="CMSS17-37"/>
       </defs>
       <use transform="scale(0.996264)" xlink:href="#CMSS17-48"/>
       <use transform="translate(46.843624 0)scale(0.996264)" xlink:href="#CMSS17-37"/>
      </g>
     </g>
    </g>
    <g id="xtick_2">
     <g id="line2d_2">
      <g>
       <use style="stroke:#000000;stroke-width:0.8;" x="82.240977" xlink:href="#md05e50f543" y="158.519536"/>
      </g>
     </g>
     <g id="text_2">
      <!-- 20\% -->
      <g transform="translate(73.793544 171.746186)scale(0.09 -0.09)">
       <defs>
        <path d="M 25.796875 21.203125 
C 28.59375 24.078125 32.796875 27.5625 35.703125 31.046875 
C 38.5 34.4375 42.203125 39.234375 42.203125 46.203125 
C 42.203125 57.140625 34.796875 67 22.203125 67 
C 12.296875 67 6.59375 60.828125 3.90625 51.15625 
L 7.796875 45.765625 
C 10 54.84375 13.09375 60.625 20.90625 60.625 
C 29.5 60.625 34.296875 53.640625 34.296875 45.96875 
C 34.296875 36.796875 27.296875 29.703125 22 24.421875 
C 16.09375 18.546875 10.296875 12.5625 4.703125 6.375 
L 4.703125 0 
L 42.203125 0 
L 42.203125 6.765625 
L 25.203125 6.765625 
C 24 6.765625 22.796875 6.765625 21.59375 6.765625 
L 11.59375 6.765625 
L 11.59375 6.859375 
z
" id="CMSS17-50"/>
       </defs>
       <use transform="scale(0.996264)" xlink:href="#CMSS17-50"/>
       <use transform="translate(46.843624 0)scale(0.996264)" xlink:href="#CMSS17-48"/>
       <use transform="translate(93.687247 0)scale(0.996264)" xlink:href="#CMSS17-37"/>
      </g>
     </g>
    </g>
    <g id="xtick_3">
     <g id="line2d_3">
      <g>
       <use style="stroke:#000000;stroke-width:0.8;" x="121.053611" xlink:href="#md05e50f543" y="158.519536"/>
      </g>
     </g>
     <g id="text_3">
      <!-- 40\% -->
      <g transform="translate(112.606178 171.746186)scale(0.09 -0.09)">
       <defs>
        <path d="M 35.203125 17 
L 44.296875 17 
L 44.296875 23.078125 
L 35.203125 23.078125 
L 35.203125 65.5 
L 26.40625 65.5 
L 2.59375 23.078125 
L 2.59375 17 
L 27.296875 17 
L 27.296875 0 
L 35.203125 0 
z
M 10.296875 23.078125 
C 16.09375 33.234375 27.59375 53.734375 27.59375 60.703125 
L 27.59375 23.078125 
z
" id="CMSS17-52"/>
       </defs>
       <use transform="scale(0.996264)" xlink:href="#CMSS17-52"/>
       <use transform="translate(46.843624 0)scale(0.996264)" xlink:href="#CMSS17-48"/>
       <use transform="translate(93.687247 0)scale(0.996264)" xlink:href="#CMSS17-37"/>
      </g>
     </g>
    </g>
    <g id="xtick_4">
     <g id="line2d_4">
      <g>
       <use style="stroke:#000000;stroke-width:0.8;" x="159.866245" xlink:href="#md05e50f543" y="158.519536"/>
      </g>
     </g>
     <g id="text_4">
      <!-- 60\% -->
      <g transform="translate(151.418812 171.746186)scale(0.09 -0.09)">
       <defs>
        <path d="M 39 64.078125 
C 34.796875 65.78125 31.796875 66.078125 29 66.078125 
C 16 66.078125 3.90625 52.625 3.90625 31.34375 
C 3.90625 4.140625 15.40625 -2 23.59375 -2 
C 28.09375 -2 32.59375 -0.609375 36.90625 4.375 
C 41.296875 9.640625 43 14.03125 43 21.703125 
C 43 34.046875 36.90625 45 27.796875 45 
C 21.203125 45 15.5 41.515625 12 37.125 
C 13 50.90625 19.59375 60 29.09375 60 
C 31.703125 60 35.09375 59.625 39 57.96875 
z
M 12.09375 21.390625 
C 12.09375 22.1875 12.09375 22.6875 12.203125 24.1875 
C 12.203125 31.953125 16.703125 38.921875 24 38.921875 
C 28.703125 38.921875 31.09375 36.4375 32.90625 33.359375 
C 35 29.46875 35.09375 25.78125 35.09375 21.6875 
C 35.09375 17.8125 35.09375 13.921875 32.796875 9.953125 
C 30.90625 6.859375 28.40625 4.171875 23.59375 4.171875 
C 14.09375 4.171875 12.5 17.40625 12.09375 21.390625 
z
" id="CMSS17-54"/>
       </defs>
       <use transform="scale(0.996264)" xlink:href="#CMSS17-54"/>
       <use transform="translate(46.843624 0)scale(0.996264)" xlink:href="#CMSS17-48"/>
       <use transform="translate(93.687247 0)scale(0.996264)" xlink:href="#CMSS17-37"/>
      </g>
     </g>
    </g>
    <g id="xtick_5">
     <g id="line2d_5">
      <g>
       <use style="stroke:#000000;stroke-width:0.8;" x="198.678879" xlink:href="#md05e50f543" y="158.519536"/>
      </g>
     </g>
     <g id="text_5">
      <!-- 80\% -->
      <g transform="translate(190.231446 171.746186)scale(0.09 -0.09)">
       <defs>
        <path d="M 30.203125 34.71875 
C 37.796875 37.1875 41.703125 43.125 41.703125 48.96875 
C 41.703125 58.15625 33.703125 66.078125 23.5 66.078125 
C 12.90625 66.078125 5.203125 57.9375 5.203125 49.125 
C 5.203125 43.4375 9 37.546875 16.703125 35.015625 
C 6.90625 31.203125 3.90625 23.625 3.90625 17.953125 
C 3.90625 6.96875 12.796875 -2 23.40625 -2 
C 34.40625 -2 43 7.109375 43 17.78125 
C 43 24.328125 39.09375 31.25 30.203125 34.71875 
z
M 23.5 38 
C 16.796875 38 12.296875 42.375 12.296875 49 
C 12.296875 55.71875 16.796875 60 23.5 60 
C 29.703125 60 34.59375 56.109375 34.59375 49 
C 34.59375 41.984375 29.796875 38 23.5 38 
z
M 23.5 4.171875 
C 17.796875 4.171875 11.703125 8.078125 11.703125 18.0625 
C 11.703125 28.328125 18.5 31.921875 23.40625 31.921875 
C 28.796875 31.921875 35.203125 28.125 35.203125 18.0625 
C 35.203125 7.671875 28.59375 4.171875 23.5 4.171875 
z
" id="CMSS17-56"/>
       </defs>
       <use transform="scale(0.996264)" xlink:href="#CMSS17-56"/>
       <use transform="translate(46.843624 0)scale(0.996264)" xlink:href="#CMSS17-48"/>
       <use transform="translate(93.687247 0)scale(0.996264)" xlink:href="#CMSS17-37"/>
      </g>
     </g>
    </g>
    <g id="xtick_6">
     <g id="line2d_6">
      <g>
       <use style="stroke:#000000;stroke-width:0.8;" x="237.491513" xlink:href="#md05e50f543" y="158.519536"/>
      </g>
     </g>
     <g id="text_6">
      <!-- 100\% -->
      <g transform="translate(226.740235 171.746186)scale(0.09 -0.09)">
       <defs>
        <path d="M 28.40625 67 
L 26.5 67 
C 21.09375 61.5625 14.796875 60.78125 8.40625 60.78125 
L 8.40625 55 
C 11.296875 55 16 55 20.703125 57.296875 
L 20.703125 5.765625 
L 8.90625 5.765625 
L 8.90625 0 
L 40.203125 0 
L 40.203125 5.765625 
L 28.40625 5.765625 
z
" id="CMSS17-49"/>
       </defs>
       <use transform="scale(0.996264)" xlink:href="#CMSS17-49"/>
       <use transform="translate(46.843624 0)scale(0.996264)" xlink:href="#CMSS17-48"/>
       <use transform="translate(93.687247 0)scale(0.996264)" xlink:href="#CMSS17-48"/>
       <use transform="translate(140.530871 0)scale(0.996264)" xlink:href="#CMSS17-37"/>
      </g>
     </g>
    </g>
    <g id="text_7">
     <!-- percent of run -->
     <g transform="translate(113.082959 183.716298)scale(0.09 -0.09)">
      <defs>
       <path d="M 15.09375 5.203125 
C 18.40625 2.015625 22.90625 -0.078125 27.703125 -0.078125 
C 37 -0.078125 45 9.421875 45 22.0625 
C 45 33.734375 39 44 30.40625 44 
C 25.40625 44 19.40625 42.21875 14.90625 38.625 
L 14.90625 43.203125 
L 7.5 43.203125 
L 7.5 -19 
L 15.09375 -19 
z
M 15.09375 32.8125 
C 15.90625 34 19.296875 37.734375 24.796875 37.734375 
C 31.796875 37.734375 37.40625 30.625 37.40625 22.0625 
C 37.40625 12.296875 30.59375 6 23.90625 6 
C 21.90625 6 19.796875 6.484375 17.796875 8.171875 
C 15.09375 10.53125 15.09375 12 15.09375 13.390625 
z
" id="CMSS17-112"/>
       <path d="M 39.09375 21.515625 
C 39.09375 24.84375 38.90625 31.296875 35.703125 36.640625 
C 32.203125 42.390625 26.5 44 22.203125 44 
C 11.796875 44 3 34.1875 3 21.484375 
C 3 9.09375 12.09375 -1 23.59375 -1 
C 28.09375 -1 33.59375 0.296875 38.59375 3.875 
C 38.59375 4.28125 38.40625 6.46875 38.296875 6.5625 
C 38.296875 6.765625 38 9.84375 38 10.25 
C 33.203125 6.359375 27.703125 5.078125 23.703125 5.078125 
C 17.296875 5.078125 10.40625 10.421875 10.09375 21.515625 
z
M 10.90625 27 
C 12.203125 32.5625 16.59375 37.828125 22.203125 37.828125 
C 23.703125 37.828125 30.703125 37.828125 32.5 27 
z
" id="CMSS17-101"/>
       <path d="M 14.90625 21.296875 
C 14.90625 30.703125 21.796875 37 30.59375 37 
L 30.59375 43.578125 
C 24.203125 43.578125 18.203125 40.390625 14.59375 35.203125 
L 14.59375 43.09375 
L 7.5 43.09375 
L 7.5 0 
L 14.90625 0 
z
" id="CMSS17-114"/>
       <path d="M 38.5 39.703125 
C 38.5 40.390625 33.90625 42.40625 32.703125 42.796875 
C 29.40625 44 25.203125 44 24.09375 44 
C 11.09375 44 3.296875 32.703125 3.296875 21.296875 
C 3.296875 9.296875 12 -1 23.703125 -1 
C 30.40625 -1 35.203125 1.1875 39.09375 3.78125 
L 38.5 10.375 
C 34.203125 7.078125 29.203125 5.265625 23.796875 5.265625 
C 16 5.265625 10.90625 12.09375 10.90625 21.390625 
C 10.90625 28.609375 14.203125 37.71875 24.203125 37.71875 
C 29.703125 37.71875 32.796875 36.609375 37.40625 33.515625 
z
" id="CMSS17-99"/>
       <path d="M 40.90625 29.328125 
C 40.90625 35.671875 39.40625 44 28.09375 44 
C 21.703125 44 17.5 40.71875 14.703125 37.328125 
L 14.703125 43.09375 
L 7.40625 43.09375 
L 7.40625 0 
L 15 0 
L 15 24.359375 
C 15 30.6875 17.40625 37.9375 24.203125 37.9375 
C 33 37.9375 33.296875 32 33.296875 28.578125 
L 33.296875 0 
L 40.90625 0 
z
" id="CMSS17-110"/>
       <path d="M 16.703125 37 
L 29.703125 37 
L 29.703125 42.765625 
L 16.703125 42.765625 
L 16.703125 55 
L 9.59375 55 
L 9.59375 42.765625 
L 1.703125 42.765625 
L 1.703125 37 
L 9.40625 37 
L 9.40625 11.703125 
C 9.40625 6 10.703125 -1 17.296875 -1 
C 22.296875 -1 26.90625 0.390625 31.296875 2.6875 
L 29.703125 8.5625 
C 27.296875 6.46875 24.40625 5.265625 21.296875 5.265625 
C 16.90625 5.265625 16.703125 10.875 16.703125 13.375 
z
" id="CMSS17-116"/>
       <path d="M 44.203125 21.1875 
C 44.203125 34 34.703125 44 23.5 44 
C 12 44 2.703125 33.703125 2.703125 21.1875 
C 2.703125 8.5 12.296875 -1 23.40625 -1 
C 34.796875 -1 44.203125 8.796875 44.203125 21.1875 
z
M 23.5 5.265625 
C 16.40625 5.265625 10.296875 11.078125 10.296875 22 
C 10.296875 33.609375 17.40625 37.921875 23.40625 37.921875 
C 29.90625 37.921875 36.59375 33.21875 36.59375 22 
C 36.59375 10.671875 30.09375 5.265625 23.5 5.265625 
z
" id="CMSS17-111"/>
       <path d="M 16.796875 37 
L 26.90625 37 
L 26.90625 42.765625 
L 16.59375 42.765625 
L 16.59375 55.609375 
C 16.59375 62.71875 22 63.9375 25.09375 63.9375 
C 26.09375 63.9375 28.90625 63.9375 32.5 62.640625 
L 32.5 69.203125 
C 30.203125 69.703125 27.40625 70 25.203125 70 
C 15.90625 70 9.40625 62.390625 9.40625 52.484375 
L 9.40625 42.765625 
L 2.5 42.765625 
L 2.5 37 
L 9.40625 37 
L 9.40625 0 
L 16.796875 0 
z
" id="CMSS17-102"/>
       <path d="M 40.90625 42.796875 
L 33.296875 42.796875 
L 33.296875 15.1875 
C 33.296875 7.78125 27.90625 4.78125 22.203125 4.78125 
C 15.59375 4.78125 15 6.984375 15 11.078125 
L 15 42.796875 
L 7.40625 42.796875 
L 7.40625 10.59375 
C 7.40625 2.796875 10.09375 -1 17 -1 
C 20.40625 -1 28.09375 -0.203125 33.5 4.78125 
L 33.5 0 
L 40.90625 0 
z
" id="CMSS17-117"/>
      </defs>
      <use transform="scale(0.996264)" xlink:href="#CMSS17-112"/>
      <use transform="translate(50.807382 0)scale(0.996264)" xlink:href="#CMSS17-101"/>
      <use transform="translate(92.446204 0)scale(0.996264)" xlink:href="#CMSS17-114"/>
      <use transform="translate(124.355976 0)scale(0.996264)" xlink:href="#CMSS17-99"/>
      <use transform="translate(165.994799 0)scale(0.996264)" xlink:href="#CMSS17-101"/>
      <use transform="translate(207.633621 0)scale(0.996264)" xlink:href="#CMSS17-110"/>
      <use transform="translate(255.838564 0)scale(0.996264)" xlink:href="#CMSS17-116"/>
      <use transform="translate(320.899243 0)scale(0.996264)" xlink:href="#CMSS17-111"/>
      <use transform="translate(367.742867 0)scale(0.996264)" xlink:href="#CMSS17-102"/>
      <use transform="translate(427.598638 0)scale(0.996264)" xlink:href="#CMSS17-114"/>
      <use transform="translate(459.508411 0)scale(0.996264)" xlink:href="#CMSS17-117"/>
      <use transform="translate(507.713354 0)scale(0.996264)" xlink:href="#CMSS17-110"/>
     </g>
    </g>
   </g>
   <g id="matplotlib.axis_2">
    <g id="ytick_1">
     <g id="line2d_7">
      <defs>
       <path d="M 0 0 
L -3.5 0 
" id="m2effead401" style="stroke:#000000;stroke-width:0.8;"/>
      </defs>
      <g>
       <use style="stroke:#000000;stroke-width:0.8;" x="33.745561" xlink:href="#m2effead401" y="151.450477"/>
      </g>
     </g>
     <g id="text_8">
      <!-- $\mathdefault{0.0}$ -->
      <g transform="translate(14.970352 154.563802)scale(0.09 -0.09)">
       <defs>
        <path d="M 42 31.640625 
C 42 37.75 41.90625 48.125 37.703125 56.109375 
C 34 63.109375 28.09375 65.59375 22.90625 65.59375 
C 18.09375 65.59375 12 63.40625 8.203125 56.203125 
C 4.203125 48.71875 3.796875 39.4375 3.796875 31.640625 
C 3.796875 25.953125 3.90625 17.28125 7 9.671875 
C 11.296875 -0.609375 19 -2 22.90625 -2 
C 27.5 -2 34.5 -0.109375 38.59375 9.375 
C 41.59375 16.28125 42 24.359375 42 31.640625 
z
M 22.90625 -0.40625 
C 16.5 -0.40625 12.703125 5.078125 11.296875 12.6875 
C 10.203125 18.5625 10.203125 27.15625 10.203125 32.75 
C 10.203125 40.4375 10.203125 46.828125 11.5 52.921875 
C 13.40625 61.390625 19 64 22.90625 64 
C 27 64 32.296875 61.296875 34.203125 53.125 
C 35.5 47.4375 35.59375 40.734375 35.59375 32.75 
C 35.59375 26.25 35.59375 18.265625 34.40625 12.375 
C 32.296875 1.484375 26.40625 -0.40625 22.90625 -0.40625 
z
" id="CMR17-48"/>
        <path d="M 18.40625 4.796875 
C 18.40625 7.6875 16 9.671875 13.59375 9.671875 
C 10.703125 9.671875 8.703125 7.28125 8.703125 4.890625 
C 8.703125 2 11.09375 0 13.5 0 
C 16.40625 0 18.40625 2.390625 18.40625 4.796875 
z
" id="CMMI12-58"/>
       </defs>
       <use transform="scale(0.996264)" xlink:href="#CMR17-48"/>
       <use transform="translate(45.690477 0)scale(0.996264)" xlink:href="#CMMI12-58"/>
       <use transform="translate(72.787654 0)scale(0.996264)" xlink:href="#CMR17-48"/>
      </g>
     </g>
    </g>
    <g id="ytick_2">
     <g id="line2d_8">
      <g>
       <use style="stroke:#000000;stroke-width:0.8;" x="33.745561" xlink:href="#m2effead401" y="123.174241"/>
      </g>
     </g>
     <g id="text_9">
      <!-- $\mathdefault{0.2}$ -->
      <g transform="translate(14.970352 126.287566)scale(0.09 -0.09)">
       <defs>
        <path d="M 41.703125 15.453125 
L 39.90625 15.453125 
C 38.90625 8.375 38.09375 7.171875 37.703125 6.5625 
C 37.203125 5.765625 30 5.765625 28.59375 5.765625 
L 9.40625 5.765625 
C 13 9.671875 20 16.75 28.5 24.953125 
C 34.59375 30.734375 41.703125 37.53125 41.703125 47.421875 
C 41.703125 59.21875 32.296875 66 21.796875 66 
C 10.796875 66 4.09375 56.3125 4.09375 47.34375 
C 4.09375 43.4375 7 42.9375 8.203125 42.9375 
C 9.203125 42.9375 12.203125 43.546875 12.203125 47.03125 
C 12.203125 50.109375 9.59375 51 8.203125 51 
C 7.59375 51 7 50.90625 6.59375 50.703125 
C 8.5 59.21875 14.296875 63.40625 20.40625 63.40625 
C 29.09375 63.40625 34.796875 56.515625 34.796875 47.421875 
C 34.796875 38.734375 29.703125 31.25 24 24.75 
L 4.09375 2.28125 
L 4.09375 0 
L 39.296875 0 
z
" id="CMR17-50"/>
       </defs>
       <use transform="scale(0.996264)" xlink:href="#CMR17-48"/>
       <use transform="translate(45.690477 0)scale(0.996264)" xlink:href="#CMMI12-58"/>
       <use transform="translate(72.787654 0)scale(0.996264)" xlink:href="#CMR17-50"/>
      </g>
     </g>
    </g>
    <g id="ytick_3">
     <g id="line2d_9">
      <g>
       <use style="stroke:#000000;stroke-width:0.8;" x="33.745561" xlink:href="#m2effead401" y="94.898006"/>
      </g>
     </g>
     <g id="text_10">
      <!-- $\mathdefault{0.4}$ -->
      <g transform="translate(14.970352 98.011331)scale(0.09 -0.09)">
       <defs>
        <path d="M 33.59375 64.40625 
C 33.59375 66.5 33.5 66.5 31.703125 66.5 
L 2 19.59375 
L 2 17 
L 27.796875 17 
L 27.796875 7.140625 
C 27.796875 3.5 27.59375 2.5 20.59375 2.5 
L 18.703125 2.5 
L 18.703125 0 
C 21.90625 0 27.296875 0 30.703125 0 
C 34.09375 0 39.5 0 42.703125 0 
L 42.703125 2.5 
L 40.796875 2.5 
C 33.796875 2.5 33.59375 3.5 33.59375 7.140625 
L 33.59375 17 
L 43.796875 17 
L 43.796875 19.59375 
L 33.59375 19.59375 
z
M 28.09375 57.859375 
L 28.09375 19.59375 
L 4 19.59375 
z
" id="CMR17-52"/>
       </defs>
       <use transform="scale(0.996264)" xlink:href="#CMR17-48"/>
       <use transform="translate(45.690477 0)scale(0.996264)" xlink:href="#CMMI12-58"/>
       <use transform="translate(72.787654 0)scale(0.996264)" xlink:href="#CMR17-52"/>
      </g>
     </g>
    </g>
    <g id="ytick_4">
     <g id="line2d_10">
      <g>
       <use style="stroke:#000000;stroke-width:0.8;" x="33.745561" xlink:href="#m2effead401" y="66.62177"/>
      </g>
     </g>
     <g id="text_11">
      <!-- $\mathdefault{0.6}$ -->
      <g transform="translate(14.970352 69.735095)scale(0.09 -0.09)">
       <defs>
        <path d="M 10.59375 34 
C 10.59375 57.65625 21.796875 63 28.296875 63 
C 30.40625 63 35.5 62.640625 37.5 59 
C 35.90625 59 32.90625 59 32.90625 55.515625 
C 32.90625 52.828125 35.09375 51.921875 36.5 51.921875 
C 37.40625 51.921875 40.09375 52.3125 40.09375 55.625 
C 40.09375 61.78125 35.09375 65.296875 28.203125 65.296875 
C 16.296875 65.296875 3.796875 52.96875 3.796875 31 
C 3.796875 3.953125 15.09375 -2 23.09375 -2 
C 32.796875 -2 42 6.671875 42 20.046875 
C 42 32.515625 33.90625 41.59375 23.703125 41.59375 
C 17.59375 41.59375 13.09375 37.609375 10.59375 30.625 
z
M 23.09375 0.390625 
C 10.796875 0.390625 10.796875 18.75 10.796875 22.4375 
C 10.796875 29.625 14.203125 40 23.5 40 
C 25.203125 40 30.09375 40 33.40625 33.125 
C 35.203125 29.21875 35.203125 25.140625 35.203125 20.140625 
C 35.203125 14.75 35.203125 10.78125 33.09375 6.78125 
C 30.90625 2.671875 27.703125 0.390625 23.09375 0.390625 
z
" id="CMR17-54"/>
       </defs>
       <use transform="scale(0.996264)" xlink:href="#CMR17-48"/>
       <use transform="translate(45.690477 0)scale(0.996264)" xlink:href="#CMMI12-58"/>
       <use transform="translate(72.787654 0)scale(0.996264)" xlink:href="#CMR17-54"/>
      </g>
     </g>
    </g>
    <g id="ytick_5">
     <g id="line2d_11">
      <g>
       <use style="stroke:#000000;stroke-width:0.8;" x="33.745561" xlink:href="#m2effead401" y="38.345535"/>
      </g>
     </g>
     <g id="text_12">
      <!-- $\mathdefault{0.8}$ -->
      <g transform="translate(14.970352 41.45886)scale(0.09 -0.09)">
       <defs>
        <path d="M 27.203125 35.375 
C 33.5 38.546875 39.90625 43.328125 39.90625 50.984375 
C 39.90625 60.015625 31.09375 65.296875 23 65.296875 
C 13.90625 65.296875 5.90625 58.734375 5.90625 49.6875 
C 5.90625 47.203125 6.5 42.921875 10.40625 39.140625 
C 11.40625 38.15625 15.59375 35.171875 18.296875 33.28125 
C 13.796875 30.984375 3.296875 25.53125 3.296875 14.59375 
C 3.296875 4.359375 13.09375 -2 22.796875 -2 
C 33.5 -2 42.5 5.65625 42.5 15.78125 
C 42.5 24.84375 36.40625 29.015625 32.40625 31.703125 
z
M 14.09375 44.09375 
C 13.296875 44.59375 9.296875 47.671875 9.296875 52.359375 
C 9.296875 58.421875 15.59375 63 22.796875 63 
C 30.703125 63 36.5 57.4375 36.5 50.96875 
C 36.5 41.703125 26.09375 36.421875 25.59375 36.421875 
C 25.5 36.421875 25.40625 36.421875 24.59375 37.03125 
z
M 32.5 23.734375 
C 34 22.640625 38.796875 19.375 38.796875 13.296875 
C 38.796875 5.953125 31.40625 0.390625 23 0.390625 
C 13.90625 0.390625 7 6.84375 7 14.6875 
C 7 22.546875 13.09375 29.09375 20 32.1875 
z
" id="CMR17-56"/>
       </defs>
       <use transform="scale(0.996264)" xlink:href="#CMR17-48"/>
       <use transform="translate(45.690477 0)scale(0.996264)" xlink:href="#CMMI12-58"/>
       <use transform="translate(72.787654 0)scale(0.996264)" xlink:href="#CMR17-56"/>
      </g>
     </g>
    </g>
    <g id="ytick_6">
     <g id="line2d_12">
      <g>
       <use style="stroke:#000000;stroke-width:0.8;" x="33.745561" xlink:href="#m2effead401" y="10.069299"/>
      </g>
     </g>
     <g id="text_13">
      <!-- $\mathdefault{1.0}$ -->
      <g transform="translate(14.970352 13.182624)scale(0.09 -0.09)">
       <defs>
        <path d="M 26.59375 63.40625 
C 26.59375 65.5 26.5 65.5 25.09375 65.5 
C 21.203125 61.1875 15.296875 59.796875 9.703125 59.796875 
C 9.40625 59.796875 8.90625 59.796875 8.796875 59.5 
C 8.703125 59.296875 8.703125 59.09375 8.703125 57 
C 11.796875 57 17 57.59375 21 59.984375 
L 21 7.203125 
C 21 3.6875 20.796875 2.5 12.203125 2.5 
L 9.203125 2.5 
L 9.203125 0 
C 14 0 19 0 23.796875 0 
C 28.59375 0 33.59375 0 38.40625 0 
L 38.40625 2.5 
L 35.40625 2.5 
C 26.796875 2.5 26.59375 3.59375 26.59375 7.15625 
z
" id="CMR17-49"/>
       </defs>
       <use transform="scale(0.996264)" xlink:href="#CMR17-49"/>
       <use transform="translate(45.690477 0)scale(0.996264)" xlink:href="#CMMI12-58"/>
       <use transform="translate(72.787654 0)scale(0.996264)" xlink:href="#CMR17-48"/>
      </g>
     </g>
    </g>
    <g id="text_14">
     <!-- acceptance rate -->
     <g transform="translate(9.22689 110.886294)rotate(-90)scale(0.09 -0.09)">
      <defs>
       <path d="M 37.59375 27.984375 
C 37.59375 37.375 30.90625 43.875 21.90625 43.875 
C 17.5 43.875 12.703125 43.078125 7.203125 39.890625 
L 7.796875 33.359375 
C 10.296875 35.125 14.59375 38 21.796875 38 
C 26.90625 38 30 34.0625 30 27.84375 
L 30 24 
C 14 24 4 19.34375 4 11.34375 
C 4 7.203125 6.5 -1 14.796875 -1 
C 16.296875 -1 24.40625 -1 30.203125 3.390625 
L 30.203125 -0.296875 
L 37.59375 -0.296875 
z
M 30 12.75 
C 30 10.953125 30 8.5625 27 6.78125 
C 24.40625 5.078125 21.09375 5.078125 19.703125 5.078125 
C 14.703125 5.078125 11.296875 7.984375 11.296875 11.625 
C 11.296875 18.921875 26.90625 18.921875 30 18.921875 
z
" id="CMSS17-97"/>
      </defs>
      <use transform="scale(0.996264)" xlink:href="#CMSS17-97"/>
      <use transform="translate(44.921921 0)scale(0.996264)" xlink:href="#CMSS17-99"/>
      <use transform="translate(86.560743 0)scale(0.996264)" xlink:href="#CMSS17-99"/>
      <use transform="translate(128.199565 0)scale(0.996264)" xlink:href="#CMSS17-101"/>
      <use transform="translate(169.838387 0)scale(0.996264)" xlink:href="#CMSS17-112"/>
      <use transform="translate(218.04333 0)scale(0.996264)" xlink:href="#CMSS17-116"/>
      <use transform="translate(251.874897 0)scale(0.996264)" xlink:href="#CMSS17-97"/>
      <use transform="translate(296.796817 0)scale(0.996264)" xlink:href="#CMSS17-110"/>
      <use transform="translate(345.00176 0)scale(0.996264)" xlink:href="#CMSS17-99"/>
      <use transform="translate(386.640582 0)scale(0.996264)" xlink:href="#CMSS17-101"/>
      <use transform="translate(459.508517 0)scale(0.996264)" xlink:href="#CMSS17-114"/>
      <use transform="translate(491.41829 0)scale(0.996264)" xlink:href="#CMSS17-97"/>
      <use transform="translate(536.34021 0)scale(0.996264)" xlink:href="#CMSS17-116"/>
      <use transform="translate(570.171777 0)scale(0.996264)" xlink:href="#CMSS17-101"/>
     </g>
    </g>
   </g>
   <g id="line2d_13">
    <path clip-path="url(#p7350f30e57)" d="M 43.44775 10.402598 
L 45.368975 37.318885 
L 47.309607 55.189823 
L 49.250238 66.910018 
L 51.19087 74.596406 
L 53.131502 79.637326 
L 55.072134 82.943283 
L 57.012765 85.11141 
L 58.953397 86.53332 
L 60.894029 87.465843 
L 62.83466 88.077414 
L 64.775292 88.478498 
L 66.715924 88.741538 
L 68.656555 88.914046 
L 70.597187 89.027181 
L 72.537819 89.101377 
L 74.478451 89.242759 
L 76.419082 89.242759 
L 78.359714 89.242759 
L 80.300346 89.242759 
L 82.240977 89.242759 
L 84.181609 89.242759 
L 86.122241 89.242759 
L 88.062872 89.242759 
L 90.003504 89.242759 
L 91.944136 89.242759 
L 93.884768 89.242759 
L 95.825399 89.242759 
L 97.766031 89.242759 
L 99.706663 89.242759 
L 101.647294 89.242759 
L 103.587926 89.242759 
L 105.528558 89.242759 
L 107.469189 89.242759 
L 109.409821 89.242759 
L 111.350453 89.242759 
L 113.291084 89.242759 
L 115.231716 89.242759 
L 117.172348 89.242759 
L 119.11298 89.242759 
L 121.053611 89.242759 
L 122.994243 89.242759 
L 124.934875 89.242759 
L 126.875506 89.242759 
L 128.816138 89.242759 
L 130.75677 89.242759 
L 132.697401 89.242759 
L 134.638033 89.242759 
L 136.578665 89.242759 
L 138.519297 89.242759 
L 140.459928 89.242759 
L 142.40056 89.242759 
L 144.341192 89.242759 
L 146.281823 89.242759 
L 148.222455 89.242759 
L 150.163087 89.242759 
L 152.103718 89.242759 
L 154.04435 89.242759 
L 155.984982 89.242759 
L 157.925614 89.242759 
L 159.866245 89.242759 
L 161.806877 89.242759 
L 163.747509 89.242759 
L 165.68814 89.242759 
L 167.628772 89.242759 
L 169.569404 89.242759 
L 171.510035 99.172707 
L 173.450667 107.517581 
L 175.391299 114.530399 
L 177.331931 120.423791 
L 179.272562 125.376446 
L 181.213194 129.538531 
L 183.153826 133.03624 
L 185.094457 135.975624 
L 187.035089 138.445808 
L 188.975721 140.521687 
L 190.916352 142.266202 
L 192.856984 143.732248 
L 194.797616 144.964276 
L 196.738248 145.99964 
L 198.678879 146.869733 
L 200.619511 147.600938 
L 202.560143 148.215423 
L 204.500774 148.731821 
L 206.441406 149.165788 
L 208.382038 149.530483 
L 210.322669 149.836963 
L 212.263301 150.094521 
L 214.203933 150.310967 
L 216.144564 150.492862 
L 218.085196 150.645722 
L 220.025828 150.774181 
L 221.96646 150.882135 
L 223.907091 150.972857 
L 225.847723 151.049098 
L 227.788355 151.113168 
L 229.728986 151.167011 
L 231.669618 151.21226 
L 233.61025 151.250285 
L 235.550881 151.282241 
L 237.491513 151.309096 
" style="fill:none;stroke:#000000;stroke-linecap:square;stroke-width:1.5;"/>
   </g>
   <g id="line2d_14">
    <path clip-path="url(#p7350f30e57)" d="M 43.44775 80.759888 
L 45.368975 150.036665 
L 47.309607 151.450477 
L 49.250238 151.450477 
L 51.19087 150.036665 
L 53.131502 151.450477 
L 55.072134 148.622853 
L 57.012765 151.450477 
L 58.953397 148.622853 
L 60.894029 150.036665 
L 62.83466 148.622853 
L 64.775292 147.209042 
L 66.715924 144.381418 
L 68.656555 144.381418 
L 70.597187 144.381418 
L 72.537819 131.657112 
L 74.478451 138.726171 
L 76.419082 130.2433 
L 78.359714 140.139983 
L 80.300346 126.001865 
L 82.240977 126.001865 
L 84.181609 134.484736 
L 86.122241 127.415677 
L 88.062872 113.277559 
L 90.003504 117.518994 
L 91.944136 113.277559 
L 93.884768 123.174241 
L 95.825399 114.691371 
L 97.766031 107.622312 
L 99.706663 107.622312 
L 101.647294 99.139441 
L 103.587926 85.001323 
L 105.528558 96.311818 
L 107.469189 87.828947 
L 109.409821 87.828947 
L 111.350453 75.104641 
L 113.291084 60.966523 
L 115.231716 66.62177 
L 117.172348 72.277017 
L 119.11298 69.449394 
L 121.053611 68.035582 
L 122.994243 89.242759 
L 124.934875 82.1737 
L 126.875506 86.415135 
L 128.816138 103.380876 
L 130.75677 100.553253 
L 132.697401 103.380876 
L 134.638033 100.553253 
L 136.578665 100.553253 
L 138.519297 79.346076 
L 140.459928 90.65657 
L 142.40056 85.001323 
L 144.341192 83.587511 
L 146.281823 75.104641 
L 148.222455 92.070382 
L 150.163087 86.415135 
L 152.103718 90.65657 
L 154.04435 83.587511 
L 155.984982 83.587511 
L 157.925614 89.242759 
L 159.866245 92.070382 
L 161.806877 89.242759 
L 163.747509 94.898006 
L 165.68814 94.898006 
L 167.628772 94.898006 
L 169.569404 92.070382 
L 171.510035 100.553253 
L 173.450667 99.139441 
L 175.391299 86.415135 
L 177.331931 100.553253 
L 179.272562 113.277559 
L 181.213194 126.001865 
L 183.153826 121.76043 
L 185.094457 126.001865 
L 187.035089 124.588053 
L 188.975721 127.415677 
L 190.916352 137.312359 
L 192.856984 133.070924 
L 194.797616 133.070924 
L 196.738248 147.209042 
L 198.678879 145.79523 
L 200.619511 144.381418 
L 202.560143 145.79523 
L 204.500774 147.209042 
L 206.441406 148.622853 
L 208.382038 151.450477 
L 210.322669 150.036665 
L 212.263301 151.450477 
L 214.203933 150.036665 
L 216.144564 151.450477 
L 218.085196 150.036665 
L 220.025828 151.450477 
L 221.96646 151.450477 
L 223.907091 151.450477 
L 225.847723 151.450477 
L 227.788355 151.450477 
L 229.728986 151.450477 
L 231.669618 151.450477 
L 233.61025 151.450477 
L 235.550881 151.450477 
L 237.491513 151.450477 
" style="fill:none;stroke:#0000ff;stroke-dasharray:1.5,2.475;stroke-dashoffset:0;stroke-width:1.5;"/>
   </g>
   <g id="line2d_15">
    <path clip-path="url(#p7350f30e57)" d="M 43.44775 10.069299 
L 45.368975 41.173158 
L 47.309607 70.863205 
L 49.250238 70.863205 
L 51.19087 77.932264 
L 53.131502 87.828947 
L 55.072134 85.001323 
L 57.012765 80.759888 
L 58.953397 86.415135 
L 60.894029 92.070382 
L 62.83466 85.001323 
L 64.775292 103.380876 
L 66.715924 86.415135 
L 68.656555 80.759888 
L 70.597187 92.070382 
L 72.537819 96.311818 
L 74.478451 86.415135 
L 76.419082 76.518453 
L 78.359714 83.587511 
L 80.300346 77.932264 
L 82.240977 75.104641 
L 84.181609 93.484194 
L 86.122241 85.001323 
L 88.062872 82.1737 
L 90.003504 76.518453 
L 91.944136 89.242759 
L 93.884768 85.001323 
L 95.825399 89.242759 
L 97.766031 101.967065 
L 99.706663 97.725629 
L 101.647294 92.070382 
L 103.587926 96.311818 
L 105.528558 87.828947 
L 107.469189 86.415135 
L 109.409821 96.311818 
L 111.350453 89.242759 
L 113.291084 92.070382 
L 115.231716 79.346076 
L 117.172348 87.828947 
L 119.11298 106.2085 
L 121.053611 92.070382 
L 122.994243 92.070382 
L 124.934875 100.553253 
L 126.875506 92.070382 
L 128.816138 96.311818 
L 130.75677 86.415135 
L 132.697401 90.65657 
L 134.638033 89.242759 
L 136.578665 83.587511 
L 138.519297 90.65657 
L 140.459928 89.242759 
L 142.40056 96.311818 
L 144.341192 99.139441 
L 146.281823 87.828947 
L 148.222455 83.587511 
L 150.163087 93.484194 
L 152.103718 92.070382 
L 154.04435 92.070382 
L 155.984982 109.036124 
L 157.925614 90.65657 
L 159.866245 89.242759 
L 161.806877 99.139441 
L 163.747509 72.277017 
L 165.68814 87.828947 
L 167.628772 92.070382 
L 169.569404 90.65657 
L 171.510035 104.794688 
L 173.450667 107.622312 
L 175.391299 110.449935 
L 177.331931 134.484736 
L 179.272562 131.657112 
L 181.213194 134.484736 
L 183.153826 131.657112 
L 185.094457 138.726171 
L 187.035089 140.139983 
L 188.975721 134.484736 
L 190.916352 135.898547 
L 192.856984 144.381418 
L 194.797616 147.209042 
L 196.738248 142.967606 
L 198.678879 141.553794 
L 200.619511 147.209042 
L 202.560143 150.036665 
L 204.500774 145.79523 
L 206.441406 145.79523 
L 208.382038 148.622853 
L 210.322669 147.209042 
L 212.263301 147.209042 
L 214.203933 151.450477 
L 216.144564 148.622853 
L 218.085196 150.036665 
L 220.025828 147.209042 
L 221.96646 150.036665 
L 223.907091 150.036665 
L 225.847723 148.622853 
L 227.788355 151.450477 
L 229.728986 150.036665 
L 231.669618 150.036665 
L 233.61025 148.622853 
L 235.550881 150.036665 
L 237.491513 151.450477 
" style="fill:none;stroke:#ff0000;stroke-dasharray:5.55,2.4;stroke-dashoffset:0;stroke-width:1.5;"/>
   </g>
   <g id="patch_3">
    <path d="M 33.745561 158.519536 
L 33.745561 3.00024 
" style="fill:none;stroke:#000000;stroke-linecap:square;stroke-linejoin:miter;stroke-width:0.8;"/>
   </g>
   <g id="patch_4">
    <path d="M 247.193701 158.519536 
L 247.193701 3.00024 
" style="fill:none;stroke:#000000;stroke-linecap:square;stroke-linejoin:miter;stroke-width:0.8;"/>
   </g>
   <g id="patch_5">
    <path d="M 33.745561 158.519536 
L 247.193701 158.519536 
" style="fill:none;stroke:#000000;stroke-linecap:square;stroke-linejoin:miter;stroke-width:0.8;"/>
   </g>
   <g id="patch_6">
    <path d="M 33.745561 3.00024 
L 247.193701 3.00024 
" style="fill:none;stroke:#000000;stroke-linecap:square;stroke-linejoin:miter;stroke-width:0.8;"/>
   </g>
   <g id="text_15">
    <!-- $p \leq 10^{-8}$ -->
    <g transform="translate(179.272562 66.62177)scale(0.09 -0.09)">
     <defs>
      <path d="M 4.296875 -12.328125 
C 3.59375 -15.3125 3.203125 -16.109375 -0.90625 -16.109375 
C -2.09375 -16.109375 -3.09375 -16.109375 -3.09375 -18 
C -3.09375 -18.203125 -3 -19 -1.90625 -19 
C -0.59375 -19 0.796875 -19 2.09375 -19 
L 6.40625 -19 
C 8.5 -19 13.59375 -19 15.703125 -19 
C 16.296875 -19 17.5 -19 17.5 -17.203125 
C 17.5 -16.109375 16.796875 -16.109375 15.09375 -16.109375 
C 10.5 -16.109375 10.203125 -15.421875 10.203125 -14.640625 
C 10.203125 -13.453125 14.703125 3.421875 15.296875 5.6875 
C 16.40625 2.890625 19.09375 -1 24.296875 -1 
C 35.59375 -1 47.796875 13.671875 47.796875 28.34375 
C 47.796875 37.515625 42.59375 44 35.09375 44 
C 28.703125 44 23.296875 37.8125 22.203125 36.421875 
C 21.40625 41.40625 17.5 44 13.5 44 
C 10.59375 44 8.296875 42.609375 6.40625 38.8125 
C 4.59375 35.21875 3.203125 29.140625 3.203125 28.734375 
C 3.203125 28.34375 3.59375 27.84375 4.296875 27.84375 
C 5.09375 27.84375 5.203125 27.9375 5.796875 30.234375 
C 7.296875 36.125 9.203125 42.015625 13.203125 42.015625 
C 15.5 42.015625 16.296875 40.421875 16.296875 37.453125 
C 16.296875 35.078125 16 34.078125 15.59375 32.296875 
z
M 21.59375 31.140625 
C 22.296875 33.921875 25.09375 36.828125 26.703125 38.21875 
C 27.796875 39.21875 31.09375 42.015625 34.90625 42.015625 
C 39.296875 42.015625 41.296875 37.625 41.296875 32.4375 
C 41.296875 27.640625 38.5 16.359375 36 11.171875 
C 33.5 5.78125 28.90625 1 24.296875 1 
C 17.5 1 16.40625 9.578125 16.40625 9.984375 
C 16.40625 10.28125 16.59375 11.078125 16.703125 11.578125 
z
" id="CMMI12-112"/>
      <path d="M 67.5 59.5625 
C 68.59375 60.0625 69.40625 60.5625 69.40625 61.75 
C 69.40625 62.859375 68.59375 63.75 67.40625 63.75 
C 66.90625 63.75 66 63.359375 65.59375 63.15625 
L 10.296875 37.0625 
C 8.59375 36.25 8.296875 35.5625 8.296875 34.75 
C 8.296875 33.859375 8.90625 33.15625 10.296875 32.5625 
L 65.59375 6.5625 
C 66.90625 5.859375 67.09375 5.859375 67.40625 5.859375 
C 68.5 5.859375 69.40625 6.75 69.40625 7.859375 
C 69.40625 8.75 69 9.359375 67.296875 10.15625 
L 15 34.75 
z
M 65.90625 -13.921875 
C 67.59375 -13.921875 69.40625 -13.921875 69.40625 -11.921875 
C 69.40625 -9.921875 67.296875 -9.921875 65.796875 -9.921875 
L 11.90625 -9.921875 
C 10.40625 -9.921875 8.296875 -9.921875 8.296875 -11.921875 
C 8.296875 -13.921875 10.09375 -13.921875 11.796875 -13.921875 
z
" id="CMSY10-20"/>
      <path d="M 65.90625 23 
C 67.59375 23 69.40625 23 69.40625 25 
C 69.40625 27 67.59375 27 65.90625 27 
L 11.796875 27 
C 10.09375 27 8.296875 27 8.296875 25 
C 8.296875 23 10.09375 23 11.796875 23 
z
" id="CMSY10-0"/>
     </defs>
     <use transform="scale(0.996264)" xlink:href="#CMMI12-112"/>
     <use transform="translate(76.633523 0)scale(0.996264)" xlink:href="#CMSY10-20"/>
     <use transform="translate(181.794999 0)scale(0.996264)" xlink:href="#CMR17-49"/>
     <use transform="translate(227.485476 0)scale(0.996264)" xlink:href="#CMR17-48"/>
     <use transform="translate(273.175953 36.153639)scale(0.697382)" xlink:href="#CMSY10-0"/>
     <use transform="translate(327.416947 36.153639)scale(0.697382)" xlink:href="#CMR17-56"/>
    </g>
   </g>
   <g id="legend_1">
    <g id="patch_7">
     <path d="M 80.372036 50.570928 
L 240.893701 50.570928 
Q 242.693701 50.570928 242.693701 48.770928 
L 242.693701 9.30024 
Q 242.693701 7.50024 240.893701 7.50024 
L 80.372036 7.50024 
Q 78.572036 7.50024 78.572036 9.30024 
L 78.572036 48.770928 
Q 78.572036 50.570928 80.372036 50.570928 
z
" style="fill:#ffffff;opacity:0.8;stroke:#cccccc;stroke-linejoin:miter;"/>
    </g>
    <g id="line2d_16">
     <path d="M 82.172036 14.788834 
L 100.172036 14.788834 
" style="fill:none;stroke:#000000;stroke-linecap:square;stroke-width:1.5;"/>
    </g>
    <g id="line2d_17"/>
    <g id="text_16">
     <!-- Target acceptance rate -->
     <g transform="translate(107.372036 17.938834)scale(0.09 -0.09)">
      <defs>
       <path d="M 36.203125 62 
L 44.5 62 
C 45.703125 62 46.90625 62 48.09375 62 
L 60.59375 62 
L 60.59375 68.375 
L 3.40625 68.375 
L 3.40625 62 
L 15.90625 62 
C 17.09375 62 18.296875 62 19.5 62 
L 27.796875 62 
L 27.796875 -0.5 
L 36.203125 -0.5 
z
" id="CMSS17-84"/>
       <path d="M 44.5 43.875 
C 38.796875 43.875 33.90625 42.78125 29.90625 40.890625 
C 26.59375 43.390625 23.203125 43.875 20.90625 43.875 
C 12.203125 43.875 5.59375 36.703125 5.59375 28.34375 
C 5.59375 22.9375 8.59375 18.859375 8.796875 18.671875 
C 7 16.171875 6 13.484375 6 10.5 
C 6 7 7.40625 4.515625 8.5 3.125 
C 3.296875 -0.046875 2.59375 -4.90625 2.59375 -6.796875 
C 2.59375 -14.03125 11.703125 -20 23.40625 -20 
C 35.203125 -20 44.296875 -14.03125 44.296875 -6.6875 
C 44.296875 7 29 7 24.796875 7 
L 16.703125 7 
C 15.203125 7 11.203125 7 11.203125 12.359375 
C 11.203125 14.390625 12.09375 15.6875 12.203125 15.78125 
C 13.703125 14.6875 16.796875 13 20.90625 13 
C 29.203125 13 36.09375 19.96875 36.09375 28.546875 
C 36.09375 33.3125 33.90625 36.796875 33 38 
L 33.296875 38 
C 33.59375 38 37.796875 38 39.296875 38 
C 42.5 38 42.796875 37.953125 45.59375 37.796875 
z
M 20.90625 18.46875 
C 17.5 18.46875 12.703125 20.546875 12.703125 28.484375 
C 12.703125 37.109375 18.203125 38.5 20.796875 38.5 
C 24.203125 38.5 29 36.421875 29 28.484375 
C 29 19.859375 23.5 18.46875 20.90625 18.46875 
z
M 24.703125 -0.15625 
C 27.09375 -0.15625 37.203125 -0.15625 37.203125 -6.90625 
C 37.203125 -11.15625 31 -14.515625 23.5 -14.515625 
C 15.90625 -14.515625 9.703125 -11.25 9.703125 -6.796875 
C 9.703125 -6.296875 9.703125 -0.15625 16.59375 -0.15625 
z
" id="CMSS17-103"/>
      </defs>
      <use transform="scale(0.996264)" xlink:href="#CMSS17-84"/>
      <use transform="translate(56.012199 0)scale(0.996264)" xlink:href="#CMSS17-97"/>
      <use transform="translate(98.331665 0)scale(0.996264)" xlink:href="#CMSS17-114"/>
      <use transform="translate(130.241438 0)scale(0.996264)" xlink:href="#CMSS17-103"/>
      <use transform="translate(177.085061 0)scale(0.996264)" xlink:href="#CMSS17-101"/>
      <use transform="translate(218.723883 0)scale(0.996264)" xlink:href="#CMSS17-116"/>
      <use transform="translate(283.784563 0)scale(0.996264)" xlink:href="#CMSS17-97"/>
      <use transform="translate(328.706483 0)scale(0.996264)" xlink:href="#CMSS17-99"/>
      <use transform="translate(370.345305 0)scale(0.996264)" xlink:href="#CMSS17-99"/>
      <use transform="translate(411.984128 0)scale(0.996264)" xlink:href="#CMSS17-101"/>
      <use transform="translate(453.62295 0)scale(0.996264)" xlink:href="#CMSS17-112"/>
      <use transform="translate(501.827893 0)scale(0.996264)" xlink:href="#CMSS17-116"/>
      <use transform="translate(535.659459 0)scale(0.996264)" xlink:href="#CMSS17-97"/>
      <use transform="translate(580.58138 0)scale(0.996264)" xlink:href="#CMSS17-110"/>
      <use transform="translate(628.786323 0)scale(0.996264)" xlink:href="#CMSS17-99"/>
      <use transform="translate(670.425145 0)scale(0.996264)" xlink:href="#CMSS17-101"/>
      <use transform="translate(743.29308 0)scale(0.996264)" xlink:href="#CMSS17-114"/>
      <use transform="translate(775.202853 0)scale(0.996264)" xlink:href="#CMSS17-97"/>
      <use transform="translate(820.124773 0)scale(0.996264)" xlink:href="#CMSS17-116"/>
      <use transform="translate(853.95634 0)scale(0.996264)" xlink:href="#CMSS17-101"/>
     </g>
    </g>
    <g id="line2d_18">
     <path d="M 82.172036 27.999146 
L 100.172036 27.999146 
" style="fill:none;stroke:#0000ff;stroke-dasharray:1.5,2.475;stroke-dashoffset:0;stroke-width:1.5;"/>
    </g>
    <g id="line2d_19"/>
    <g id="text_17">
     <!-- Modified Lam ($\mathrm{MSE}=0.0522$) -->
     <g transform="translate(107.372036 31.149146)scale(0.09 -0.09)">
      <defs>
       <path d="M 49.90625 37.046875 
L 45.09375 23.015625 
C 44.296875 20.421875 41.59375 12.359375 41 9.171875 
L 40.90625 9.171875 
C 40.59375 11.171875 40 13.265625 38.40625 18.34375 
C 37.5 21.328125 36.5 24.40625 35.5 27.203125 
L 20.703125 69 
L 9 69 
L 9 0 
L 16.796875 0 
L 16.796875 60.9375 
L 16.90625 60.9375 
C 16.90625 60.84375 17.796875 56.453125 23.90625 39.046875 
L 37.09375 1.5 
L 44.5 1.5 
L 56.40625 34.859375 
C 57.203125 37.15625 59.703125 44.421875 60.796875 47.90625 
C 61.796875 50.890625 64.296875 58.25 64.90625 61.140625 
L 65 61.140625 
L 65 0 
L 72.90625 0 
L 72.90625 69 
L 61.296875 69 
z
" id="CMSS17-77"/>
       <path d="M 40.796875 69 
L 33.40625 69 
L 33.40625 38.09375 
C 30.296875 40.671875 25.203125 43.0625 19.59375 43.0625 
C 10.5 43.0625 3.296875 33.296875 3.296875 21.046875 
C 3.296875 8.78125 10.40625 -1 19.296875 -1 
C 26.203125 -1 30.796875 2.6875 33.203125 4.78125 
L 33.203125 -0.203125 
L 40.796875 -0.203125 
z
M 33.203125 13.0625 
C 33.203125 11.671875 33.203125 10.203125 30.09375 7.53125 
C 28.09375 5.859375 25.703125 5.078125 23.40625 5.078125 
C 18 5.078125 10.90625 9 10.90625 20.9375 
C 10.90625 33.34375 18.90625 37 24.40625 37 
C 28.09375 37 31.09375 35.21875 33.203125 32.265625 
z
" id="CMSS17-100"/>
       <path d="M 15.296875 65.359375 
L 6.90625 65.359375 
L 6.90625 57 
L 15.296875 57 
z
M 14.796875 42.796875 
L 7.40625 42.796875 
L 7.40625 0 
L 14.796875 0 
z
" id="CMSS17-105"/>
       <path d="M 43 69 
L 35 69 
L 35 61.03125 
L 43 61.03125 
z
M 42.703125 42.765625 
L 35.296875 42.765625 
L 35.296875 0 
L 42.703125 0 
z
M 16.796875 37 
L 27.703125 37 
L 27.703125 42.765625 
L 16.59375 42.765625 
L 16.59375 55.90625 
C 16.59375 61.234375 19 63.9375 22.203125 63.9375 
C 24.09375 63.9375 26 63.375 27.703125 62.375 
L 27.703125 68.90625 
C 26.90625 69.1875 24.59375 70 22.203125 70 
C 14.703125 70 9.40625 62.390625 9.40625 52.6875 
L 9.40625 42.765625 
L 2.5 42.765625 
L 2.5 37 
L 9.40625 37 
L 9.40625 0 
L 16.796875 0 
z
" id="CMSS17-12"/>
       <path d="M 26.09375 6.46875 
C 24.90625 6.46875 23.703125 6.46875 22.5 6.46875 
L 17.203125 6.46875 
L 17.203125 69 
L 8.796875 69 
L 8.796875 0 
L 46.90625 0 
L 46.90625 6.46875 
z
" id="CMSS17-76"/>
       <path d="M 67 29.328125 
C 67 36.0625 65.296875 44 54.09375 44 
C 46.59375 44 42.09375 39.3125 40.09375 36.421875 
C 38.296875 41.71875 34.09375 44 28.09375 44 
C 21.296875 44 17 40.125 14.703125 37.328125 
L 14.703125 43.09375 
L 7.40625 43.09375 
L 7.40625 0 
L 15 0 
L 15 24.359375 
C 15 30.296875 17.203125 37.9375 24.296875 37.9375 
C 33.40625 37.9375 33.40625 31.5 33.40625 28.578125 
L 33.40625 0 
L 41 0 
L 41 24.359375 
C 41 30.296875 43.203125 37.9375 50.296875 37.9375 
C 59.40625 37.9375 59.40625 31.5 59.40625 28.578125 
L 59.40625 0 
L 67 0 
z
" id="CMSS17-109"/>
       <path d="M 25.203125 74.5 
C 19.796875 69.015625 7.40625 56.265625 7.40625 24.8125 
C 7.40625 -6.765625 19.796875 -19.421875 25.203125 -25 
L 31.296875 -25 
C 19 -12.25 15 5.578125 15 24.703125 
C 15 43.71875 18.796875 61.65625 31.296875 74.5 
z
" id="CMSS17-40"/>
       <path d="M 20.90625 66 
C 20.296875 67.5 20.203125 67.5 18.09375 67.5 
L 5.296875 67.5 
L 5.296875 65 
C 12.203125 65 13.296875 65 13.296875 60.546875 
L 13.296875 9.53125 
C 13.296875 7.046875 13.296875 2.390625 5.296875 2.390625 
L 5.296875 -0.203125 
C 7.59375 0 11.796875 0 14.296875 0 
C 16.796875 0 21 0 23.296875 -0.203125 
L 23.296875 2.390625 
C 15.296875 2.390625 15.296875 7.046875 15.296875 9.53125 
L 15.296875 64.609375 
L 15.40625 64.609375 
L 38.90625 1.390625 
C 39.296875 0.390625 39.5 -0.203125 40.296875 -0.203125 
C 41.09375 -0.203125 41.296875 0.390625 41.703125 1.390625 
L 65.40625 65.09375 
L 65.5 65.09375 
L 65.5 6.84375 
C 65.5 2.390625 64.40625 2.390625 57.5 2.390625 
L 57.5 -0.203125 
C 60.203125 0 65.59375 0 68.5 0 
C 71.40625 0 76.90625 0 79.59375 -0.203125 
L 79.59375 2.390625 
C 72.703125 2.390625 71.59375 2.390625 71.59375 6.84375 
L 71.59375 60.546875 
C 71.59375 65 72.703125 65 79.59375 65 
L 79.59375 67.5 
L 66.90625 67.5 
C 64.796875 67.5 64.703125 67.40625 64.09375 65.90625 
L 42.5 7.84375 
z
" id="CMR17-77"/>
       <path d="M 43.796875 67.03125 
C 43.796875 68.8125 43.703125 68.921875 43.09375 68.921875 
C 42.5 68.921875 42.296875 68.515625 41.90625 67.625 
L 38.90625 61.046875 
C 35.09375 66.515625 29.296875 69 23 69 
C 12.796875 69 4.59375 60.953125 4.59375 50.828125 
C 4.59375 47.75 5.296875 43.375 8.703125 39.21875 
C 12.40625 34.65625 15.90625 33.859375 23.90625 31.765625 
C 26.90625 30.96875 31.90625 29.671875 32.90625 29.28125 
C 38.59375 26.90625 41.59375 20.953125 41.59375 15.390625 
C 41.59375 8.234375 36.5 0.59375 27.796875 0.59375 
C 17.09375 0.59375 7.09375 6.546875 6.40625 20.484375 
C 6.296875 22.078125 6.203125 22.171875 5.5 22.171875 
C 4.703125 22.171875 4.59375 22.078125 4.59375 20.078125 
L 4.59375 -0.015625 
C 4.59375 -1.796875 4.703125 -1.90625 5.296875 -1.90625 
C 6 -1.90625 6.203125 -1.40625 7.59375 1.6875 
C 7.703125 1.984375 7.703125 2.1875 9.59375 5.953125 
C 14.59375 -0.609375 23 -2 27.796875 -2 
C 38.703125 -2 46.40625 7.046875 46.40625 17.5625 
C 46.40625 22.71875 44.5 26.6875 43.40625 28.484375 
C 39.203125 34.84375 34.703125 36.03125 29.90625 37.21875 
C 29.203125 37.53125 29 37.53125 23.40625 38.90625 
C 18 40.296875 15.703125 41 13.203125 43.6875 
C 10.40625 46.75 9.40625 49.9375 9.40625 53.109375 
C 9.40625 59.5625 14.59375 66.609375 23.09375 66.609375 
C 33.703125 66.609375 40.296875 59.15625 41.796875 46.765625 
C 42.09375 44.96875 42.203125 44.875 42.90625 44.875 
C 43.796875 44.875 43.796875 45.171875 43.796875 46.859375 
z
" id="CMR17-83"/>
       <path d="M 60.703125 25.234375 
L 58.90625 25.234375 
C 56.703125 10.5625 55.40625 2.59375 37.796875 2.59375 
L 23.90625 2.59375 
C 19.90625 2.59375 19.703125 3.078125 19.703125 6.46875 
L 19.703125 34 
L 29.09375 34 
C 38.5 34 39.40625 30.625 39.40625 22.34375 
L 41.203125 22.34375 
L 41.203125 48.140625 
L 39.40625 48.140625 
C 39.40625 39.953125 38.5 36.59375 29.09375 36.59375 
L 19.703125 36.59375 
L 19.703125 61.140625 
C 19.703125 64.5 19.90625 65 23.90625 65 
L 37.59375 65 
C 53.09375 65 54.90625 58.890625 56.296875 45.765625 
L 58.09375 45.765625 
L 55.703125 67.578125 
L 5.09375 67.578125 
L 5.09375 65 
C 12 65 13.09375 65 13.09375 60.53125 
L 13.09375 7.046875 
C 13.09375 2.59375 12 2.59375 5.09375 2.59375 
L 5.09375 0 
L 57.09375 0 
z
" id="CMR17-69"/>
       <path d="M 64.296875 31.515625 
C 65.796875 31.515625 67.296875 31.515625 67.296875 33.203125 
C 67.296875 35 65.59375 35 63.90625 35 
L 8 35 
C 6.296875 35 4.59375 35 4.59375 33.203125 
C 4.59375 31.515625 6.09375 31.515625 7.59375 31.515625 
z
M 63.90625 14 
C 65.59375 14 67.296875 14 67.296875 15.796875 
C 67.296875 17.484375 65.796875 17.484375 64.296875 17.484375 
L 7.59375 17.484375 
C 6.09375 17.484375 4.59375 17.484375 4.59375 15.796875 
C 4.59375 14 6.296875 14 8 14 
z
" id="CMR17-61"/>
       <path d="M 11.40625 57.6875 
C 12.40625 57.28125 16.5 56 20.703125 56 
C 30 56 35.09375 61.109375 38 64.0625 
C 38 64.953125 38 65.5 37.40625 65.5 
C 37.296875 65.5 37.09375 65.5 36.296875 65.046875 
C 32.796875 63.40625 28.703125 62.078125 23.703125 62.078125 
C 20.703125 62.078125 16.203125 62.484375 11.296875 64.671875 
C 10.203125 65.171875 10 65.171875 9.90625 65.171875 
C 9.40625 65.171875 9.296875 65.0625 9.296875 63.078125 
L 9.296875 34.421875 
C 9.296875 32.640625 9.296875 32.140625 10.296875 32.140625 
C 10.796875 32.140625 11 32.34375 11.5 33.03125 
C 14.703125 37.515625 19.09375 39.40625 24.09375 39.40625 
C 27.59375 39.40625 35.09375 37.21875 35.09375 20.140625 
C 35.09375 16.953125 35.09375 11.171875 32.09375 6.578125 
C 29.59375 2.484375 25.703125 0.390625 21.40625 0.390625 
C 14.796875 0.390625 8.09375 5 6.296875 12.71875 
C 6.703125 12.609375 7.5 12.421875 7.90625 12.421875 
C 9.203125 12.421875 11.703125 13.125 11.703125 16.21875 
C 11.703125 18.90625 9.796875 20 7.90625 20 
C 5.59375 20 4.09375 18.59375 4.09375 15.796875 
C 4.09375 7.09375 11 -2 21.59375 -2 
C 31.90625 -2 41.703125 6.875 41.703125 19.75 
C 41.703125 31.71875 33.90625 41 24.203125 41 
C 19.09375 41 14.796875 39.109375 11.40625 35.53125 
z
" id="CMR17-53"/>
       <path d="M 11.296875 -25 
C 16.703125 -19.515625 29.09375 -6.765625 29.09375 24.703125 
C 29.09375 56.265625 16.703125 68.921875 11.296875 74.5 
L 5.203125 74.5 
C 17.5 61.75 21.5 43.921875 21.5 24.8125 
C 21.5 5.78125 17.703125 -12.15625 5.203125 -25 
z
" id="CMSS17-41"/>
      </defs>
      <use transform="scale(0.996264)" xlink:href="#CMSS17-77"/>
      <use transform="translate(81.67603 0)scale(0.996264)" xlink:href="#CMSS17-111"/>
      <use transform="translate(131.122092 0)scale(0.996264)" xlink:href="#CMSS17-100"/>
      <use transform="translate(179.327035 0)scale(0.996264)" xlink:href="#CMSS17-105"/>
      <use transform="translate(201.507758 0)scale(0.996264)" xlink:href="#CMSS17-12"/>
      <use transform="translate(251.634496 0)scale(0.996264)" xlink:href="#CMSS17-101"/>
      <use transform="translate(293.273318 0)scale(0.996264)" xlink:href="#CMSS17-100"/>
      <use transform="translate(372.707374 0)scale(0.996264)" xlink:href="#CMSS17-76"/>
      <use transform="translate(423.394479 0)scale(0.996264)" xlink:href="#CMSS17-97"/>
      <use transform="translate(468.3164 0)scale(0.996264)" xlink:href="#CMSS17-109"/>
      <use transform="translate(573.774767 0)scale(0.996264)" xlink:href="#CMSS17-40"/>
      <use transform="translate(610.208681 0)scale(0.996264)" xlink:href="#CMR17-77"/>
      <use transform="translate(694.895622 0)scale(0.996264)" xlink:href="#CMR17-83"/>
      <use transform="translate(745.790991 0)scale(0.996264)" xlink:href="#CMR17-69"/>
      <use transform="translate(836.051301 0)scale(0.996264)" xlink:href="#CMR17-61"/>
      <use transform="translate(935.440098 0)scale(0.996264)" xlink:href="#CMR17-48"/>
      <use transform="translate(981.130575 0)scale(0.996264)" xlink:href="#CMMI12-58"/>
      <use transform="translate(1008.227752 0)scale(0.996264)" xlink:href="#CMR17-48"/>
      <use transform="translate(1053.918229 0)scale(0.996264)" xlink:href="#CMR17-53"/>
      <use transform="translate(1099.608706 0)scale(0.996264)" xlink:href="#CMR17-50"/>
      <use transform="translate(1145.299183 0)scale(0.996264)" xlink:href="#CMR17-50"/>
      <use transform="translate(1190.98966 0)scale(0.996264)" xlink:href="#CMSS17-41"/>
     </g>
    </g>
    <g id="line2d_20">
     <path d="M 82.172036 41.579334 
L 100.172036 41.579334 
" style="fill:none;stroke:#ff0000;stroke-dasharray:5.55,2.4;stroke-dashoffset:0;stroke-width:1.5;"/>
    </g>
    <g id="line2d_21"/>
    <g id="text_18">
     <!-- Self-Tuning Lam ($\mathrm{MSE}=0.0019$) -->
     <g transform="translate(107.372036 44.729334)scale(0.09 -0.09)">
      <defs>
       <path d="M 43.703125 65.140625 
C 39.296875 67.71875 34.5 70 26.40625 70 
C 13.5 70 5.203125 60.609375 5.203125 51.03125 
C 5.203125 47.265625 6.296875 43.015625 10.203125 38.671875 
C 14.09375 34.3125 18.5 33.140625 24.09375 31.765625 
C 26.40625 31.15625 30.296875 30.0625 31 29.78125 
C 36.59375 27.609375 39.296875 22.5625 39.296875 17.8125 
C 39.296875 11.59375 34.40625 4.96875 25.703125 4.96875 
C 22.703125 4.96875 13.90625 4.96875 5.59375 12.796875 
L 4.203125 4.96875 
C 12.40625 -1 21.296875 -2 25.796875 -2 
C 38.09375 -2 46.90625 7.625 46.90625 18.53125 
C 46.90625 22.5 45.703125 27.546875 41.5 32.203125 
C 37.40625 36.671875 33.796875 37.65625 25.59375 39.828125 
C 20.90625 41.03125 17.90625 41.828125 15.40625 44.890625 
C 13.703125 47.078125 12.796875 49.15625 12.796875 51.828125 
C 12.796875 57.390625 17.59375 63.4375 26.40625 63.4375 
C 30.796875 63.4375 36.5 62.53125 42.296875 57.1875 
z
" id="CMSS17-83"/>
       <path d="M 14.796875 69 
L 7.40625 69 
L 7.40625 0 
L 14.796875 0 
z
" id="CMSS17-108"/>
       <path d="M 26 19 
L 26 24.765625 
L 1 24.765625 
L 1 19 
z
" id="CMSS17-45"/>
       <path d="M 35.203125 29.125 
C 35.203125 7.25 26.09375 0.484375 18.59375 0.484375 
C 16.296875 0.484375 10.703125 0.484375 8.40625 4.59375 
C 11 4.1875 12.90625 5.578125 12.90625 8.09375 
C 12.90625 10.8125 10.703125 11.703125 9.296875 11.703125 
C 8.40625 11.703125 5.703125 11.296875 5.703125 7.90625 
C 5.703125 1.109375 11.59375 -2 18.796875 -2 
C 30.296875 -2 42 10.53125 42 32.390625 
C 42 59.640625 30.796875 65.296875 23.203125 65.296875 
C 13.296875 65.296875 3.796875 56.6875 3.796875 43.40625 
C 3.796875 31.109375 11.90625 22 22.09375 22 
C 30.5 22 34.203125 29.734375 35.203125 33 
z
M 22.296875 23.59375 
C 19.59375 23.59375 15.796875 24.09375 12.703125 30.03125 
C 10.59375 33.890625 10.59375 38.453125 10.59375 43.296875 
C 10.59375 49.15625 10.59375 53.203125 13.40625 57.5625 
C 14.796875 59.640625 17.40625 63 23.203125 63 
C 35 63 35 45.078125 35 41.125 
C 35 34.09375 31.796875 23.59375 22.296875 23.59375 
z
" id="CMR17-57"/>
      </defs>
      <use transform="scale(0.996264)" xlink:href="#CMSS17-83"/>
      <use transform="translate(52.048516 0)scale(0.996264)" xlink:href="#CMSS17-101"/>
      <use transform="translate(93.687338 0)scale(0.996264)" xlink:href="#CMSS17-108"/>
      <use transform="translate(115.868061 0)scale(0.996264)" xlink:href="#CMSS17-102"/>
      <use transform="translate(144.49472 0)scale(0.996264)" xlink:href="#CMSS17-45"/>
      <use transform="translate(175.723833 0)scale(0.996264)" xlink:href="#CMSS17-84"/>
      <use transform="translate(231.736031 0)scale(0.996264)" xlink:href="#CMSS17-117"/>
      <use transform="translate(279.940975 0)scale(0.996264)" xlink:href="#CMSS17-110"/>
      <use transform="translate(328.145918 0)scale(0.996264)" xlink:href="#CMSS17-105"/>
      <use transform="translate(350.326641 0)scale(0.996264)" xlink:href="#CMSS17-110"/>
      <use transform="translate(398.531584 0)scale(0.996264)" xlink:href="#CMSS17-103"/>
      <use transform="translate(476.60432 0)scale(0.996264)" xlink:href="#CMSS17-76"/>
      <use transform="translate(527.291425 0)scale(0.996264)" xlink:href="#CMSS17-97"/>
      <use transform="translate(572.213346 0)scale(0.996264)" xlink:href="#CMSS17-109"/>
      <use transform="translate(677.671713 0)scale(0.996264)" xlink:href="#CMSS17-40"/>
      <use transform="translate(714.105627 0)scale(0.996264)" xlink:href="#CMR17-77"/>
      <use transform="translate(798.792568 0)scale(0.996264)" xlink:href="#CMR17-83"/>
      <use transform="translate(849.687938 0)scale(0.996264)" xlink:href="#CMR17-69"/>
      <use transform="translate(939.948247 0)scale(0.996264)" xlink:href="#CMR17-61"/>
      <use transform="translate(1039.337044 0)scale(0.996264)" xlink:href="#CMR17-48"/>
      <use transform="translate(1085.027521 0)scale(0.996264)" xlink:href="#CMMI12-58"/>
      <use transform="translate(1112.124698 0)scale(0.996264)" xlink:href="#CMR17-48"/>
      <use transform="translate(1157.815176 0)scale(0.996264)" xlink:href="#CMR17-48"/>
      <use transform="translate(1203.505653 0)scale(0.996264)" xlink:href="#CMR17-49"/>
      <use transform="translate(1249.19613 0)scale(0.996264)" xlink:href="#CMR17-57"/>
      <use transform="translate(1294.886607 0)scale(0.996264)" xlink:href="#CMSS17-41"/>
     </g>
    </g>
   </g>
  </g>
 </g>
 <defs>
  <clipPath id="p7350f30e57">
   <rect height="155.519296" width="213.44814" x="33.745561" y="3.00024"/>
  </clipPath>
 </defs>
</svg>
